G04 (created by PCBNEW (2012-01-19 BZR 3256)-stable) date 12/6/2012 10:57:39 PM*
G01*
G70*
G90*
%MOIN*%
G04 Gerber Fmt 3.4, Leading zero omitted, Abs format*
%FSLAX34Y34*%
G04 APERTURE LIST*
%ADD10C,0.001000*%
%ADD11C,0.015000*%
%ADD12C,0.008000*%
G04 APERTURE END LIST*
G54D10*
G54D11*
X32000Y-60250D02*
X32250Y-60250D01*
X32250Y-69000D02*
X32000Y-69000D01*
X19750Y-77500D02*
X20250Y-77500D01*
X19750Y-32500D02*
X19750Y-77500D01*
X20250Y-32500D02*
X19750Y-32500D01*
X32250Y-77500D02*
X20250Y-77500D01*
X32250Y-77000D02*
X32250Y-77500D01*
X32250Y-32500D02*
X20250Y-32500D01*
X32250Y-33000D02*
X32250Y-32500D01*
X32250Y-60250D02*
X32250Y-33000D01*
X32250Y-69000D02*
X32250Y-77000D01*
X32000Y-69000D02*
X32000Y-60250D01*
G54D10*
X21075Y-67975D02*
X21325Y-68225D01*
X21325Y-67975D02*
X21075Y-68225D01*
X21975Y-44575D02*
X22225Y-44825D01*
X22225Y-44575D02*
X21975Y-44825D01*
X22075Y-49575D02*
X22325Y-49825D01*
X22325Y-49575D02*
X22075Y-49825D01*
X23475Y-68475D02*
X23725Y-68725D01*
X23725Y-68475D02*
X23475Y-68725D01*
X24275Y-68875D02*
X24525Y-69125D01*
X24525Y-68875D02*
X24275Y-69125D01*
X25475Y-46125D02*
X25725Y-46375D01*
X25725Y-46125D02*
X25475Y-46375D01*
X25975Y-37875D02*
X26225Y-38125D01*
X26225Y-37875D02*
X25975Y-38125D01*
X25975Y-39375D02*
X26225Y-39625D01*
X26225Y-39375D02*
X25975Y-39625D01*
X26575Y-68875D02*
X26825Y-69125D01*
X26825Y-68875D02*
X26575Y-69125D01*
X26625Y-43225D02*
X26875Y-43475D01*
X26875Y-43225D02*
X26625Y-43475D01*
X26775Y-65475D02*
X27025Y-65725D01*
X27025Y-65475D02*
X26775Y-65725D01*
X26875Y-55875D02*
X27125Y-56125D01*
X27125Y-55875D02*
X26875Y-56125D01*
X26975Y-68475D02*
X27225Y-68725D01*
X27225Y-68475D02*
X26975Y-68725D01*
X28675Y-52775D02*
X28925Y-53025D01*
X28925Y-52775D02*
X28675Y-53025D01*
X29725Y-34775D02*
X29975Y-35025D01*
X29975Y-34775D02*
X29725Y-35025D01*
X29875Y-45575D02*
X30125Y-45825D01*
X30125Y-45575D02*
X29875Y-45825D01*
X30475Y-43975D02*
X30725Y-44225D01*
X30725Y-43975D02*
X30475Y-44225D01*
X30575Y-40075D02*
X30825Y-40325D01*
X30825Y-40075D02*
X30575Y-40325D01*
X30575Y-56175D02*
X30825Y-56425D01*
X30825Y-56175D02*
X30575Y-56425D01*
X30775Y-40775D02*
X31025Y-41025D01*
X31025Y-40775D02*
X30775Y-41025D01*
X31375Y-43875D02*
X31625Y-44125D01*
X31625Y-43875D02*
X31375Y-44125D01*
X21410Y-34000D02*
X21406Y-34031D01*
X21397Y-34060D01*
X21383Y-34088D01*
X21363Y-34112D01*
X21339Y-34132D01*
X21312Y-34147D01*
X21282Y-34156D01*
X21251Y-34159D01*
X21221Y-34157D01*
X21191Y-34148D01*
X21163Y-34133D01*
X21139Y-34114D01*
X21118Y-34090D01*
X21103Y-34063D01*
X21094Y-34033D01*
X21091Y-34002D01*
X21093Y-33972D01*
X21102Y-33942D01*
X21116Y-33914D01*
X21135Y-33889D01*
X21159Y-33869D01*
X21186Y-33854D01*
X21216Y-33844D01*
X21247Y-33841D01*
X21277Y-33843D01*
X21307Y-33851D01*
X21335Y-33865D01*
X21360Y-33885D01*
X21380Y-33908D01*
X21396Y-33935D01*
X21406Y-33965D01*
X21409Y-33996D01*
X21410Y-34000D01*
X21410Y-35000D02*
X21406Y-35031D01*
X21397Y-35060D01*
X21383Y-35088D01*
X21363Y-35112D01*
X21339Y-35132D01*
X21312Y-35147D01*
X21282Y-35156D01*
X21251Y-35159D01*
X21221Y-35157D01*
X21191Y-35148D01*
X21163Y-35133D01*
X21139Y-35114D01*
X21118Y-35090D01*
X21103Y-35063D01*
X21094Y-35033D01*
X21091Y-35002D01*
X21093Y-34972D01*
X21102Y-34942D01*
X21116Y-34914D01*
X21135Y-34889D01*
X21159Y-34869D01*
X21186Y-34854D01*
X21216Y-34844D01*
X21247Y-34841D01*
X21277Y-34843D01*
X21307Y-34851D01*
X21335Y-34865D01*
X21360Y-34885D01*
X21380Y-34908D01*
X21396Y-34935D01*
X21406Y-34965D01*
X21409Y-34996D01*
X21410Y-35000D01*
X21410Y-38750D02*
X21406Y-38781D01*
X21397Y-38810D01*
X21383Y-38838D01*
X21363Y-38862D01*
X21339Y-38882D01*
X21312Y-38897D01*
X21282Y-38906D01*
X21251Y-38909D01*
X21221Y-38907D01*
X21191Y-38898D01*
X21163Y-38883D01*
X21139Y-38864D01*
X21118Y-38840D01*
X21103Y-38813D01*
X21094Y-38783D01*
X21091Y-38752D01*
X21093Y-38722D01*
X21102Y-38692D01*
X21116Y-38664D01*
X21135Y-38639D01*
X21159Y-38619D01*
X21186Y-38604D01*
X21216Y-38594D01*
X21247Y-38591D01*
X21277Y-38593D01*
X21307Y-38601D01*
X21335Y-38615D01*
X21360Y-38635D01*
X21380Y-38658D01*
X21396Y-38685D01*
X21406Y-38715D01*
X21409Y-38746D01*
X21410Y-38750D01*
X21410Y-39750D02*
X21406Y-39781D01*
X21397Y-39810D01*
X21383Y-39838D01*
X21363Y-39862D01*
X21339Y-39882D01*
X21312Y-39897D01*
X21282Y-39906D01*
X21251Y-39909D01*
X21221Y-39907D01*
X21191Y-39898D01*
X21163Y-39883D01*
X21139Y-39864D01*
X21118Y-39840D01*
X21103Y-39813D01*
X21094Y-39783D01*
X21091Y-39752D01*
X21093Y-39722D01*
X21102Y-39692D01*
X21116Y-39664D01*
X21135Y-39639D01*
X21159Y-39619D01*
X21186Y-39604D01*
X21216Y-39594D01*
X21247Y-39591D01*
X21277Y-39593D01*
X21307Y-39601D01*
X21335Y-39615D01*
X21360Y-39635D01*
X21380Y-39658D01*
X21396Y-39685D01*
X21406Y-39715D01*
X21409Y-39746D01*
X21410Y-39750D01*
X21410Y-61750D02*
X21406Y-61781D01*
X21397Y-61810D01*
X21383Y-61838D01*
X21363Y-61862D01*
X21339Y-61882D01*
X21312Y-61897D01*
X21282Y-61906D01*
X21251Y-61909D01*
X21221Y-61907D01*
X21191Y-61898D01*
X21163Y-61883D01*
X21139Y-61864D01*
X21118Y-61840D01*
X21103Y-61813D01*
X21094Y-61783D01*
X21091Y-61752D01*
X21093Y-61722D01*
X21102Y-61692D01*
X21116Y-61664D01*
X21135Y-61639D01*
X21159Y-61619D01*
X21186Y-61604D01*
X21216Y-61594D01*
X21247Y-61591D01*
X21277Y-61593D01*
X21307Y-61601D01*
X21335Y-61615D01*
X21360Y-61635D01*
X21380Y-61658D01*
X21396Y-61685D01*
X21406Y-61715D01*
X21409Y-61746D01*
X21410Y-61750D01*
X21410Y-65250D02*
X21406Y-65281D01*
X21397Y-65310D01*
X21383Y-65338D01*
X21363Y-65362D01*
X21339Y-65382D01*
X21312Y-65397D01*
X21282Y-65406D01*
X21251Y-65409D01*
X21221Y-65407D01*
X21191Y-65398D01*
X21163Y-65383D01*
X21139Y-65364D01*
X21118Y-65340D01*
X21103Y-65313D01*
X21094Y-65283D01*
X21091Y-65252D01*
X21093Y-65222D01*
X21102Y-65192D01*
X21116Y-65164D01*
X21135Y-65139D01*
X21159Y-65119D01*
X21186Y-65104D01*
X21216Y-65094D01*
X21247Y-65091D01*
X21277Y-65093D01*
X21307Y-65101D01*
X21335Y-65115D01*
X21360Y-65135D01*
X21380Y-65158D01*
X21396Y-65185D01*
X21406Y-65215D01*
X21409Y-65246D01*
X21410Y-65250D01*
X21410Y-66500D02*
X21406Y-66531D01*
X21397Y-66560D01*
X21383Y-66588D01*
X21363Y-66612D01*
X21339Y-66632D01*
X21312Y-66647D01*
X21282Y-66656D01*
X21251Y-66659D01*
X21221Y-66657D01*
X21191Y-66648D01*
X21163Y-66633D01*
X21139Y-66614D01*
X21118Y-66590D01*
X21103Y-66563D01*
X21094Y-66533D01*
X21091Y-66502D01*
X21093Y-66472D01*
X21102Y-66442D01*
X21116Y-66414D01*
X21135Y-66389D01*
X21159Y-66369D01*
X21186Y-66354D01*
X21216Y-66344D01*
X21247Y-66341D01*
X21277Y-66343D01*
X21307Y-66351D01*
X21335Y-66365D01*
X21360Y-66385D01*
X21380Y-66408D01*
X21396Y-66435D01*
X21406Y-66465D01*
X21409Y-66496D01*
X21410Y-66500D01*
X21510Y-43500D02*
X21506Y-43531D01*
X21497Y-43560D01*
X21483Y-43588D01*
X21463Y-43612D01*
X21439Y-43632D01*
X21412Y-43647D01*
X21382Y-43656D01*
X21351Y-43659D01*
X21321Y-43657D01*
X21291Y-43648D01*
X21263Y-43633D01*
X21239Y-43614D01*
X21218Y-43590D01*
X21203Y-43563D01*
X21194Y-43533D01*
X21191Y-43502D01*
X21193Y-43472D01*
X21202Y-43442D01*
X21216Y-43414D01*
X21235Y-43389D01*
X21259Y-43369D01*
X21286Y-43354D01*
X21316Y-43344D01*
X21347Y-43341D01*
X21377Y-43343D01*
X21407Y-43351D01*
X21435Y-43365D01*
X21460Y-43385D01*
X21480Y-43408D01*
X21496Y-43435D01*
X21506Y-43465D01*
X21509Y-43496D01*
X21510Y-43500D01*
X21510Y-44500D02*
X21506Y-44531D01*
X21497Y-44560D01*
X21483Y-44588D01*
X21463Y-44612D01*
X21439Y-44632D01*
X21412Y-44647D01*
X21382Y-44656D01*
X21351Y-44659D01*
X21321Y-44657D01*
X21291Y-44648D01*
X21263Y-44633D01*
X21239Y-44614D01*
X21218Y-44590D01*
X21203Y-44563D01*
X21194Y-44533D01*
X21191Y-44502D01*
X21193Y-44472D01*
X21202Y-44442D01*
X21216Y-44414D01*
X21235Y-44389D01*
X21259Y-44369D01*
X21286Y-44354D01*
X21316Y-44344D01*
X21347Y-44341D01*
X21377Y-44343D01*
X21407Y-44351D01*
X21435Y-44365D01*
X21460Y-44385D01*
X21480Y-44408D01*
X21496Y-44435D01*
X21506Y-44465D01*
X21509Y-44496D01*
X21510Y-44500D01*
X21660Y-46250D02*
X21656Y-46281D01*
X21647Y-46310D01*
X21633Y-46338D01*
X21613Y-46362D01*
X21589Y-46382D01*
X21562Y-46397D01*
X21532Y-46406D01*
X21501Y-46409D01*
X21471Y-46407D01*
X21441Y-46398D01*
X21413Y-46383D01*
X21389Y-46364D01*
X21368Y-46340D01*
X21353Y-46313D01*
X21344Y-46283D01*
X21341Y-46252D01*
X21343Y-46222D01*
X21352Y-46192D01*
X21366Y-46164D01*
X21385Y-46139D01*
X21409Y-46119D01*
X21436Y-46104D01*
X21466Y-46094D01*
X21497Y-46091D01*
X21527Y-46093D01*
X21557Y-46101D01*
X21585Y-46115D01*
X21610Y-46135D01*
X21630Y-46158D01*
X21646Y-46185D01*
X21656Y-46215D01*
X21659Y-46246D01*
X21660Y-46250D01*
X21660Y-47750D02*
X21656Y-47781D01*
X21647Y-47810D01*
X21633Y-47838D01*
X21613Y-47862D01*
X21589Y-47882D01*
X21562Y-47897D01*
X21532Y-47906D01*
X21501Y-47909D01*
X21471Y-47907D01*
X21441Y-47898D01*
X21413Y-47883D01*
X21389Y-47864D01*
X21368Y-47840D01*
X21353Y-47813D01*
X21344Y-47783D01*
X21341Y-47752D01*
X21343Y-47722D01*
X21352Y-47692D01*
X21366Y-47664D01*
X21385Y-47639D01*
X21409Y-47619D01*
X21436Y-47604D01*
X21466Y-47594D01*
X21497Y-47591D01*
X21527Y-47593D01*
X21557Y-47601D01*
X21585Y-47615D01*
X21610Y-47635D01*
X21630Y-47658D01*
X21646Y-47685D01*
X21656Y-47715D01*
X21659Y-47746D01*
X21660Y-47750D01*
X21660Y-50000D02*
X21656Y-50031D01*
X21647Y-50060D01*
X21633Y-50088D01*
X21613Y-50112D01*
X21589Y-50132D01*
X21562Y-50147D01*
X21532Y-50156D01*
X21501Y-50159D01*
X21471Y-50157D01*
X21441Y-50148D01*
X21413Y-50133D01*
X21389Y-50114D01*
X21368Y-50090D01*
X21353Y-50063D01*
X21344Y-50033D01*
X21341Y-50002D01*
X21343Y-49972D01*
X21352Y-49942D01*
X21366Y-49914D01*
X21385Y-49889D01*
X21409Y-49869D01*
X21436Y-49854D01*
X21466Y-49844D01*
X21497Y-49841D01*
X21527Y-49843D01*
X21557Y-49851D01*
X21585Y-49865D01*
X21610Y-49885D01*
X21630Y-49908D01*
X21646Y-49935D01*
X21656Y-49965D01*
X21659Y-49996D01*
X21660Y-50000D01*
X21660Y-51500D02*
X21656Y-51531D01*
X21647Y-51560D01*
X21633Y-51588D01*
X21613Y-51612D01*
X21589Y-51632D01*
X21562Y-51647D01*
X21532Y-51656D01*
X21501Y-51659D01*
X21471Y-51657D01*
X21441Y-51648D01*
X21413Y-51633D01*
X21389Y-51614D01*
X21368Y-51590D01*
X21353Y-51563D01*
X21344Y-51533D01*
X21341Y-51502D01*
X21343Y-51472D01*
X21352Y-51442D01*
X21366Y-51414D01*
X21385Y-51389D01*
X21409Y-51369D01*
X21436Y-51354D01*
X21466Y-51344D01*
X21497Y-51341D01*
X21527Y-51343D01*
X21557Y-51351D01*
X21585Y-51365D01*
X21610Y-51385D01*
X21630Y-51408D01*
X21646Y-51435D01*
X21656Y-51465D01*
X21659Y-51496D01*
X21660Y-51500D01*
X21660Y-53750D02*
X21656Y-53781D01*
X21647Y-53810D01*
X21633Y-53838D01*
X21613Y-53862D01*
X21589Y-53882D01*
X21562Y-53897D01*
X21532Y-53906D01*
X21501Y-53909D01*
X21471Y-53907D01*
X21441Y-53898D01*
X21413Y-53883D01*
X21389Y-53864D01*
X21368Y-53840D01*
X21353Y-53813D01*
X21344Y-53783D01*
X21341Y-53752D01*
X21343Y-53722D01*
X21352Y-53692D01*
X21366Y-53664D01*
X21385Y-53639D01*
X21409Y-53619D01*
X21436Y-53604D01*
X21466Y-53594D01*
X21497Y-53591D01*
X21527Y-53593D01*
X21557Y-53601D01*
X21585Y-53615D01*
X21610Y-53635D01*
X21630Y-53658D01*
X21646Y-53685D01*
X21656Y-53715D01*
X21659Y-53746D01*
X21660Y-53750D01*
X21660Y-55250D02*
X21656Y-55281D01*
X21647Y-55310D01*
X21633Y-55338D01*
X21613Y-55362D01*
X21589Y-55382D01*
X21562Y-55397D01*
X21532Y-55406D01*
X21501Y-55409D01*
X21471Y-55407D01*
X21441Y-55398D01*
X21413Y-55383D01*
X21389Y-55364D01*
X21368Y-55340D01*
X21353Y-55313D01*
X21344Y-55283D01*
X21341Y-55252D01*
X21343Y-55222D01*
X21352Y-55192D01*
X21366Y-55164D01*
X21385Y-55139D01*
X21409Y-55119D01*
X21436Y-55104D01*
X21466Y-55094D01*
X21497Y-55091D01*
X21527Y-55093D01*
X21557Y-55101D01*
X21585Y-55115D01*
X21610Y-55135D01*
X21630Y-55158D01*
X21646Y-55185D01*
X21656Y-55215D01*
X21659Y-55246D01*
X21660Y-55250D01*
X21660Y-57500D02*
X21656Y-57531D01*
X21647Y-57560D01*
X21633Y-57588D01*
X21613Y-57612D01*
X21589Y-57632D01*
X21562Y-57647D01*
X21532Y-57656D01*
X21501Y-57659D01*
X21471Y-57657D01*
X21441Y-57648D01*
X21413Y-57633D01*
X21389Y-57614D01*
X21368Y-57590D01*
X21353Y-57563D01*
X21344Y-57533D01*
X21341Y-57502D01*
X21343Y-57472D01*
X21352Y-57442D01*
X21366Y-57414D01*
X21385Y-57389D01*
X21409Y-57369D01*
X21436Y-57354D01*
X21466Y-57344D01*
X21497Y-57341D01*
X21527Y-57343D01*
X21557Y-57351D01*
X21585Y-57365D01*
X21610Y-57385D01*
X21630Y-57408D01*
X21646Y-57435D01*
X21656Y-57465D01*
X21659Y-57496D01*
X21660Y-57500D01*
X21660Y-59000D02*
X21656Y-59031D01*
X21647Y-59060D01*
X21633Y-59088D01*
X21613Y-59112D01*
X21589Y-59132D01*
X21562Y-59147D01*
X21532Y-59156D01*
X21501Y-59159D01*
X21471Y-59157D01*
X21441Y-59148D01*
X21413Y-59133D01*
X21389Y-59114D01*
X21368Y-59090D01*
X21353Y-59063D01*
X21344Y-59033D01*
X21341Y-59002D01*
X21343Y-58972D01*
X21352Y-58942D01*
X21366Y-58914D01*
X21385Y-58889D01*
X21409Y-58869D01*
X21436Y-58854D01*
X21466Y-58844D01*
X21497Y-58841D01*
X21527Y-58843D01*
X21557Y-58851D01*
X21585Y-58865D01*
X21610Y-58885D01*
X21630Y-58908D01*
X21646Y-58935D01*
X21656Y-58965D01*
X21659Y-58996D01*
X21660Y-59000D01*
X22410Y-34000D02*
X22406Y-34031D01*
X22397Y-34060D01*
X22383Y-34088D01*
X22363Y-34112D01*
X22339Y-34132D01*
X22312Y-34147D01*
X22282Y-34156D01*
X22251Y-34159D01*
X22221Y-34157D01*
X22191Y-34148D01*
X22163Y-34133D01*
X22139Y-34114D01*
X22118Y-34090D01*
X22103Y-34063D01*
X22094Y-34033D01*
X22091Y-34002D01*
X22093Y-33972D01*
X22102Y-33942D01*
X22116Y-33914D01*
X22135Y-33889D01*
X22159Y-33869D01*
X22186Y-33854D01*
X22216Y-33844D01*
X22247Y-33841D01*
X22277Y-33843D01*
X22307Y-33851D01*
X22335Y-33865D01*
X22360Y-33885D01*
X22380Y-33908D01*
X22396Y-33935D01*
X22406Y-33965D01*
X22409Y-33996D01*
X22410Y-34000D01*
X22410Y-36000D02*
X22406Y-36031D01*
X22397Y-36060D01*
X22383Y-36088D01*
X22363Y-36112D01*
X22339Y-36132D01*
X22312Y-36147D01*
X22282Y-36156D01*
X22251Y-36159D01*
X22221Y-36157D01*
X22191Y-36148D01*
X22163Y-36133D01*
X22139Y-36114D01*
X22118Y-36090D01*
X22103Y-36063D01*
X22094Y-36033D01*
X22091Y-36002D01*
X22093Y-35972D01*
X22102Y-35942D01*
X22116Y-35914D01*
X22135Y-35889D01*
X22159Y-35869D01*
X22186Y-35854D01*
X22216Y-35844D01*
X22247Y-35841D01*
X22277Y-35843D01*
X22307Y-35851D01*
X22335Y-35865D01*
X22360Y-35885D01*
X22380Y-35908D01*
X22396Y-35935D01*
X22406Y-35965D01*
X22409Y-35996D01*
X22410Y-36000D01*
X22410Y-37000D02*
X22406Y-37031D01*
X22397Y-37060D01*
X22383Y-37088D01*
X22363Y-37112D01*
X22339Y-37132D01*
X22312Y-37147D01*
X22282Y-37156D01*
X22251Y-37159D01*
X22221Y-37157D01*
X22191Y-37148D01*
X22163Y-37133D01*
X22139Y-37114D01*
X22118Y-37090D01*
X22103Y-37063D01*
X22094Y-37033D01*
X22091Y-37002D01*
X22093Y-36972D01*
X22102Y-36942D01*
X22116Y-36914D01*
X22135Y-36889D01*
X22159Y-36869D01*
X22186Y-36854D01*
X22216Y-36844D01*
X22247Y-36841D01*
X22277Y-36843D01*
X22307Y-36851D01*
X22335Y-36865D01*
X22360Y-36885D01*
X22380Y-36908D01*
X22396Y-36935D01*
X22406Y-36965D01*
X22409Y-36996D01*
X22410Y-37000D01*
X22410Y-38750D02*
X22406Y-38781D01*
X22397Y-38810D01*
X22383Y-38838D01*
X22363Y-38862D01*
X22339Y-38882D01*
X22312Y-38897D01*
X22282Y-38906D01*
X22251Y-38909D01*
X22221Y-38907D01*
X22191Y-38898D01*
X22163Y-38883D01*
X22139Y-38864D01*
X22118Y-38840D01*
X22103Y-38813D01*
X22094Y-38783D01*
X22091Y-38752D01*
X22093Y-38722D01*
X22102Y-38692D01*
X22116Y-38664D01*
X22135Y-38639D01*
X22159Y-38619D01*
X22186Y-38604D01*
X22216Y-38594D01*
X22247Y-38591D01*
X22277Y-38593D01*
X22307Y-38601D01*
X22335Y-38615D01*
X22360Y-38635D01*
X22380Y-38658D01*
X22396Y-38685D01*
X22406Y-38715D01*
X22409Y-38746D01*
X22410Y-38750D01*
X22410Y-40750D02*
X22406Y-40781D01*
X22397Y-40810D01*
X22383Y-40838D01*
X22363Y-40862D01*
X22339Y-40882D01*
X22312Y-40897D01*
X22282Y-40906D01*
X22251Y-40909D01*
X22221Y-40907D01*
X22191Y-40898D01*
X22163Y-40883D01*
X22139Y-40864D01*
X22118Y-40840D01*
X22103Y-40813D01*
X22094Y-40783D01*
X22091Y-40752D01*
X22093Y-40722D01*
X22102Y-40692D01*
X22116Y-40664D01*
X22135Y-40639D01*
X22159Y-40619D01*
X22186Y-40604D01*
X22216Y-40594D01*
X22247Y-40591D01*
X22277Y-40593D01*
X22307Y-40601D01*
X22335Y-40615D01*
X22360Y-40635D01*
X22380Y-40658D01*
X22396Y-40685D01*
X22406Y-40715D01*
X22409Y-40746D01*
X22410Y-40750D01*
X22410Y-41750D02*
X22406Y-41781D01*
X22397Y-41810D01*
X22383Y-41838D01*
X22363Y-41862D01*
X22339Y-41882D01*
X22312Y-41897D01*
X22282Y-41906D01*
X22251Y-41909D01*
X22221Y-41907D01*
X22191Y-41898D01*
X22163Y-41883D01*
X22139Y-41864D01*
X22118Y-41840D01*
X22103Y-41813D01*
X22094Y-41783D01*
X22091Y-41752D01*
X22093Y-41722D01*
X22102Y-41692D01*
X22116Y-41664D01*
X22135Y-41639D01*
X22159Y-41619D01*
X22186Y-41604D01*
X22216Y-41594D01*
X22247Y-41591D01*
X22277Y-41593D01*
X22307Y-41601D01*
X22335Y-41615D01*
X22360Y-41635D01*
X22380Y-41658D01*
X22396Y-41685D01*
X22406Y-41715D01*
X22409Y-41746D01*
X22410Y-41750D01*
X22410Y-61750D02*
X22406Y-61781D01*
X22397Y-61810D01*
X22383Y-61838D01*
X22363Y-61862D01*
X22339Y-61882D01*
X22312Y-61897D01*
X22282Y-61906D01*
X22251Y-61909D01*
X22221Y-61907D01*
X22191Y-61898D01*
X22163Y-61883D01*
X22139Y-61864D01*
X22118Y-61840D01*
X22103Y-61813D01*
X22094Y-61783D01*
X22091Y-61752D01*
X22093Y-61722D01*
X22102Y-61692D01*
X22116Y-61664D01*
X22135Y-61639D01*
X22159Y-61619D01*
X22186Y-61604D01*
X22216Y-61594D01*
X22247Y-61591D01*
X22277Y-61593D01*
X22307Y-61601D01*
X22335Y-61615D01*
X22360Y-61635D01*
X22380Y-61658D01*
X22396Y-61685D01*
X22406Y-61715D01*
X22409Y-61746D01*
X22410Y-61750D01*
X22410Y-65250D02*
X22406Y-65281D01*
X22397Y-65310D01*
X22383Y-65338D01*
X22363Y-65362D01*
X22339Y-65382D01*
X22312Y-65397D01*
X22282Y-65406D01*
X22251Y-65409D01*
X22221Y-65407D01*
X22191Y-65398D01*
X22163Y-65383D01*
X22139Y-65364D01*
X22118Y-65340D01*
X22103Y-65313D01*
X22094Y-65283D01*
X22091Y-65252D01*
X22093Y-65222D01*
X22102Y-65192D01*
X22116Y-65164D01*
X22135Y-65139D01*
X22159Y-65119D01*
X22186Y-65104D01*
X22216Y-65094D01*
X22247Y-65091D01*
X22277Y-65093D01*
X22307Y-65101D01*
X22335Y-65115D01*
X22360Y-65135D01*
X22380Y-65158D01*
X22396Y-65185D01*
X22406Y-65215D01*
X22409Y-65246D01*
X22410Y-65250D01*
X22410Y-66500D02*
X22406Y-66531D01*
X22397Y-66560D01*
X22383Y-66588D01*
X22363Y-66612D01*
X22339Y-66632D01*
X22312Y-66647D01*
X22282Y-66656D01*
X22251Y-66659D01*
X22221Y-66657D01*
X22191Y-66648D01*
X22163Y-66633D01*
X22139Y-66614D01*
X22118Y-66590D01*
X22103Y-66563D01*
X22094Y-66533D01*
X22091Y-66502D01*
X22093Y-66472D01*
X22102Y-66442D01*
X22116Y-66414D01*
X22135Y-66389D01*
X22159Y-66369D01*
X22186Y-66354D01*
X22216Y-66344D01*
X22247Y-66341D01*
X22277Y-66343D01*
X22307Y-66351D01*
X22335Y-66365D01*
X22360Y-66385D01*
X22380Y-66408D01*
X22396Y-66435D01*
X22406Y-66465D01*
X22409Y-66496D01*
X22410Y-66500D01*
X22510Y-43500D02*
X22506Y-43531D01*
X22497Y-43560D01*
X22483Y-43588D01*
X22463Y-43612D01*
X22439Y-43632D01*
X22412Y-43647D01*
X22382Y-43656D01*
X22351Y-43659D01*
X22321Y-43657D01*
X22291Y-43648D01*
X22263Y-43633D01*
X22239Y-43614D01*
X22218Y-43590D01*
X22203Y-43563D01*
X22194Y-43533D01*
X22191Y-43502D01*
X22193Y-43472D01*
X22202Y-43442D01*
X22216Y-43414D01*
X22235Y-43389D01*
X22259Y-43369D01*
X22286Y-43354D01*
X22316Y-43344D01*
X22347Y-43341D01*
X22377Y-43343D01*
X22407Y-43351D01*
X22435Y-43365D01*
X22460Y-43385D01*
X22480Y-43408D01*
X22496Y-43435D01*
X22506Y-43465D01*
X22509Y-43496D01*
X22510Y-43500D01*
X23410Y-36000D02*
X23406Y-36031D01*
X23397Y-36060D01*
X23383Y-36088D01*
X23363Y-36112D01*
X23339Y-36132D01*
X23312Y-36147D01*
X23282Y-36156D01*
X23251Y-36159D01*
X23221Y-36157D01*
X23191Y-36148D01*
X23163Y-36133D01*
X23139Y-36114D01*
X23118Y-36090D01*
X23103Y-36063D01*
X23094Y-36033D01*
X23091Y-36002D01*
X23093Y-35972D01*
X23102Y-35942D01*
X23116Y-35914D01*
X23135Y-35889D01*
X23159Y-35869D01*
X23186Y-35854D01*
X23216Y-35844D01*
X23247Y-35841D01*
X23277Y-35843D01*
X23307Y-35851D01*
X23335Y-35865D01*
X23360Y-35885D01*
X23380Y-35908D01*
X23396Y-35935D01*
X23406Y-35965D01*
X23409Y-35996D01*
X23410Y-36000D01*
X23410Y-40750D02*
X23406Y-40781D01*
X23397Y-40810D01*
X23383Y-40838D01*
X23363Y-40862D01*
X23339Y-40882D01*
X23312Y-40897D01*
X23282Y-40906D01*
X23251Y-40909D01*
X23221Y-40907D01*
X23191Y-40898D01*
X23163Y-40883D01*
X23139Y-40864D01*
X23118Y-40840D01*
X23103Y-40813D01*
X23094Y-40783D01*
X23091Y-40752D01*
X23093Y-40722D01*
X23102Y-40692D01*
X23116Y-40664D01*
X23135Y-40639D01*
X23159Y-40619D01*
X23186Y-40604D01*
X23216Y-40594D01*
X23247Y-40591D01*
X23277Y-40593D01*
X23307Y-40601D01*
X23335Y-40615D01*
X23360Y-40635D01*
X23380Y-40658D01*
X23396Y-40685D01*
X23406Y-40715D01*
X23409Y-40746D01*
X23410Y-40750D01*
X23410Y-61750D02*
X23406Y-61781D01*
X23397Y-61810D01*
X23383Y-61838D01*
X23363Y-61862D01*
X23339Y-61882D01*
X23312Y-61897D01*
X23282Y-61906D01*
X23251Y-61909D01*
X23221Y-61907D01*
X23191Y-61898D01*
X23163Y-61883D01*
X23139Y-61864D01*
X23118Y-61840D01*
X23103Y-61813D01*
X23094Y-61783D01*
X23091Y-61752D01*
X23093Y-61722D01*
X23102Y-61692D01*
X23116Y-61664D01*
X23135Y-61639D01*
X23159Y-61619D01*
X23186Y-61604D01*
X23216Y-61594D01*
X23247Y-61591D01*
X23277Y-61593D01*
X23307Y-61601D01*
X23335Y-61615D01*
X23360Y-61635D01*
X23380Y-61658D01*
X23396Y-61685D01*
X23406Y-61715D01*
X23409Y-61746D01*
X23410Y-61750D01*
X23410Y-65250D02*
X23406Y-65281D01*
X23397Y-65310D01*
X23383Y-65338D01*
X23363Y-65362D01*
X23339Y-65382D01*
X23312Y-65397D01*
X23282Y-65406D01*
X23251Y-65409D01*
X23221Y-65407D01*
X23191Y-65398D01*
X23163Y-65383D01*
X23139Y-65364D01*
X23118Y-65340D01*
X23103Y-65313D01*
X23094Y-65283D01*
X23091Y-65252D01*
X23093Y-65222D01*
X23102Y-65192D01*
X23116Y-65164D01*
X23135Y-65139D01*
X23159Y-65119D01*
X23186Y-65104D01*
X23216Y-65094D01*
X23247Y-65091D01*
X23277Y-65093D01*
X23307Y-65101D01*
X23335Y-65115D01*
X23360Y-65135D01*
X23380Y-65158D01*
X23396Y-65185D01*
X23406Y-65215D01*
X23409Y-65246D01*
X23410Y-65250D01*
X23410Y-66500D02*
X23406Y-66531D01*
X23397Y-66560D01*
X23383Y-66588D01*
X23363Y-66612D01*
X23339Y-66632D01*
X23312Y-66647D01*
X23282Y-66656D01*
X23251Y-66659D01*
X23221Y-66657D01*
X23191Y-66648D01*
X23163Y-66633D01*
X23139Y-66614D01*
X23118Y-66590D01*
X23103Y-66563D01*
X23094Y-66533D01*
X23091Y-66502D01*
X23093Y-66472D01*
X23102Y-66442D01*
X23116Y-66414D01*
X23135Y-66389D01*
X23159Y-66369D01*
X23186Y-66354D01*
X23216Y-66344D01*
X23247Y-66341D01*
X23277Y-66343D01*
X23307Y-66351D01*
X23335Y-66365D01*
X23360Y-66385D01*
X23380Y-66408D01*
X23396Y-66435D01*
X23406Y-66465D01*
X23409Y-66496D01*
X23410Y-66500D01*
X23660Y-46250D02*
X23656Y-46281D01*
X23647Y-46310D01*
X23633Y-46338D01*
X23613Y-46362D01*
X23589Y-46382D01*
X23562Y-46397D01*
X23532Y-46406D01*
X23501Y-46409D01*
X23471Y-46407D01*
X23441Y-46398D01*
X23413Y-46383D01*
X23389Y-46364D01*
X23368Y-46340D01*
X23353Y-46313D01*
X23344Y-46283D01*
X23341Y-46252D01*
X23343Y-46222D01*
X23352Y-46192D01*
X23366Y-46164D01*
X23385Y-46139D01*
X23409Y-46119D01*
X23436Y-46104D01*
X23466Y-46094D01*
X23497Y-46091D01*
X23527Y-46093D01*
X23557Y-46101D01*
X23585Y-46115D01*
X23610Y-46135D01*
X23630Y-46158D01*
X23646Y-46185D01*
X23656Y-46215D01*
X23659Y-46246D01*
X23660Y-46250D01*
X23660Y-47750D02*
X23656Y-47781D01*
X23647Y-47810D01*
X23633Y-47838D01*
X23613Y-47862D01*
X23589Y-47882D01*
X23562Y-47897D01*
X23532Y-47906D01*
X23501Y-47909D01*
X23471Y-47907D01*
X23441Y-47898D01*
X23413Y-47883D01*
X23389Y-47864D01*
X23368Y-47840D01*
X23353Y-47813D01*
X23344Y-47783D01*
X23341Y-47752D01*
X23343Y-47722D01*
X23352Y-47692D01*
X23366Y-47664D01*
X23385Y-47639D01*
X23409Y-47619D01*
X23436Y-47604D01*
X23466Y-47594D01*
X23497Y-47591D01*
X23527Y-47593D01*
X23557Y-47601D01*
X23585Y-47615D01*
X23610Y-47635D01*
X23630Y-47658D01*
X23646Y-47685D01*
X23656Y-47715D01*
X23659Y-47746D01*
X23660Y-47750D01*
X23660Y-50000D02*
X23656Y-50031D01*
X23647Y-50060D01*
X23633Y-50088D01*
X23613Y-50112D01*
X23589Y-50132D01*
X23562Y-50147D01*
X23532Y-50156D01*
X23501Y-50159D01*
X23471Y-50157D01*
X23441Y-50148D01*
X23413Y-50133D01*
X23389Y-50114D01*
X23368Y-50090D01*
X23353Y-50063D01*
X23344Y-50033D01*
X23341Y-50002D01*
X23343Y-49972D01*
X23352Y-49942D01*
X23366Y-49914D01*
X23385Y-49889D01*
X23409Y-49869D01*
X23436Y-49854D01*
X23466Y-49844D01*
X23497Y-49841D01*
X23527Y-49843D01*
X23557Y-49851D01*
X23585Y-49865D01*
X23610Y-49885D01*
X23630Y-49908D01*
X23646Y-49935D01*
X23656Y-49965D01*
X23659Y-49996D01*
X23660Y-50000D01*
X23660Y-51500D02*
X23656Y-51531D01*
X23647Y-51560D01*
X23633Y-51588D01*
X23613Y-51612D01*
X23589Y-51632D01*
X23562Y-51647D01*
X23532Y-51656D01*
X23501Y-51659D01*
X23471Y-51657D01*
X23441Y-51648D01*
X23413Y-51633D01*
X23389Y-51614D01*
X23368Y-51590D01*
X23353Y-51563D01*
X23344Y-51533D01*
X23341Y-51502D01*
X23343Y-51472D01*
X23352Y-51442D01*
X23366Y-51414D01*
X23385Y-51389D01*
X23409Y-51369D01*
X23436Y-51354D01*
X23466Y-51344D01*
X23497Y-51341D01*
X23527Y-51343D01*
X23557Y-51351D01*
X23585Y-51365D01*
X23610Y-51385D01*
X23630Y-51408D01*
X23646Y-51435D01*
X23656Y-51465D01*
X23659Y-51496D01*
X23660Y-51500D01*
X23660Y-53750D02*
X23656Y-53781D01*
X23647Y-53810D01*
X23633Y-53838D01*
X23613Y-53862D01*
X23589Y-53882D01*
X23562Y-53897D01*
X23532Y-53906D01*
X23501Y-53909D01*
X23471Y-53907D01*
X23441Y-53898D01*
X23413Y-53883D01*
X23389Y-53864D01*
X23368Y-53840D01*
X23353Y-53813D01*
X23344Y-53783D01*
X23341Y-53752D01*
X23343Y-53722D01*
X23352Y-53692D01*
X23366Y-53664D01*
X23385Y-53639D01*
X23409Y-53619D01*
X23436Y-53604D01*
X23466Y-53594D01*
X23497Y-53591D01*
X23527Y-53593D01*
X23557Y-53601D01*
X23585Y-53615D01*
X23610Y-53635D01*
X23630Y-53658D01*
X23646Y-53685D01*
X23656Y-53715D01*
X23659Y-53746D01*
X23660Y-53750D01*
X23660Y-55250D02*
X23656Y-55281D01*
X23647Y-55310D01*
X23633Y-55338D01*
X23613Y-55362D01*
X23589Y-55382D01*
X23562Y-55397D01*
X23532Y-55406D01*
X23501Y-55409D01*
X23471Y-55407D01*
X23441Y-55398D01*
X23413Y-55383D01*
X23389Y-55364D01*
X23368Y-55340D01*
X23353Y-55313D01*
X23344Y-55283D01*
X23341Y-55252D01*
X23343Y-55222D01*
X23352Y-55192D01*
X23366Y-55164D01*
X23385Y-55139D01*
X23409Y-55119D01*
X23436Y-55104D01*
X23466Y-55094D01*
X23497Y-55091D01*
X23527Y-55093D01*
X23557Y-55101D01*
X23585Y-55115D01*
X23610Y-55135D01*
X23630Y-55158D01*
X23646Y-55185D01*
X23656Y-55215D01*
X23659Y-55246D01*
X23660Y-55250D01*
X23660Y-57500D02*
X23656Y-57531D01*
X23647Y-57560D01*
X23633Y-57588D01*
X23613Y-57612D01*
X23589Y-57632D01*
X23562Y-57647D01*
X23532Y-57656D01*
X23501Y-57659D01*
X23471Y-57657D01*
X23441Y-57648D01*
X23413Y-57633D01*
X23389Y-57614D01*
X23368Y-57590D01*
X23353Y-57563D01*
X23344Y-57533D01*
X23341Y-57502D01*
X23343Y-57472D01*
X23352Y-57442D01*
X23366Y-57414D01*
X23385Y-57389D01*
X23409Y-57369D01*
X23436Y-57354D01*
X23466Y-57344D01*
X23497Y-57341D01*
X23527Y-57343D01*
X23557Y-57351D01*
X23585Y-57365D01*
X23610Y-57385D01*
X23630Y-57408D01*
X23646Y-57435D01*
X23656Y-57465D01*
X23659Y-57496D01*
X23660Y-57500D01*
X23660Y-59000D02*
X23656Y-59031D01*
X23647Y-59060D01*
X23633Y-59088D01*
X23613Y-59112D01*
X23589Y-59132D01*
X23562Y-59147D01*
X23532Y-59156D01*
X23501Y-59159D01*
X23471Y-59157D01*
X23441Y-59148D01*
X23413Y-59133D01*
X23389Y-59114D01*
X23368Y-59090D01*
X23353Y-59063D01*
X23344Y-59033D01*
X23341Y-59002D01*
X23343Y-58972D01*
X23352Y-58942D01*
X23366Y-58914D01*
X23385Y-58889D01*
X23409Y-58869D01*
X23436Y-58854D01*
X23466Y-58844D01*
X23497Y-58841D01*
X23527Y-58843D01*
X23557Y-58851D01*
X23585Y-58865D01*
X23610Y-58885D01*
X23630Y-58908D01*
X23646Y-58935D01*
X23656Y-58965D01*
X23659Y-58996D01*
X23660Y-59000D01*
X24160Y-43250D02*
X24156Y-43281D01*
X24147Y-43310D01*
X24133Y-43338D01*
X24113Y-43362D01*
X24089Y-43382D01*
X24062Y-43397D01*
X24032Y-43406D01*
X24001Y-43409D01*
X23971Y-43407D01*
X23941Y-43398D01*
X23913Y-43383D01*
X23889Y-43364D01*
X23868Y-43340D01*
X23853Y-43313D01*
X23844Y-43283D01*
X23841Y-43252D01*
X23843Y-43222D01*
X23852Y-43192D01*
X23866Y-43164D01*
X23885Y-43139D01*
X23909Y-43119D01*
X23936Y-43104D01*
X23966Y-43094D01*
X23997Y-43091D01*
X24027Y-43093D01*
X24057Y-43101D01*
X24085Y-43115D01*
X24110Y-43135D01*
X24130Y-43158D01*
X24146Y-43185D01*
X24156Y-43215D01*
X24159Y-43246D01*
X24160Y-43250D01*
X24160Y-44250D02*
X24156Y-44281D01*
X24147Y-44310D01*
X24133Y-44338D01*
X24113Y-44362D01*
X24089Y-44382D01*
X24062Y-44397D01*
X24032Y-44406D01*
X24001Y-44409D01*
X23971Y-44407D01*
X23941Y-44398D01*
X23913Y-44383D01*
X23889Y-44364D01*
X23868Y-44340D01*
X23853Y-44313D01*
X23844Y-44283D01*
X23841Y-44252D01*
X23843Y-44222D01*
X23852Y-44192D01*
X23866Y-44164D01*
X23885Y-44139D01*
X23909Y-44119D01*
X23936Y-44104D01*
X23966Y-44094D01*
X23997Y-44091D01*
X24027Y-44093D01*
X24057Y-44101D01*
X24085Y-44115D01*
X24110Y-44135D01*
X24130Y-44158D01*
X24146Y-44185D01*
X24156Y-44215D01*
X24159Y-44246D01*
X24160Y-44250D01*
X24410Y-70750D02*
X24406Y-70781D01*
X24397Y-70810D01*
X24383Y-70838D01*
X24363Y-70862D01*
X24339Y-70882D01*
X24312Y-70897D01*
X24282Y-70906D01*
X24251Y-70909D01*
X24221Y-70907D01*
X24191Y-70898D01*
X24163Y-70883D01*
X24139Y-70864D01*
X24118Y-70840D01*
X24103Y-70813D01*
X24094Y-70783D01*
X24091Y-70752D01*
X24093Y-70722D01*
X24102Y-70692D01*
X24116Y-70664D01*
X24135Y-70639D01*
X24159Y-70619D01*
X24186Y-70604D01*
X24216Y-70594D01*
X24247Y-70591D01*
X24277Y-70593D01*
X24307Y-70601D01*
X24335Y-70615D01*
X24360Y-70635D01*
X24380Y-70658D01*
X24396Y-70685D01*
X24406Y-70715D01*
X24409Y-70746D01*
X24410Y-70750D01*
X24410Y-71750D02*
X24406Y-71781D01*
X24397Y-71810D01*
X24383Y-71838D01*
X24363Y-71862D01*
X24339Y-71882D01*
X24312Y-71897D01*
X24282Y-71906D01*
X24251Y-71909D01*
X24221Y-71907D01*
X24191Y-71898D01*
X24163Y-71883D01*
X24139Y-71864D01*
X24118Y-71840D01*
X24103Y-71813D01*
X24094Y-71783D01*
X24091Y-71752D01*
X24093Y-71722D01*
X24102Y-71692D01*
X24116Y-71664D01*
X24135Y-71639D01*
X24159Y-71619D01*
X24186Y-71604D01*
X24216Y-71594D01*
X24247Y-71591D01*
X24277Y-71593D01*
X24307Y-71601D01*
X24335Y-71615D01*
X24360Y-71635D01*
X24380Y-71658D01*
X24396Y-71685D01*
X24406Y-71715D01*
X24409Y-71746D01*
X24410Y-71750D01*
X24410Y-73000D02*
X24406Y-73031D01*
X24397Y-73060D01*
X24383Y-73088D01*
X24363Y-73112D01*
X24339Y-73132D01*
X24312Y-73147D01*
X24282Y-73156D01*
X24251Y-73159D01*
X24221Y-73157D01*
X24191Y-73148D01*
X24163Y-73133D01*
X24139Y-73114D01*
X24118Y-73090D01*
X24103Y-73063D01*
X24094Y-73033D01*
X24091Y-73002D01*
X24093Y-72972D01*
X24102Y-72942D01*
X24116Y-72914D01*
X24135Y-72889D01*
X24159Y-72869D01*
X24186Y-72854D01*
X24216Y-72844D01*
X24247Y-72841D01*
X24277Y-72843D01*
X24307Y-72851D01*
X24335Y-72865D01*
X24360Y-72885D01*
X24380Y-72908D01*
X24396Y-72935D01*
X24406Y-72965D01*
X24409Y-72996D01*
X24410Y-73000D01*
X24410Y-74000D02*
X24406Y-74031D01*
X24397Y-74060D01*
X24383Y-74088D01*
X24363Y-74112D01*
X24339Y-74132D01*
X24312Y-74147D01*
X24282Y-74156D01*
X24251Y-74159D01*
X24221Y-74157D01*
X24191Y-74148D01*
X24163Y-74133D01*
X24139Y-74114D01*
X24118Y-74090D01*
X24103Y-74063D01*
X24094Y-74033D01*
X24091Y-74002D01*
X24093Y-73972D01*
X24102Y-73942D01*
X24116Y-73914D01*
X24135Y-73889D01*
X24159Y-73869D01*
X24186Y-73854D01*
X24216Y-73844D01*
X24247Y-73841D01*
X24277Y-73843D01*
X24307Y-73851D01*
X24335Y-73865D01*
X24360Y-73885D01*
X24380Y-73908D01*
X24396Y-73935D01*
X24406Y-73965D01*
X24409Y-73996D01*
X24410Y-74000D01*
X24410Y-75250D02*
X24406Y-75281D01*
X24397Y-75310D01*
X24383Y-75338D01*
X24363Y-75362D01*
X24339Y-75382D01*
X24312Y-75397D01*
X24282Y-75406D01*
X24251Y-75409D01*
X24221Y-75407D01*
X24191Y-75398D01*
X24163Y-75383D01*
X24139Y-75364D01*
X24118Y-75340D01*
X24103Y-75313D01*
X24094Y-75283D01*
X24091Y-75252D01*
X24093Y-75222D01*
X24102Y-75192D01*
X24116Y-75164D01*
X24135Y-75139D01*
X24159Y-75119D01*
X24186Y-75104D01*
X24216Y-75094D01*
X24247Y-75091D01*
X24277Y-75093D01*
X24307Y-75101D01*
X24335Y-75115D01*
X24360Y-75135D01*
X24380Y-75158D01*
X24396Y-75185D01*
X24406Y-75215D01*
X24409Y-75246D01*
X24410Y-75250D01*
X24410Y-76250D02*
X24406Y-76281D01*
X24397Y-76310D01*
X24383Y-76338D01*
X24363Y-76362D01*
X24339Y-76382D01*
X24312Y-76397D01*
X24282Y-76406D01*
X24251Y-76409D01*
X24221Y-76407D01*
X24191Y-76398D01*
X24163Y-76383D01*
X24139Y-76364D01*
X24118Y-76340D01*
X24103Y-76313D01*
X24094Y-76283D01*
X24091Y-76252D01*
X24093Y-76222D01*
X24102Y-76192D01*
X24116Y-76164D01*
X24135Y-76139D01*
X24159Y-76119D01*
X24186Y-76104D01*
X24216Y-76094D01*
X24247Y-76091D01*
X24277Y-76093D01*
X24307Y-76101D01*
X24335Y-76115D01*
X24360Y-76135D01*
X24380Y-76158D01*
X24396Y-76185D01*
X24406Y-76215D01*
X24409Y-76246D01*
X24410Y-76250D01*
X24660Y-34000D02*
X24656Y-34031D01*
X24647Y-34060D01*
X24633Y-34088D01*
X24613Y-34112D01*
X24589Y-34132D01*
X24562Y-34147D01*
X24532Y-34156D01*
X24501Y-34159D01*
X24471Y-34157D01*
X24441Y-34148D01*
X24413Y-34133D01*
X24389Y-34114D01*
X24368Y-34090D01*
X24353Y-34063D01*
X24344Y-34033D01*
X24341Y-34002D01*
X24343Y-33972D01*
X24352Y-33942D01*
X24366Y-33914D01*
X24385Y-33889D01*
X24409Y-33869D01*
X24436Y-33854D01*
X24466Y-33844D01*
X24497Y-33841D01*
X24527Y-33843D01*
X24557Y-33851D01*
X24585Y-33865D01*
X24610Y-33885D01*
X24630Y-33908D01*
X24646Y-33935D01*
X24656Y-33965D01*
X24659Y-33996D01*
X24660Y-34000D01*
X24660Y-35000D02*
X24656Y-35031D01*
X24647Y-35060D01*
X24633Y-35088D01*
X24613Y-35112D01*
X24589Y-35132D01*
X24562Y-35147D01*
X24532Y-35156D01*
X24501Y-35159D01*
X24471Y-35157D01*
X24441Y-35148D01*
X24413Y-35133D01*
X24389Y-35114D01*
X24368Y-35090D01*
X24353Y-35063D01*
X24344Y-35033D01*
X24341Y-35002D01*
X24343Y-34972D01*
X24352Y-34942D01*
X24366Y-34914D01*
X24385Y-34889D01*
X24409Y-34869D01*
X24436Y-34854D01*
X24466Y-34844D01*
X24497Y-34841D01*
X24527Y-34843D01*
X24557Y-34851D01*
X24585Y-34865D01*
X24610Y-34885D01*
X24630Y-34908D01*
X24646Y-34935D01*
X24656Y-34965D01*
X24659Y-34996D01*
X24660Y-35000D01*
X24660Y-36000D02*
X24656Y-36031D01*
X24647Y-36060D01*
X24633Y-36088D01*
X24613Y-36112D01*
X24589Y-36132D01*
X24562Y-36147D01*
X24532Y-36156D01*
X24501Y-36159D01*
X24471Y-36157D01*
X24441Y-36148D01*
X24413Y-36133D01*
X24389Y-36114D01*
X24368Y-36090D01*
X24353Y-36063D01*
X24344Y-36033D01*
X24341Y-36002D01*
X24343Y-35972D01*
X24352Y-35942D01*
X24366Y-35914D01*
X24385Y-35889D01*
X24409Y-35869D01*
X24436Y-35854D01*
X24466Y-35844D01*
X24497Y-35841D01*
X24527Y-35843D01*
X24557Y-35851D01*
X24585Y-35865D01*
X24610Y-35885D01*
X24630Y-35908D01*
X24646Y-35935D01*
X24656Y-35965D01*
X24659Y-35996D01*
X24660Y-36000D01*
X24660Y-37000D02*
X24656Y-37031D01*
X24647Y-37060D01*
X24633Y-37088D01*
X24613Y-37112D01*
X24589Y-37132D01*
X24562Y-37147D01*
X24532Y-37156D01*
X24501Y-37159D01*
X24471Y-37157D01*
X24441Y-37148D01*
X24413Y-37133D01*
X24389Y-37114D01*
X24368Y-37090D01*
X24353Y-37063D01*
X24344Y-37033D01*
X24341Y-37002D01*
X24343Y-36972D01*
X24352Y-36942D01*
X24366Y-36914D01*
X24385Y-36889D01*
X24409Y-36869D01*
X24436Y-36854D01*
X24466Y-36844D01*
X24497Y-36841D01*
X24527Y-36843D01*
X24557Y-36851D01*
X24585Y-36865D01*
X24610Y-36885D01*
X24630Y-36908D01*
X24646Y-36935D01*
X24656Y-36965D01*
X24659Y-36996D01*
X24660Y-37000D01*
X24660Y-38000D02*
X24656Y-38031D01*
X24647Y-38060D01*
X24633Y-38088D01*
X24613Y-38112D01*
X24589Y-38132D01*
X24562Y-38147D01*
X24532Y-38156D01*
X24501Y-38159D01*
X24471Y-38157D01*
X24441Y-38148D01*
X24413Y-38133D01*
X24389Y-38114D01*
X24368Y-38090D01*
X24353Y-38063D01*
X24344Y-38033D01*
X24341Y-38002D01*
X24343Y-37972D01*
X24352Y-37942D01*
X24366Y-37914D01*
X24385Y-37889D01*
X24409Y-37869D01*
X24436Y-37854D01*
X24466Y-37844D01*
X24497Y-37841D01*
X24527Y-37843D01*
X24557Y-37851D01*
X24585Y-37865D01*
X24610Y-37885D01*
X24630Y-37908D01*
X24646Y-37935D01*
X24656Y-37965D01*
X24659Y-37996D01*
X24660Y-38000D01*
X24660Y-39000D02*
X24656Y-39031D01*
X24647Y-39060D01*
X24633Y-39088D01*
X24613Y-39112D01*
X24589Y-39132D01*
X24562Y-39147D01*
X24532Y-39156D01*
X24501Y-39159D01*
X24471Y-39157D01*
X24441Y-39148D01*
X24413Y-39133D01*
X24389Y-39114D01*
X24368Y-39090D01*
X24353Y-39063D01*
X24344Y-39033D01*
X24341Y-39002D01*
X24343Y-38972D01*
X24352Y-38942D01*
X24366Y-38914D01*
X24385Y-38889D01*
X24409Y-38869D01*
X24436Y-38854D01*
X24466Y-38844D01*
X24497Y-38841D01*
X24527Y-38843D01*
X24557Y-38851D01*
X24585Y-38865D01*
X24610Y-38885D01*
X24630Y-38908D01*
X24646Y-38935D01*
X24656Y-38965D01*
X24659Y-38996D01*
X24660Y-39000D01*
X24660Y-40000D02*
X24656Y-40031D01*
X24647Y-40060D01*
X24633Y-40088D01*
X24613Y-40112D01*
X24589Y-40132D01*
X24562Y-40147D01*
X24532Y-40156D01*
X24501Y-40159D01*
X24471Y-40157D01*
X24441Y-40148D01*
X24413Y-40133D01*
X24389Y-40114D01*
X24368Y-40090D01*
X24353Y-40063D01*
X24344Y-40033D01*
X24341Y-40002D01*
X24343Y-39972D01*
X24352Y-39942D01*
X24366Y-39914D01*
X24385Y-39889D01*
X24409Y-39869D01*
X24436Y-39854D01*
X24466Y-39844D01*
X24497Y-39841D01*
X24527Y-39843D01*
X24557Y-39851D01*
X24585Y-39865D01*
X24610Y-39885D01*
X24630Y-39908D01*
X24646Y-39935D01*
X24656Y-39965D01*
X24659Y-39996D01*
X24660Y-40000D01*
X24660Y-41000D02*
X24656Y-41031D01*
X24647Y-41060D01*
X24633Y-41088D01*
X24613Y-41112D01*
X24589Y-41132D01*
X24562Y-41147D01*
X24532Y-41156D01*
X24501Y-41159D01*
X24471Y-41157D01*
X24441Y-41148D01*
X24413Y-41133D01*
X24389Y-41114D01*
X24368Y-41090D01*
X24353Y-41063D01*
X24344Y-41033D01*
X24341Y-41002D01*
X24343Y-40972D01*
X24352Y-40942D01*
X24366Y-40914D01*
X24385Y-40889D01*
X24409Y-40869D01*
X24436Y-40854D01*
X24466Y-40844D01*
X24497Y-40841D01*
X24527Y-40843D01*
X24557Y-40851D01*
X24585Y-40865D01*
X24610Y-40885D01*
X24630Y-40908D01*
X24646Y-40935D01*
X24656Y-40965D01*
X24659Y-40996D01*
X24660Y-41000D01*
X25160Y-43250D02*
X25156Y-43281D01*
X25147Y-43310D01*
X25133Y-43338D01*
X25113Y-43362D01*
X25089Y-43382D01*
X25062Y-43397D01*
X25032Y-43406D01*
X25001Y-43409D01*
X24971Y-43407D01*
X24941Y-43398D01*
X24913Y-43383D01*
X24889Y-43364D01*
X24868Y-43340D01*
X24853Y-43313D01*
X24844Y-43283D01*
X24841Y-43252D01*
X24843Y-43222D01*
X24852Y-43192D01*
X24866Y-43164D01*
X24885Y-43139D01*
X24909Y-43119D01*
X24936Y-43104D01*
X24966Y-43094D01*
X24997Y-43091D01*
X25027Y-43093D01*
X25057Y-43101D01*
X25085Y-43115D01*
X25110Y-43135D01*
X25130Y-43158D01*
X25146Y-43185D01*
X25156Y-43215D01*
X25159Y-43246D01*
X25160Y-43250D01*
X25160Y-50500D02*
X25156Y-50531D01*
X25147Y-50560D01*
X25133Y-50588D01*
X25113Y-50612D01*
X25089Y-50632D01*
X25062Y-50647D01*
X25032Y-50656D01*
X25001Y-50659D01*
X24971Y-50657D01*
X24941Y-50648D01*
X24913Y-50633D01*
X24889Y-50614D01*
X24868Y-50590D01*
X24853Y-50563D01*
X24844Y-50533D01*
X24841Y-50502D01*
X24843Y-50472D01*
X24852Y-50442D01*
X24866Y-50414D01*
X24885Y-50389D01*
X24909Y-50369D01*
X24936Y-50354D01*
X24966Y-50344D01*
X24997Y-50341D01*
X25027Y-50343D01*
X25057Y-50351D01*
X25085Y-50365D01*
X25110Y-50385D01*
X25130Y-50408D01*
X25146Y-50435D01*
X25156Y-50465D01*
X25159Y-50496D01*
X25160Y-50500D01*
X25160Y-51500D02*
X25156Y-51531D01*
X25147Y-51560D01*
X25133Y-51588D01*
X25113Y-51612D01*
X25089Y-51632D01*
X25062Y-51647D01*
X25032Y-51656D01*
X25001Y-51659D01*
X24971Y-51657D01*
X24941Y-51648D01*
X24913Y-51633D01*
X24889Y-51614D01*
X24868Y-51590D01*
X24853Y-51563D01*
X24844Y-51533D01*
X24841Y-51502D01*
X24843Y-51472D01*
X24852Y-51442D01*
X24866Y-51414D01*
X24885Y-51389D01*
X24909Y-51369D01*
X24936Y-51354D01*
X24966Y-51344D01*
X24997Y-51341D01*
X25027Y-51343D01*
X25057Y-51351D01*
X25085Y-51365D01*
X25110Y-51385D01*
X25130Y-51408D01*
X25146Y-51435D01*
X25156Y-51465D01*
X25159Y-51496D01*
X25160Y-51500D01*
X25160Y-52500D02*
X25156Y-52531D01*
X25147Y-52560D01*
X25133Y-52588D01*
X25113Y-52612D01*
X25089Y-52632D01*
X25062Y-52647D01*
X25032Y-52656D01*
X25001Y-52659D01*
X24971Y-52657D01*
X24941Y-52648D01*
X24913Y-52633D01*
X24889Y-52614D01*
X24868Y-52590D01*
X24853Y-52563D01*
X24844Y-52533D01*
X24841Y-52502D01*
X24843Y-52472D01*
X24852Y-52442D01*
X24866Y-52414D01*
X24885Y-52389D01*
X24909Y-52369D01*
X24936Y-52354D01*
X24966Y-52344D01*
X24997Y-52341D01*
X25027Y-52343D01*
X25057Y-52351D01*
X25085Y-52365D01*
X25110Y-52385D01*
X25130Y-52408D01*
X25146Y-52435D01*
X25156Y-52465D01*
X25159Y-52496D01*
X25160Y-52500D01*
X25160Y-53500D02*
X25156Y-53531D01*
X25147Y-53560D01*
X25133Y-53588D01*
X25113Y-53612D01*
X25089Y-53632D01*
X25062Y-53647D01*
X25032Y-53656D01*
X25001Y-53659D01*
X24971Y-53657D01*
X24941Y-53648D01*
X24913Y-53633D01*
X24889Y-53614D01*
X24868Y-53590D01*
X24853Y-53563D01*
X24844Y-53533D01*
X24841Y-53502D01*
X24843Y-53472D01*
X24852Y-53442D01*
X24866Y-53414D01*
X24885Y-53389D01*
X24909Y-53369D01*
X24936Y-53354D01*
X24966Y-53344D01*
X24997Y-53341D01*
X25027Y-53343D01*
X25057Y-53351D01*
X25085Y-53365D01*
X25110Y-53385D01*
X25130Y-53408D01*
X25146Y-53435D01*
X25156Y-53465D01*
X25159Y-53496D01*
X25160Y-53500D01*
X25160Y-54500D02*
X25156Y-54531D01*
X25147Y-54560D01*
X25133Y-54588D01*
X25113Y-54612D01*
X25089Y-54632D01*
X25062Y-54647D01*
X25032Y-54656D01*
X25001Y-54659D01*
X24971Y-54657D01*
X24941Y-54648D01*
X24913Y-54633D01*
X24889Y-54614D01*
X24868Y-54590D01*
X24853Y-54563D01*
X24844Y-54533D01*
X24841Y-54502D01*
X24843Y-54472D01*
X24852Y-54442D01*
X24866Y-54414D01*
X24885Y-54389D01*
X24909Y-54369D01*
X24936Y-54354D01*
X24966Y-54344D01*
X24997Y-54341D01*
X25027Y-54343D01*
X25057Y-54351D01*
X25085Y-54365D01*
X25110Y-54385D01*
X25130Y-54408D01*
X25146Y-54435D01*
X25156Y-54465D01*
X25159Y-54496D01*
X25160Y-54500D01*
X25160Y-55500D02*
X25156Y-55531D01*
X25147Y-55560D01*
X25133Y-55588D01*
X25113Y-55612D01*
X25089Y-55632D01*
X25062Y-55647D01*
X25032Y-55656D01*
X25001Y-55659D01*
X24971Y-55657D01*
X24941Y-55648D01*
X24913Y-55633D01*
X24889Y-55614D01*
X24868Y-55590D01*
X24853Y-55563D01*
X24844Y-55533D01*
X24841Y-55502D01*
X24843Y-55472D01*
X24852Y-55442D01*
X24866Y-55414D01*
X24885Y-55389D01*
X24909Y-55369D01*
X24936Y-55354D01*
X24966Y-55344D01*
X24997Y-55341D01*
X25027Y-55343D01*
X25057Y-55351D01*
X25085Y-55365D01*
X25110Y-55385D01*
X25130Y-55408D01*
X25146Y-55435D01*
X25156Y-55465D01*
X25159Y-55496D01*
X25160Y-55500D01*
X25160Y-56500D02*
X25156Y-56531D01*
X25147Y-56560D01*
X25133Y-56588D01*
X25113Y-56612D01*
X25089Y-56632D01*
X25062Y-56647D01*
X25032Y-56656D01*
X25001Y-56659D01*
X24971Y-56657D01*
X24941Y-56648D01*
X24913Y-56633D01*
X24889Y-56614D01*
X24868Y-56590D01*
X24853Y-56563D01*
X24844Y-56533D01*
X24841Y-56502D01*
X24843Y-56472D01*
X24852Y-56442D01*
X24866Y-56414D01*
X24885Y-56389D01*
X24909Y-56369D01*
X24936Y-56354D01*
X24966Y-56344D01*
X24997Y-56341D01*
X25027Y-56343D01*
X25057Y-56351D01*
X25085Y-56365D01*
X25110Y-56385D01*
X25130Y-56408D01*
X25146Y-56435D01*
X25156Y-56465D01*
X25159Y-56496D01*
X25160Y-56500D01*
X25160Y-57500D02*
X25156Y-57531D01*
X25147Y-57560D01*
X25133Y-57588D01*
X25113Y-57612D01*
X25089Y-57632D01*
X25062Y-57647D01*
X25032Y-57656D01*
X25001Y-57659D01*
X24971Y-57657D01*
X24941Y-57648D01*
X24913Y-57633D01*
X24889Y-57614D01*
X24868Y-57590D01*
X24853Y-57563D01*
X24844Y-57533D01*
X24841Y-57502D01*
X24843Y-57472D01*
X24852Y-57442D01*
X24866Y-57414D01*
X24885Y-57389D01*
X24909Y-57369D01*
X24936Y-57354D01*
X24966Y-57344D01*
X24997Y-57341D01*
X25027Y-57343D01*
X25057Y-57351D01*
X25085Y-57365D01*
X25110Y-57385D01*
X25130Y-57408D01*
X25146Y-57435D01*
X25156Y-57465D01*
X25159Y-57496D01*
X25160Y-57500D01*
X25160Y-58500D02*
X25156Y-58531D01*
X25147Y-58560D01*
X25133Y-58588D01*
X25113Y-58612D01*
X25089Y-58632D01*
X25062Y-58647D01*
X25032Y-58656D01*
X25001Y-58659D01*
X24971Y-58657D01*
X24941Y-58648D01*
X24913Y-58633D01*
X24889Y-58614D01*
X24868Y-58590D01*
X24853Y-58563D01*
X24844Y-58533D01*
X24841Y-58502D01*
X24843Y-58472D01*
X24852Y-58442D01*
X24866Y-58414D01*
X24885Y-58389D01*
X24909Y-58369D01*
X24936Y-58354D01*
X24966Y-58344D01*
X24997Y-58341D01*
X25027Y-58343D01*
X25057Y-58351D01*
X25085Y-58365D01*
X25110Y-58385D01*
X25130Y-58408D01*
X25146Y-58435D01*
X25156Y-58465D01*
X25159Y-58496D01*
X25160Y-58500D01*
X25160Y-62500D02*
X25156Y-62531D01*
X25147Y-62560D01*
X25133Y-62588D01*
X25113Y-62612D01*
X25089Y-62632D01*
X25062Y-62647D01*
X25032Y-62656D01*
X25001Y-62659D01*
X24971Y-62657D01*
X24941Y-62648D01*
X24913Y-62633D01*
X24889Y-62614D01*
X24868Y-62590D01*
X24853Y-62563D01*
X24844Y-62533D01*
X24841Y-62502D01*
X24843Y-62472D01*
X24852Y-62442D01*
X24866Y-62414D01*
X24885Y-62389D01*
X24909Y-62369D01*
X24936Y-62354D01*
X24966Y-62344D01*
X24997Y-62341D01*
X25027Y-62343D01*
X25057Y-62351D01*
X25085Y-62365D01*
X25110Y-62385D01*
X25130Y-62408D01*
X25146Y-62435D01*
X25156Y-62465D01*
X25159Y-62496D01*
X25160Y-62500D01*
X25160Y-63500D02*
X25156Y-63531D01*
X25147Y-63560D01*
X25133Y-63588D01*
X25113Y-63612D01*
X25089Y-63632D01*
X25062Y-63647D01*
X25032Y-63656D01*
X25001Y-63659D01*
X24971Y-63657D01*
X24941Y-63648D01*
X24913Y-63633D01*
X24889Y-63614D01*
X24868Y-63590D01*
X24853Y-63563D01*
X24844Y-63533D01*
X24841Y-63502D01*
X24843Y-63472D01*
X24852Y-63442D01*
X24866Y-63414D01*
X24885Y-63389D01*
X24909Y-63369D01*
X24936Y-63354D01*
X24966Y-63344D01*
X24997Y-63341D01*
X25027Y-63343D01*
X25057Y-63351D01*
X25085Y-63365D01*
X25110Y-63385D01*
X25130Y-63408D01*
X25146Y-63435D01*
X25156Y-63465D01*
X25159Y-63496D01*
X25160Y-63500D01*
X25910Y-60000D02*
X25906Y-60031D01*
X25897Y-60060D01*
X25883Y-60088D01*
X25863Y-60112D01*
X25839Y-60132D01*
X25812Y-60147D01*
X25782Y-60156D01*
X25751Y-60159D01*
X25721Y-60157D01*
X25691Y-60148D01*
X25663Y-60133D01*
X25639Y-60114D01*
X25618Y-60090D01*
X25603Y-60063D01*
X25594Y-60033D01*
X25591Y-60002D01*
X25593Y-59972D01*
X25602Y-59942D01*
X25616Y-59914D01*
X25635Y-59889D01*
X25659Y-59869D01*
X25686Y-59854D01*
X25716Y-59844D01*
X25747Y-59841D01*
X25777Y-59843D01*
X25807Y-59851D01*
X25835Y-59865D01*
X25860Y-59885D01*
X25880Y-59908D01*
X25896Y-59935D01*
X25906Y-59965D01*
X25909Y-59996D01*
X25910Y-60000D01*
X25910Y-61250D02*
X25906Y-61281D01*
X25897Y-61310D01*
X25883Y-61338D01*
X25863Y-61362D01*
X25839Y-61382D01*
X25812Y-61397D01*
X25782Y-61406D01*
X25751Y-61409D01*
X25721Y-61407D01*
X25691Y-61398D01*
X25663Y-61383D01*
X25639Y-61364D01*
X25618Y-61340D01*
X25603Y-61313D01*
X25594Y-61283D01*
X25591Y-61252D01*
X25593Y-61222D01*
X25602Y-61192D01*
X25616Y-61164D01*
X25635Y-61139D01*
X25659Y-61119D01*
X25686Y-61104D01*
X25716Y-61094D01*
X25747Y-61091D01*
X25777Y-61093D01*
X25807Y-61101D01*
X25835Y-61115D01*
X25860Y-61135D01*
X25880Y-61158D01*
X25896Y-61185D01*
X25906Y-61215D01*
X25909Y-61246D01*
X25910Y-61250D01*
X25910Y-71000D02*
X25906Y-71031D01*
X25897Y-71060D01*
X25883Y-71088D01*
X25863Y-71112D01*
X25839Y-71132D01*
X25812Y-71147D01*
X25782Y-71156D01*
X25751Y-71159D01*
X25721Y-71157D01*
X25691Y-71148D01*
X25663Y-71133D01*
X25639Y-71114D01*
X25618Y-71090D01*
X25603Y-71063D01*
X25594Y-71033D01*
X25591Y-71002D01*
X25593Y-70972D01*
X25602Y-70942D01*
X25616Y-70914D01*
X25635Y-70889D01*
X25659Y-70869D01*
X25686Y-70854D01*
X25716Y-70844D01*
X25747Y-70841D01*
X25777Y-70843D01*
X25807Y-70851D01*
X25835Y-70865D01*
X25860Y-70885D01*
X25880Y-70908D01*
X25896Y-70935D01*
X25906Y-70965D01*
X25909Y-70996D01*
X25910Y-71000D01*
X25910Y-74500D02*
X25906Y-74531D01*
X25897Y-74560D01*
X25883Y-74588D01*
X25863Y-74612D01*
X25839Y-74632D01*
X25812Y-74647D01*
X25782Y-74656D01*
X25751Y-74659D01*
X25721Y-74657D01*
X25691Y-74648D01*
X25663Y-74633D01*
X25639Y-74614D01*
X25618Y-74590D01*
X25603Y-74563D01*
X25594Y-74533D01*
X25591Y-74502D01*
X25593Y-74472D01*
X25602Y-74442D01*
X25616Y-74414D01*
X25635Y-74389D01*
X25659Y-74369D01*
X25686Y-74354D01*
X25716Y-74344D01*
X25747Y-74341D01*
X25777Y-74343D01*
X25807Y-74351D01*
X25835Y-74365D01*
X25860Y-74385D01*
X25880Y-74408D01*
X25896Y-74435D01*
X25906Y-74465D01*
X25909Y-74496D01*
X25910Y-74500D01*
X26160Y-69750D02*
X26156Y-69781D01*
X26147Y-69810D01*
X26133Y-69838D01*
X26113Y-69862D01*
X26089Y-69882D01*
X26062Y-69897D01*
X26032Y-69906D01*
X26001Y-69909D01*
X25971Y-69907D01*
X25941Y-69898D01*
X25913Y-69883D01*
X25889Y-69864D01*
X25868Y-69840D01*
X25853Y-69813D01*
X25844Y-69783D01*
X25841Y-69752D01*
X25843Y-69722D01*
X25852Y-69692D01*
X25866Y-69664D01*
X25885Y-69639D01*
X25909Y-69619D01*
X25936Y-69604D01*
X25966Y-69594D01*
X25997Y-69591D01*
X26027Y-69593D01*
X26057Y-69601D01*
X26085Y-69615D01*
X26110Y-69635D01*
X26130Y-69658D01*
X26146Y-69685D01*
X26156Y-69715D01*
X26159Y-69746D01*
X26160Y-69750D01*
X26160Y-75750D02*
X26156Y-75781D01*
X26147Y-75810D01*
X26133Y-75838D01*
X26113Y-75862D01*
X26089Y-75882D01*
X26062Y-75897D01*
X26032Y-75906D01*
X26001Y-75909D01*
X25971Y-75907D01*
X25941Y-75898D01*
X25913Y-75883D01*
X25889Y-75864D01*
X25868Y-75840D01*
X25853Y-75813D01*
X25844Y-75783D01*
X25841Y-75752D01*
X25843Y-75722D01*
X25852Y-75692D01*
X25866Y-75664D01*
X25885Y-75639D01*
X25909Y-75619D01*
X25936Y-75604D01*
X25966Y-75594D01*
X25997Y-75591D01*
X26027Y-75593D01*
X26057Y-75601D01*
X26085Y-75615D01*
X26110Y-75635D01*
X26130Y-75658D01*
X26146Y-75685D01*
X26156Y-75715D01*
X26159Y-75746D01*
X26160Y-75750D01*
X26410Y-44250D02*
X26406Y-44281D01*
X26397Y-44310D01*
X26383Y-44338D01*
X26363Y-44362D01*
X26339Y-44382D01*
X26312Y-44397D01*
X26282Y-44406D01*
X26251Y-44409D01*
X26221Y-44407D01*
X26191Y-44398D01*
X26163Y-44383D01*
X26139Y-44364D01*
X26118Y-44340D01*
X26103Y-44313D01*
X26094Y-44283D01*
X26091Y-44252D01*
X26093Y-44222D01*
X26102Y-44192D01*
X26116Y-44164D01*
X26135Y-44139D01*
X26159Y-44119D01*
X26186Y-44104D01*
X26216Y-44094D01*
X26247Y-44091D01*
X26277Y-44093D01*
X26307Y-44101D01*
X26335Y-44115D01*
X26360Y-44135D01*
X26380Y-44158D01*
X26396Y-44185D01*
X26406Y-44215D01*
X26409Y-44246D01*
X26410Y-44250D01*
X26410Y-45250D02*
X26406Y-45281D01*
X26397Y-45310D01*
X26383Y-45338D01*
X26363Y-45362D01*
X26339Y-45382D01*
X26312Y-45397D01*
X26282Y-45406D01*
X26251Y-45409D01*
X26221Y-45407D01*
X26191Y-45398D01*
X26163Y-45383D01*
X26139Y-45364D01*
X26118Y-45340D01*
X26103Y-45313D01*
X26094Y-45283D01*
X26091Y-45252D01*
X26093Y-45222D01*
X26102Y-45192D01*
X26116Y-45164D01*
X26135Y-45139D01*
X26159Y-45119D01*
X26186Y-45104D01*
X26216Y-45094D01*
X26247Y-45091D01*
X26277Y-45093D01*
X26307Y-45101D01*
X26335Y-45115D01*
X26360Y-45135D01*
X26380Y-45158D01*
X26396Y-45185D01*
X26406Y-45215D01*
X26409Y-45246D01*
X26410Y-45250D01*
X26410Y-62500D02*
X26406Y-62531D01*
X26397Y-62560D01*
X26383Y-62588D01*
X26363Y-62612D01*
X26339Y-62632D01*
X26312Y-62647D01*
X26282Y-62656D01*
X26251Y-62659D01*
X26221Y-62657D01*
X26191Y-62648D01*
X26163Y-62633D01*
X26139Y-62614D01*
X26118Y-62590D01*
X26103Y-62563D01*
X26094Y-62533D01*
X26091Y-62502D01*
X26093Y-62472D01*
X26102Y-62442D01*
X26116Y-62414D01*
X26135Y-62389D01*
X26159Y-62369D01*
X26186Y-62354D01*
X26216Y-62344D01*
X26247Y-62341D01*
X26277Y-62343D01*
X26307Y-62351D01*
X26335Y-62365D01*
X26360Y-62385D01*
X26380Y-62408D01*
X26396Y-62435D01*
X26406Y-62465D01*
X26409Y-62496D01*
X26410Y-62500D01*
X26410Y-63500D02*
X26406Y-63531D01*
X26397Y-63560D01*
X26383Y-63588D01*
X26363Y-63612D01*
X26339Y-63632D01*
X26312Y-63647D01*
X26282Y-63656D01*
X26251Y-63659D01*
X26221Y-63657D01*
X26191Y-63648D01*
X26163Y-63633D01*
X26139Y-63614D01*
X26118Y-63590D01*
X26103Y-63563D01*
X26094Y-63533D01*
X26091Y-63502D01*
X26093Y-63472D01*
X26102Y-63442D01*
X26116Y-63414D01*
X26135Y-63389D01*
X26159Y-63369D01*
X26186Y-63354D01*
X26216Y-63344D01*
X26247Y-63341D01*
X26277Y-63343D01*
X26307Y-63351D01*
X26335Y-63365D01*
X26360Y-63385D01*
X26380Y-63408D01*
X26396Y-63435D01*
X26406Y-63465D01*
X26409Y-63496D01*
X26410Y-63500D01*
X26410Y-65000D02*
X26406Y-65031D01*
X26397Y-65060D01*
X26383Y-65088D01*
X26363Y-65112D01*
X26339Y-65132D01*
X26312Y-65147D01*
X26282Y-65156D01*
X26251Y-65159D01*
X26221Y-65157D01*
X26191Y-65148D01*
X26163Y-65133D01*
X26139Y-65114D01*
X26118Y-65090D01*
X26103Y-65063D01*
X26094Y-65033D01*
X26091Y-65002D01*
X26093Y-64972D01*
X26102Y-64942D01*
X26116Y-64914D01*
X26135Y-64889D01*
X26159Y-64869D01*
X26186Y-64854D01*
X26216Y-64844D01*
X26247Y-64841D01*
X26277Y-64843D01*
X26307Y-64851D01*
X26335Y-64865D01*
X26360Y-64885D01*
X26380Y-64908D01*
X26396Y-64935D01*
X26406Y-64965D01*
X26409Y-64996D01*
X26410Y-65000D01*
X26410Y-66000D02*
X26406Y-66031D01*
X26397Y-66060D01*
X26383Y-66088D01*
X26363Y-66112D01*
X26339Y-66132D01*
X26312Y-66147D01*
X26282Y-66156D01*
X26251Y-66159D01*
X26221Y-66157D01*
X26191Y-66148D01*
X26163Y-66133D01*
X26139Y-66114D01*
X26118Y-66090D01*
X26103Y-66063D01*
X26094Y-66033D01*
X26091Y-66002D01*
X26093Y-65972D01*
X26102Y-65942D01*
X26116Y-65914D01*
X26135Y-65889D01*
X26159Y-65869D01*
X26186Y-65854D01*
X26216Y-65844D01*
X26247Y-65841D01*
X26277Y-65843D01*
X26307Y-65851D01*
X26335Y-65865D01*
X26360Y-65885D01*
X26380Y-65908D01*
X26396Y-65935D01*
X26406Y-65965D01*
X26409Y-65996D01*
X26410Y-66000D01*
X26410Y-67000D02*
X26406Y-67031D01*
X26397Y-67060D01*
X26383Y-67088D01*
X26363Y-67112D01*
X26339Y-67132D01*
X26312Y-67147D01*
X26282Y-67156D01*
X26251Y-67159D01*
X26221Y-67157D01*
X26191Y-67148D01*
X26163Y-67133D01*
X26139Y-67114D01*
X26118Y-67090D01*
X26103Y-67063D01*
X26094Y-67033D01*
X26091Y-67002D01*
X26093Y-66972D01*
X26102Y-66942D01*
X26116Y-66914D01*
X26135Y-66889D01*
X26159Y-66869D01*
X26186Y-66854D01*
X26216Y-66844D01*
X26247Y-66841D01*
X26277Y-66843D01*
X26307Y-66851D01*
X26335Y-66865D01*
X26360Y-66885D01*
X26380Y-66908D01*
X26396Y-66935D01*
X26406Y-66965D01*
X26409Y-66996D01*
X26410Y-67000D01*
X26410Y-68000D02*
X26406Y-68031D01*
X26397Y-68060D01*
X26383Y-68088D01*
X26363Y-68112D01*
X26339Y-68132D01*
X26312Y-68147D01*
X26282Y-68156D01*
X26251Y-68159D01*
X26221Y-68157D01*
X26191Y-68148D01*
X26163Y-68133D01*
X26139Y-68114D01*
X26118Y-68090D01*
X26103Y-68063D01*
X26094Y-68033D01*
X26091Y-68002D01*
X26093Y-67972D01*
X26102Y-67942D01*
X26116Y-67914D01*
X26135Y-67889D01*
X26159Y-67869D01*
X26186Y-67854D01*
X26216Y-67844D01*
X26247Y-67841D01*
X26277Y-67843D01*
X26307Y-67851D01*
X26335Y-67865D01*
X26360Y-67885D01*
X26380Y-67908D01*
X26396Y-67935D01*
X26406Y-67965D01*
X26409Y-67996D01*
X26410Y-68000D01*
X26660Y-46250D02*
X26656Y-46281D01*
X26647Y-46310D01*
X26633Y-46338D01*
X26613Y-46362D01*
X26589Y-46382D01*
X26562Y-46397D01*
X26532Y-46406D01*
X26501Y-46409D01*
X26471Y-46407D01*
X26441Y-46398D01*
X26413Y-46383D01*
X26389Y-46364D01*
X26368Y-46340D01*
X26353Y-46313D01*
X26344Y-46283D01*
X26341Y-46252D01*
X26343Y-46222D01*
X26352Y-46192D01*
X26366Y-46164D01*
X26385Y-46139D01*
X26409Y-46119D01*
X26436Y-46104D01*
X26466Y-46094D01*
X26497Y-46091D01*
X26527Y-46093D01*
X26557Y-46101D01*
X26585Y-46115D01*
X26610Y-46135D01*
X26630Y-46158D01*
X26646Y-46185D01*
X26656Y-46215D01*
X26659Y-46246D01*
X26660Y-46250D01*
X26660Y-47500D02*
X26656Y-47531D01*
X26647Y-47560D01*
X26633Y-47588D01*
X26613Y-47612D01*
X26589Y-47632D01*
X26562Y-47647D01*
X26532Y-47656D01*
X26501Y-47659D01*
X26471Y-47657D01*
X26441Y-47648D01*
X26413Y-47633D01*
X26389Y-47614D01*
X26368Y-47590D01*
X26353Y-47563D01*
X26344Y-47533D01*
X26341Y-47502D01*
X26343Y-47472D01*
X26352Y-47442D01*
X26366Y-47414D01*
X26385Y-47389D01*
X26409Y-47369D01*
X26436Y-47354D01*
X26466Y-47344D01*
X26497Y-47341D01*
X26527Y-47343D01*
X26557Y-47351D01*
X26585Y-47365D01*
X26610Y-47385D01*
X26630Y-47408D01*
X26646Y-47435D01*
X26656Y-47465D01*
X26659Y-47496D01*
X26660Y-47500D01*
X27160Y-69750D02*
X27156Y-69781D01*
X27147Y-69810D01*
X27133Y-69838D01*
X27113Y-69862D01*
X27089Y-69882D01*
X27062Y-69897D01*
X27032Y-69906D01*
X27001Y-69909D01*
X26971Y-69907D01*
X26941Y-69898D01*
X26913Y-69883D01*
X26889Y-69864D01*
X26868Y-69840D01*
X26853Y-69813D01*
X26844Y-69783D01*
X26841Y-69752D01*
X26843Y-69722D01*
X26852Y-69692D01*
X26866Y-69664D01*
X26885Y-69639D01*
X26909Y-69619D01*
X26936Y-69604D01*
X26966Y-69594D01*
X26997Y-69591D01*
X27027Y-69593D01*
X27057Y-69601D01*
X27085Y-69615D01*
X27110Y-69635D01*
X27130Y-69658D01*
X27146Y-69685D01*
X27156Y-69715D01*
X27159Y-69746D01*
X27160Y-69750D01*
X27160Y-71500D02*
X27156Y-71531D01*
X27147Y-71560D01*
X27133Y-71588D01*
X27113Y-71612D01*
X27089Y-71632D01*
X27062Y-71647D01*
X27032Y-71656D01*
X27001Y-71659D01*
X26971Y-71657D01*
X26941Y-71648D01*
X26913Y-71633D01*
X26889Y-71614D01*
X26868Y-71590D01*
X26853Y-71563D01*
X26844Y-71533D01*
X26841Y-71502D01*
X26843Y-71472D01*
X26852Y-71442D01*
X26866Y-71414D01*
X26885Y-71389D01*
X26909Y-71369D01*
X26936Y-71354D01*
X26966Y-71344D01*
X26997Y-71341D01*
X27027Y-71343D01*
X27057Y-71351D01*
X27085Y-71365D01*
X27110Y-71385D01*
X27130Y-71408D01*
X27146Y-71435D01*
X27156Y-71465D01*
X27159Y-71496D01*
X27160Y-71500D01*
X27160Y-72500D02*
X27156Y-72531D01*
X27147Y-72560D01*
X27133Y-72588D01*
X27113Y-72612D01*
X27089Y-72632D01*
X27062Y-72647D01*
X27032Y-72656D01*
X27001Y-72659D01*
X26971Y-72657D01*
X26941Y-72648D01*
X26913Y-72633D01*
X26889Y-72614D01*
X26868Y-72590D01*
X26853Y-72563D01*
X26844Y-72533D01*
X26841Y-72502D01*
X26843Y-72472D01*
X26852Y-72442D01*
X26866Y-72414D01*
X26885Y-72389D01*
X26909Y-72369D01*
X26936Y-72354D01*
X26966Y-72344D01*
X26997Y-72341D01*
X27027Y-72343D01*
X27057Y-72351D01*
X27085Y-72365D01*
X27110Y-72385D01*
X27130Y-72408D01*
X27146Y-72435D01*
X27156Y-72465D01*
X27159Y-72496D01*
X27160Y-72500D01*
X27160Y-73500D02*
X27156Y-73531D01*
X27147Y-73560D01*
X27133Y-73588D01*
X27113Y-73612D01*
X27089Y-73632D01*
X27062Y-73647D01*
X27032Y-73656D01*
X27001Y-73659D01*
X26971Y-73657D01*
X26941Y-73648D01*
X26913Y-73633D01*
X26889Y-73614D01*
X26868Y-73590D01*
X26853Y-73563D01*
X26844Y-73533D01*
X26841Y-73502D01*
X26843Y-73472D01*
X26852Y-73442D01*
X26866Y-73414D01*
X26885Y-73389D01*
X26909Y-73369D01*
X26936Y-73354D01*
X26966Y-73344D01*
X26997Y-73341D01*
X27027Y-73343D01*
X27057Y-73351D01*
X27085Y-73365D01*
X27110Y-73385D01*
X27130Y-73408D01*
X27146Y-73435D01*
X27156Y-73465D01*
X27159Y-73496D01*
X27160Y-73500D01*
X27160Y-74500D02*
X27156Y-74531D01*
X27147Y-74560D01*
X27133Y-74588D01*
X27113Y-74612D01*
X27089Y-74632D01*
X27062Y-74647D01*
X27032Y-74656D01*
X27001Y-74659D01*
X26971Y-74657D01*
X26941Y-74648D01*
X26913Y-74633D01*
X26889Y-74614D01*
X26868Y-74590D01*
X26853Y-74563D01*
X26844Y-74533D01*
X26841Y-74502D01*
X26843Y-74472D01*
X26852Y-74442D01*
X26866Y-74414D01*
X26885Y-74389D01*
X26909Y-74369D01*
X26936Y-74354D01*
X26966Y-74344D01*
X26997Y-74341D01*
X27027Y-74343D01*
X27057Y-74351D01*
X27085Y-74365D01*
X27110Y-74385D01*
X27130Y-74408D01*
X27146Y-74435D01*
X27156Y-74465D01*
X27159Y-74496D01*
X27160Y-74500D01*
X27160Y-75750D02*
X27156Y-75781D01*
X27147Y-75810D01*
X27133Y-75838D01*
X27113Y-75862D01*
X27089Y-75882D01*
X27062Y-75897D01*
X27032Y-75906D01*
X27001Y-75909D01*
X26971Y-75907D01*
X26941Y-75898D01*
X26913Y-75883D01*
X26889Y-75864D01*
X26868Y-75840D01*
X26853Y-75813D01*
X26844Y-75783D01*
X26841Y-75752D01*
X26843Y-75722D01*
X26852Y-75692D01*
X26866Y-75664D01*
X26885Y-75639D01*
X26909Y-75619D01*
X26936Y-75604D01*
X26966Y-75594D01*
X26997Y-75591D01*
X27027Y-75593D01*
X27057Y-75601D01*
X27085Y-75615D01*
X27110Y-75635D01*
X27130Y-75658D01*
X27146Y-75685D01*
X27156Y-75715D01*
X27159Y-75746D01*
X27160Y-75750D01*
X27410Y-44250D02*
X27406Y-44281D01*
X27397Y-44310D01*
X27383Y-44338D01*
X27363Y-44362D01*
X27339Y-44382D01*
X27312Y-44397D01*
X27282Y-44406D01*
X27251Y-44409D01*
X27221Y-44407D01*
X27191Y-44398D01*
X27163Y-44383D01*
X27139Y-44364D01*
X27118Y-44340D01*
X27103Y-44313D01*
X27094Y-44283D01*
X27091Y-44252D01*
X27093Y-44222D01*
X27102Y-44192D01*
X27116Y-44164D01*
X27135Y-44139D01*
X27159Y-44119D01*
X27186Y-44104D01*
X27216Y-44094D01*
X27247Y-44091D01*
X27277Y-44093D01*
X27307Y-44101D01*
X27335Y-44115D01*
X27360Y-44135D01*
X27380Y-44158D01*
X27396Y-44185D01*
X27406Y-44215D01*
X27409Y-44246D01*
X27410Y-44250D01*
X27660Y-34000D02*
X27656Y-34031D01*
X27647Y-34060D01*
X27633Y-34088D01*
X27613Y-34112D01*
X27589Y-34132D01*
X27562Y-34147D01*
X27532Y-34156D01*
X27501Y-34159D01*
X27471Y-34157D01*
X27441Y-34148D01*
X27413Y-34133D01*
X27389Y-34114D01*
X27368Y-34090D01*
X27353Y-34063D01*
X27344Y-34033D01*
X27341Y-34002D01*
X27343Y-33972D01*
X27352Y-33942D01*
X27366Y-33914D01*
X27385Y-33889D01*
X27409Y-33869D01*
X27436Y-33854D01*
X27466Y-33844D01*
X27497Y-33841D01*
X27527Y-33843D01*
X27557Y-33851D01*
X27585Y-33865D01*
X27610Y-33885D01*
X27630Y-33908D01*
X27646Y-33935D01*
X27656Y-33965D01*
X27659Y-33996D01*
X27660Y-34000D01*
X27660Y-35000D02*
X27656Y-35031D01*
X27647Y-35060D01*
X27633Y-35088D01*
X27613Y-35112D01*
X27589Y-35132D01*
X27562Y-35147D01*
X27532Y-35156D01*
X27501Y-35159D01*
X27471Y-35157D01*
X27441Y-35148D01*
X27413Y-35133D01*
X27389Y-35114D01*
X27368Y-35090D01*
X27353Y-35063D01*
X27344Y-35033D01*
X27341Y-35002D01*
X27343Y-34972D01*
X27352Y-34942D01*
X27366Y-34914D01*
X27385Y-34889D01*
X27409Y-34869D01*
X27436Y-34854D01*
X27466Y-34844D01*
X27497Y-34841D01*
X27527Y-34843D01*
X27557Y-34851D01*
X27585Y-34865D01*
X27610Y-34885D01*
X27630Y-34908D01*
X27646Y-34935D01*
X27656Y-34965D01*
X27659Y-34996D01*
X27660Y-35000D01*
X27660Y-36000D02*
X27656Y-36031D01*
X27647Y-36060D01*
X27633Y-36088D01*
X27613Y-36112D01*
X27589Y-36132D01*
X27562Y-36147D01*
X27532Y-36156D01*
X27501Y-36159D01*
X27471Y-36157D01*
X27441Y-36148D01*
X27413Y-36133D01*
X27389Y-36114D01*
X27368Y-36090D01*
X27353Y-36063D01*
X27344Y-36033D01*
X27341Y-36002D01*
X27343Y-35972D01*
X27352Y-35942D01*
X27366Y-35914D01*
X27385Y-35889D01*
X27409Y-35869D01*
X27436Y-35854D01*
X27466Y-35844D01*
X27497Y-35841D01*
X27527Y-35843D01*
X27557Y-35851D01*
X27585Y-35865D01*
X27610Y-35885D01*
X27630Y-35908D01*
X27646Y-35935D01*
X27656Y-35965D01*
X27659Y-35996D01*
X27660Y-36000D01*
X27660Y-37000D02*
X27656Y-37031D01*
X27647Y-37060D01*
X27633Y-37088D01*
X27613Y-37112D01*
X27589Y-37132D01*
X27562Y-37147D01*
X27532Y-37156D01*
X27501Y-37159D01*
X27471Y-37157D01*
X27441Y-37148D01*
X27413Y-37133D01*
X27389Y-37114D01*
X27368Y-37090D01*
X27353Y-37063D01*
X27344Y-37033D01*
X27341Y-37002D01*
X27343Y-36972D01*
X27352Y-36942D01*
X27366Y-36914D01*
X27385Y-36889D01*
X27409Y-36869D01*
X27436Y-36854D01*
X27466Y-36844D01*
X27497Y-36841D01*
X27527Y-36843D01*
X27557Y-36851D01*
X27585Y-36865D01*
X27610Y-36885D01*
X27630Y-36908D01*
X27646Y-36935D01*
X27656Y-36965D01*
X27659Y-36996D01*
X27660Y-37000D01*
X27660Y-38000D02*
X27656Y-38031D01*
X27647Y-38060D01*
X27633Y-38088D01*
X27613Y-38112D01*
X27589Y-38132D01*
X27562Y-38147D01*
X27532Y-38156D01*
X27501Y-38159D01*
X27471Y-38157D01*
X27441Y-38148D01*
X27413Y-38133D01*
X27389Y-38114D01*
X27368Y-38090D01*
X27353Y-38063D01*
X27344Y-38033D01*
X27341Y-38002D01*
X27343Y-37972D01*
X27352Y-37942D01*
X27366Y-37914D01*
X27385Y-37889D01*
X27409Y-37869D01*
X27436Y-37854D01*
X27466Y-37844D01*
X27497Y-37841D01*
X27527Y-37843D01*
X27557Y-37851D01*
X27585Y-37865D01*
X27610Y-37885D01*
X27630Y-37908D01*
X27646Y-37935D01*
X27656Y-37965D01*
X27659Y-37996D01*
X27660Y-38000D01*
X27660Y-39000D02*
X27656Y-39031D01*
X27647Y-39060D01*
X27633Y-39088D01*
X27613Y-39112D01*
X27589Y-39132D01*
X27562Y-39147D01*
X27532Y-39156D01*
X27501Y-39159D01*
X27471Y-39157D01*
X27441Y-39148D01*
X27413Y-39133D01*
X27389Y-39114D01*
X27368Y-39090D01*
X27353Y-39063D01*
X27344Y-39033D01*
X27341Y-39002D01*
X27343Y-38972D01*
X27352Y-38942D01*
X27366Y-38914D01*
X27385Y-38889D01*
X27409Y-38869D01*
X27436Y-38854D01*
X27466Y-38844D01*
X27497Y-38841D01*
X27527Y-38843D01*
X27557Y-38851D01*
X27585Y-38865D01*
X27610Y-38885D01*
X27630Y-38908D01*
X27646Y-38935D01*
X27656Y-38965D01*
X27659Y-38996D01*
X27660Y-39000D01*
X27660Y-40000D02*
X27656Y-40031D01*
X27647Y-40060D01*
X27633Y-40088D01*
X27613Y-40112D01*
X27589Y-40132D01*
X27562Y-40147D01*
X27532Y-40156D01*
X27501Y-40159D01*
X27471Y-40157D01*
X27441Y-40148D01*
X27413Y-40133D01*
X27389Y-40114D01*
X27368Y-40090D01*
X27353Y-40063D01*
X27344Y-40033D01*
X27341Y-40002D01*
X27343Y-39972D01*
X27352Y-39942D01*
X27366Y-39914D01*
X27385Y-39889D01*
X27409Y-39869D01*
X27436Y-39854D01*
X27466Y-39844D01*
X27497Y-39841D01*
X27527Y-39843D01*
X27557Y-39851D01*
X27585Y-39865D01*
X27610Y-39885D01*
X27630Y-39908D01*
X27646Y-39935D01*
X27656Y-39965D01*
X27659Y-39996D01*
X27660Y-40000D01*
X27660Y-41000D02*
X27656Y-41031D01*
X27647Y-41060D01*
X27633Y-41088D01*
X27613Y-41112D01*
X27589Y-41132D01*
X27562Y-41147D01*
X27532Y-41156D01*
X27501Y-41159D01*
X27471Y-41157D01*
X27441Y-41148D01*
X27413Y-41133D01*
X27389Y-41114D01*
X27368Y-41090D01*
X27353Y-41063D01*
X27344Y-41033D01*
X27341Y-41002D01*
X27343Y-40972D01*
X27352Y-40942D01*
X27366Y-40914D01*
X27385Y-40889D01*
X27409Y-40869D01*
X27436Y-40854D01*
X27466Y-40844D01*
X27497Y-40841D01*
X27527Y-40843D01*
X27557Y-40851D01*
X27585Y-40865D01*
X27610Y-40885D01*
X27630Y-40908D01*
X27646Y-40935D01*
X27656Y-40965D01*
X27659Y-40996D01*
X27660Y-41000D01*
X28160Y-76250D02*
X28156Y-76281D01*
X28147Y-76310D01*
X28133Y-76338D01*
X28113Y-76362D01*
X28089Y-76382D01*
X28062Y-76397D01*
X28032Y-76406D01*
X28001Y-76409D01*
X27971Y-76407D01*
X27941Y-76398D01*
X27913Y-76383D01*
X27889Y-76364D01*
X27868Y-76340D01*
X27853Y-76313D01*
X27844Y-76283D01*
X27841Y-76252D01*
X27843Y-76222D01*
X27852Y-76192D01*
X27866Y-76164D01*
X27885Y-76139D01*
X27909Y-76119D01*
X27936Y-76104D01*
X27966Y-76094D01*
X27997Y-76091D01*
X28027Y-76093D01*
X28057Y-76101D01*
X28085Y-76115D01*
X28110Y-76135D01*
X28130Y-76158D01*
X28146Y-76185D01*
X28156Y-76215D01*
X28159Y-76246D01*
X28160Y-76250D01*
X28410Y-69750D02*
X28406Y-69781D01*
X28397Y-69810D01*
X28383Y-69838D01*
X28363Y-69862D01*
X28339Y-69882D01*
X28312Y-69897D01*
X28282Y-69906D01*
X28251Y-69909D01*
X28221Y-69907D01*
X28191Y-69898D01*
X28163Y-69883D01*
X28139Y-69864D01*
X28118Y-69840D01*
X28103Y-69813D01*
X28094Y-69783D01*
X28091Y-69752D01*
X28093Y-69722D01*
X28102Y-69692D01*
X28116Y-69664D01*
X28135Y-69639D01*
X28159Y-69619D01*
X28186Y-69604D01*
X28216Y-69594D01*
X28247Y-69591D01*
X28277Y-69593D01*
X28307Y-69601D01*
X28335Y-69615D01*
X28360Y-69635D01*
X28380Y-69658D01*
X28396Y-69685D01*
X28406Y-69715D01*
X28409Y-69746D01*
X28410Y-69750D01*
X28860Y-42600D02*
X28856Y-42631D01*
X28847Y-42660D01*
X28833Y-42688D01*
X28813Y-42712D01*
X28789Y-42732D01*
X28762Y-42747D01*
X28732Y-42756D01*
X28701Y-42759D01*
X28671Y-42757D01*
X28641Y-42748D01*
X28613Y-42733D01*
X28589Y-42714D01*
X28568Y-42690D01*
X28553Y-42663D01*
X28544Y-42633D01*
X28541Y-42602D01*
X28543Y-42572D01*
X28552Y-42542D01*
X28566Y-42514D01*
X28585Y-42489D01*
X28609Y-42469D01*
X28636Y-42454D01*
X28666Y-42444D01*
X28697Y-42441D01*
X28727Y-42443D01*
X28757Y-42451D01*
X28785Y-42465D01*
X28810Y-42485D01*
X28830Y-42508D01*
X28846Y-42535D01*
X28856Y-42565D01*
X28859Y-42596D01*
X28860Y-42600D01*
X28910Y-34000D02*
X28906Y-34031D01*
X28897Y-34060D01*
X28883Y-34088D01*
X28863Y-34112D01*
X28839Y-34132D01*
X28812Y-34147D01*
X28782Y-34156D01*
X28751Y-34159D01*
X28721Y-34157D01*
X28691Y-34148D01*
X28663Y-34133D01*
X28639Y-34114D01*
X28618Y-34090D01*
X28603Y-34063D01*
X28594Y-34033D01*
X28591Y-34002D01*
X28593Y-33972D01*
X28602Y-33942D01*
X28616Y-33914D01*
X28635Y-33889D01*
X28659Y-33869D01*
X28686Y-33854D01*
X28716Y-33844D01*
X28747Y-33841D01*
X28777Y-33843D01*
X28807Y-33851D01*
X28835Y-33865D01*
X28860Y-33885D01*
X28880Y-33908D01*
X28896Y-33935D01*
X28906Y-33965D01*
X28909Y-33996D01*
X28910Y-34000D01*
X28910Y-35000D02*
X28906Y-35031D01*
X28897Y-35060D01*
X28883Y-35088D01*
X28863Y-35112D01*
X28839Y-35132D01*
X28812Y-35147D01*
X28782Y-35156D01*
X28751Y-35159D01*
X28721Y-35157D01*
X28691Y-35148D01*
X28663Y-35133D01*
X28639Y-35114D01*
X28618Y-35090D01*
X28603Y-35063D01*
X28594Y-35033D01*
X28591Y-35002D01*
X28593Y-34972D01*
X28602Y-34942D01*
X28616Y-34914D01*
X28635Y-34889D01*
X28659Y-34869D01*
X28686Y-34854D01*
X28716Y-34844D01*
X28747Y-34841D01*
X28777Y-34843D01*
X28807Y-34851D01*
X28835Y-34865D01*
X28860Y-34885D01*
X28880Y-34908D01*
X28896Y-34935D01*
X28906Y-34965D01*
X28909Y-34996D01*
X28910Y-35000D01*
X28910Y-36000D02*
X28906Y-36031D01*
X28897Y-36060D01*
X28883Y-36088D01*
X28863Y-36112D01*
X28839Y-36132D01*
X28812Y-36147D01*
X28782Y-36156D01*
X28751Y-36159D01*
X28721Y-36157D01*
X28691Y-36148D01*
X28663Y-36133D01*
X28639Y-36114D01*
X28618Y-36090D01*
X28603Y-36063D01*
X28594Y-36033D01*
X28591Y-36002D01*
X28593Y-35972D01*
X28602Y-35942D01*
X28616Y-35914D01*
X28635Y-35889D01*
X28659Y-35869D01*
X28686Y-35854D01*
X28716Y-35844D01*
X28747Y-35841D01*
X28777Y-35843D01*
X28807Y-35851D01*
X28835Y-35865D01*
X28860Y-35885D01*
X28880Y-35908D01*
X28896Y-35935D01*
X28906Y-35965D01*
X28909Y-35996D01*
X28910Y-36000D01*
X28910Y-37000D02*
X28906Y-37031D01*
X28897Y-37060D01*
X28883Y-37088D01*
X28863Y-37112D01*
X28839Y-37132D01*
X28812Y-37147D01*
X28782Y-37156D01*
X28751Y-37159D01*
X28721Y-37157D01*
X28691Y-37148D01*
X28663Y-37133D01*
X28639Y-37114D01*
X28618Y-37090D01*
X28603Y-37063D01*
X28594Y-37033D01*
X28591Y-37002D01*
X28593Y-36972D01*
X28602Y-36942D01*
X28616Y-36914D01*
X28635Y-36889D01*
X28659Y-36869D01*
X28686Y-36854D01*
X28716Y-36844D01*
X28747Y-36841D01*
X28777Y-36843D01*
X28807Y-36851D01*
X28835Y-36865D01*
X28860Y-36885D01*
X28880Y-36908D01*
X28896Y-36935D01*
X28906Y-36965D01*
X28909Y-36996D01*
X28910Y-37000D01*
X28910Y-38000D02*
X28906Y-38031D01*
X28897Y-38060D01*
X28883Y-38088D01*
X28863Y-38112D01*
X28839Y-38132D01*
X28812Y-38147D01*
X28782Y-38156D01*
X28751Y-38159D01*
X28721Y-38157D01*
X28691Y-38148D01*
X28663Y-38133D01*
X28639Y-38114D01*
X28618Y-38090D01*
X28603Y-38063D01*
X28594Y-38033D01*
X28591Y-38002D01*
X28593Y-37972D01*
X28602Y-37942D01*
X28616Y-37914D01*
X28635Y-37889D01*
X28659Y-37869D01*
X28686Y-37854D01*
X28716Y-37844D01*
X28747Y-37841D01*
X28777Y-37843D01*
X28807Y-37851D01*
X28835Y-37865D01*
X28860Y-37885D01*
X28880Y-37908D01*
X28896Y-37935D01*
X28906Y-37965D01*
X28909Y-37996D01*
X28910Y-38000D01*
X28910Y-39000D02*
X28906Y-39031D01*
X28897Y-39060D01*
X28883Y-39088D01*
X28863Y-39112D01*
X28839Y-39132D01*
X28812Y-39147D01*
X28782Y-39156D01*
X28751Y-39159D01*
X28721Y-39157D01*
X28691Y-39148D01*
X28663Y-39133D01*
X28639Y-39114D01*
X28618Y-39090D01*
X28603Y-39063D01*
X28594Y-39033D01*
X28591Y-39002D01*
X28593Y-38972D01*
X28602Y-38942D01*
X28616Y-38914D01*
X28635Y-38889D01*
X28659Y-38869D01*
X28686Y-38854D01*
X28716Y-38844D01*
X28747Y-38841D01*
X28777Y-38843D01*
X28807Y-38851D01*
X28835Y-38865D01*
X28860Y-38885D01*
X28880Y-38908D01*
X28896Y-38935D01*
X28906Y-38965D01*
X28909Y-38996D01*
X28910Y-39000D01*
X28910Y-40000D02*
X28906Y-40031D01*
X28897Y-40060D01*
X28883Y-40088D01*
X28863Y-40112D01*
X28839Y-40132D01*
X28812Y-40147D01*
X28782Y-40156D01*
X28751Y-40159D01*
X28721Y-40157D01*
X28691Y-40148D01*
X28663Y-40133D01*
X28639Y-40114D01*
X28618Y-40090D01*
X28603Y-40063D01*
X28594Y-40033D01*
X28591Y-40002D01*
X28593Y-39972D01*
X28602Y-39942D01*
X28616Y-39914D01*
X28635Y-39889D01*
X28659Y-39869D01*
X28686Y-39854D01*
X28716Y-39844D01*
X28747Y-39841D01*
X28777Y-39843D01*
X28807Y-39851D01*
X28835Y-39865D01*
X28860Y-39885D01*
X28880Y-39908D01*
X28896Y-39935D01*
X28906Y-39965D01*
X28909Y-39996D01*
X28910Y-40000D01*
X28910Y-41000D02*
X28906Y-41031D01*
X28897Y-41060D01*
X28883Y-41088D01*
X28863Y-41112D01*
X28839Y-41132D01*
X28812Y-41147D01*
X28782Y-41156D01*
X28751Y-41159D01*
X28721Y-41157D01*
X28691Y-41148D01*
X28663Y-41133D01*
X28639Y-41114D01*
X28618Y-41090D01*
X28603Y-41063D01*
X28594Y-41033D01*
X28591Y-41002D01*
X28593Y-40972D01*
X28602Y-40942D01*
X28616Y-40914D01*
X28635Y-40889D01*
X28659Y-40869D01*
X28686Y-40854D01*
X28716Y-40844D01*
X28747Y-40841D01*
X28777Y-40843D01*
X28807Y-40851D01*
X28835Y-40865D01*
X28860Y-40885D01*
X28880Y-40908D01*
X28896Y-40935D01*
X28906Y-40965D01*
X28909Y-40996D01*
X28910Y-41000D01*
X29160Y-44250D02*
X29156Y-44281D01*
X29147Y-44310D01*
X29133Y-44338D01*
X29113Y-44362D01*
X29089Y-44382D01*
X29062Y-44397D01*
X29032Y-44406D01*
X29001Y-44409D01*
X28971Y-44407D01*
X28941Y-44398D01*
X28913Y-44383D01*
X28889Y-44364D01*
X28868Y-44340D01*
X28853Y-44313D01*
X28844Y-44283D01*
X28841Y-44252D01*
X28843Y-44222D01*
X28852Y-44192D01*
X28866Y-44164D01*
X28885Y-44139D01*
X28909Y-44119D01*
X28936Y-44104D01*
X28966Y-44094D01*
X28997Y-44091D01*
X29027Y-44093D01*
X29057Y-44101D01*
X29085Y-44115D01*
X29110Y-44135D01*
X29130Y-44158D01*
X29146Y-44185D01*
X29156Y-44215D01*
X29159Y-44246D01*
X29160Y-44250D01*
X29160Y-45250D02*
X29156Y-45281D01*
X29147Y-45310D01*
X29133Y-45338D01*
X29113Y-45362D01*
X29089Y-45382D01*
X29062Y-45397D01*
X29032Y-45406D01*
X29001Y-45409D01*
X28971Y-45407D01*
X28941Y-45398D01*
X28913Y-45383D01*
X28889Y-45364D01*
X28868Y-45340D01*
X28853Y-45313D01*
X28844Y-45283D01*
X28841Y-45252D01*
X28843Y-45222D01*
X28852Y-45192D01*
X28866Y-45164D01*
X28885Y-45139D01*
X28909Y-45119D01*
X28936Y-45104D01*
X28966Y-45094D01*
X28997Y-45091D01*
X29027Y-45093D01*
X29057Y-45101D01*
X29085Y-45115D01*
X29110Y-45135D01*
X29130Y-45158D01*
X29146Y-45185D01*
X29156Y-45215D01*
X29159Y-45246D01*
X29160Y-45250D01*
X29160Y-47500D02*
X29156Y-47531D01*
X29147Y-47560D01*
X29133Y-47588D01*
X29113Y-47612D01*
X29089Y-47632D01*
X29062Y-47647D01*
X29032Y-47656D01*
X29001Y-47659D01*
X28971Y-47657D01*
X28941Y-47648D01*
X28913Y-47633D01*
X28889Y-47614D01*
X28868Y-47590D01*
X28853Y-47563D01*
X28844Y-47533D01*
X28841Y-47502D01*
X28843Y-47472D01*
X28852Y-47442D01*
X28866Y-47414D01*
X28885Y-47389D01*
X28909Y-47369D01*
X28936Y-47354D01*
X28966Y-47344D01*
X28997Y-47341D01*
X29027Y-47343D01*
X29057Y-47351D01*
X29085Y-47365D01*
X29110Y-47385D01*
X29130Y-47408D01*
X29146Y-47435D01*
X29156Y-47465D01*
X29159Y-47496D01*
X29160Y-47500D01*
X29160Y-49000D02*
X29156Y-49031D01*
X29147Y-49060D01*
X29133Y-49088D01*
X29113Y-49112D01*
X29089Y-49132D01*
X29062Y-49147D01*
X29032Y-49156D01*
X29001Y-49159D01*
X28971Y-49157D01*
X28941Y-49148D01*
X28913Y-49133D01*
X28889Y-49114D01*
X28868Y-49090D01*
X28853Y-49063D01*
X28844Y-49033D01*
X28841Y-49002D01*
X28843Y-48972D01*
X28852Y-48942D01*
X28866Y-48914D01*
X28885Y-48889D01*
X28909Y-48869D01*
X28936Y-48854D01*
X28966Y-48844D01*
X28997Y-48841D01*
X29027Y-48843D01*
X29057Y-48851D01*
X29085Y-48865D01*
X29110Y-48885D01*
X29130Y-48908D01*
X29146Y-48935D01*
X29156Y-48965D01*
X29159Y-48996D01*
X29160Y-49000D01*
X29160Y-50750D02*
X29156Y-50781D01*
X29147Y-50810D01*
X29133Y-50838D01*
X29113Y-50862D01*
X29089Y-50882D01*
X29062Y-50897D01*
X29032Y-50906D01*
X29001Y-50909D01*
X28971Y-50907D01*
X28941Y-50898D01*
X28913Y-50883D01*
X28889Y-50864D01*
X28868Y-50840D01*
X28853Y-50813D01*
X28844Y-50783D01*
X28841Y-50752D01*
X28843Y-50722D01*
X28852Y-50692D01*
X28866Y-50664D01*
X28885Y-50639D01*
X28909Y-50619D01*
X28936Y-50604D01*
X28966Y-50594D01*
X28997Y-50591D01*
X29027Y-50593D01*
X29057Y-50601D01*
X29085Y-50615D01*
X29110Y-50635D01*
X29130Y-50658D01*
X29146Y-50685D01*
X29156Y-50715D01*
X29159Y-50746D01*
X29160Y-50750D01*
X29160Y-52250D02*
X29156Y-52281D01*
X29147Y-52310D01*
X29133Y-52338D01*
X29113Y-52362D01*
X29089Y-52382D01*
X29062Y-52397D01*
X29032Y-52406D01*
X29001Y-52409D01*
X28971Y-52407D01*
X28941Y-52398D01*
X28913Y-52383D01*
X28889Y-52364D01*
X28868Y-52340D01*
X28853Y-52313D01*
X28844Y-52283D01*
X28841Y-52252D01*
X28843Y-52222D01*
X28852Y-52192D01*
X28866Y-52164D01*
X28885Y-52139D01*
X28909Y-52119D01*
X28936Y-52104D01*
X28966Y-52094D01*
X28997Y-52091D01*
X29027Y-52093D01*
X29057Y-52101D01*
X29085Y-52115D01*
X29110Y-52135D01*
X29130Y-52158D01*
X29146Y-52185D01*
X29156Y-52215D01*
X29159Y-52246D01*
X29160Y-52250D01*
X29160Y-54000D02*
X29156Y-54031D01*
X29147Y-54060D01*
X29133Y-54088D01*
X29113Y-54112D01*
X29089Y-54132D01*
X29062Y-54147D01*
X29032Y-54156D01*
X29001Y-54159D01*
X28971Y-54157D01*
X28941Y-54148D01*
X28913Y-54133D01*
X28889Y-54114D01*
X28868Y-54090D01*
X28853Y-54063D01*
X28844Y-54033D01*
X28841Y-54002D01*
X28843Y-53972D01*
X28852Y-53942D01*
X28866Y-53914D01*
X28885Y-53889D01*
X28909Y-53869D01*
X28936Y-53854D01*
X28966Y-53844D01*
X28997Y-53841D01*
X29027Y-53843D01*
X29057Y-53851D01*
X29085Y-53865D01*
X29110Y-53885D01*
X29130Y-53908D01*
X29146Y-53935D01*
X29156Y-53965D01*
X29159Y-53996D01*
X29160Y-54000D01*
X29160Y-55500D02*
X29156Y-55531D01*
X29147Y-55560D01*
X29133Y-55588D01*
X29113Y-55612D01*
X29089Y-55632D01*
X29062Y-55647D01*
X29032Y-55656D01*
X29001Y-55659D01*
X28971Y-55657D01*
X28941Y-55648D01*
X28913Y-55633D01*
X28889Y-55614D01*
X28868Y-55590D01*
X28853Y-55563D01*
X28844Y-55533D01*
X28841Y-55502D01*
X28843Y-55472D01*
X28852Y-55442D01*
X28866Y-55414D01*
X28885Y-55389D01*
X28909Y-55369D01*
X28936Y-55354D01*
X28966Y-55344D01*
X28997Y-55341D01*
X29027Y-55343D01*
X29057Y-55351D01*
X29085Y-55365D01*
X29110Y-55385D01*
X29130Y-55408D01*
X29146Y-55435D01*
X29156Y-55465D01*
X29159Y-55496D01*
X29160Y-55500D01*
X29160Y-57250D02*
X29156Y-57281D01*
X29147Y-57310D01*
X29133Y-57338D01*
X29113Y-57362D01*
X29089Y-57382D01*
X29062Y-57397D01*
X29032Y-57406D01*
X29001Y-57409D01*
X28971Y-57407D01*
X28941Y-57398D01*
X28913Y-57383D01*
X28889Y-57364D01*
X28868Y-57340D01*
X28853Y-57313D01*
X28844Y-57283D01*
X28841Y-57252D01*
X28843Y-57222D01*
X28852Y-57192D01*
X28866Y-57164D01*
X28885Y-57139D01*
X28909Y-57119D01*
X28936Y-57104D01*
X28966Y-57094D01*
X28997Y-57091D01*
X29027Y-57093D01*
X29057Y-57101D01*
X29085Y-57115D01*
X29110Y-57135D01*
X29130Y-57158D01*
X29146Y-57185D01*
X29156Y-57215D01*
X29159Y-57246D01*
X29160Y-57250D01*
X29160Y-58750D02*
X29156Y-58781D01*
X29147Y-58810D01*
X29133Y-58838D01*
X29113Y-58862D01*
X29089Y-58882D01*
X29062Y-58897D01*
X29032Y-58906D01*
X29001Y-58909D01*
X28971Y-58907D01*
X28941Y-58898D01*
X28913Y-58883D01*
X28889Y-58864D01*
X28868Y-58840D01*
X28853Y-58813D01*
X28844Y-58783D01*
X28841Y-58752D01*
X28843Y-58722D01*
X28852Y-58692D01*
X28866Y-58664D01*
X28885Y-58639D01*
X28909Y-58619D01*
X28936Y-58604D01*
X28966Y-58594D01*
X28997Y-58591D01*
X29027Y-58593D01*
X29057Y-58601D01*
X29085Y-58615D01*
X29110Y-58635D01*
X29130Y-58658D01*
X29146Y-58685D01*
X29156Y-58715D01*
X29159Y-58746D01*
X29160Y-58750D01*
X29410Y-60000D02*
X29406Y-60031D01*
X29397Y-60060D01*
X29383Y-60088D01*
X29363Y-60112D01*
X29339Y-60132D01*
X29312Y-60147D01*
X29282Y-60156D01*
X29251Y-60159D01*
X29221Y-60157D01*
X29191Y-60148D01*
X29163Y-60133D01*
X29139Y-60114D01*
X29118Y-60090D01*
X29103Y-60063D01*
X29094Y-60033D01*
X29091Y-60002D01*
X29093Y-59972D01*
X29102Y-59942D01*
X29116Y-59914D01*
X29135Y-59889D01*
X29159Y-59869D01*
X29186Y-59854D01*
X29216Y-59844D01*
X29247Y-59841D01*
X29277Y-59843D01*
X29307Y-59851D01*
X29335Y-59865D01*
X29360Y-59885D01*
X29380Y-59908D01*
X29396Y-59935D01*
X29406Y-59965D01*
X29409Y-59996D01*
X29410Y-60000D01*
X29410Y-61250D02*
X29406Y-61281D01*
X29397Y-61310D01*
X29383Y-61338D01*
X29363Y-61362D01*
X29339Y-61382D01*
X29312Y-61397D01*
X29282Y-61406D01*
X29251Y-61409D01*
X29221Y-61407D01*
X29191Y-61398D01*
X29163Y-61383D01*
X29139Y-61364D01*
X29118Y-61340D01*
X29103Y-61313D01*
X29094Y-61283D01*
X29091Y-61252D01*
X29093Y-61222D01*
X29102Y-61192D01*
X29116Y-61164D01*
X29135Y-61139D01*
X29159Y-61119D01*
X29186Y-61104D01*
X29216Y-61094D01*
X29247Y-61091D01*
X29277Y-61093D01*
X29307Y-61101D01*
X29335Y-61115D01*
X29360Y-61135D01*
X29380Y-61158D01*
X29396Y-61185D01*
X29406Y-61215D01*
X29409Y-61246D01*
X29410Y-61250D01*
X29410Y-62500D02*
X29406Y-62531D01*
X29397Y-62560D01*
X29383Y-62588D01*
X29363Y-62612D01*
X29339Y-62632D01*
X29312Y-62647D01*
X29282Y-62656D01*
X29251Y-62659D01*
X29221Y-62657D01*
X29191Y-62648D01*
X29163Y-62633D01*
X29139Y-62614D01*
X29118Y-62590D01*
X29103Y-62563D01*
X29094Y-62533D01*
X29091Y-62502D01*
X29093Y-62472D01*
X29102Y-62442D01*
X29116Y-62414D01*
X29135Y-62389D01*
X29159Y-62369D01*
X29186Y-62354D01*
X29216Y-62344D01*
X29247Y-62341D01*
X29277Y-62343D01*
X29307Y-62351D01*
X29335Y-62365D01*
X29360Y-62385D01*
X29380Y-62408D01*
X29396Y-62435D01*
X29406Y-62465D01*
X29409Y-62496D01*
X29410Y-62500D01*
X29410Y-63500D02*
X29406Y-63531D01*
X29397Y-63560D01*
X29383Y-63588D01*
X29363Y-63612D01*
X29339Y-63632D01*
X29312Y-63647D01*
X29282Y-63656D01*
X29251Y-63659D01*
X29221Y-63657D01*
X29191Y-63648D01*
X29163Y-63633D01*
X29139Y-63614D01*
X29118Y-63590D01*
X29103Y-63563D01*
X29094Y-63533D01*
X29091Y-63502D01*
X29093Y-63472D01*
X29102Y-63442D01*
X29116Y-63414D01*
X29135Y-63389D01*
X29159Y-63369D01*
X29186Y-63354D01*
X29216Y-63344D01*
X29247Y-63341D01*
X29277Y-63343D01*
X29307Y-63351D01*
X29335Y-63365D01*
X29360Y-63385D01*
X29380Y-63408D01*
X29396Y-63435D01*
X29406Y-63465D01*
X29409Y-63496D01*
X29410Y-63500D01*
X29410Y-65000D02*
X29406Y-65031D01*
X29397Y-65060D01*
X29383Y-65088D01*
X29363Y-65112D01*
X29339Y-65132D01*
X29312Y-65147D01*
X29282Y-65156D01*
X29251Y-65159D01*
X29221Y-65157D01*
X29191Y-65148D01*
X29163Y-65133D01*
X29139Y-65114D01*
X29118Y-65090D01*
X29103Y-65063D01*
X29094Y-65033D01*
X29091Y-65002D01*
X29093Y-64972D01*
X29102Y-64942D01*
X29116Y-64914D01*
X29135Y-64889D01*
X29159Y-64869D01*
X29186Y-64854D01*
X29216Y-64844D01*
X29247Y-64841D01*
X29277Y-64843D01*
X29307Y-64851D01*
X29335Y-64865D01*
X29360Y-64885D01*
X29380Y-64908D01*
X29396Y-64935D01*
X29406Y-64965D01*
X29409Y-64996D01*
X29410Y-65000D01*
X29410Y-66000D02*
X29406Y-66031D01*
X29397Y-66060D01*
X29383Y-66088D01*
X29363Y-66112D01*
X29339Y-66132D01*
X29312Y-66147D01*
X29282Y-66156D01*
X29251Y-66159D01*
X29221Y-66157D01*
X29191Y-66148D01*
X29163Y-66133D01*
X29139Y-66114D01*
X29118Y-66090D01*
X29103Y-66063D01*
X29094Y-66033D01*
X29091Y-66002D01*
X29093Y-65972D01*
X29102Y-65942D01*
X29116Y-65914D01*
X29135Y-65889D01*
X29159Y-65869D01*
X29186Y-65854D01*
X29216Y-65844D01*
X29247Y-65841D01*
X29277Y-65843D01*
X29307Y-65851D01*
X29335Y-65865D01*
X29360Y-65885D01*
X29380Y-65908D01*
X29396Y-65935D01*
X29406Y-65965D01*
X29409Y-65996D01*
X29410Y-66000D01*
X29410Y-67000D02*
X29406Y-67031D01*
X29397Y-67060D01*
X29383Y-67088D01*
X29363Y-67112D01*
X29339Y-67132D01*
X29312Y-67147D01*
X29282Y-67156D01*
X29251Y-67159D01*
X29221Y-67157D01*
X29191Y-67148D01*
X29163Y-67133D01*
X29139Y-67114D01*
X29118Y-67090D01*
X29103Y-67063D01*
X29094Y-67033D01*
X29091Y-67002D01*
X29093Y-66972D01*
X29102Y-66942D01*
X29116Y-66914D01*
X29135Y-66889D01*
X29159Y-66869D01*
X29186Y-66854D01*
X29216Y-66844D01*
X29247Y-66841D01*
X29277Y-66843D01*
X29307Y-66851D01*
X29335Y-66865D01*
X29360Y-66885D01*
X29380Y-66908D01*
X29396Y-66935D01*
X29406Y-66965D01*
X29409Y-66996D01*
X29410Y-67000D01*
X29410Y-68000D02*
X29406Y-68031D01*
X29397Y-68060D01*
X29383Y-68088D01*
X29363Y-68112D01*
X29339Y-68132D01*
X29312Y-68147D01*
X29282Y-68156D01*
X29251Y-68159D01*
X29221Y-68157D01*
X29191Y-68148D01*
X29163Y-68133D01*
X29139Y-68114D01*
X29118Y-68090D01*
X29103Y-68063D01*
X29094Y-68033D01*
X29091Y-68002D01*
X29093Y-67972D01*
X29102Y-67942D01*
X29116Y-67914D01*
X29135Y-67889D01*
X29159Y-67869D01*
X29186Y-67854D01*
X29216Y-67844D01*
X29247Y-67841D01*
X29277Y-67843D01*
X29307Y-67851D01*
X29335Y-67865D01*
X29360Y-67885D01*
X29380Y-67908D01*
X29396Y-67935D01*
X29406Y-67965D01*
X29409Y-67996D01*
X29410Y-68000D01*
X29410Y-69750D02*
X29406Y-69781D01*
X29397Y-69810D01*
X29383Y-69838D01*
X29363Y-69862D01*
X29339Y-69882D01*
X29312Y-69897D01*
X29282Y-69906D01*
X29251Y-69909D01*
X29221Y-69907D01*
X29191Y-69898D01*
X29163Y-69883D01*
X29139Y-69864D01*
X29118Y-69840D01*
X29103Y-69813D01*
X29094Y-69783D01*
X29091Y-69752D01*
X29093Y-69722D01*
X29102Y-69692D01*
X29116Y-69664D01*
X29135Y-69639D01*
X29159Y-69619D01*
X29186Y-69604D01*
X29216Y-69594D01*
X29247Y-69591D01*
X29277Y-69593D01*
X29307Y-69601D01*
X29335Y-69615D01*
X29360Y-69635D01*
X29380Y-69658D01*
X29396Y-69685D01*
X29406Y-69715D01*
X29409Y-69746D01*
X29410Y-69750D01*
X29660Y-46250D02*
X29656Y-46281D01*
X29647Y-46310D01*
X29633Y-46338D01*
X29613Y-46362D01*
X29589Y-46382D01*
X29562Y-46397D01*
X29532Y-46406D01*
X29501Y-46409D01*
X29471Y-46407D01*
X29441Y-46398D01*
X29413Y-46383D01*
X29389Y-46364D01*
X29368Y-46340D01*
X29353Y-46313D01*
X29344Y-46283D01*
X29341Y-46252D01*
X29343Y-46222D01*
X29352Y-46192D01*
X29366Y-46164D01*
X29385Y-46139D01*
X29409Y-46119D01*
X29436Y-46104D01*
X29466Y-46094D01*
X29497Y-46091D01*
X29527Y-46093D01*
X29557Y-46101D01*
X29585Y-46115D01*
X29610Y-46135D01*
X29630Y-46158D01*
X29646Y-46185D01*
X29656Y-46215D01*
X29659Y-46246D01*
X29660Y-46250D01*
X29860Y-42600D02*
X29856Y-42631D01*
X29847Y-42660D01*
X29833Y-42688D01*
X29813Y-42712D01*
X29789Y-42732D01*
X29762Y-42747D01*
X29732Y-42756D01*
X29701Y-42759D01*
X29671Y-42757D01*
X29641Y-42748D01*
X29613Y-42733D01*
X29589Y-42714D01*
X29568Y-42690D01*
X29553Y-42663D01*
X29544Y-42633D01*
X29541Y-42602D01*
X29543Y-42572D01*
X29552Y-42542D01*
X29566Y-42514D01*
X29585Y-42489D01*
X29609Y-42469D01*
X29636Y-42454D01*
X29666Y-42444D01*
X29697Y-42441D01*
X29727Y-42443D01*
X29757Y-42451D01*
X29785Y-42465D01*
X29810Y-42485D01*
X29830Y-42508D01*
X29846Y-42535D01*
X29856Y-42565D01*
X29859Y-42596D01*
X29860Y-42600D01*
X30160Y-44250D02*
X30156Y-44281D01*
X30147Y-44310D01*
X30133Y-44338D01*
X30113Y-44362D01*
X30089Y-44382D01*
X30062Y-44397D01*
X30032Y-44406D01*
X30001Y-44409D01*
X29971Y-44407D01*
X29941Y-44398D01*
X29913Y-44383D01*
X29889Y-44364D01*
X29868Y-44340D01*
X29853Y-44313D01*
X29844Y-44283D01*
X29841Y-44252D01*
X29843Y-44222D01*
X29852Y-44192D01*
X29866Y-44164D01*
X29885Y-44139D01*
X29909Y-44119D01*
X29936Y-44104D01*
X29966Y-44094D01*
X29997Y-44091D01*
X30027Y-44093D01*
X30057Y-44101D01*
X30085Y-44115D01*
X30110Y-44135D01*
X30130Y-44158D01*
X30146Y-44185D01*
X30156Y-44215D01*
X30159Y-44246D01*
X30160Y-44250D01*
X30160Y-71500D02*
X30156Y-71531D01*
X30147Y-71560D01*
X30133Y-71588D01*
X30113Y-71612D01*
X30089Y-71632D01*
X30062Y-71647D01*
X30032Y-71656D01*
X30001Y-71659D01*
X29971Y-71657D01*
X29941Y-71648D01*
X29913Y-71633D01*
X29889Y-71614D01*
X29868Y-71590D01*
X29853Y-71563D01*
X29844Y-71533D01*
X29841Y-71502D01*
X29843Y-71472D01*
X29852Y-71442D01*
X29866Y-71414D01*
X29885Y-71389D01*
X29909Y-71369D01*
X29936Y-71354D01*
X29966Y-71344D01*
X29997Y-71341D01*
X30027Y-71343D01*
X30057Y-71351D01*
X30085Y-71365D01*
X30110Y-71385D01*
X30130Y-71408D01*
X30146Y-71435D01*
X30156Y-71465D01*
X30159Y-71496D01*
X30160Y-71500D01*
X30160Y-72500D02*
X30156Y-72531D01*
X30147Y-72560D01*
X30133Y-72588D01*
X30113Y-72612D01*
X30089Y-72632D01*
X30062Y-72647D01*
X30032Y-72656D01*
X30001Y-72659D01*
X29971Y-72657D01*
X29941Y-72648D01*
X29913Y-72633D01*
X29889Y-72614D01*
X29868Y-72590D01*
X29853Y-72563D01*
X29844Y-72533D01*
X29841Y-72502D01*
X29843Y-72472D01*
X29852Y-72442D01*
X29866Y-72414D01*
X29885Y-72389D01*
X29909Y-72369D01*
X29936Y-72354D01*
X29966Y-72344D01*
X29997Y-72341D01*
X30027Y-72343D01*
X30057Y-72351D01*
X30085Y-72365D01*
X30110Y-72385D01*
X30130Y-72408D01*
X30146Y-72435D01*
X30156Y-72465D01*
X30159Y-72496D01*
X30160Y-72500D01*
X30160Y-73500D02*
X30156Y-73531D01*
X30147Y-73560D01*
X30133Y-73588D01*
X30113Y-73612D01*
X30089Y-73632D01*
X30062Y-73647D01*
X30032Y-73656D01*
X30001Y-73659D01*
X29971Y-73657D01*
X29941Y-73648D01*
X29913Y-73633D01*
X29889Y-73614D01*
X29868Y-73590D01*
X29853Y-73563D01*
X29844Y-73533D01*
X29841Y-73502D01*
X29843Y-73472D01*
X29852Y-73442D01*
X29866Y-73414D01*
X29885Y-73389D01*
X29909Y-73369D01*
X29936Y-73354D01*
X29966Y-73344D01*
X29997Y-73341D01*
X30027Y-73343D01*
X30057Y-73351D01*
X30085Y-73365D01*
X30110Y-73385D01*
X30130Y-73408D01*
X30146Y-73435D01*
X30156Y-73465D01*
X30159Y-73496D01*
X30160Y-73500D01*
X30160Y-74500D02*
X30156Y-74531D01*
X30147Y-74560D01*
X30133Y-74588D01*
X30113Y-74612D01*
X30089Y-74632D01*
X30062Y-74647D01*
X30032Y-74656D01*
X30001Y-74659D01*
X29971Y-74657D01*
X29941Y-74648D01*
X29913Y-74633D01*
X29889Y-74614D01*
X29868Y-74590D01*
X29853Y-74563D01*
X29844Y-74533D01*
X29841Y-74502D01*
X29843Y-74472D01*
X29852Y-74442D01*
X29866Y-74414D01*
X29885Y-74389D01*
X29909Y-74369D01*
X29936Y-74354D01*
X29966Y-74344D01*
X29997Y-74341D01*
X30027Y-74343D01*
X30057Y-74351D01*
X30085Y-74365D01*
X30110Y-74385D01*
X30130Y-74408D01*
X30146Y-74435D01*
X30156Y-74465D01*
X30159Y-74496D01*
X30160Y-74500D01*
X30660Y-60250D02*
X30656Y-60281D01*
X30647Y-60310D01*
X30633Y-60338D01*
X30613Y-60362D01*
X30589Y-60382D01*
X30562Y-60397D01*
X30532Y-60406D01*
X30501Y-60409D01*
X30471Y-60407D01*
X30441Y-60398D01*
X30413Y-60383D01*
X30389Y-60364D01*
X30368Y-60340D01*
X30353Y-60313D01*
X30344Y-60283D01*
X30341Y-60252D01*
X30343Y-60222D01*
X30352Y-60192D01*
X30366Y-60164D01*
X30385Y-60139D01*
X30409Y-60119D01*
X30436Y-60104D01*
X30466Y-60094D01*
X30497Y-60091D01*
X30527Y-60093D01*
X30557Y-60101D01*
X30585Y-60115D01*
X30610Y-60135D01*
X30630Y-60158D01*
X30646Y-60185D01*
X30656Y-60215D01*
X30659Y-60246D01*
X30660Y-60250D01*
X30660Y-61250D02*
X30656Y-61281D01*
X30647Y-61310D01*
X30633Y-61338D01*
X30613Y-61362D01*
X30589Y-61382D01*
X30562Y-61397D01*
X30532Y-61406D01*
X30501Y-61409D01*
X30471Y-61407D01*
X30441Y-61398D01*
X30413Y-61383D01*
X30389Y-61364D01*
X30368Y-61340D01*
X30353Y-61313D01*
X30344Y-61283D01*
X30341Y-61252D01*
X30343Y-61222D01*
X30352Y-61192D01*
X30366Y-61164D01*
X30385Y-61139D01*
X30409Y-61119D01*
X30436Y-61104D01*
X30466Y-61094D01*
X30497Y-61091D01*
X30527Y-61093D01*
X30557Y-61101D01*
X30585Y-61115D01*
X30610Y-61135D01*
X30630Y-61158D01*
X30646Y-61185D01*
X30656Y-61215D01*
X30659Y-61246D01*
X30660Y-61250D01*
X30660Y-62250D02*
X30656Y-62281D01*
X30647Y-62310D01*
X30633Y-62338D01*
X30613Y-62362D01*
X30589Y-62382D01*
X30562Y-62397D01*
X30532Y-62406D01*
X30501Y-62409D01*
X30471Y-62407D01*
X30441Y-62398D01*
X30413Y-62383D01*
X30389Y-62364D01*
X30368Y-62340D01*
X30353Y-62313D01*
X30344Y-62283D01*
X30341Y-62252D01*
X30343Y-62222D01*
X30352Y-62192D01*
X30366Y-62164D01*
X30385Y-62139D01*
X30409Y-62119D01*
X30436Y-62104D01*
X30466Y-62094D01*
X30497Y-62091D01*
X30527Y-62093D01*
X30557Y-62101D01*
X30585Y-62115D01*
X30610Y-62135D01*
X30630Y-62158D01*
X30646Y-62185D01*
X30656Y-62215D01*
X30659Y-62246D01*
X30660Y-62250D01*
X30660Y-63250D02*
X30656Y-63281D01*
X30647Y-63310D01*
X30633Y-63338D01*
X30613Y-63362D01*
X30589Y-63382D01*
X30562Y-63397D01*
X30532Y-63406D01*
X30501Y-63409D01*
X30471Y-63407D01*
X30441Y-63398D01*
X30413Y-63383D01*
X30389Y-63364D01*
X30368Y-63340D01*
X30353Y-63313D01*
X30344Y-63283D01*
X30341Y-63252D01*
X30343Y-63222D01*
X30352Y-63192D01*
X30366Y-63164D01*
X30385Y-63139D01*
X30409Y-63119D01*
X30436Y-63104D01*
X30466Y-63094D01*
X30497Y-63091D01*
X30527Y-63093D01*
X30557Y-63101D01*
X30585Y-63115D01*
X30610Y-63135D01*
X30630Y-63158D01*
X30646Y-63185D01*
X30656Y-63215D01*
X30659Y-63246D01*
X30660Y-63250D01*
X30660Y-64250D02*
X30656Y-64281D01*
X30647Y-64310D01*
X30633Y-64338D01*
X30613Y-64362D01*
X30589Y-64382D01*
X30562Y-64397D01*
X30532Y-64406D01*
X30501Y-64409D01*
X30471Y-64407D01*
X30441Y-64398D01*
X30413Y-64383D01*
X30389Y-64364D01*
X30368Y-64340D01*
X30353Y-64313D01*
X30344Y-64283D01*
X30341Y-64252D01*
X30343Y-64222D01*
X30352Y-64192D01*
X30366Y-64164D01*
X30385Y-64139D01*
X30409Y-64119D01*
X30436Y-64104D01*
X30466Y-64094D01*
X30497Y-64091D01*
X30527Y-64093D01*
X30557Y-64101D01*
X30585Y-64115D01*
X30610Y-64135D01*
X30630Y-64158D01*
X30646Y-64185D01*
X30656Y-64215D01*
X30659Y-64246D01*
X30660Y-64250D01*
X30660Y-66250D02*
X30656Y-66281D01*
X30647Y-66310D01*
X30633Y-66338D01*
X30613Y-66362D01*
X30589Y-66382D01*
X30562Y-66397D01*
X30532Y-66406D01*
X30501Y-66409D01*
X30471Y-66407D01*
X30441Y-66398D01*
X30413Y-66383D01*
X30389Y-66364D01*
X30368Y-66340D01*
X30353Y-66313D01*
X30344Y-66283D01*
X30341Y-66252D01*
X30343Y-66222D01*
X30352Y-66192D01*
X30366Y-66164D01*
X30385Y-66139D01*
X30409Y-66119D01*
X30436Y-66104D01*
X30466Y-66094D01*
X30497Y-66091D01*
X30527Y-66093D01*
X30557Y-66101D01*
X30585Y-66115D01*
X30610Y-66135D01*
X30630Y-66158D01*
X30646Y-66185D01*
X30656Y-66215D01*
X30659Y-66246D01*
X30660Y-66250D01*
X30660Y-69750D02*
X30656Y-69781D01*
X30647Y-69810D01*
X30633Y-69838D01*
X30613Y-69862D01*
X30589Y-69882D01*
X30562Y-69897D01*
X30532Y-69906D01*
X30501Y-69909D01*
X30471Y-69907D01*
X30441Y-69898D01*
X30413Y-69883D01*
X30389Y-69864D01*
X30368Y-69840D01*
X30353Y-69813D01*
X30344Y-69783D01*
X30341Y-69752D01*
X30343Y-69722D01*
X30352Y-69692D01*
X30366Y-69664D01*
X30385Y-69639D01*
X30409Y-69619D01*
X30436Y-69604D01*
X30466Y-69594D01*
X30497Y-69591D01*
X30527Y-69593D01*
X30557Y-69601D01*
X30585Y-69615D01*
X30610Y-69635D01*
X30630Y-69658D01*
X30646Y-69685D01*
X30656Y-69715D01*
X30659Y-69746D01*
X30660Y-69750D01*
X31160Y-47500D02*
X31156Y-47531D01*
X31147Y-47560D01*
X31133Y-47588D01*
X31113Y-47612D01*
X31089Y-47632D01*
X31062Y-47647D01*
X31032Y-47656D01*
X31001Y-47659D01*
X30971Y-47657D01*
X30941Y-47648D01*
X30913Y-47633D01*
X30889Y-47614D01*
X30868Y-47590D01*
X30853Y-47563D01*
X30844Y-47533D01*
X30841Y-47502D01*
X30843Y-47472D01*
X30852Y-47442D01*
X30866Y-47414D01*
X30885Y-47389D01*
X30909Y-47369D01*
X30936Y-47354D01*
X30966Y-47344D01*
X30997Y-47341D01*
X31027Y-47343D01*
X31057Y-47351D01*
X31085Y-47365D01*
X31110Y-47385D01*
X31130Y-47408D01*
X31146Y-47435D01*
X31156Y-47465D01*
X31159Y-47496D01*
X31160Y-47500D01*
X31160Y-49000D02*
X31156Y-49031D01*
X31147Y-49060D01*
X31133Y-49088D01*
X31113Y-49112D01*
X31089Y-49132D01*
X31062Y-49147D01*
X31032Y-49156D01*
X31001Y-49159D01*
X30971Y-49157D01*
X30941Y-49148D01*
X30913Y-49133D01*
X30889Y-49114D01*
X30868Y-49090D01*
X30853Y-49063D01*
X30844Y-49033D01*
X30841Y-49002D01*
X30843Y-48972D01*
X30852Y-48942D01*
X30866Y-48914D01*
X30885Y-48889D01*
X30909Y-48869D01*
X30936Y-48854D01*
X30966Y-48844D01*
X30997Y-48841D01*
X31027Y-48843D01*
X31057Y-48851D01*
X31085Y-48865D01*
X31110Y-48885D01*
X31130Y-48908D01*
X31146Y-48935D01*
X31156Y-48965D01*
X31159Y-48996D01*
X31160Y-49000D01*
X31160Y-50750D02*
X31156Y-50781D01*
X31147Y-50810D01*
X31133Y-50838D01*
X31113Y-50862D01*
X31089Y-50882D01*
X31062Y-50897D01*
X31032Y-50906D01*
X31001Y-50909D01*
X30971Y-50907D01*
X30941Y-50898D01*
X30913Y-50883D01*
X30889Y-50864D01*
X30868Y-50840D01*
X30853Y-50813D01*
X30844Y-50783D01*
X30841Y-50752D01*
X30843Y-50722D01*
X30852Y-50692D01*
X30866Y-50664D01*
X30885Y-50639D01*
X30909Y-50619D01*
X30936Y-50604D01*
X30966Y-50594D01*
X30997Y-50591D01*
X31027Y-50593D01*
X31057Y-50601D01*
X31085Y-50615D01*
X31110Y-50635D01*
X31130Y-50658D01*
X31146Y-50685D01*
X31156Y-50715D01*
X31159Y-50746D01*
X31160Y-50750D01*
X31160Y-52250D02*
X31156Y-52281D01*
X31147Y-52310D01*
X31133Y-52338D01*
X31113Y-52362D01*
X31089Y-52382D01*
X31062Y-52397D01*
X31032Y-52406D01*
X31001Y-52409D01*
X30971Y-52407D01*
X30941Y-52398D01*
X30913Y-52383D01*
X30889Y-52364D01*
X30868Y-52340D01*
X30853Y-52313D01*
X30844Y-52283D01*
X30841Y-52252D01*
X30843Y-52222D01*
X30852Y-52192D01*
X30866Y-52164D01*
X30885Y-52139D01*
X30909Y-52119D01*
X30936Y-52104D01*
X30966Y-52094D01*
X30997Y-52091D01*
X31027Y-52093D01*
X31057Y-52101D01*
X31085Y-52115D01*
X31110Y-52135D01*
X31130Y-52158D01*
X31146Y-52185D01*
X31156Y-52215D01*
X31159Y-52246D01*
X31160Y-52250D01*
X31160Y-54000D02*
X31156Y-54031D01*
X31147Y-54060D01*
X31133Y-54088D01*
X31113Y-54112D01*
X31089Y-54132D01*
X31062Y-54147D01*
X31032Y-54156D01*
X31001Y-54159D01*
X30971Y-54157D01*
X30941Y-54148D01*
X30913Y-54133D01*
X30889Y-54114D01*
X30868Y-54090D01*
X30853Y-54063D01*
X30844Y-54033D01*
X30841Y-54002D01*
X30843Y-53972D01*
X30852Y-53942D01*
X30866Y-53914D01*
X30885Y-53889D01*
X30909Y-53869D01*
X30936Y-53854D01*
X30966Y-53844D01*
X30997Y-53841D01*
X31027Y-53843D01*
X31057Y-53851D01*
X31085Y-53865D01*
X31110Y-53885D01*
X31130Y-53908D01*
X31146Y-53935D01*
X31156Y-53965D01*
X31159Y-53996D01*
X31160Y-54000D01*
X31160Y-55500D02*
X31156Y-55531D01*
X31147Y-55560D01*
X31133Y-55588D01*
X31113Y-55612D01*
X31089Y-55632D01*
X31062Y-55647D01*
X31032Y-55656D01*
X31001Y-55659D01*
X30971Y-55657D01*
X30941Y-55648D01*
X30913Y-55633D01*
X30889Y-55614D01*
X30868Y-55590D01*
X30853Y-55563D01*
X30844Y-55533D01*
X30841Y-55502D01*
X30843Y-55472D01*
X30852Y-55442D01*
X30866Y-55414D01*
X30885Y-55389D01*
X30909Y-55369D01*
X30936Y-55354D01*
X30966Y-55344D01*
X30997Y-55341D01*
X31027Y-55343D01*
X31057Y-55351D01*
X31085Y-55365D01*
X31110Y-55385D01*
X31130Y-55408D01*
X31146Y-55435D01*
X31156Y-55465D01*
X31159Y-55496D01*
X31160Y-55500D01*
X31160Y-57250D02*
X31156Y-57281D01*
X31147Y-57310D01*
X31133Y-57338D01*
X31113Y-57362D01*
X31089Y-57382D01*
X31062Y-57397D01*
X31032Y-57406D01*
X31001Y-57409D01*
X30971Y-57407D01*
X30941Y-57398D01*
X30913Y-57383D01*
X30889Y-57364D01*
X30868Y-57340D01*
X30853Y-57313D01*
X30844Y-57283D01*
X30841Y-57252D01*
X30843Y-57222D01*
X30852Y-57192D01*
X30866Y-57164D01*
X30885Y-57139D01*
X30909Y-57119D01*
X30936Y-57104D01*
X30966Y-57094D01*
X30997Y-57091D01*
X31027Y-57093D01*
X31057Y-57101D01*
X31085Y-57115D01*
X31110Y-57135D01*
X31130Y-57158D01*
X31146Y-57185D01*
X31156Y-57215D01*
X31159Y-57246D01*
X31160Y-57250D01*
X31160Y-58750D02*
X31156Y-58781D01*
X31147Y-58810D01*
X31133Y-58838D01*
X31113Y-58862D01*
X31089Y-58882D01*
X31062Y-58897D01*
X31032Y-58906D01*
X31001Y-58909D01*
X30971Y-58907D01*
X30941Y-58898D01*
X30913Y-58883D01*
X30889Y-58864D01*
X30868Y-58840D01*
X30853Y-58813D01*
X30844Y-58783D01*
X30841Y-58752D01*
X30843Y-58722D01*
X30852Y-58692D01*
X30866Y-58664D01*
X30885Y-58639D01*
X30909Y-58619D01*
X30936Y-58604D01*
X30966Y-58594D01*
X30997Y-58591D01*
X31027Y-58593D01*
X31057Y-58601D01*
X31085Y-58615D01*
X31110Y-58635D01*
X31130Y-58658D01*
X31146Y-58685D01*
X31156Y-58715D01*
X31159Y-58746D01*
X31160Y-58750D01*
X31410Y-42500D02*
X31406Y-42531D01*
X31397Y-42560D01*
X31383Y-42588D01*
X31363Y-42612D01*
X31339Y-42632D01*
X31312Y-42647D01*
X31282Y-42656D01*
X31251Y-42659D01*
X31221Y-42657D01*
X31191Y-42648D01*
X31163Y-42633D01*
X31139Y-42614D01*
X31118Y-42590D01*
X31103Y-42563D01*
X31094Y-42533D01*
X31091Y-42502D01*
X31093Y-42472D01*
X31102Y-42442D01*
X31116Y-42414D01*
X31135Y-42389D01*
X31159Y-42369D01*
X31186Y-42354D01*
X31216Y-42344D01*
X31247Y-42341D01*
X31277Y-42343D01*
X31307Y-42351D01*
X31335Y-42365D01*
X31360Y-42385D01*
X31380Y-42408D01*
X31396Y-42435D01*
X31406Y-42465D01*
X31409Y-42496D01*
X31410Y-42500D01*
X31410Y-46000D02*
X31406Y-46031D01*
X31397Y-46060D01*
X31383Y-46088D01*
X31363Y-46112D01*
X31339Y-46132D01*
X31312Y-46147D01*
X31282Y-46156D01*
X31251Y-46159D01*
X31221Y-46157D01*
X31191Y-46148D01*
X31163Y-46133D01*
X31139Y-46114D01*
X31118Y-46090D01*
X31103Y-46063D01*
X31094Y-46033D01*
X31091Y-46002D01*
X31093Y-45972D01*
X31102Y-45942D01*
X31116Y-45914D01*
X31135Y-45889D01*
X31159Y-45869D01*
X31186Y-45854D01*
X31216Y-45844D01*
X31247Y-45841D01*
X31277Y-45843D01*
X31307Y-45851D01*
X31335Y-45865D01*
X31360Y-45885D01*
X31380Y-45908D01*
X31396Y-45935D01*
X31406Y-45965D01*
X31409Y-45996D01*
X31410Y-46000D01*
X31660Y-71500D02*
X31656Y-71531D01*
X31647Y-71560D01*
X31633Y-71588D01*
X31613Y-71612D01*
X31589Y-71632D01*
X31562Y-71647D01*
X31532Y-71656D01*
X31501Y-71659D01*
X31471Y-71657D01*
X31441Y-71648D01*
X31413Y-71633D01*
X31389Y-71614D01*
X31368Y-71590D01*
X31353Y-71563D01*
X31344Y-71533D01*
X31341Y-71502D01*
X31343Y-71472D01*
X31352Y-71442D01*
X31366Y-71414D01*
X31385Y-71389D01*
X31409Y-71369D01*
X31436Y-71354D01*
X31466Y-71344D01*
X31497Y-71341D01*
X31527Y-71343D01*
X31557Y-71351D01*
X31585Y-71365D01*
X31610Y-71385D01*
X31630Y-71408D01*
X31646Y-71435D01*
X31656Y-71465D01*
X31659Y-71496D01*
X31660Y-71500D01*
X31660Y-75000D02*
X31656Y-75031D01*
X31647Y-75060D01*
X31633Y-75088D01*
X31613Y-75112D01*
X31589Y-75132D01*
X31562Y-75147D01*
X31532Y-75156D01*
X31501Y-75159D01*
X31471Y-75157D01*
X31441Y-75148D01*
X31413Y-75133D01*
X31389Y-75114D01*
X31368Y-75090D01*
X31353Y-75063D01*
X31344Y-75033D01*
X31341Y-75002D01*
X31343Y-74972D01*
X31352Y-74942D01*
X31366Y-74914D01*
X31385Y-74889D01*
X31409Y-74869D01*
X31436Y-74854D01*
X31466Y-74844D01*
X31497Y-74841D01*
X31527Y-74843D01*
X31557Y-74851D01*
X31585Y-74865D01*
X31610Y-74885D01*
X31630Y-74908D01*
X31646Y-74935D01*
X31656Y-74965D01*
X31659Y-74996D01*
X31660Y-75000D01*
X31660Y-76250D02*
X31656Y-76281D01*
X31647Y-76310D01*
X31633Y-76338D01*
X31613Y-76362D01*
X31589Y-76382D01*
X31562Y-76397D01*
X31532Y-76406D01*
X31501Y-76409D01*
X31471Y-76407D01*
X31441Y-76398D01*
X31413Y-76383D01*
X31389Y-76364D01*
X31368Y-76340D01*
X31353Y-76313D01*
X31344Y-76283D01*
X31341Y-76252D01*
X31343Y-76222D01*
X31352Y-76192D01*
X31366Y-76164D01*
X31385Y-76139D01*
X31409Y-76119D01*
X31436Y-76104D01*
X31466Y-76094D01*
X31497Y-76091D01*
X31527Y-76093D01*
X31557Y-76101D01*
X31585Y-76115D01*
X31610Y-76135D01*
X31630Y-76158D01*
X31646Y-76185D01*
X31656Y-76215D01*
X31659Y-76246D01*
X31660Y-76250D01*
X31910Y-34000D02*
X31906Y-34031D01*
X31897Y-34060D01*
X31883Y-34088D01*
X31863Y-34112D01*
X31839Y-34132D01*
X31812Y-34147D01*
X31782Y-34156D01*
X31751Y-34159D01*
X31721Y-34157D01*
X31691Y-34148D01*
X31663Y-34133D01*
X31639Y-34114D01*
X31618Y-34090D01*
X31603Y-34063D01*
X31594Y-34033D01*
X31591Y-34002D01*
X31593Y-33972D01*
X31602Y-33942D01*
X31616Y-33914D01*
X31635Y-33889D01*
X31659Y-33869D01*
X31686Y-33854D01*
X31716Y-33844D01*
X31747Y-33841D01*
X31777Y-33843D01*
X31807Y-33851D01*
X31835Y-33865D01*
X31860Y-33885D01*
X31880Y-33908D01*
X31896Y-33935D01*
X31906Y-33965D01*
X31909Y-33996D01*
X31910Y-34000D01*
X31910Y-35000D02*
X31906Y-35031D01*
X31897Y-35060D01*
X31883Y-35088D01*
X31863Y-35112D01*
X31839Y-35132D01*
X31812Y-35147D01*
X31782Y-35156D01*
X31751Y-35159D01*
X31721Y-35157D01*
X31691Y-35148D01*
X31663Y-35133D01*
X31639Y-35114D01*
X31618Y-35090D01*
X31603Y-35063D01*
X31594Y-35033D01*
X31591Y-35002D01*
X31593Y-34972D01*
X31602Y-34942D01*
X31616Y-34914D01*
X31635Y-34889D01*
X31659Y-34869D01*
X31686Y-34854D01*
X31716Y-34844D01*
X31747Y-34841D01*
X31777Y-34843D01*
X31807Y-34851D01*
X31835Y-34865D01*
X31860Y-34885D01*
X31880Y-34908D01*
X31896Y-34935D01*
X31906Y-34965D01*
X31909Y-34996D01*
X31910Y-35000D01*
X31910Y-36000D02*
X31906Y-36031D01*
X31897Y-36060D01*
X31883Y-36088D01*
X31863Y-36112D01*
X31839Y-36132D01*
X31812Y-36147D01*
X31782Y-36156D01*
X31751Y-36159D01*
X31721Y-36157D01*
X31691Y-36148D01*
X31663Y-36133D01*
X31639Y-36114D01*
X31618Y-36090D01*
X31603Y-36063D01*
X31594Y-36033D01*
X31591Y-36002D01*
X31593Y-35972D01*
X31602Y-35942D01*
X31616Y-35914D01*
X31635Y-35889D01*
X31659Y-35869D01*
X31686Y-35854D01*
X31716Y-35844D01*
X31747Y-35841D01*
X31777Y-35843D01*
X31807Y-35851D01*
X31835Y-35865D01*
X31860Y-35885D01*
X31880Y-35908D01*
X31896Y-35935D01*
X31906Y-35965D01*
X31909Y-35996D01*
X31910Y-36000D01*
X31910Y-37000D02*
X31906Y-37031D01*
X31897Y-37060D01*
X31883Y-37088D01*
X31863Y-37112D01*
X31839Y-37132D01*
X31812Y-37147D01*
X31782Y-37156D01*
X31751Y-37159D01*
X31721Y-37157D01*
X31691Y-37148D01*
X31663Y-37133D01*
X31639Y-37114D01*
X31618Y-37090D01*
X31603Y-37063D01*
X31594Y-37033D01*
X31591Y-37002D01*
X31593Y-36972D01*
X31602Y-36942D01*
X31616Y-36914D01*
X31635Y-36889D01*
X31659Y-36869D01*
X31686Y-36854D01*
X31716Y-36844D01*
X31747Y-36841D01*
X31777Y-36843D01*
X31807Y-36851D01*
X31835Y-36865D01*
X31860Y-36885D01*
X31880Y-36908D01*
X31896Y-36935D01*
X31906Y-36965D01*
X31909Y-36996D01*
X31910Y-37000D01*
X31910Y-38000D02*
X31906Y-38031D01*
X31897Y-38060D01*
X31883Y-38088D01*
X31863Y-38112D01*
X31839Y-38132D01*
X31812Y-38147D01*
X31782Y-38156D01*
X31751Y-38159D01*
X31721Y-38157D01*
X31691Y-38148D01*
X31663Y-38133D01*
X31639Y-38114D01*
X31618Y-38090D01*
X31603Y-38063D01*
X31594Y-38033D01*
X31591Y-38002D01*
X31593Y-37972D01*
X31602Y-37942D01*
X31616Y-37914D01*
X31635Y-37889D01*
X31659Y-37869D01*
X31686Y-37854D01*
X31716Y-37844D01*
X31747Y-37841D01*
X31777Y-37843D01*
X31807Y-37851D01*
X31835Y-37865D01*
X31860Y-37885D01*
X31880Y-37908D01*
X31896Y-37935D01*
X31906Y-37965D01*
X31909Y-37996D01*
X31910Y-38000D01*
X31910Y-39000D02*
X31906Y-39031D01*
X31897Y-39060D01*
X31883Y-39088D01*
X31863Y-39112D01*
X31839Y-39132D01*
X31812Y-39147D01*
X31782Y-39156D01*
X31751Y-39159D01*
X31721Y-39157D01*
X31691Y-39148D01*
X31663Y-39133D01*
X31639Y-39114D01*
X31618Y-39090D01*
X31603Y-39063D01*
X31594Y-39033D01*
X31591Y-39002D01*
X31593Y-38972D01*
X31602Y-38942D01*
X31616Y-38914D01*
X31635Y-38889D01*
X31659Y-38869D01*
X31686Y-38854D01*
X31716Y-38844D01*
X31747Y-38841D01*
X31777Y-38843D01*
X31807Y-38851D01*
X31835Y-38865D01*
X31860Y-38885D01*
X31880Y-38908D01*
X31896Y-38935D01*
X31906Y-38965D01*
X31909Y-38996D01*
X31910Y-39000D01*
X31910Y-40000D02*
X31906Y-40031D01*
X31897Y-40060D01*
X31883Y-40088D01*
X31863Y-40112D01*
X31839Y-40132D01*
X31812Y-40147D01*
X31782Y-40156D01*
X31751Y-40159D01*
X31721Y-40157D01*
X31691Y-40148D01*
X31663Y-40133D01*
X31639Y-40114D01*
X31618Y-40090D01*
X31603Y-40063D01*
X31594Y-40033D01*
X31591Y-40002D01*
X31593Y-39972D01*
X31602Y-39942D01*
X31616Y-39914D01*
X31635Y-39889D01*
X31659Y-39869D01*
X31686Y-39854D01*
X31716Y-39844D01*
X31747Y-39841D01*
X31777Y-39843D01*
X31807Y-39851D01*
X31835Y-39865D01*
X31860Y-39885D01*
X31880Y-39908D01*
X31896Y-39935D01*
X31906Y-39965D01*
X31909Y-39996D01*
X31910Y-40000D01*
X31910Y-41000D02*
X31906Y-41031D01*
X31897Y-41060D01*
X31883Y-41088D01*
X31863Y-41112D01*
X31839Y-41132D01*
X31812Y-41147D01*
X31782Y-41156D01*
X31751Y-41159D01*
X31721Y-41157D01*
X31691Y-41148D01*
X31663Y-41133D01*
X31639Y-41114D01*
X31618Y-41090D01*
X31603Y-41063D01*
X31594Y-41033D01*
X31591Y-41002D01*
X31593Y-40972D01*
X31602Y-40942D01*
X31616Y-40914D01*
X31635Y-40889D01*
X31659Y-40869D01*
X31686Y-40854D01*
X31716Y-40844D01*
X31747Y-40841D01*
X31777Y-40843D01*
X31807Y-40851D01*
X31835Y-40865D01*
X31860Y-40885D01*
X31880Y-40908D01*
X31896Y-40935D01*
X31906Y-40965D01*
X31909Y-40996D01*
X31910Y-41000D01*
X21250Y-69050D02*
X21250Y-69450D01*
X21450Y-69250D02*
X21050Y-69250D01*
X21250Y-70050D02*
X21250Y-70450D01*
X21450Y-70250D02*
X21050Y-70250D01*
X21250Y-71050D02*
X21250Y-71450D01*
X21450Y-71250D02*
X21050Y-71250D01*
X21250Y-72050D02*
X21250Y-72450D01*
X21450Y-72250D02*
X21050Y-72250D01*
X21250Y-73050D02*
X21250Y-73450D01*
X21450Y-73250D02*
X21050Y-73250D01*
X21250Y-74050D02*
X21250Y-74450D01*
X21450Y-74250D02*
X21050Y-74250D01*
X21250Y-75050D02*
X21250Y-75450D01*
X21450Y-75250D02*
X21050Y-75250D01*
X21250Y-76050D02*
X21250Y-76450D01*
X21450Y-76250D02*
X21050Y-76250D01*
X22250Y-69050D02*
X22250Y-69450D01*
X22450Y-69250D02*
X22050Y-69250D01*
X22250Y-70050D02*
X22250Y-70450D01*
X22450Y-70250D02*
X22050Y-70250D01*
X22250Y-71050D02*
X22250Y-71450D01*
X22450Y-71250D02*
X22050Y-71250D01*
X22250Y-72050D02*
X22250Y-72450D01*
X22450Y-72250D02*
X22050Y-72250D01*
X22250Y-73050D02*
X22250Y-73450D01*
X22450Y-73250D02*
X22050Y-73250D01*
X22250Y-74050D02*
X22250Y-74450D01*
X22450Y-74250D02*
X22050Y-74250D01*
X22250Y-75050D02*
X22250Y-75450D01*
X22450Y-75250D02*
X22050Y-75250D01*
X22250Y-76050D02*
X22250Y-76450D01*
X22450Y-76250D02*
X22050Y-76250D01*
X26500Y-48300D02*
X26500Y-48700D01*
X26700Y-48500D02*
X26300Y-48500D01*
X26500Y-49300D02*
X26500Y-49700D01*
X26700Y-49500D02*
X26300Y-49500D01*
X26500Y-50300D02*
X26500Y-50700D01*
X26700Y-50500D02*
X26300Y-50500D01*
X26500Y-51300D02*
X26500Y-51700D01*
X26700Y-51500D02*
X26300Y-51500D01*
X26500Y-52300D02*
X26500Y-52700D01*
X26700Y-52500D02*
X26300Y-52500D01*
X26500Y-53300D02*
X26500Y-53700D01*
X26700Y-53500D02*
X26300Y-53500D01*
X26500Y-54300D02*
X26500Y-54700D01*
X26700Y-54500D02*
X26300Y-54500D01*
X26500Y-55300D02*
X26500Y-55700D01*
X26700Y-55500D02*
X26300Y-55500D01*
X26500Y-56300D02*
X26500Y-56700D01*
X26700Y-56500D02*
X26300Y-56500D01*
X26500Y-57300D02*
X26500Y-57700D01*
X26700Y-57500D02*
X26300Y-57500D01*
X26500Y-58300D02*
X26500Y-58700D01*
X26700Y-58500D02*
X26300Y-58500D01*
X27500Y-47300D02*
X27500Y-47700D01*
X27700Y-47500D02*
X27300Y-47500D01*
X27500Y-48300D02*
X27500Y-48700D01*
X27700Y-48500D02*
X27300Y-48500D01*
X27500Y-49300D02*
X27500Y-49700D01*
X27700Y-49500D02*
X27300Y-49500D01*
X27500Y-50300D02*
X27500Y-50700D01*
X27700Y-50500D02*
X27300Y-50500D01*
X27500Y-51300D02*
X27500Y-51700D01*
X27700Y-51500D02*
X27300Y-51500D01*
X27500Y-52300D02*
X27500Y-52700D01*
X27700Y-52500D02*
X27300Y-52500D01*
X27500Y-53300D02*
X27500Y-53700D01*
X27700Y-53500D02*
X27300Y-53500D01*
X27500Y-54300D02*
X27500Y-54700D01*
X27700Y-54500D02*
X27300Y-54500D01*
X27500Y-55300D02*
X27500Y-55700D01*
X27700Y-55500D02*
X27300Y-55500D01*
X27500Y-56300D02*
X27500Y-56700D01*
X27700Y-56500D02*
X27300Y-56500D01*
X27500Y-57300D02*
X27500Y-57700D01*
X27700Y-57500D02*
X27300Y-57500D01*
X27500Y-58300D02*
X27500Y-58700D01*
X27700Y-58500D02*
X27300Y-58500D01*
G54D12*
X19889Y-78855D02*
X19889Y-78055D01*
X20080Y-78055D01*
X20194Y-78093D01*
X20270Y-78169D01*
X20309Y-78245D01*
X20347Y-78398D01*
X20347Y-78512D01*
X20309Y-78664D01*
X20270Y-78741D01*
X20194Y-78817D01*
X20080Y-78855D01*
X19889Y-78855D01*
X20689Y-78855D02*
X20689Y-78321D01*
X20689Y-78474D02*
X20728Y-78398D01*
X20766Y-78360D01*
X20842Y-78321D01*
X20918Y-78321D01*
X21184Y-78855D02*
X21184Y-78321D01*
X21184Y-78055D02*
X21146Y-78093D01*
X21184Y-78131D01*
X21223Y-78093D01*
X21184Y-78055D01*
X21184Y-78131D01*
X21680Y-78855D02*
X21604Y-78817D01*
X21565Y-78741D01*
X21565Y-78055D01*
X22099Y-78855D02*
X22023Y-78817D01*
X21984Y-78741D01*
X21984Y-78055D01*
X23013Y-78855D02*
X23013Y-78055D01*
X23280Y-78626D01*
X23547Y-78055D01*
X23547Y-78855D01*
X24270Y-78855D02*
X24270Y-78436D01*
X24232Y-78360D01*
X24156Y-78321D01*
X24004Y-78321D01*
X23927Y-78360D01*
X24270Y-78817D02*
X24194Y-78855D01*
X24004Y-78855D01*
X23927Y-78817D01*
X23889Y-78741D01*
X23889Y-78664D01*
X23927Y-78588D01*
X24004Y-78550D01*
X24194Y-78550D01*
X24270Y-78512D01*
X24651Y-78321D02*
X24651Y-79121D01*
X24651Y-78360D02*
X24728Y-78321D01*
X24880Y-78321D01*
X24956Y-78360D01*
X24994Y-78398D01*
X25032Y-78474D01*
X25032Y-78702D01*
X24994Y-78779D01*
X24956Y-78817D01*
X24880Y-78855D01*
X24728Y-78855D01*
X24651Y-78817D01*
X25375Y-78779D02*
X25414Y-78817D01*
X25375Y-78855D01*
X25337Y-78817D01*
X25375Y-78779D01*
X25375Y-78855D01*
X25375Y-78360D02*
X25414Y-78398D01*
X25375Y-78436D01*
X25337Y-78398D01*
X25375Y-78360D01*
X25375Y-78436D01*
X19249Y-80086D02*
X19499Y-80336D01*
X19499Y-80086D02*
X19249Y-80336D01*
X20042Y-79735D02*
X20118Y-79735D01*
X20194Y-79773D01*
X20232Y-79811D01*
X20270Y-79887D01*
X20309Y-80040D01*
X20309Y-80230D01*
X20270Y-80382D01*
X20232Y-80459D01*
X20194Y-80497D01*
X20118Y-80535D01*
X20042Y-80535D01*
X19966Y-80497D01*
X19928Y-80459D01*
X19889Y-80382D01*
X19851Y-80230D01*
X19851Y-80040D01*
X19889Y-79887D01*
X19928Y-79811D01*
X19966Y-79773D01*
X20042Y-79735D01*
X20651Y-80459D02*
X20690Y-80497D01*
X20651Y-80535D01*
X20613Y-80497D01*
X20651Y-80459D01*
X20651Y-80535D01*
X21185Y-79735D02*
X21261Y-79735D01*
X21337Y-79773D01*
X21375Y-79811D01*
X21413Y-79887D01*
X21452Y-80040D01*
X21452Y-80230D01*
X21413Y-80382D01*
X21375Y-80459D01*
X21337Y-80497D01*
X21261Y-80535D01*
X21185Y-80535D01*
X21109Y-80497D01*
X21071Y-80459D01*
X21032Y-80382D01*
X20994Y-80230D01*
X20994Y-80040D01*
X21032Y-79887D01*
X21071Y-79811D01*
X21109Y-79773D01*
X21185Y-79735D01*
X21756Y-79811D02*
X21794Y-79773D01*
X21871Y-79735D01*
X22061Y-79735D01*
X22137Y-79773D01*
X22175Y-79811D01*
X22214Y-79887D01*
X22214Y-79963D01*
X22175Y-80078D01*
X21718Y-80535D01*
X22214Y-80535D01*
X22937Y-79735D02*
X22556Y-79735D01*
X22518Y-80116D01*
X22556Y-80078D01*
X22633Y-80040D01*
X22823Y-80040D01*
X22899Y-80078D01*
X22937Y-80116D01*
X22976Y-80192D01*
X22976Y-80382D01*
X22937Y-80459D01*
X22899Y-80497D01*
X22823Y-80535D01*
X22633Y-80535D01*
X22556Y-80497D01*
X22518Y-80459D01*
X23280Y-79735D02*
X23280Y-79887D01*
X23585Y-79735D02*
X23585Y-79887D01*
X25110Y-79697D02*
X24424Y-80725D01*
X26139Y-79735D02*
X26215Y-79735D01*
X26291Y-79773D01*
X26329Y-79811D01*
X26367Y-79887D01*
X26406Y-80040D01*
X26406Y-80230D01*
X26367Y-80382D01*
X26329Y-80459D01*
X26291Y-80497D01*
X26215Y-80535D01*
X26139Y-80535D01*
X26063Y-80497D01*
X26025Y-80459D01*
X25986Y-80382D01*
X25948Y-80230D01*
X25948Y-80040D01*
X25986Y-79887D01*
X26025Y-79811D01*
X26063Y-79773D01*
X26139Y-79735D01*
X26748Y-80459D02*
X26787Y-80497D01*
X26748Y-80535D01*
X26710Y-80497D01*
X26748Y-80459D01*
X26748Y-80535D01*
X27472Y-79735D02*
X27320Y-79735D01*
X27244Y-79773D01*
X27206Y-79811D01*
X27129Y-79925D01*
X27091Y-80078D01*
X27091Y-80382D01*
X27129Y-80459D01*
X27168Y-80497D01*
X27244Y-80535D01*
X27396Y-80535D01*
X27472Y-80497D01*
X27510Y-80459D01*
X27549Y-80382D01*
X27549Y-80192D01*
X27510Y-80116D01*
X27472Y-80078D01*
X27396Y-80040D01*
X27244Y-80040D01*
X27168Y-80078D01*
X27129Y-80116D01*
X27091Y-80192D01*
X28234Y-80001D02*
X28234Y-80535D01*
X28044Y-79697D02*
X27853Y-80268D01*
X28349Y-80268D01*
X28653Y-80535D02*
X28653Y-80001D01*
X28653Y-80078D02*
X28692Y-80040D01*
X28768Y-80001D01*
X28882Y-80001D01*
X28958Y-80040D01*
X28996Y-80116D01*
X28996Y-80535D01*
X28996Y-80116D02*
X29034Y-80040D01*
X29111Y-80001D01*
X29225Y-80001D01*
X29301Y-80040D01*
X29339Y-80116D01*
X29339Y-80535D01*
X29720Y-80535D02*
X29720Y-80001D01*
X29720Y-80078D02*
X29759Y-80040D01*
X29835Y-80001D01*
X29949Y-80001D01*
X30025Y-80040D01*
X30063Y-80116D01*
X30063Y-80535D01*
X30063Y-80116D02*
X30101Y-80040D01*
X30178Y-80001D01*
X30292Y-80001D01*
X30368Y-80040D01*
X30406Y-80116D01*
X30406Y-80535D01*
X31626Y-80840D02*
X31588Y-80801D01*
X31512Y-80687D01*
X31474Y-80611D01*
X31436Y-80497D01*
X31397Y-80306D01*
X31397Y-80154D01*
X31436Y-79963D01*
X31474Y-79849D01*
X31512Y-79773D01*
X31588Y-79659D01*
X31626Y-79621D01*
X31892Y-79811D02*
X31930Y-79773D01*
X32007Y-79735D01*
X32197Y-79735D01*
X32273Y-79773D01*
X32311Y-79811D01*
X32350Y-79887D01*
X32350Y-79963D01*
X32311Y-80078D01*
X31854Y-80535D01*
X32350Y-80535D01*
X33112Y-80535D02*
X32654Y-80535D01*
X32883Y-80535D02*
X32883Y-79735D01*
X32807Y-79849D01*
X32731Y-79925D01*
X32654Y-79963D01*
X34064Y-80535D02*
X34064Y-79735D01*
X34407Y-80535D02*
X34407Y-80116D01*
X34369Y-80040D01*
X34293Y-80001D01*
X34179Y-80001D01*
X34103Y-80040D01*
X34064Y-80078D01*
X34903Y-80535D02*
X34827Y-80497D01*
X34788Y-80459D01*
X34750Y-80382D01*
X34750Y-80154D01*
X34788Y-80078D01*
X34827Y-80040D01*
X34903Y-80001D01*
X35017Y-80001D01*
X35093Y-80040D01*
X35131Y-80078D01*
X35169Y-80154D01*
X35169Y-80382D01*
X35131Y-80459D01*
X35093Y-80497D01*
X35017Y-80535D01*
X34903Y-80535D01*
X35627Y-80535D02*
X35551Y-80497D01*
X35512Y-80421D01*
X35512Y-79735D01*
X36236Y-80497D02*
X36160Y-80535D01*
X36008Y-80535D01*
X35931Y-80497D01*
X35893Y-80421D01*
X35893Y-80116D01*
X35931Y-80040D01*
X36008Y-80001D01*
X36160Y-80001D01*
X36236Y-80040D01*
X36274Y-80116D01*
X36274Y-80192D01*
X35893Y-80268D01*
X36579Y-80497D02*
X36656Y-80535D01*
X36808Y-80535D01*
X36884Y-80497D01*
X36922Y-80421D01*
X36922Y-80382D01*
X36884Y-80306D01*
X36808Y-80268D01*
X36694Y-80268D01*
X36617Y-80230D01*
X36579Y-80154D01*
X36579Y-80116D01*
X36617Y-80040D01*
X36694Y-80001D01*
X36808Y-80001D01*
X36884Y-80040D01*
X37189Y-80840D02*
X37227Y-80801D01*
X37304Y-80687D01*
X37342Y-80611D01*
X37380Y-80497D01*
X37418Y-80306D01*
X37418Y-80154D01*
X37380Y-79963D01*
X37342Y-79849D01*
X37304Y-79773D01*
X37227Y-79659D01*
X37189Y-79621D01*
G54D10*
X19499Y-81266D02*
X19495Y-81297D01*
X19486Y-81326D01*
X19472Y-81354D01*
X19452Y-81378D01*
X19428Y-81398D01*
X19401Y-81413D01*
X19371Y-81422D01*
X19340Y-81425D01*
X19310Y-81423D01*
X19280Y-81414D01*
X19252Y-81399D01*
X19228Y-81380D01*
X19207Y-81356D01*
X19192Y-81329D01*
X19183Y-81299D01*
X19180Y-81268D01*
X19182Y-81238D01*
X19191Y-81208D01*
X19205Y-81180D01*
X19224Y-81155D01*
X19248Y-81135D01*
X19275Y-81120D01*
X19305Y-81110D01*
X19336Y-81107D01*
X19366Y-81109D01*
X19396Y-81117D01*
X19424Y-81131D01*
X19449Y-81151D01*
X19469Y-81174D01*
X19485Y-81201D01*
X19495Y-81231D01*
X19498Y-81262D01*
X19499Y-81266D01*
G54D12*
X20042Y-80790D02*
X20118Y-80790D01*
X20194Y-80828D01*
X20232Y-80866D01*
X20270Y-80942D01*
X20309Y-81095D01*
X20309Y-81285D01*
X20270Y-81437D01*
X20232Y-81514D01*
X20194Y-81552D01*
X20118Y-81590D01*
X20042Y-81590D01*
X19966Y-81552D01*
X19928Y-81514D01*
X19889Y-81437D01*
X19851Y-81285D01*
X19851Y-81095D01*
X19889Y-80942D01*
X19928Y-80866D01*
X19966Y-80828D01*
X20042Y-80790D01*
X20651Y-81514D02*
X20690Y-81552D01*
X20651Y-81590D01*
X20613Y-81552D01*
X20651Y-81514D01*
X20651Y-81590D01*
X21185Y-80790D02*
X21261Y-80790D01*
X21337Y-80828D01*
X21375Y-80866D01*
X21413Y-80942D01*
X21452Y-81095D01*
X21452Y-81285D01*
X21413Y-81437D01*
X21375Y-81514D01*
X21337Y-81552D01*
X21261Y-81590D01*
X21185Y-81590D01*
X21109Y-81552D01*
X21071Y-81514D01*
X21032Y-81437D01*
X20994Y-81285D01*
X20994Y-81095D01*
X21032Y-80942D01*
X21071Y-80866D01*
X21109Y-80828D01*
X21185Y-80790D01*
X21718Y-80790D02*
X22214Y-80790D01*
X21947Y-81095D01*
X22061Y-81095D01*
X22137Y-81133D01*
X22175Y-81171D01*
X22214Y-81247D01*
X22214Y-81437D01*
X22175Y-81514D01*
X22137Y-81552D01*
X22061Y-81590D01*
X21833Y-81590D01*
X21756Y-81552D01*
X21718Y-81514D01*
X22518Y-80866D02*
X22556Y-80828D01*
X22633Y-80790D01*
X22823Y-80790D01*
X22899Y-80828D01*
X22937Y-80866D01*
X22976Y-80942D01*
X22976Y-81018D01*
X22937Y-81133D01*
X22480Y-81590D01*
X22976Y-81590D01*
X23280Y-80790D02*
X23280Y-80942D01*
X23585Y-80790D02*
X23585Y-80942D01*
X25110Y-80752D02*
X24424Y-81780D01*
X26139Y-80790D02*
X26215Y-80790D01*
X26291Y-80828D01*
X26329Y-80866D01*
X26367Y-80942D01*
X26406Y-81095D01*
X26406Y-81285D01*
X26367Y-81437D01*
X26329Y-81514D01*
X26291Y-81552D01*
X26215Y-81590D01*
X26139Y-81590D01*
X26063Y-81552D01*
X26025Y-81514D01*
X25986Y-81437D01*
X25948Y-81285D01*
X25948Y-81095D01*
X25986Y-80942D01*
X26025Y-80866D01*
X26063Y-80828D01*
X26139Y-80790D01*
X26748Y-81514D02*
X26787Y-81552D01*
X26748Y-81590D01*
X26710Y-81552D01*
X26748Y-81514D01*
X26748Y-81590D01*
X27244Y-81133D02*
X27168Y-81095D01*
X27129Y-81056D01*
X27091Y-80980D01*
X27091Y-80942D01*
X27129Y-80866D01*
X27168Y-80828D01*
X27244Y-80790D01*
X27396Y-80790D01*
X27472Y-80828D01*
X27510Y-80866D01*
X27549Y-80942D01*
X27549Y-80980D01*
X27510Y-81056D01*
X27472Y-81095D01*
X27396Y-81133D01*
X27244Y-81133D01*
X27168Y-81171D01*
X27129Y-81209D01*
X27091Y-81285D01*
X27091Y-81437D01*
X27129Y-81514D01*
X27168Y-81552D01*
X27244Y-81590D01*
X27396Y-81590D01*
X27472Y-81552D01*
X27510Y-81514D01*
X27549Y-81437D01*
X27549Y-81285D01*
X27510Y-81209D01*
X27472Y-81171D01*
X27396Y-81133D01*
X28311Y-81590D02*
X27853Y-81590D01*
X28082Y-81590D02*
X28082Y-80790D01*
X28006Y-80904D01*
X27930Y-80980D01*
X27853Y-81018D01*
X28653Y-81590D02*
X28653Y-81056D01*
X28653Y-81133D02*
X28692Y-81095D01*
X28768Y-81056D01*
X28882Y-81056D01*
X28958Y-81095D01*
X28996Y-81171D01*
X28996Y-81590D01*
X28996Y-81171D02*
X29034Y-81095D01*
X29111Y-81056D01*
X29225Y-81056D01*
X29301Y-81095D01*
X29339Y-81171D01*
X29339Y-81590D01*
X29720Y-81590D02*
X29720Y-81056D01*
X29720Y-81133D02*
X29759Y-81095D01*
X29835Y-81056D01*
X29949Y-81056D01*
X30025Y-81095D01*
X30063Y-81171D01*
X30063Y-81590D01*
X30063Y-81171D02*
X30101Y-81095D01*
X30178Y-81056D01*
X30292Y-81056D01*
X30368Y-81095D01*
X30406Y-81171D01*
X30406Y-81590D01*
X31626Y-81895D02*
X31588Y-81856D01*
X31512Y-81742D01*
X31474Y-81666D01*
X31436Y-81552D01*
X31397Y-81361D01*
X31397Y-81209D01*
X31436Y-81018D01*
X31474Y-80904D01*
X31512Y-80828D01*
X31588Y-80714D01*
X31626Y-80676D01*
X32350Y-81590D02*
X31892Y-81590D01*
X32121Y-81590D02*
X32121Y-80790D01*
X32045Y-80904D01*
X31969Y-80980D01*
X31892Y-81018D01*
X33035Y-80790D02*
X32883Y-80790D01*
X32807Y-80828D01*
X32769Y-80866D01*
X32692Y-80980D01*
X32654Y-81133D01*
X32654Y-81437D01*
X32692Y-81514D01*
X32731Y-81552D01*
X32807Y-81590D01*
X32959Y-81590D01*
X33035Y-81552D01*
X33073Y-81514D01*
X33112Y-81437D01*
X33112Y-81247D01*
X33073Y-81171D01*
X33035Y-81133D01*
X32959Y-81095D01*
X32807Y-81095D01*
X32731Y-81133D01*
X32692Y-81171D01*
X32654Y-81247D01*
X33797Y-81056D02*
X33797Y-81590D01*
X33607Y-80752D02*
X33416Y-81323D01*
X33912Y-81323D01*
X34826Y-81590D02*
X34826Y-80790D01*
X35169Y-81590D02*
X35169Y-81171D01*
X35131Y-81095D01*
X35055Y-81056D01*
X34941Y-81056D01*
X34865Y-81095D01*
X34826Y-81133D01*
X35665Y-81590D02*
X35589Y-81552D01*
X35550Y-81514D01*
X35512Y-81437D01*
X35512Y-81209D01*
X35550Y-81133D01*
X35589Y-81095D01*
X35665Y-81056D01*
X35779Y-81056D01*
X35855Y-81095D01*
X35893Y-81133D01*
X35931Y-81209D01*
X35931Y-81437D01*
X35893Y-81514D01*
X35855Y-81552D01*
X35779Y-81590D01*
X35665Y-81590D01*
X36389Y-81590D02*
X36313Y-81552D01*
X36274Y-81476D01*
X36274Y-80790D01*
X36998Y-81552D02*
X36922Y-81590D01*
X36770Y-81590D01*
X36693Y-81552D01*
X36655Y-81476D01*
X36655Y-81171D01*
X36693Y-81095D01*
X36770Y-81056D01*
X36922Y-81056D01*
X36998Y-81095D01*
X37036Y-81171D01*
X37036Y-81247D01*
X36655Y-81323D01*
X37341Y-81552D02*
X37418Y-81590D01*
X37570Y-81590D01*
X37646Y-81552D01*
X37684Y-81476D01*
X37684Y-81437D01*
X37646Y-81361D01*
X37570Y-81323D01*
X37456Y-81323D01*
X37379Y-81285D01*
X37341Y-81209D01*
X37341Y-81171D01*
X37379Y-81095D01*
X37456Y-81056D01*
X37570Y-81056D01*
X37646Y-81095D01*
X37951Y-81895D02*
X37989Y-81856D01*
X38066Y-81742D01*
X38104Y-81666D01*
X38142Y-81552D01*
X38180Y-81361D01*
X38180Y-81209D01*
X38142Y-81018D01*
X38104Y-80904D01*
X38066Y-80828D01*
X37989Y-80714D01*
X37951Y-80676D01*
X19299Y-82121D02*
X19299Y-82521D01*
X19499Y-82321D02*
X19099Y-82321D01*
X20042Y-81845D02*
X20118Y-81845D01*
X20194Y-81883D01*
X20232Y-81921D01*
X20270Y-81997D01*
X20309Y-82150D01*
X20309Y-82340D01*
X20270Y-82492D01*
X20232Y-82569D01*
X20194Y-82607D01*
X20118Y-82645D01*
X20042Y-82645D01*
X19966Y-82607D01*
X19928Y-82569D01*
X19889Y-82492D01*
X19851Y-82340D01*
X19851Y-82150D01*
X19889Y-81997D01*
X19928Y-81921D01*
X19966Y-81883D01*
X20042Y-81845D01*
X20651Y-82569D02*
X20690Y-82607D01*
X20651Y-82645D01*
X20613Y-82607D01*
X20651Y-82569D01*
X20651Y-82645D01*
X21185Y-81845D02*
X21261Y-81845D01*
X21337Y-81883D01*
X21375Y-81921D01*
X21413Y-81997D01*
X21452Y-82150D01*
X21452Y-82340D01*
X21413Y-82492D01*
X21375Y-82569D01*
X21337Y-82607D01*
X21261Y-82645D01*
X21185Y-82645D01*
X21109Y-82607D01*
X21071Y-82569D01*
X21032Y-82492D01*
X20994Y-82340D01*
X20994Y-82150D01*
X21032Y-81997D01*
X21071Y-81921D01*
X21109Y-81883D01*
X21185Y-81845D01*
X22137Y-82111D02*
X22137Y-82645D01*
X21947Y-81807D02*
X21756Y-82378D01*
X22252Y-82378D01*
X22709Y-81845D02*
X22785Y-81845D01*
X22861Y-81883D01*
X22899Y-81921D01*
X22937Y-81997D01*
X22976Y-82150D01*
X22976Y-82340D01*
X22937Y-82492D01*
X22899Y-82569D01*
X22861Y-82607D01*
X22785Y-82645D01*
X22709Y-82645D01*
X22633Y-82607D01*
X22595Y-82569D01*
X22556Y-82492D01*
X22518Y-82340D01*
X22518Y-82150D01*
X22556Y-81997D01*
X22595Y-81921D01*
X22633Y-81883D01*
X22709Y-81845D01*
X23280Y-81845D02*
X23280Y-81997D01*
X23585Y-81845D02*
X23585Y-81997D01*
X25110Y-81807D02*
X24424Y-82835D01*
X26406Y-82645D02*
X25948Y-82645D01*
X26177Y-82645D02*
X26177Y-81845D01*
X26101Y-81959D01*
X26025Y-82035D01*
X25948Y-82073D01*
X26748Y-82569D02*
X26787Y-82607D01*
X26748Y-82645D01*
X26710Y-82607D01*
X26748Y-82569D01*
X26748Y-82645D01*
X27282Y-81845D02*
X27358Y-81845D01*
X27434Y-81883D01*
X27472Y-81921D01*
X27510Y-81997D01*
X27549Y-82150D01*
X27549Y-82340D01*
X27510Y-82492D01*
X27472Y-82569D01*
X27434Y-82607D01*
X27358Y-82645D01*
X27282Y-82645D01*
X27206Y-82607D01*
X27168Y-82569D01*
X27129Y-82492D01*
X27091Y-82340D01*
X27091Y-82150D01*
X27129Y-81997D01*
X27168Y-81921D01*
X27206Y-81883D01*
X27282Y-81845D01*
X27853Y-81921D02*
X27891Y-81883D01*
X27968Y-81845D01*
X28158Y-81845D01*
X28234Y-81883D01*
X28272Y-81921D01*
X28311Y-81997D01*
X28311Y-82073D01*
X28272Y-82188D01*
X27815Y-82645D01*
X28311Y-82645D01*
X28653Y-82645D02*
X28653Y-82111D01*
X28653Y-82188D02*
X28692Y-82150D01*
X28768Y-82111D01*
X28882Y-82111D01*
X28958Y-82150D01*
X28996Y-82226D01*
X28996Y-82645D01*
X28996Y-82226D02*
X29034Y-82150D01*
X29111Y-82111D01*
X29225Y-82111D01*
X29301Y-82150D01*
X29339Y-82226D01*
X29339Y-82645D01*
X29720Y-82645D02*
X29720Y-82111D01*
X29720Y-82188D02*
X29759Y-82150D01*
X29835Y-82111D01*
X29949Y-82111D01*
X30025Y-82150D01*
X30063Y-82226D01*
X30063Y-82645D01*
X30063Y-82226D02*
X30101Y-82150D01*
X30178Y-82111D01*
X30292Y-82111D01*
X30368Y-82150D01*
X30406Y-82226D01*
X30406Y-82645D01*
X31626Y-82950D02*
X31588Y-82911D01*
X31512Y-82797D01*
X31474Y-82721D01*
X31436Y-82607D01*
X31397Y-82416D01*
X31397Y-82264D01*
X31436Y-82073D01*
X31474Y-81959D01*
X31512Y-81883D01*
X31588Y-81769D01*
X31626Y-81731D01*
X31854Y-81845D02*
X32350Y-81845D01*
X32083Y-82150D01*
X32197Y-82150D01*
X32273Y-82188D01*
X32311Y-82226D01*
X32350Y-82302D01*
X32350Y-82492D01*
X32311Y-82569D01*
X32273Y-82607D01*
X32197Y-82645D01*
X31969Y-82645D01*
X31892Y-82607D01*
X31854Y-82569D01*
X32731Y-82645D02*
X32883Y-82645D01*
X32959Y-82607D01*
X32997Y-82569D01*
X33073Y-82454D01*
X33112Y-82302D01*
X33112Y-81997D01*
X33073Y-81921D01*
X33035Y-81883D01*
X32959Y-81845D01*
X32807Y-81845D01*
X32731Y-81883D01*
X32692Y-81921D01*
X32654Y-81997D01*
X32654Y-82188D01*
X32692Y-82264D01*
X32731Y-82302D01*
X32807Y-82340D01*
X32959Y-82340D01*
X33035Y-82302D01*
X33073Y-82264D01*
X33112Y-82188D01*
X34064Y-82645D02*
X34064Y-81845D01*
X34407Y-82645D02*
X34407Y-82226D01*
X34369Y-82150D01*
X34293Y-82111D01*
X34179Y-82111D01*
X34103Y-82150D01*
X34064Y-82188D01*
X34903Y-82645D02*
X34827Y-82607D01*
X34788Y-82569D01*
X34750Y-82492D01*
X34750Y-82264D01*
X34788Y-82188D01*
X34827Y-82150D01*
X34903Y-82111D01*
X35017Y-82111D01*
X35093Y-82150D01*
X35131Y-82188D01*
X35169Y-82264D01*
X35169Y-82492D01*
X35131Y-82569D01*
X35093Y-82607D01*
X35017Y-82645D01*
X34903Y-82645D01*
X35627Y-82645D02*
X35551Y-82607D01*
X35512Y-82531D01*
X35512Y-81845D01*
X36236Y-82607D02*
X36160Y-82645D01*
X36008Y-82645D01*
X35931Y-82607D01*
X35893Y-82531D01*
X35893Y-82226D01*
X35931Y-82150D01*
X36008Y-82111D01*
X36160Y-82111D01*
X36236Y-82150D01*
X36274Y-82226D01*
X36274Y-82302D01*
X35893Y-82378D01*
X36579Y-82607D02*
X36656Y-82645D01*
X36808Y-82645D01*
X36884Y-82607D01*
X36922Y-82531D01*
X36922Y-82492D01*
X36884Y-82416D01*
X36808Y-82378D01*
X36694Y-82378D01*
X36617Y-82340D01*
X36579Y-82264D01*
X36579Y-82226D01*
X36617Y-82150D01*
X36694Y-82111D01*
X36808Y-82111D01*
X36884Y-82150D01*
X37189Y-82950D02*
X37227Y-82911D01*
X37304Y-82797D01*
X37342Y-82721D01*
X37380Y-82607D01*
X37418Y-82416D01*
X37418Y-82264D01*
X37380Y-82073D01*
X37342Y-81959D01*
X37304Y-81883D01*
X37227Y-81769D01*
X37189Y-81731D01*
M02*
