G04 (created by PCBNEW-RS274X (2012-01-19 BZR 3256)-stable) date 12/6/2012 11:00:23 PM*
G01*
G70*
G90*
%MOIN*%
G04 Gerber Fmt 3.4, Leading zero omitted, Abs format*
%FSLAX34Y34*%
G04 APERTURE LIST*
%ADD10C,0.006000*%
%ADD11R,0.055000X0.055000*%
%ADD12C,0.055000*%
%ADD13R,0.060000X0.060000*%
%ADD14C,0.060000*%
%ADD15C,0.035000*%
%ADD16C,0.050000*%
%ADD17C,0.010000*%
%ADD18C,0.030000*%
%ADD19C,0.020000*%
G04 APERTURE END LIST*
G54D10*
G54D11*
X24000Y-44250D03*
G54D12*
X24000Y-43250D03*
X25000Y-43250D03*
G54D11*
X21250Y-39750D03*
G54D12*
X21250Y-38750D03*
X22250Y-38750D03*
G54D11*
X21250Y-35000D03*
G54D12*
X21250Y-34000D03*
X22250Y-34000D03*
G54D11*
X29000Y-45250D03*
G54D12*
X29000Y-44250D03*
X30000Y-44250D03*
G54D11*
X26250Y-45250D03*
G54D12*
X26250Y-44250D03*
X27250Y-44250D03*
G54D11*
X22250Y-37000D03*
G54D12*
X22250Y-36000D03*
X23250Y-36000D03*
G54D11*
X21350Y-44500D03*
G54D12*
X21350Y-43500D03*
X22350Y-43500D03*
G54D11*
X22250Y-41750D03*
G54D12*
X22250Y-40750D03*
X23250Y-40750D03*
G54D11*
X25000Y-58500D03*
G54D12*
X25000Y-57500D03*
X25000Y-56500D03*
X25000Y-55500D03*
X25000Y-54500D03*
X25000Y-53500D03*
X25000Y-52500D03*
X25000Y-51500D03*
X25000Y-50500D03*
G54D11*
X30500Y-64250D03*
G54D12*
X30500Y-63250D03*
X30500Y-62250D03*
X30500Y-61250D03*
X30500Y-60250D03*
G54D11*
X21250Y-66500D03*
G54D12*
X22250Y-66500D03*
X23250Y-66500D03*
X22250Y-65250D03*
X22250Y-61750D03*
X31250Y-46000D03*
X31250Y-42500D03*
X31500Y-76250D03*
X28000Y-76250D03*
X25750Y-71000D03*
X25750Y-74500D03*
X31500Y-75000D03*
X31500Y-71500D03*
X21250Y-65250D03*
X21250Y-61750D03*
X25750Y-60000D03*
X29250Y-60000D03*
X23250Y-65250D03*
X23250Y-61750D03*
X25750Y-61250D03*
X29250Y-61250D03*
X30500Y-66250D03*
X30500Y-69750D03*
G54D13*
X22250Y-76250D03*
G54D14*
X21250Y-76250D03*
X22250Y-75250D03*
X21250Y-75250D03*
X22250Y-74250D03*
X21250Y-74250D03*
X22250Y-73250D03*
X21250Y-73250D03*
X22250Y-72250D03*
X21250Y-72250D03*
X22250Y-71250D03*
X21250Y-71250D03*
X22250Y-70250D03*
X21250Y-70250D03*
X22250Y-69250D03*
X21250Y-69250D03*
G54D13*
X26500Y-47500D03*
G54D14*
X27500Y-47500D03*
X26500Y-48500D03*
X27500Y-48500D03*
X26500Y-49500D03*
X27500Y-49500D03*
X26500Y-50500D03*
X27500Y-50500D03*
X26500Y-51500D03*
X27500Y-51500D03*
X26500Y-52500D03*
X27500Y-52500D03*
X26500Y-53500D03*
X27500Y-53500D03*
X26500Y-54500D03*
X27500Y-54500D03*
X26500Y-55500D03*
X27500Y-55500D03*
X26500Y-56500D03*
X27500Y-56500D03*
X26500Y-57500D03*
X27500Y-57500D03*
X26500Y-58500D03*
X27500Y-58500D03*
G54D11*
X30000Y-74500D03*
G54D12*
X30000Y-73500D03*
X30000Y-72500D03*
X30000Y-71500D03*
X27000Y-71500D03*
X27000Y-72500D03*
X27000Y-73500D03*
X27000Y-74500D03*
G54D11*
X26250Y-65000D03*
G54D12*
X26250Y-66000D03*
X26250Y-67000D03*
X26250Y-68000D03*
X29250Y-68000D03*
X29250Y-67000D03*
X29250Y-66000D03*
X29250Y-65000D03*
G54D11*
X31750Y-41000D03*
G54D12*
X31750Y-40000D03*
X31750Y-39000D03*
X31750Y-38000D03*
X31750Y-37000D03*
X31750Y-36000D03*
X31750Y-35000D03*
X31750Y-34000D03*
X28750Y-34000D03*
X28750Y-35000D03*
X28750Y-36000D03*
X28750Y-37000D03*
X28750Y-38000D03*
X28750Y-39000D03*
X28750Y-40000D03*
X28750Y-41000D03*
G54D11*
X27500Y-41000D03*
G54D12*
X27500Y-40000D03*
X27500Y-39000D03*
X27500Y-38000D03*
X27500Y-37000D03*
X27500Y-36000D03*
X27500Y-35000D03*
X27500Y-34000D03*
X24500Y-34000D03*
X24500Y-35000D03*
X24500Y-36000D03*
X24500Y-37000D03*
X24500Y-38000D03*
X24500Y-39000D03*
X24500Y-40000D03*
X24500Y-41000D03*
G54D11*
X26500Y-46250D03*
G54D12*
X29500Y-46250D03*
G54D11*
X29250Y-63500D03*
G54D12*
X26250Y-63500D03*
G54D11*
X29250Y-62500D03*
G54D12*
X26250Y-62500D03*
G54D11*
X24250Y-70750D03*
G54D12*
X24250Y-71750D03*
G54D11*
X24250Y-73000D03*
G54D12*
X24250Y-74000D03*
G54D11*
X24250Y-75250D03*
G54D12*
X24250Y-76250D03*
X28250Y-69750D03*
X29250Y-69750D03*
X25000Y-63500D03*
X25000Y-62500D03*
X29700Y-42600D03*
X28700Y-42600D03*
X27000Y-75750D03*
X26000Y-75750D03*
X26000Y-69750D03*
X27000Y-69750D03*
G54D14*
X31000Y-55500D03*
G54D13*
X31000Y-54000D03*
G54D14*
X29000Y-55500D03*
X29000Y-54000D03*
X31000Y-58750D03*
G54D13*
X31000Y-57250D03*
G54D14*
X29000Y-58750D03*
X29000Y-57250D03*
X21500Y-57500D03*
G54D13*
X21500Y-59000D03*
G54D14*
X23500Y-57500D03*
X23500Y-59000D03*
X21500Y-46250D03*
G54D13*
X21500Y-47750D03*
G54D14*
X23500Y-46250D03*
X23500Y-47750D03*
X21500Y-50000D03*
G54D13*
X21500Y-51500D03*
G54D14*
X23500Y-50000D03*
X23500Y-51500D03*
X21500Y-53750D03*
G54D13*
X21500Y-55250D03*
G54D14*
X23500Y-53750D03*
X23500Y-55250D03*
X31000Y-52250D03*
G54D13*
X31000Y-50750D03*
G54D14*
X29000Y-52250D03*
X29000Y-50750D03*
X31000Y-49000D03*
G54D13*
X31000Y-47500D03*
G54D14*
X29000Y-49000D03*
X29000Y-47500D03*
G54D15*
X30700Y-40200D03*
X29850Y-34900D03*
X26100Y-38000D03*
X24400Y-69000D03*
X26700Y-69000D03*
X27000Y-56000D03*
X30600Y-44100D03*
X22200Y-49700D03*
X30900Y-40900D03*
X31500Y-44000D03*
X30000Y-45700D03*
X21200Y-68100D03*
X26750Y-43350D03*
X26100Y-39500D03*
X28800Y-52900D03*
X30700Y-56300D03*
X22100Y-44700D03*
X25600Y-46250D03*
X26900Y-65600D03*
X23600Y-68600D03*
X27100Y-68600D03*
G54D16*
X24250Y-73000D02*
X25000Y-73000D01*
X25000Y-64700D02*
X25000Y-63500D01*
X25800Y-64200D02*
X27700Y-64200D01*
X28250Y-57250D02*
X28250Y-58850D01*
X25000Y-73000D02*
X25000Y-64700D01*
G54D17*
X24250Y-73000D02*
X24000Y-73000D01*
G54D16*
X29250Y-65000D02*
X27700Y-64200D01*
G54D18*
X23250Y-72250D02*
X22250Y-72250D01*
G54D17*
X22250Y-72250D02*
X21250Y-72250D01*
G54D16*
X23250Y-72250D02*
X24000Y-73000D01*
X25500Y-73000D02*
X27000Y-74500D01*
X27500Y-55500D02*
X27500Y-56500D01*
X25000Y-73000D02*
X25500Y-73000D01*
X25371Y-64442D02*
X25000Y-64700D01*
X21250Y-72250D02*
X23250Y-72250D01*
X25800Y-64200D02*
X25371Y-64442D01*
X28250Y-58850D02*
X27700Y-60000D01*
X27500Y-56500D02*
X28250Y-57250D01*
X27700Y-60000D02*
X27700Y-64200D01*
G54D17*
X24000Y-73000D02*
X25000Y-73000D01*
G54D16*
X27000Y-74500D02*
X27000Y-75750D01*
X30500Y-66250D02*
X29250Y-65000D01*
G54D18*
X22250Y-71250D02*
X22750Y-70750D01*
X29400Y-33300D02*
X29850Y-34900D01*
X29600Y-41000D02*
X30191Y-40409D01*
X22750Y-70750D02*
X24250Y-70750D01*
X28750Y-41000D02*
X30700Y-40200D01*
X20250Y-71250D02*
X20200Y-71200D01*
X29700Y-42600D02*
X29700Y-40900D01*
X21250Y-71250D02*
X20250Y-71250D01*
X28750Y-41000D02*
X29600Y-41000D01*
X21000Y-33300D02*
X29400Y-33300D01*
X29700Y-40900D02*
X30191Y-40409D01*
X20200Y-71200D02*
X20200Y-34100D01*
X21250Y-71250D02*
X22250Y-71250D01*
X30191Y-40409D02*
X30700Y-40200D01*
X20200Y-34100D02*
X21000Y-33300D01*
G54D16*
X24600Y-76500D02*
X27200Y-76500D01*
X29250Y-71550D02*
X28900Y-71900D01*
X27200Y-76500D02*
X27675Y-76975D01*
X26000Y-70000D02*
X26600Y-70600D01*
X28900Y-71800D02*
X28900Y-71900D01*
X24350Y-76250D02*
X24250Y-76250D01*
X28425Y-76975D02*
X28900Y-76500D01*
X27675Y-76975D02*
X28425Y-76975D01*
X28900Y-71900D02*
X28900Y-75400D01*
X28900Y-76500D02*
X28900Y-75400D01*
X26000Y-69750D02*
X26000Y-70000D01*
X29300Y-71500D02*
X28900Y-71900D01*
X22250Y-76250D02*
X21250Y-76250D01*
X29250Y-69750D02*
X29250Y-71550D01*
X24250Y-76250D02*
X22250Y-76250D01*
X26200Y-68000D02*
X26000Y-68200D01*
X24350Y-76250D02*
X24600Y-76500D01*
X26000Y-68200D02*
X26000Y-69750D01*
X30000Y-71500D02*
X29300Y-71500D01*
X26600Y-70600D02*
X27700Y-70600D01*
X27700Y-70600D02*
X28900Y-71800D01*
X26250Y-68000D02*
X26200Y-68000D01*
G54D19*
X22500Y-46900D02*
X21850Y-46250D01*
X21850Y-46250D02*
X21500Y-46250D01*
X26900Y-46900D02*
X22500Y-46900D01*
X27500Y-47500D02*
X26900Y-46900D01*
X27500Y-48500D02*
X27000Y-48000D01*
X24500Y-48000D02*
X23500Y-48700D01*
X22500Y-48700D02*
X21500Y-50000D01*
X27000Y-48000D02*
X24500Y-48000D01*
X23500Y-48700D02*
X22500Y-48700D01*
X26000Y-49000D02*
X27000Y-49000D01*
X25500Y-49500D02*
X26000Y-49000D01*
X25400Y-51000D02*
X25500Y-50800D01*
X23600Y-52200D02*
X24324Y-51606D01*
X24324Y-51606D02*
X24370Y-51296D01*
X21500Y-53750D02*
X22800Y-52400D01*
X24600Y-51000D02*
X25400Y-51000D01*
X24370Y-51296D02*
X24600Y-51000D01*
X22800Y-52400D02*
X23600Y-52200D01*
X27000Y-49000D02*
X27500Y-49500D01*
X25500Y-50800D02*
X25500Y-49500D01*
X24000Y-55750D02*
X21500Y-57500D01*
X27000Y-51750D02*
X26750Y-52000D01*
X26750Y-52000D02*
X26250Y-52000D01*
X25250Y-55000D02*
X24500Y-55000D01*
X26250Y-52000D02*
X25600Y-52500D01*
X27000Y-51250D02*
X27000Y-51750D01*
X27500Y-50750D02*
X27000Y-51250D01*
X27500Y-50500D02*
X27500Y-50750D01*
X24500Y-55000D02*
X24000Y-55750D01*
X25600Y-52500D02*
X25600Y-54700D01*
X25600Y-54700D02*
X25250Y-55000D01*
X28250Y-50750D02*
X28250Y-50250D01*
X28750Y-49750D02*
X30250Y-49750D01*
X27500Y-51500D02*
X28250Y-50750D01*
X28250Y-50250D02*
X28750Y-49750D01*
X30250Y-49750D02*
X31000Y-49000D01*
X28000Y-52500D02*
X28750Y-51750D01*
X30500Y-51750D02*
X31000Y-52250D01*
X27500Y-52500D02*
X28000Y-52500D01*
X28750Y-51750D02*
X30500Y-51750D01*
X30250Y-58000D02*
X31000Y-58750D01*
X28400Y-56000D02*
X28750Y-56250D01*
X28750Y-56250D02*
X30000Y-56250D01*
X27500Y-53500D02*
X28250Y-53500D01*
X30000Y-56250D02*
X30250Y-56500D01*
X28250Y-53500D02*
X28400Y-53750D01*
X30250Y-56500D02*
X30250Y-58000D01*
X28400Y-53750D02*
X28400Y-56000D01*
X25100Y-60600D02*
X25750Y-61250D01*
X26200Y-56500D02*
X25590Y-57100D01*
X25100Y-59850D02*
X25100Y-60600D01*
X25590Y-57100D02*
X25590Y-59100D01*
X25590Y-59100D02*
X25100Y-59850D01*
X26500Y-56500D02*
X26200Y-56500D01*
X26500Y-47500D02*
X23750Y-47500D01*
X23750Y-47500D02*
X23500Y-47750D01*
X24500Y-49200D02*
X25300Y-48500D01*
X23500Y-51500D02*
X23500Y-51400D01*
X22700Y-50600D02*
X22700Y-49700D01*
X22700Y-49700D02*
X23100Y-49200D01*
X23500Y-51400D02*
X22700Y-50600D01*
X23100Y-49200D02*
X24500Y-49200D01*
X25300Y-48500D02*
X26500Y-48500D01*
X25900Y-50000D02*
X25900Y-51500D01*
X25400Y-52000D02*
X24700Y-52000D01*
X26500Y-49500D02*
X26400Y-49500D01*
X23500Y-55250D02*
X22650Y-55250D01*
X24000Y-52500D02*
X23300Y-52900D01*
X22650Y-55250D02*
X22650Y-53250D01*
X22650Y-53250D02*
X23300Y-52900D01*
X24700Y-52000D02*
X24000Y-52500D01*
X25900Y-51500D02*
X25400Y-52000D01*
X26400Y-49500D02*
X25900Y-50000D01*
X26600Y-51400D02*
X26500Y-51500D01*
X28100Y-48500D02*
X28100Y-49800D01*
X26600Y-51200D02*
X26600Y-51400D01*
X29000Y-47500D02*
X29000Y-47600D01*
X27000Y-50200D02*
X27000Y-50800D01*
X29000Y-47600D02*
X28100Y-48500D01*
X27200Y-50000D02*
X27000Y-50200D01*
X27900Y-50000D02*
X27200Y-50000D01*
X28100Y-49800D02*
X27900Y-50000D01*
X27000Y-50800D02*
X26600Y-51200D01*
X29000Y-50750D02*
X29000Y-51000D01*
X28000Y-52000D02*
X27200Y-52000D01*
X27200Y-52000D02*
X26800Y-52400D01*
X29000Y-51000D02*
X28000Y-52000D01*
X26800Y-52400D02*
X26600Y-52400D01*
X26600Y-52400D02*
X26500Y-52500D01*
X28050Y-56200D02*
X29000Y-57250D01*
X26500Y-53500D02*
X27000Y-54000D01*
X28000Y-54000D02*
X28050Y-54250D01*
X28050Y-54250D02*
X28050Y-56200D01*
X27000Y-54000D02*
X28000Y-54000D01*
X23000Y-40000D02*
X22250Y-40750D01*
X24500Y-40000D02*
X23000Y-40000D01*
X24100Y-41000D02*
X22100Y-43000D01*
X21750Y-43000D02*
X21350Y-43500D01*
X22100Y-43000D02*
X21750Y-43000D01*
X24500Y-41000D02*
X24100Y-41000D01*
X25100Y-39700D02*
X25100Y-42150D01*
X24500Y-39100D02*
X25100Y-39700D01*
X24500Y-39000D02*
X24500Y-39100D01*
X25100Y-42150D02*
X24000Y-43250D01*
X22000Y-37800D02*
X22800Y-37800D01*
X23400Y-37200D02*
X22800Y-37800D01*
X21250Y-38550D02*
X22000Y-37800D01*
X23400Y-37200D02*
X24500Y-36000D01*
X21250Y-38750D02*
X21250Y-38550D01*
X21250Y-34000D02*
X21450Y-34000D01*
X21950Y-34600D02*
X22700Y-34600D01*
X22700Y-34600D02*
X23200Y-34000D01*
X24500Y-34000D02*
X23200Y-34000D01*
X21450Y-34000D02*
X21950Y-34600D01*
X26500Y-38100D02*
X26500Y-42500D01*
X28250Y-44250D02*
X29000Y-44250D01*
X26100Y-38000D02*
X26400Y-38000D01*
X28250Y-44250D02*
X26500Y-42500D01*
X26400Y-38000D02*
X26500Y-38100D01*
X24500Y-37000D02*
X24900Y-37000D01*
X25600Y-43800D02*
X26250Y-44250D01*
X25600Y-37900D02*
X25600Y-43800D01*
X24900Y-37000D02*
X25600Y-37900D01*
X22250Y-35450D02*
X22250Y-36000D01*
X22700Y-35000D02*
X22250Y-35450D01*
X24500Y-35000D02*
X22700Y-35000D01*
X26100Y-55500D02*
X26500Y-55500D01*
X24200Y-56500D02*
X24700Y-56000D01*
X23250Y-60150D02*
X24200Y-59200D01*
X26100Y-55500D02*
X25300Y-56000D01*
X24200Y-59200D02*
X24200Y-56500D01*
X25300Y-56000D02*
X24700Y-56000D01*
X23250Y-61750D02*
X23250Y-60150D01*
X25900Y-59650D02*
X25750Y-60000D01*
X26500Y-57500D02*
X25900Y-58100D01*
X25900Y-58100D02*
X25900Y-59650D01*
X30800Y-71300D02*
X30800Y-72700D01*
X25000Y-58500D02*
X24400Y-60400D01*
X29800Y-69900D02*
X30800Y-71300D01*
X30800Y-75550D02*
X31500Y-76250D01*
X26700Y-69000D02*
X29800Y-69000D01*
X30300Y-73500D02*
X30800Y-74000D01*
X30800Y-74000D02*
X30800Y-75550D01*
X24400Y-60400D02*
X24400Y-69000D01*
X29800Y-69000D02*
X29800Y-69900D01*
X30000Y-73500D02*
X30300Y-73500D01*
X30800Y-72700D02*
X30000Y-73500D01*
X25400Y-56500D02*
X25000Y-56500D01*
X26100Y-56000D02*
X25400Y-56500D01*
X27000Y-56000D02*
X26100Y-56000D01*
X26225Y-53000D02*
X25950Y-53275D01*
X28750Y-52250D02*
X28000Y-53000D01*
X29000Y-52250D02*
X28750Y-52250D01*
X25300Y-55500D02*
X25000Y-55500D01*
X28000Y-53000D02*
X26225Y-53000D01*
X25950Y-55000D02*
X25300Y-55500D01*
X25950Y-53275D02*
X25950Y-55000D01*
X23500Y-53750D02*
X25000Y-52500D01*
X22250Y-69250D02*
X21250Y-69250D01*
X27500Y-35000D02*
X28750Y-35000D01*
X22250Y-70250D02*
X21250Y-70250D01*
X23700Y-35500D02*
X25200Y-35500D01*
X25200Y-35500D02*
X26900Y-37300D01*
X26900Y-37300D02*
X26900Y-42300D01*
X28350Y-43700D02*
X30200Y-43700D01*
X26900Y-42300D02*
X28350Y-43700D01*
X23250Y-36000D02*
X23300Y-36000D01*
X23300Y-36000D02*
X23700Y-35500D01*
X30200Y-43700D02*
X30600Y-44100D01*
X32000Y-44750D02*
X28250Y-44750D01*
X32000Y-56500D02*
X32000Y-44750D01*
X31250Y-57250D02*
X32000Y-56500D01*
X31000Y-57250D02*
X31250Y-57250D01*
X28250Y-44750D02*
X27250Y-44250D01*
X20800Y-53400D02*
X22200Y-52100D01*
X21500Y-55250D02*
X21500Y-54700D01*
X20800Y-54100D02*
X20800Y-53400D01*
X22200Y-52100D02*
X22200Y-49700D01*
X21500Y-54700D02*
X20800Y-54100D01*
X31500Y-44000D02*
X31450Y-43600D01*
X30500Y-41900D02*
X30500Y-42650D01*
X31450Y-43600D02*
X30500Y-42650D01*
X30900Y-40900D02*
X30500Y-41900D01*
X30000Y-45700D02*
X31000Y-46700D01*
X31400Y-46700D02*
X31700Y-47000D01*
X31700Y-47000D02*
X31700Y-50050D01*
X31700Y-50050D02*
X31000Y-50750D01*
X31000Y-46700D02*
X31400Y-46700D01*
X23250Y-65450D02*
X24000Y-66000D01*
X23200Y-69000D02*
X24000Y-69000D01*
X23250Y-65450D02*
X23250Y-65250D01*
X21200Y-68100D02*
X22300Y-68100D01*
X22300Y-68100D02*
X23200Y-69000D01*
X24000Y-66000D02*
X24000Y-69000D01*
X26100Y-43100D02*
X26750Y-43350D01*
X30500Y-63250D02*
X29500Y-63250D01*
X29500Y-63250D02*
X29250Y-63500D01*
X26100Y-39500D02*
X26100Y-43100D01*
X29900Y-55500D02*
X29900Y-54000D01*
X29900Y-54000D02*
X28800Y-52900D01*
X30700Y-56300D02*
X29900Y-55500D01*
X21500Y-51500D02*
X21500Y-51400D01*
X20800Y-50700D02*
X20800Y-45900D01*
X20800Y-45900D02*
X21901Y-45000D01*
X21500Y-51400D02*
X20800Y-50700D01*
X21901Y-45000D02*
X22100Y-44700D01*
X25600Y-46250D02*
X23500Y-46250D01*
X29250Y-60000D02*
X30250Y-60000D01*
X30250Y-60000D02*
X30500Y-60250D01*
X27300Y-66000D02*
X29250Y-66000D01*
X26900Y-65600D02*
X27300Y-66000D01*
X25600Y-66600D02*
X25600Y-67300D01*
X26800Y-67500D02*
X27000Y-67700D01*
X30000Y-67800D02*
X30000Y-68600D01*
X25800Y-67500D02*
X26800Y-67500D01*
X26250Y-66000D02*
X26200Y-66000D01*
X29400Y-67000D02*
X30000Y-67800D01*
X27000Y-67700D02*
X27100Y-68600D01*
X30000Y-68600D02*
X30500Y-69050D01*
X29250Y-67000D02*
X29400Y-67000D01*
X22250Y-66500D02*
X23600Y-68600D01*
X27100Y-68600D02*
X30000Y-68600D01*
X30500Y-69050D02*
X30500Y-69750D01*
X26200Y-66000D02*
X25600Y-66600D01*
X25600Y-67300D02*
X25800Y-67500D01*
X22250Y-65500D02*
X23250Y-66500D01*
X22250Y-65250D02*
X22250Y-65500D01*
X21250Y-65250D02*
X21250Y-66500D01*
X30400Y-43300D02*
X31000Y-43900D01*
X31994Y-44400D02*
X31200Y-44400D01*
X31079Y-44205D02*
X31200Y-44400D01*
X31994Y-44400D02*
X32000Y-44000D01*
X31750Y-41000D02*
X32000Y-41300D01*
X31000Y-43900D02*
X31079Y-44205D01*
X28600Y-43300D02*
X30400Y-43300D01*
X27500Y-42200D02*
X28600Y-43300D01*
X32000Y-44000D02*
X32000Y-41300D01*
X27500Y-42200D02*
X27500Y-41000D01*
X27500Y-39000D02*
X27600Y-39000D01*
X27600Y-39000D02*
X28100Y-38500D01*
X31250Y-38500D02*
X31750Y-39000D01*
X28100Y-38500D02*
X31250Y-38500D01*
X27500Y-38000D02*
X27600Y-38000D01*
X27600Y-38000D02*
X28100Y-37500D01*
X31250Y-37500D02*
X31750Y-38000D01*
X28100Y-37500D02*
X31250Y-37500D01*
X28450Y-36500D02*
X27950Y-37000D01*
X27950Y-37000D02*
X27500Y-37000D01*
X31750Y-37000D02*
X31250Y-36500D01*
X28450Y-36500D02*
X31250Y-36500D01*
X31250Y-35500D02*
X31750Y-35000D01*
X28100Y-35500D02*
X31250Y-35500D01*
X27500Y-36000D02*
X27600Y-36000D01*
X27600Y-36000D02*
X28100Y-35500D01*
X27800Y-36500D02*
X28300Y-36000D01*
X27500Y-34000D02*
X27400Y-34000D01*
X26700Y-34500D02*
X26700Y-36300D01*
X28300Y-36000D02*
X28750Y-36000D01*
X27400Y-34000D02*
X26700Y-34500D01*
X26700Y-36300D02*
X26900Y-36500D01*
X26900Y-36500D02*
X27800Y-36500D01*
X26500Y-72500D02*
X27000Y-72500D01*
X25750Y-71750D02*
X26500Y-72500D01*
X25750Y-71000D02*
X25750Y-71750D01*
X28000Y-39500D02*
X31250Y-39500D01*
X31250Y-39500D02*
X31750Y-40000D01*
X27500Y-40000D02*
X28000Y-39500D01*
X21250Y-39750D02*
X21250Y-42200D01*
G54D17*
X21350Y-44500D02*
X21500Y-44250D01*
G54D19*
X31200Y-46000D02*
X30450Y-45250D01*
X21250Y-36550D02*
X21700Y-37000D01*
G54D17*
X21500Y-44250D02*
X24000Y-44250D01*
G54D19*
X26250Y-45250D02*
X25250Y-44250D01*
X21700Y-37000D02*
X22250Y-37000D01*
X30450Y-45250D02*
X26250Y-45250D01*
X21250Y-35000D02*
X21250Y-36550D01*
X21250Y-42200D02*
X21800Y-42200D01*
X25250Y-44250D02*
X21500Y-44250D01*
X21250Y-42202D02*
X20751Y-42700D01*
X21250Y-42200D02*
X21250Y-42202D01*
X21800Y-42200D02*
X22250Y-41750D01*
X20749Y-44004D02*
X21350Y-44500D01*
X31250Y-46000D02*
X31200Y-46000D01*
G54D17*
X26250Y-45250D02*
X29000Y-45250D01*
G54D19*
X20751Y-42700D02*
X20749Y-44004D01*
X30500Y-62250D02*
X29500Y-62250D01*
X29500Y-62250D02*
X29250Y-62500D01*
X31200Y-66800D02*
X30800Y-67000D01*
X29600Y-66500D02*
X26750Y-66500D01*
X29250Y-61250D02*
X30500Y-61250D01*
X30100Y-67000D02*
X29600Y-66500D01*
X31200Y-61600D02*
X31200Y-66800D01*
X26750Y-66500D02*
X26250Y-67000D01*
X30550Y-61300D02*
X30500Y-61250D01*
X30800Y-67000D02*
X30100Y-67000D01*
X30900Y-61300D02*
X31200Y-61600D01*
X30550Y-61300D02*
X30900Y-61300D01*
M02*
