M48
INCH,TZ
T1C0.025
T2C0.032
T3C0.040
%
G90
G05
T1
X21200Y-68100
X22100Y-44700
X22200Y-49700
X23600Y-68600
X24400Y-69000
X25600Y-46250
X26100Y-38000
X26100Y-39500
X26700Y-69000
X26750Y-43350
X26900Y-65600
X27000Y-56000
X27100Y-68600
X28800Y-52900
X29850Y-34900
X30000Y-45700
X30600Y-44100
X30700Y-40200
X30700Y-56300
X30900Y-40900
X31500Y-44000
T2
X21250Y-34000
X21250Y-35000
X21250Y-38750
X21250Y-39750
X21250Y-61750
X21250Y-65250
X21250Y-66500
X21350Y-43500
X21350Y-44500
X21500Y-46250
X21500Y-47750
X21500Y-50000
X21500Y-51500
X21500Y-53750
X21500Y-55250
X21500Y-57500
X21500Y-59000
X22250Y-34000
X22250Y-36000
X22250Y-37000
X22250Y-38750
X22250Y-40750
X22250Y-41750
X22250Y-61750
X22250Y-65250
X22250Y-66500
X22350Y-43500
X23250Y-36000
X23250Y-40750
X23250Y-61750
X23250Y-65250
X23250Y-66500
X23500Y-46250
X23500Y-47750
X23500Y-50000
X23500Y-51500
X23500Y-53750
X23500Y-55250
X23500Y-57500
X23500Y-59000
X24000Y-43250
X24000Y-44250
X24250Y-70750
X24250Y-71750
X24250Y-73000
X24250Y-74000
X24250Y-75250
X24250Y-76250
X24500Y-34000
X24500Y-35000
X24500Y-36000
X24500Y-37000
X24500Y-38000
X24500Y-39000
X24500Y-40000
X24500Y-41000
X25000Y-43250
X25000Y-50500
X25000Y-51500
X25000Y-52500
X25000Y-53500
X25000Y-54500
X25000Y-55500
X25000Y-56500
X25000Y-57500
X25000Y-58500
X25000Y-62500
X25000Y-63500
X25750Y-60000
X25750Y-61250
X25750Y-71000
X25750Y-74500
X26000Y-69750
X26000Y-75750
X26250Y-44250
X26250Y-45250
X26250Y-62500
X26250Y-63500
X26250Y-65000
X26250Y-66000
X26250Y-67000
X26250Y-68000
X26500Y-46250
X26500Y-47500
X27000Y-69750
X27000Y-71500
X27000Y-72500
X27000Y-73500
X27000Y-74500
X27000Y-75750
X27250Y-44250
X27500Y-34000
X27500Y-35000
X27500Y-36000
X27500Y-37000
X27500Y-38000
X27500Y-39000
X27500Y-40000
X27500Y-41000
X28000Y-76250
X28250Y-69750
X28700Y-42600
X28750Y-34000
X28750Y-35000
X28750Y-36000
X28750Y-37000
X28750Y-38000
X28750Y-39000
X28750Y-40000
X28750Y-41000
X29000Y-44250
X29000Y-45250
X29000Y-47500
X29000Y-49000
X29000Y-50750
X29000Y-52250
X29000Y-54000
X29000Y-55500
X29000Y-57250
X29000Y-58750
X29250Y-60000
X29250Y-61250
X29250Y-62500
X29250Y-63500
X29250Y-65000
X29250Y-66000
X29250Y-67000
X29250Y-68000
X29250Y-69750
X29500Y-46250
X29700Y-42600
X30000Y-44250
X30000Y-71500
X30000Y-72500
X30000Y-73500
X30000Y-74500
X30500Y-60250
X30500Y-61250
X30500Y-62250
X30500Y-63250
X30500Y-64250
X30500Y-66250
X30500Y-69750
X31000Y-47500
X31000Y-49000
X31000Y-50750
X31000Y-52250
X31000Y-54000
X31000Y-55500
X31000Y-57250
X31000Y-58750
X31250Y-42500
X31250Y-46000
X31500Y-71500
X31500Y-75000
X31500Y-76250
X31750Y-34000
X31750Y-35000
X31750Y-36000
X31750Y-37000
X31750Y-38000
X31750Y-39000
X31750Y-40000
X31750Y-41000
T3
X21250Y-69250
X21250Y-70250
X21250Y-71250
X21250Y-72250
X21250Y-73250
X21250Y-74250
X21250Y-75250
X21250Y-76250
X22250Y-69250
X22250Y-70250
X22250Y-71250
X22250Y-72250
X22250Y-73250
X22250Y-74250
X22250Y-75250
X22250Y-76250
X26500Y-48500
X26500Y-49500
X26500Y-50500
X26500Y-51500
X26500Y-52500
X26500Y-53500
X26500Y-54500
X26500Y-55500
X26500Y-56500
X26500Y-57500
X26500Y-58500
X27500Y-47500
X27500Y-48500
X27500Y-49500
X27500Y-50500
X27500Y-51500
X27500Y-52500
X27500Y-53500
X27500Y-54500
X27500Y-55500
X27500Y-56500
X27500Y-57500
X27500Y-58500
T0
M30
