G04 (created by PCBNEW-RS274X (2012-01-19 BZR 3256)-stable) date 12/6/2012 8:31:16 PM*
G01*
G70*
G90*
%MOIN*%
G04 Gerber Fmt 3.4, Leading zero omitted, Abs format*
%FSLAX34Y34*%
G04 APERTURE LIST*
%ADD10C,0.006000*%
%ADD11C,0.008000*%
%ADD12C,0.004000*%
%ADD13C,0.126000*%
%ADD14C,0.118100*%
%ADD15C,0.320000*%
%ADD16C,0.010000*%
G04 APERTURE END LIST*
G54D10*
G54D11*
X06450Y-54375D02*
X06450Y-53650D01*
X09200Y-54375D02*
X09200Y-53600D01*
X09225Y-56175D02*
X08275Y-56175D01*
X09225Y-56825D02*
X09225Y-56175D01*
X06475Y-56175D02*
X06475Y-56825D01*
X09100Y-54375D02*
X09200Y-54375D01*
X06500Y-54375D02*
X06450Y-54375D01*
X06650Y-54375D02*
X06500Y-54375D01*
G54D12*
X06351Y-53726D02*
X06226Y-53862D01*
X06113Y-54009D01*
X06014Y-54165D01*
X05928Y-54329D01*
X05857Y-54500D01*
X05802Y-54677D01*
X05762Y-54857D01*
X05738Y-55041D01*
X05729Y-55225D01*
X05738Y-55409D01*
X05762Y-55593D01*
X05802Y-55773D01*
X05857Y-55950D01*
X05928Y-56121D01*
X06014Y-56285D01*
X06113Y-56441D01*
X06226Y-56588D01*
X06351Y-56724D01*
X09349Y-56724D02*
X09474Y-56588D01*
X09587Y-56441D01*
X09686Y-56285D01*
X09772Y-56121D01*
X09843Y-55950D01*
X09898Y-55773D01*
X09938Y-55593D01*
X09962Y-55409D01*
X09971Y-55225D01*
X09962Y-55041D01*
X09938Y-54857D01*
X09898Y-54677D01*
X09843Y-54500D01*
X09772Y-54329D01*
X09686Y-54165D01*
X09587Y-54009D01*
X09474Y-53862D01*
X09349Y-53726D01*
X06351Y-56724D02*
X06487Y-56849D01*
X06634Y-56962D01*
X06790Y-57061D01*
X06954Y-57147D01*
X07125Y-57218D01*
X07302Y-57273D01*
X07482Y-57313D01*
X07666Y-57337D01*
X07850Y-57346D01*
X08034Y-57337D01*
X08218Y-57313D01*
X08398Y-57273D01*
X08575Y-57218D01*
X08746Y-57147D01*
X08910Y-57061D01*
X09066Y-56962D01*
X09213Y-56849D01*
X09349Y-56724D01*
X09349Y-53726D02*
X09213Y-53601D01*
X09066Y-53488D01*
X08910Y-53389D01*
X08746Y-53303D01*
X08575Y-53232D01*
X08398Y-53177D01*
X08218Y-53137D01*
X08034Y-53113D01*
X07850Y-53104D01*
X07666Y-53113D01*
X07482Y-53137D01*
X07302Y-53177D01*
X07125Y-53232D01*
X06954Y-53303D01*
X06790Y-53389D01*
X06634Y-53488D01*
X06487Y-53601D01*
X06351Y-53726D01*
X08150Y-55075D02*
X08175Y-54950D01*
X08100Y-55050D02*
X08150Y-55075D01*
X08175Y-54950D02*
X08100Y-55050D01*
X08025Y-55325D02*
X08175Y-54950D01*
X07775Y-55400D02*
X07925Y-55025D01*
X07925Y-55025D02*
X07850Y-55125D01*
X07850Y-55125D02*
X07900Y-55150D01*
X07900Y-55150D02*
X07925Y-55025D01*
G54D11*
X06975Y-56175D02*
X06475Y-56175D01*
X07175Y-54375D02*
X07275Y-54375D01*
X07275Y-54375D02*
X07375Y-54175D01*
X07475Y-56175D02*
X06975Y-56175D01*
X07375Y-54175D02*
X07575Y-54575D01*
X07575Y-54575D02*
X07775Y-54175D01*
X07775Y-54175D02*
X07975Y-54575D01*
X07975Y-54575D02*
X08175Y-54175D01*
X08175Y-54175D02*
X08375Y-54575D01*
X08375Y-54575D02*
X08475Y-54375D01*
X08475Y-54375D02*
X09075Y-54375D01*
X06675Y-54375D02*
X07175Y-54375D01*
X08275Y-55675D02*
X08275Y-56675D01*
X07525Y-56675D02*
X07525Y-55675D01*
X07525Y-55675D02*
X08275Y-56175D01*
X08275Y-56175D02*
X07525Y-56675D01*
G54D13*
X08070Y-76446D03*
G54D14*
X11925Y-32600D03*
X11925Y-37700D03*
X11925Y-67600D03*
X11925Y-62600D03*
X11925Y-57600D03*
X11925Y-52600D03*
X11925Y-47600D03*
X11925Y-42600D03*
G54D13*
X08060Y-28316D03*
G54D15*
X08225Y-35075D03*
X14425Y-35075D03*
X14425Y-65075D03*
X08225Y-70075D03*
X14425Y-60075D03*
X14425Y-70075D03*
X14425Y-40075D03*
X08225Y-40075D03*
X14425Y-50075D03*
X14425Y-55075D03*
X14425Y-45075D03*
G54D10*
G36*
X17450Y-77500D02*
X17077Y-77500D01*
X17075Y-77500D01*
X12635Y-77500D01*
X12635Y-67530D01*
X12635Y-62530D01*
X12635Y-57530D01*
X12635Y-52530D01*
X12635Y-47530D01*
X12635Y-42530D01*
X12635Y-37630D01*
X12635Y-32530D01*
X12608Y-32393D01*
X12555Y-32265D01*
X12478Y-32149D01*
X12379Y-32050D01*
X12264Y-31972D01*
X12136Y-31918D01*
X11999Y-31890D01*
X11860Y-31890D01*
X11723Y-31916D01*
X11594Y-31968D01*
X11478Y-32044D01*
X11378Y-32142D01*
X11300Y-32257D01*
X11245Y-32385D01*
X11216Y-32521D01*
X11214Y-32660D01*
X11239Y-32797D01*
X11291Y-32926D01*
X11366Y-33043D01*
X11463Y-33144D01*
X11577Y-33223D01*
X11705Y-33279D01*
X11841Y-33308D01*
X11980Y-33311D01*
X12117Y-33287D01*
X12247Y-33237D01*
X12365Y-33162D01*
X12465Y-33066D01*
X12546Y-32952D01*
X12602Y-32825D01*
X12633Y-32689D01*
X12635Y-32530D01*
X12635Y-37630D01*
X12608Y-37493D01*
X12555Y-37365D01*
X12478Y-37249D01*
X12379Y-37150D01*
X12264Y-37072D01*
X12136Y-37018D01*
X11999Y-36990D01*
X11860Y-36990D01*
X11723Y-37016D01*
X11594Y-37068D01*
X11478Y-37144D01*
X11378Y-37242D01*
X11300Y-37357D01*
X11245Y-37485D01*
X11216Y-37621D01*
X11214Y-37760D01*
X11239Y-37897D01*
X11291Y-38026D01*
X11366Y-38143D01*
X11463Y-38244D01*
X11577Y-38323D01*
X11705Y-38379D01*
X11841Y-38408D01*
X11980Y-38411D01*
X12117Y-38387D01*
X12247Y-38337D01*
X12365Y-38262D01*
X12465Y-38166D01*
X12546Y-38052D01*
X12602Y-37925D01*
X12633Y-37789D01*
X12635Y-37630D01*
X12635Y-42530D01*
X12608Y-42393D01*
X12555Y-42265D01*
X12478Y-42149D01*
X12379Y-42050D01*
X12264Y-41972D01*
X12136Y-41918D01*
X11999Y-41890D01*
X11860Y-41890D01*
X11723Y-41916D01*
X11594Y-41968D01*
X11478Y-42044D01*
X11378Y-42142D01*
X11300Y-42257D01*
X11245Y-42385D01*
X11216Y-42521D01*
X11214Y-42660D01*
X11239Y-42797D01*
X11291Y-42926D01*
X11366Y-43043D01*
X11463Y-43144D01*
X11577Y-43223D01*
X11705Y-43279D01*
X11841Y-43308D01*
X11980Y-43311D01*
X12117Y-43287D01*
X12247Y-43237D01*
X12365Y-43162D01*
X12465Y-43066D01*
X12546Y-42952D01*
X12602Y-42825D01*
X12633Y-42689D01*
X12635Y-42530D01*
X12635Y-47530D01*
X12608Y-47393D01*
X12555Y-47265D01*
X12478Y-47149D01*
X12379Y-47050D01*
X12264Y-46972D01*
X12136Y-46918D01*
X11999Y-46890D01*
X11860Y-46890D01*
X11723Y-46916D01*
X11594Y-46968D01*
X11478Y-47044D01*
X11378Y-47142D01*
X11300Y-47257D01*
X11245Y-47385D01*
X11216Y-47521D01*
X11214Y-47660D01*
X11239Y-47797D01*
X11291Y-47926D01*
X11366Y-48043D01*
X11463Y-48144D01*
X11577Y-48223D01*
X11705Y-48279D01*
X11841Y-48308D01*
X11980Y-48311D01*
X12117Y-48287D01*
X12247Y-48237D01*
X12365Y-48162D01*
X12465Y-48066D01*
X12546Y-47952D01*
X12602Y-47825D01*
X12633Y-47689D01*
X12635Y-47530D01*
X12635Y-52530D01*
X12608Y-52393D01*
X12555Y-52265D01*
X12478Y-52149D01*
X12379Y-52050D01*
X12264Y-51972D01*
X12136Y-51918D01*
X11999Y-51890D01*
X11860Y-51890D01*
X11723Y-51916D01*
X11594Y-51968D01*
X11478Y-52044D01*
X11378Y-52142D01*
X11300Y-52257D01*
X11245Y-52385D01*
X11216Y-52521D01*
X11214Y-52660D01*
X11239Y-52797D01*
X11291Y-52926D01*
X11366Y-53043D01*
X11463Y-53144D01*
X11577Y-53223D01*
X11705Y-53279D01*
X11841Y-53308D01*
X11980Y-53311D01*
X12117Y-53287D01*
X12247Y-53237D01*
X12365Y-53162D01*
X12465Y-53066D01*
X12546Y-52952D01*
X12602Y-52825D01*
X12633Y-52689D01*
X12635Y-52530D01*
X12635Y-57530D01*
X12608Y-57393D01*
X12555Y-57265D01*
X12478Y-57149D01*
X12379Y-57050D01*
X12264Y-56972D01*
X12136Y-56918D01*
X11999Y-56890D01*
X11860Y-56890D01*
X11723Y-56916D01*
X11594Y-56968D01*
X11478Y-57044D01*
X11378Y-57142D01*
X11300Y-57257D01*
X11245Y-57385D01*
X11216Y-57521D01*
X11214Y-57660D01*
X11239Y-57797D01*
X11291Y-57926D01*
X11366Y-58043D01*
X11463Y-58144D01*
X11577Y-58223D01*
X11705Y-58279D01*
X11841Y-58308D01*
X11980Y-58311D01*
X12117Y-58287D01*
X12247Y-58237D01*
X12365Y-58162D01*
X12465Y-58066D01*
X12546Y-57952D01*
X12602Y-57825D01*
X12633Y-57689D01*
X12635Y-57530D01*
X12635Y-62530D01*
X12608Y-62393D01*
X12555Y-62265D01*
X12478Y-62149D01*
X12379Y-62050D01*
X12264Y-61972D01*
X12136Y-61918D01*
X11999Y-61890D01*
X11860Y-61890D01*
X11723Y-61916D01*
X11594Y-61968D01*
X11478Y-62044D01*
X11378Y-62142D01*
X11300Y-62257D01*
X11245Y-62385D01*
X11216Y-62521D01*
X11214Y-62660D01*
X11239Y-62797D01*
X11291Y-62926D01*
X11366Y-63043D01*
X11463Y-63144D01*
X11577Y-63223D01*
X11705Y-63279D01*
X11841Y-63308D01*
X11980Y-63311D01*
X12117Y-63287D01*
X12247Y-63237D01*
X12365Y-63162D01*
X12465Y-63066D01*
X12546Y-62952D01*
X12602Y-62825D01*
X12633Y-62689D01*
X12635Y-62530D01*
X12635Y-67530D01*
X12608Y-67393D01*
X12555Y-67265D01*
X12478Y-67149D01*
X12379Y-67050D01*
X12264Y-66972D01*
X12136Y-66918D01*
X11999Y-66890D01*
X11860Y-66890D01*
X11723Y-66916D01*
X11594Y-66968D01*
X11478Y-67044D01*
X11378Y-67142D01*
X11300Y-67257D01*
X11245Y-67385D01*
X11216Y-67521D01*
X11214Y-67660D01*
X11239Y-67797D01*
X11291Y-67926D01*
X11366Y-68043D01*
X11463Y-68144D01*
X11577Y-68223D01*
X11705Y-68279D01*
X11841Y-68308D01*
X11980Y-68311D01*
X12117Y-68287D01*
X12247Y-68237D01*
X12365Y-68162D01*
X12465Y-68066D01*
X12546Y-67952D01*
X12602Y-67825D01*
X12633Y-67689D01*
X12635Y-67530D01*
X12635Y-77500D01*
X10041Y-77500D01*
X10041Y-55225D01*
X10041Y-55212D01*
X10041Y-55211D01*
X10039Y-55203D01*
X10038Y-55198D01*
X09999Y-54799D01*
X09996Y-54786D01*
X09996Y-54785D01*
X09875Y-54391D01*
X09875Y-54390D01*
X09870Y-54377D01*
X09870Y-54376D01*
X09866Y-54370D01*
X09675Y-54013D01*
X09675Y-54012D01*
X09670Y-54005D01*
X09668Y-54001D01*
X09667Y-54000D01*
X09406Y-53684D01*
X09404Y-53681D01*
X09399Y-53676D01*
X09397Y-53673D01*
X09396Y-53673D01*
X09394Y-53670D01*
X09391Y-53668D01*
X09386Y-53663D01*
X09383Y-53661D01*
X09383Y-53660D01*
X09062Y-53400D01*
X09051Y-53392D01*
X09047Y-53390D01*
X08809Y-53264D01*
X08809Y-28243D01*
X08781Y-28099D01*
X08725Y-27963D01*
X08643Y-27841D01*
X08540Y-27736D01*
X08418Y-27654D01*
X08283Y-27597D01*
X08139Y-27568D01*
X07992Y-27567D01*
X07848Y-27594D01*
X07712Y-27649D01*
X07589Y-27729D01*
X07484Y-27832D01*
X07401Y-27953D01*
X07343Y-28088D01*
X07312Y-28232D01*
X07310Y-28379D01*
X07336Y-28523D01*
X07390Y-28660D01*
X07470Y-28783D01*
X07572Y-28889D01*
X07692Y-28973D01*
X07827Y-29032D01*
X07970Y-29063D01*
X08117Y-29066D01*
X08262Y-29041D01*
X08399Y-28988D01*
X08523Y-28909D01*
X08629Y-28808D01*
X08714Y-28688D01*
X08774Y-28554D01*
X08807Y-28411D01*
X08809Y-28243D01*
X08809Y-53264D01*
X08686Y-53200D01*
X08685Y-53199D01*
X08672Y-53193D01*
X08665Y-53192D01*
X08275Y-53076D01*
X08264Y-53073D01*
X08262Y-53073D01*
X08261Y-53073D01*
X07850Y-53034D01*
X07837Y-53034D01*
X07836Y-53034D01*
X07827Y-53035D01*
X07424Y-53076D01*
X07410Y-53079D01*
X07015Y-53200D01*
X07001Y-53205D01*
X06995Y-53208D01*
X06637Y-53400D01*
X06630Y-53404D01*
X06626Y-53407D01*
X06625Y-53408D01*
X06306Y-53671D01*
X06301Y-53675D01*
X06298Y-53678D01*
X06295Y-53681D01*
X06293Y-53683D01*
X06291Y-53686D01*
X06288Y-53689D01*
X06285Y-53692D01*
X06025Y-54013D01*
X06017Y-54024D01*
X06015Y-54027D01*
X05824Y-54390D01*
X05818Y-54403D01*
X05817Y-54409D01*
X05701Y-54800D01*
X05698Y-54810D01*
X05698Y-54813D01*
X05698Y-54814D01*
X05659Y-55225D01*
X05659Y-55238D01*
X05659Y-55239D01*
X05701Y-55651D01*
X05704Y-55665D01*
X05705Y-55667D01*
X05825Y-56060D01*
X05830Y-56073D01*
X06025Y-56437D01*
X06032Y-56449D01*
X06037Y-56454D01*
X06042Y-56459D01*
X06293Y-56765D01*
X06296Y-56769D01*
X06302Y-56776D01*
X06303Y-56777D01*
X06305Y-56780D01*
X06308Y-56782D01*
X06313Y-56786D01*
X06314Y-56786D01*
X06316Y-56789D01*
X06317Y-56789D01*
X06324Y-56795D01*
X06388Y-56847D01*
X06392Y-56859D01*
X06400Y-56875D01*
X06411Y-56888D01*
X06425Y-56900D01*
X06440Y-56908D01*
X06457Y-56913D01*
X06471Y-56914D01*
X06637Y-57050D01*
X06648Y-57057D01*
X06649Y-57058D01*
X07014Y-57250D01*
X07015Y-57251D01*
X07022Y-57253D01*
X07027Y-57256D01*
X07028Y-57256D01*
X07041Y-57259D01*
X07424Y-57373D01*
X07425Y-57374D01*
X07434Y-57376D01*
X07437Y-57377D01*
X07438Y-57377D01*
X07849Y-57415D01*
X07850Y-57416D01*
X07863Y-57416D01*
X07864Y-57416D01*
X08276Y-57374D01*
X08289Y-57371D01*
X08290Y-57371D01*
X08292Y-57369D01*
X08302Y-57366D01*
X08684Y-57250D01*
X08685Y-57250D01*
X08697Y-57245D01*
X08698Y-57245D01*
X09062Y-57050D01*
X09074Y-57043D01*
X09074Y-57042D01*
X09079Y-57037D01*
X09084Y-57033D01*
X09390Y-56782D01*
X09394Y-56779D01*
X09401Y-56773D01*
X09402Y-56772D01*
X09405Y-56770D01*
X09407Y-56766D01*
X09408Y-56764D01*
X09411Y-56762D01*
X09411Y-56760D01*
X09414Y-56759D01*
X09414Y-56758D01*
X09420Y-56751D01*
X09420Y-56750D01*
X09674Y-56438D01*
X09675Y-56438D01*
X09682Y-56427D01*
X09683Y-56426D01*
X09688Y-56414D01*
X09875Y-56061D01*
X09876Y-56060D01*
X09878Y-56053D01*
X09881Y-56048D01*
X09881Y-56047D01*
X09884Y-56034D01*
X09998Y-55651D01*
X09999Y-55650D01*
X10001Y-55641D01*
X10002Y-55638D01*
X10002Y-55637D01*
X10040Y-55226D01*
X10041Y-55225D01*
X10041Y-77500D01*
X08819Y-77500D01*
X08819Y-76373D01*
X08791Y-76229D01*
X08735Y-76093D01*
X08653Y-75971D01*
X08550Y-75866D01*
X08428Y-75784D01*
X08293Y-75727D01*
X08149Y-75698D01*
X08002Y-75697D01*
X07858Y-75724D01*
X07722Y-75779D01*
X07599Y-75859D01*
X07494Y-75962D01*
X07411Y-76083D01*
X07353Y-76218D01*
X07322Y-76362D01*
X07320Y-76509D01*
X07346Y-76653D01*
X07400Y-76790D01*
X07480Y-76913D01*
X07582Y-77019D01*
X07702Y-77103D01*
X07837Y-77162D01*
X07980Y-77193D01*
X08127Y-77196D01*
X08272Y-77171D01*
X08409Y-77118D01*
X08533Y-77039D01*
X08639Y-76938D01*
X08724Y-76818D01*
X08784Y-76684D01*
X08817Y-76541D01*
X08819Y-76373D01*
X08819Y-77500D01*
X05200Y-77500D01*
X05200Y-33627D01*
X05200Y-33625D01*
X05200Y-27250D01*
X17073Y-27250D01*
X17075Y-27250D01*
X17450Y-27250D01*
X17450Y-77500D01*
X17450Y-77500D01*
G37*
G54D16*
X17450Y-77500D02*
X17077Y-77500D01*
X17075Y-77500D01*
X12635Y-77500D01*
X12635Y-67530D01*
X12635Y-62530D01*
X12635Y-57530D01*
X12635Y-52530D01*
X12635Y-47530D01*
X12635Y-42530D01*
X12635Y-37630D01*
X12635Y-32530D01*
X12608Y-32393D01*
X12555Y-32265D01*
X12478Y-32149D01*
X12379Y-32050D01*
X12264Y-31972D01*
X12136Y-31918D01*
X11999Y-31890D01*
X11860Y-31890D01*
X11723Y-31916D01*
X11594Y-31968D01*
X11478Y-32044D01*
X11378Y-32142D01*
X11300Y-32257D01*
X11245Y-32385D01*
X11216Y-32521D01*
X11214Y-32660D01*
X11239Y-32797D01*
X11291Y-32926D01*
X11366Y-33043D01*
X11463Y-33144D01*
X11577Y-33223D01*
X11705Y-33279D01*
X11841Y-33308D01*
X11980Y-33311D01*
X12117Y-33287D01*
X12247Y-33237D01*
X12365Y-33162D01*
X12465Y-33066D01*
X12546Y-32952D01*
X12602Y-32825D01*
X12633Y-32689D01*
X12635Y-32530D01*
X12635Y-37630D01*
X12608Y-37493D01*
X12555Y-37365D01*
X12478Y-37249D01*
X12379Y-37150D01*
X12264Y-37072D01*
X12136Y-37018D01*
X11999Y-36990D01*
X11860Y-36990D01*
X11723Y-37016D01*
X11594Y-37068D01*
X11478Y-37144D01*
X11378Y-37242D01*
X11300Y-37357D01*
X11245Y-37485D01*
X11216Y-37621D01*
X11214Y-37760D01*
X11239Y-37897D01*
X11291Y-38026D01*
X11366Y-38143D01*
X11463Y-38244D01*
X11577Y-38323D01*
X11705Y-38379D01*
X11841Y-38408D01*
X11980Y-38411D01*
X12117Y-38387D01*
X12247Y-38337D01*
X12365Y-38262D01*
X12465Y-38166D01*
X12546Y-38052D01*
X12602Y-37925D01*
X12633Y-37789D01*
X12635Y-37630D01*
X12635Y-42530D01*
X12608Y-42393D01*
X12555Y-42265D01*
X12478Y-42149D01*
X12379Y-42050D01*
X12264Y-41972D01*
X12136Y-41918D01*
X11999Y-41890D01*
X11860Y-41890D01*
X11723Y-41916D01*
X11594Y-41968D01*
X11478Y-42044D01*
X11378Y-42142D01*
X11300Y-42257D01*
X11245Y-42385D01*
X11216Y-42521D01*
X11214Y-42660D01*
X11239Y-42797D01*
X11291Y-42926D01*
X11366Y-43043D01*
X11463Y-43144D01*
X11577Y-43223D01*
X11705Y-43279D01*
X11841Y-43308D01*
X11980Y-43311D01*
X12117Y-43287D01*
X12247Y-43237D01*
X12365Y-43162D01*
X12465Y-43066D01*
X12546Y-42952D01*
X12602Y-42825D01*
X12633Y-42689D01*
X12635Y-42530D01*
X12635Y-47530D01*
X12608Y-47393D01*
X12555Y-47265D01*
X12478Y-47149D01*
X12379Y-47050D01*
X12264Y-46972D01*
X12136Y-46918D01*
X11999Y-46890D01*
X11860Y-46890D01*
X11723Y-46916D01*
X11594Y-46968D01*
X11478Y-47044D01*
X11378Y-47142D01*
X11300Y-47257D01*
X11245Y-47385D01*
X11216Y-47521D01*
X11214Y-47660D01*
X11239Y-47797D01*
X11291Y-47926D01*
X11366Y-48043D01*
X11463Y-48144D01*
X11577Y-48223D01*
X11705Y-48279D01*
X11841Y-48308D01*
X11980Y-48311D01*
X12117Y-48287D01*
X12247Y-48237D01*
X12365Y-48162D01*
X12465Y-48066D01*
X12546Y-47952D01*
X12602Y-47825D01*
X12633Y-47689D01*
X12635Y-47530D01*
X12635Y-52530D01*
X12608Y-52393D01*
X12555Y-52265D01*
X12478Y-52149D01*
X12379Y-52050D01*
X12264Y-51972D01*
X12136Y-51918D01*
X11999Y-51890D01*
X11860Y-51890D01*
X11723Y-51916D01*
X11594Y-51968D01*
X11478Y-52044D01*
X11378Y-52142D01*
X11300Y-52257D01*
X11245Y-52385D01*
X11216Y-52521D01*
X11214Y-52660D01*
X11239Y-52797D01*
X11291Y-52926D01*
X11366Y-53043D01*
X11463Y-53144D01*
X11577Y-53223D01*
X11705Y-53279D01*
X11841Y-53308D01*
X11980Y-53311D01*
X12117Y-53287D01*
X12247Y-53237D01*
X12365Y-53162D01*
X12465Y-53066D01*
X12546Y-52952D01*
X12602Y-52825D01*
X12633Y-52689D01*
X12635Y-52530D01*
X12635Y-57530D01*
X12608Y-57393D01*
X12555Y-57265D01*
X12478Y-57149D01*
X12379Y-57050D01*
X12264Y-56972D01*
X12136Y-56918D01*
X11999Y-56890D01*
X11860Y-56890D01*
X11723Y-56916D01*
X11594Y-56968D01*
X11478Y-57044D01*
X11378Y-57142D01*
X11300Y-57257D01*
X11245Y-57385D01*
X11216Y-57521D01*
X11214Y-57660D01*
X11239Y-57797D01*
X11291Y-57926D01*
X11366Y-58043D01*
X11463Y-58144D01*
X11577Y-58223D01*
X11705Y-58279D01*
X11841Y-58308D01*
X11980Y-58311D01*
X12117Y-58287D01*
X12247Y-58237D01*
X12365Y-58162D01*
X12465Y-58066D01*
X12546Y-57952D01*
X12602Y-57825D01*
X12633Y-57689D01*
X12635Y-57530D01*
X12635Y-62530D01*
X12608Y-62393D01*
X12555Y-62265D01*
X12478Y-62149D01*
X12379Y-62050D01*
X12264Y-61972D01*
X12136Y-61918D01*
X11999Y-61890D01*
X11860Y-61890D01*
X11723Y-61916D01*
X11594Y-61968D01*
X11478Y-62044D01*
X11378Y-62142D01*
X11300Y-62257D01*
X11245Y-62385D01*
X11216Y-62521D01*
X11214Y-62660D01*
X11239Y-62797D01*
X11291Y-62926D01*
X11366Y-63043D01*
X11463Y-63144D01*
X11577Y-63223D01*
X11705Y-63279D01*
X11841Y-63308D01*
X11980Y-63311D01*
X12117Y-63287D01*
X12247Y-63237D01*
X12365Y-63162D01*
X12465Y-63066D01*
X12546Y-62952D01*
X12602Y-62825D01*
X12633Y-62689D01*
X12635Y-62530D01*
X12635Y-67530D01*
X12608Y-67393D01*
X12555Y-67265D01*
X12478Y-67149D01*
X12379Y-67050D01*
X12264Y-66972D01*
X12136Y-66918D01*
X11999Y-66890D01*
X11860Y-66890D01*
X11723Y-66916D01*
X11594Y-66968D01*
X11478Y-67044D01*
X11378Y-67142D01*
X11300Y-67257D01*
X11245Y-67385D01*
X11216Y-67521D01*
X11214Y-67660D01*
X11239Y-67797D01*
X11291Y-67926D01*
X11366Y-68043D01*
X11463Y-68144D01*
X11577Y-68223D01*
X11705Y-68279D01*
X11841Y-68308D01*
X11980Y-68311D01*
X12117Y-68287D01*
X12247Y-68237D01*
X12365Y-68162D01*
X12465Y-68066D01*
X12546Y-67952D01*
X12602Y-67825D01*
X12633Y-67689D01*
X12635Y-67530D01*
X12635Y-77500D01*
X10041Y-77500D01*
X10041Y-55225D01*
X10041Y-55212D01*
X10041Y-55211D01*
X10039Y-55203D01*
X10038Y-55198D01*
X09999Y-54799D01*
X09996Y-54786D01*
X09996Y-54785D01*
X09875Y-54391D01*
X09875Y-54390D01*
X09870Y-54377D01*
X09870Y-54376D01*
X09866Y-54370D01*
X09675Y-54013D01*
X09675Y-54012D01*
X09670Y-54005D01*
X09668Y-54001D01*
X09667Y-54000D01*
X09406Y-53684D01*
X09404Y-53681D01*
X09399Y-53676D01*
X09397Y-53673D01*
X09396Y-53673D01*
X09394Y-53670D01*
X09391Y-53668D01*
X09386Y-53663D01*
X09383Y-53661D01*
X09383Y-53660D01*
X09062Y-53400D01*
X09051Y-53392D01*
X09047Y-53390D01*
X08809Y-53264D01*
X08809Y-28243D01*
X08781Y-28099D01*
X08725Y-27963D01*
X08643Y-27841D01*
X08540Y-27736D01*
X08418Y-27654D01*
X08283Y-27597D01*
X08139Y-27568D01*
X07992Y-27567D01*
X07848Y-27594D01*
X07712Y-27649D01*
X07589Y-27729D01*
X07484Y-27832D01*
X07401Y-27953D01*
X07343Y-28088D01*
X07312Y-28232D01*
X07310Y-28379D01*
X07336Y-28523D01*
X07390Y-28660D01*
X07470Y-28783D01*
X07572Y-28889D01*
X07692Y-28973D01*
X07827Y-29032D01*
X07970Y-29063D01*
X08117Y-29066D01*
X08262Y-29041D01*
X08399Y-28988D01*
X08523Y-28909D01*
X08629Y-28808D01*
X08714Y-28688D01*
X08774Y-28554D01*
X08807Y-28411D01*
X08809Y-28243D01*
X08809Y-53264D01*
X08686Y-53200D01*
X08685Y-53199D01*
X08672Y-53193D01*
X08665Y-53192D01*
X08275Y-53076D01*
X08264Y-53073D01*
X08262Y-53073D01*
X08261Y-53073D01*
X07850Y-53034D01*
X07837Y-53034D01*
X07836Y-53034D01*
X07827Y-53035D01*
X07424Y-53076D01*
X07410Y-53079D01*
X07015Y-53200D01*
X07001Y-53205D01*
X06995Y-53208D01*
X06637Y-53400D01*
X06630Y-53404D01*
X06626Y-53407D01*
X06625Y-53408D01*
X06306Y-53671D01*
X06301Y-53675D01*
X06298Y-53678D01*
X06295Y-53681D01*
X06293Y-53683D01*
X06291Y-53686D01*
X06288Y-53689D01*
X06285Y-53692D01*
X06025Y-54013D01*
X06017Y-54024D01*
X06015Y-54027D01*
X05824Y-54390D01*
X05818Y-54403D01*
X05817Y-54409D01*
X05701Y-54800D01*
X05698Y-54810D01*
X05698Y-54813D01*
X05698Y-54814D01*
X05659Y-55225D01*
X05659Y-55238D01*
X05659Y-55239D01*
X05701Y-55651D01*
X05704Y-55665D01*
X05705Y-55667D01*
X05825Y-56060D01*
X05830Y-56073D01*
X06025Y-56437D01*
X06032Y-56449D01*
X06037Y-56454D01*
X06042Y-56459D01*
X06293Y-56765D01*
X06296Y-56769D01*
X06302Y-56776D01*
X06303Y-56777D01*
X06305Y-56780D01*
X06308Y-56782D01*
X06313Y-56786D01*
X06314Y-56786D01*
X06316Y-56789D01*
X06317Y-56789D01*
X06324Y-56795D01*
X06388Y-56847D01*
X06392Y-56859D01*
X06400Y-56875D01*
X06411Y-56888D01*
X06425Y-56900D01*
X06440Y-56908D01*
X06457Y-56913D01*
X06471Y-56914D01*
X06637Y-57050D01*
X06648Y-57057D01*
X06649Y-57058D01*
X07014Y-57250D01*
X07015Y-57251D01*
X07022Y-57253D01*
X07027Y-57256D01*
X07028Y-57256D01*
X07041Y-57259D01*
X07424Y-57373D01*
X07425Y-57374D01*
X07434Y-57376D01*
X07437Y-57377D01*
X07438Y-57377D01*
X07849Y-57415D01*
X07850Y-57416D01*
X07863Y-57416D01*
X07864Y-57416D01*
X08276Y-57374D01*
X08289Y-57371D01*
X08290Y-57371D01*
X08292Y-57369D01*
X08302Y-57366D01*
X08684Y-57250D01*
X08685Y-57250D01*
X08697Y-57245D01*
X08698Y-57245D01*
X09062Y-57050D01*
X09074Y-57043D01*
X09074Y-57042D01*
X09079Y-57037D01*
X09084Y-57033D01*
X09390Y-56782D01*
X09394Y-56779D01*
X09401Y-56773D01*
X09402Y-56772D01*
X09405Y-56770D01*
X09407Y-56766D01*
X09408Y-56764D01*
X09411Y-56762D01*
X09411Y-56760D01*
X09414Y-56759D01*
X09414Y-56758D01*
X09420Y-56751D01*
X09420Y-56750D01*
X09674Y-56438D01*
X09675Y-56438D01*
X09682Y-56427D01*
X09683Y-56426D01*
X09688Y-56414D01*
X09875Y-56061D01*
X09876Y-56060D01*
X09878Y-56053D01*
X09881Y-56048D01*
X09881Y-56047D01*
X09884Y-56034D01*
X09998Y-55651D01*
X09999Y-55650D01*
X10001Y-55641D01*
X10002Y-55638D01*
X10002Y-55637D01*
X10040Y-55226D01*
X10041Y-55225D01*
X10041Y-77500D01*
X08819Y-77500D01*
X08819Y-76373D01*
X08791Y-76229D01*
X08735Y-76093D01*
X08653Y-75971D01*
X08550Y-75866D01*
X08428Y-75784D01*
X08293Y-75727D01*
X08149Y-75698D01*
X08002Y-75697D01*
X07858Y-75724D01*
X07722Y-75779D01*
X07599Y-75859D01*
X07494Y-75962D01*
X07411Y-76083D01*
X07353Y-76218D01*
X07322Y-76362D01*
X07320Y-76509D01*
X07346Y-76653D01*
X07400Y-76790D01*
X07480Y-76913D01*
X07582Y-77019D01*
X07702Y-77103D01*
X07837Y-77162D01*
X07980Y-77193D01*
X08127Y-77196D01*
X08272Y-77171D01*
X08409Y-77118D01*
X08533Y-77039D01*
X08639Y-76938D01*
X08724Y-76818D01*
X08784Y-76684D01*
X08817Y-76541D01*
X08819Y-76373D01*
X08819Y-77500D01*
X05200Y-77500D01*
X05200Y-33627D01*
X05200Y-33625D01*
X05200Y-27250D01*
X17073Y-27250D01*
X17075Y-27250D01*
X17450Y-27250D01*
X17450Y-77500D01*
M02*
