M48
INCH,TZ
T1C0.118
T2C0.126
T3C0.225
%
G90
G05
T1
X11925Y-32600
X11925Y-37700
X11925Y-42600
X11925Y-47600
X11925Y-52600
X11925Y-57600
X11925Y-62600
X11925Y-67600
T2
X8060Y-28316
X8070Y-76446
T3
X8225Y-35075
X8225Y-40075
X8225Y-70075
X14425Y-35075
X14425Y-40075
X14425Y-45075
X14425Y-50075
X14425Y-55075
X14425Y-60075
X14425Y-65075
X14425Y-70075
T0
M30
