G04 (created by PCBNEW-RS274X (2012-01-19 BZR 3256)-stable) date 12/6/2012 8:31:16 PM*
G01*
G70*
G90*
%MOIN*%
G04 Gerber Fmt 3.4, Leading zero omitted, Abs format*
%FSLAX34Y34*%
G04 APERTURE LIST*
%ADD10C,0.006000*%
%ADD11C,0.015000*%
%ADD12C,0.010000*%
%ADD13C,0.012000*%
%ADD14C,0.008000*%
%ADD15C,0.004000*%
G04 APERTURE END LIST*
G54D10*
G54D11*
X11475Y-32576D02*
X11925Y-32576D01*
X10925Y-33126D02*
X11475Y-32576D01*
X10925Y-71876D02*
X10925Y-33126D01*
X11425Y-72376D02*
X10925Y-71876D01*
X16175Y-72376D02*
X11425Y-72376D01*
X16725Y-71826D02*
X16175Y-72376D01*
X16725Y-33076D02*
X16725Y-71826D01*
X16225Y-32576D02*
X16725Y-33076D01*
X11975Y-32576D02*
X16225Y-32576D01*
G54D12*
X10925Y-33075D02*
X10925Y-71825D01*
X11425Y-32575D02*
X10925Y-33075D01*
X11425Y-72325D02*
X10925Y-71825D01*
X12425Y-32575D02*
X15675Y-32575D01*
G54D13*
X13513Y-31730D02*
X13513Y-31063D01*
X13513Y-30730D02*
X13475Y-30777D01*
X13513Y-30825D01*
X13552Y-30777D01*
X13513Y-30730D01*
X13513Y-30825D01*
X13894Y-31063D02*
X13894Y-31730D01*
X13894Y-31158D02*
X13933Y-31111D01*
X14009Y-31063D01*
X14123Y-31063D01*
X14199Y-31111D01*
X14237Y-31206D01*
X14237Y-31730D01*
X07528Y-73730D02*
X07452Y-73682D01*
X07413Y-73635D01*
X07375Y-73539D01*
X07375Y-73254D01*
X07413Y-73158D01*
X07452Y-73111D01*
X07528Y-73063D01*
X07642Y-73063D01*
X07718Y-73111D01*
X07756Y-73158D01*
X07794Y-73254D01*
X07794Y-73539D01*
X07756Y-73635D01*
X07718Y-73682D01*
X07642Y-73730D01*
X07528Y-73730D01*
X08480Y-73063D02*
X08480Y-73730D01*
X08137Y-73063D02*
X08137Y-73587D01*
X08176Y-73682D01*
X08252Y-73730D01*
X08366Y-73730D01*
X08442Y-73682D01*
X08480Y-73635D01*
X08747Y-73063D02*
X09052Y-73063D01*
X08861Y-72730D02*
X08861Y-73587D01*
X08900Y-73682D01*
X08976Y-73730D01*
X09052Y-73730D01*
X11869Y-69442D02*
X11811Y-69404D01*
X11783Y-69365D01*
X11754Y-69289D01*
X11754Y-69251D01*
X11783Y-69175D01*
X11811Y-69137D01*
X11869Y-69099D01*
X11983Y-69099D01*
X12040Y-69137D01*
X12069Y-69175D01*
X12097Y-69251D01*
X12097Y-69289D01*
X12069Y-69365D01*
X12040Y-69404D01*
X11983Y-69442D01*
X11869Y-69442D01*
X11811Y-69480D01*
X11783Y-69518D01*
X11754Y-69594D01*
X11754Y-69746D01*
X11783Y-69823D01*
X11811Y-69861D01*
X11869Y-69899D01*
X11983Y-69899D01*
X12040Y-69861D01*
X12069Y-69823D01*
X12097Y-69746D01*
X12097Y-69594D01*
X12069Y-69518D01*
X12040Y-69480D01*
X11983Y-69442D01*
X11726Y-64099D02*
X12126Y-64099D01*
X11869Y-64899D01*
X12040Y-59099D02*
X11926Y-59099D01*
X11869Y-59137D01*
X11840Y-59175D01*
X11783Y-59289D01*
X11754Y-59442D01*
X11754Y-59746D01*
X11783Y-59823D01*
X11811Y-59861D01*
X11869Y-59899D01*
X11983Y-59899D01*
X12040Y-59861D01*
X12069Y-59823D01*
X12097Y-59746D01*
X12097Y-59556D01*
X12069Y-59480D01*
X12040Y-59442D01*
X11983Y-59404D01*
X11869Y-59404D01*
X11811Y-59442D01*
X11783Y-59480D01*
X11754Y-59556D01*
X12069Y-54099D02*
X11783Y-54099D01*
X11754Y-54480D01*
X11783Y-54442D01*
X11840Y-54404D01*
X11983Y-54404D01*
X12040Y-54442D01*
X12069Y-54480D01*
X12097Y-54556D01*
X12097Y-54746D01*
X12069Y-54823D01*
X12040Y-54861D01*
X11983Y-54899D01*
X11840Y-54899D01*
X11783Y-54861D01*
X11754Y-54823D01*
X12040Y-49365D02*
X12040Y-49899D01*
X11897Y-49061D02*
X11754Y-49632D01*
X12126Y-49632D01*
X11726Y-44099D02*
X12097Y-44099D01*
X11897Y-44404D01*
X11983Y-44404D01*
X12040Y-44442D01*
X12069Y-44480D01*
X12097Y-44556D01*
X12097Y-44746D01*
X12069Y-44823D01*
X12040Y-44861D01*
X11983Y-44899D01*
X11811Y-44899D01*
X11754Y-44861D01*
X11726Y-44823D01*
X11754Y-39425D02*
X11783Y-39387D01*
X11840Y-39349D01*
X11983Y-39349D01*
X12040Y-39387D01*
X12069Y-39425D01*
X12097Y-39501D01*
X12097Y-39577D01*
X12069Y-39692D01*
X11726Y-40149D01*
X12097Y-40149D01*
X12097Y-34899D02*
X11754Y-34899D01*
X11926Y-34899D02*
X11926Y-34099D01*
X11869Y-34213D01*
X11811Y-34289D01*
X11754Y-34327D01*
X07204Y-42649D02*
X07204Y-42115D01*
X07204Y-42268D02*
X07232Y-42192D01*
X07261Y-42154D01*
X07318Y-42115D01*
X07375Y-42115D01*
X07803Y-42611D02*
X07746Y-42649D01*
X07632Y-42649D01*
X07575Y-42611D01*
X07546Y-42535D01*
X07546Y-42230D01*
X07575Y-42154D01*
X07632Y-42115D01*
X07746Y-42115D01*
X07803Y-42154D01*
X07832Y-42230D01*
X07832Y-42306D01*
X07546Y-42382D01*
X08060Y-42611D02*
X08117Y-42649D01*
X08232Y-42649D01*
X08289Y-42611D01*
X08317Y-42535D01*
X08317Y-42496D01*
X08289Y-42420D01*
X08232Y-42382D01*
X08146Y-42382D01*
X08089Y-42344D01*
X08060Y-42268D01*
X08060Y-42230D01*
X08089Y-42154D01*
X08146Y-42115D01*
X08232Y-42115D01*
X08289Y-42154D01*
X08803Y-42611D02*
X08746Y-42649D01*
X08632Y-42649D01*
X08575Y-42611D01*
X08546Y-42535D01*
X08546Y-42230D01*
X08575Y-42154D01*
X08632Y-42115D01*
X08746Y-42115D01*
X08803Y-42154D01*
X08832Y-42230D01*
X08832Y-42306D01*
X08546Y-42382D01*
X09003Y-42115D02*
X09232Y-42115D01*
X09089Y-41849D02*
X09089Y-42535D01*
X09117Y-42611D01*
X09175Y-42649D01*
X09232Y-42649D01*
X07390Y-37611D02*
X07333Y-37649D01*
X07219Y-37649D01*
X07161Y-37611D01*
X07133Y-37573D01*
X07104Y-37496D01*
X07104Y-37268D01*
X07133Y-37192D01*
X07161Y-37154D01*
X07219Y-37115D01*
X07333Y-37115D01*
X07390Y-37154D01*
X07733Y-37649D02*
X07675Y-37611D01*
X07647Y-37535D01*
X07647Y-36849D01*
X08047Y-37649D02*
X07989Y-37611D01*
X07961Y-37573D01*
X07932Y-37496D01*
X07932Y-37268D01*
X07961Y-37192D01*
X07989Y-37154D01*
X08047Y-37115D01*
X08132Y-37115D01*
X08189Y-37154D01*
X08218Y-37192D01*
X08247Y-37268D01*
X08247Y-37496D01*
X08218Y-37573D01*
X08189Y-37611D01*
X08132Y-37649D01*
X08047Y-37649D01*
X08761Y-37611D02*
X08704Y-37649D01*
X08590Y-37649D01*
X08532Y-37611D01*
X08504Y-37573D01*
X08475Y-37496D01*
X08475Y-37268D01*
X08504Y-37192D01*
X08532Y-37154D01*
X08590Y-37115D01*
X08704Y-37115D01*
X08761Y-37154D01*
X09018Y-37649D02*
X09018Y-36849D01*
X09075Y-37344D02*
X09246Y-37649D01*
X09246Y-37115D02*
X09018Y-37420D01*
X06639Y-58762D02*
X06696Y-58800D01*
X06811Y-58800D01*
X06868Y-58762D01*
X06896Y-58686D01*
X06896Y-58647D01*
X06868Y-58571D01*
X06811Y-58533D01*
X06725Y-58533D01*
X06668Y-58495D01*
X06639Y-58419D01*
X06639Y-58381D01*
X06668Y-58305D01*
X06725Y-58266D01*
X06811Y-58266D01*
X06868Y-58305D01*
X07097Y-58266D02*
X07211Y-58800D01*
X07325Y-58419D01*
X07440Y-58800D01*
X07554Y-58266D01*
X07783Y-58800D02*
X07783Y-58266D01*
X07783Y-58000D02*
X07754Y-58038D01*
X07783Y-58076D01*
X07811Y-58038D01*
X07783Y-58000D01*
X07783Y-58076D01*
X07983Y-58266D02*
X08212Y-58266D01*
X08069Y-58000D02*
X08069Y-58686D01*
X08097Y-58762D01*
X08155Y-58800D01*
X08212Y-58800D01*
X08669Y-58762D02*
X08612Y-58800D01*
X08498Y-58800D01*
X08440Y-58762D01*
X08412Y-58724D01*
X08383Y-58647D01*
X08383Y-58419D01*
X08412Y-58343D01*
X08440Y-58305D01*
X08498Y-58266D01*
X08612Y-58266D01*
X08669Y-58305D01*
X08926Y-58800D02*
X08926Y-58000D01*
X09183Y-58800D02*
X09183Y-58381D01*
X09154Y-58305D01*
X09097Y-58266D01*
X09012Y-58266D01*
X08954Y-58305D01*
X08926Y-58343D01*
X05725Y-52111D02*
X05782Y-52149D01*
X05897Y-52149D01*
X05954Y-52111D01*
X05982Y-52035D01*
X05982Y-51996D01*
X05954Y-51920D01*
X05897Y-51882D01*
X05811Y-51882D01*
X05754Y-51844D01*
X05725Y-51768D01*
X05725Y-51730D01*
X05754Y-51654D01*
X05811Y-51615D01*
X05897Y-51615D01*
X05954Y-51654D01*
X06468Y-52111D02*
X06411Y-52149D01*
X06297Y-52149D01*
X06240Y-52111D01*
X06211Y-52035D01*
X06211Y-51730D01*
X06240Y-51654D01*
X06297Y-51615D01*
X06411Y-51615D01*
X06468Y-51654D01*
X06497Y-51730D01*
X06497Y-51806D01*
X06211Y-51882D01*
X07011Y-51615D02*
X07011Y-52415D01*
X07011Y-52111D02*
X06954Y-52149D01*
X06840Y-52149D01*
X06782Y-52111D01*
X06754Y-52073D01*
X06725Y-51996D01*
X06725Y-51768D01*
X06754Y-51692D01*
X06782Y-51654D01*
X06840Y-51615D01*
X06954Y-51615D01*
X07011Y-51654D01*
X07554Y-51615D02*
X07554Y-52149D01*
X07297Y-51615D02*
X07297Y-52035D01*
X07325Y-52111D01*
X07383Y-52149D01*
X07468Y-52149D01*
X07525Y-52111D01*
X07554Y-52073D01*
X08068Y-52111D02*
X08011Y-52149D01*
X07897Y-52149D01*
X07840Y-52111D01*
X07811Y-52035D01*
X07811Y-51730D01*
X07840Y-51654D01*
X07897Y-51615D01*
X08011Y-51615D01*
X08068Y-51654D01*
X08097Y-51730D01*
X08097Y-51806D01*
X07811Y-51882D01*
X08354Y-51615D02*
X08354Y-52149D01*
X08354Y-51692D02*
X08382Y-51654D01*
X08440Y-51615D01*
X08525Y-51615D01*
X08582Y-51654D01*
X08611Y-51730D01*
X08611Y-52149D01*
X08811Y-51615D02*
X09040Y-51615D01*
X08897Y-51349D02*
X08897Y-52035D01*
X08925Y-52111D01*
X08983Y-52149D01*
X09040Y-52149D01*
X09240Y-52149D02*
X09240Y-51615D01*
X09240Y-51349D02*
X09211Y-51387D01*
X09240Y-51425D01*
X09268Y-51387D01*
X09240Y-51349D01*
X09240Y-51425D01*
X09783Y-52149D02*
X09783Y-51730D01*
X09754Y-51654D01*
X09697Y-51615D01*
X09583Y-51615D01*
X09526Y-51654D01*
X09783Y-52111D02*
X09726Y-52149D01*
X09583Y-52149D01*
X09526Y-52111D01*
X09497Y-52035D01*
X09497Y-51958D01*
X09526Y-51882D01*
X09583Y-51844D01*
X09726Y-51844D01*
X09783Y-51806D01*
X10155Y-52149D02*
X10097Y-52111D01*
X10069Y-52035D01*
X10069Y-51349D01*
G54D14*
X07575Y-55775D02*
X07575Y-56575D01*
X07575Y-56575D02*
X08175Y-56175D01*
X08175Y-56175D02*
X07575Y-55775D01*
X07575Y-55775D02*
X07625Y-56500D01*
X07625Y-56500D02*
X08075Y-56150D01*
X08075Y-56150D02*
X07625Y-55875D01*
X07625Y-55875D02*
X07675Y-56400D01*
X07675Y-56400D02*
X07975Y-56150D01*
X07975Y-56150D02*
X07700Y-55975D01*
X07700Y-55975D02*
X07725Y-56300D01*
X07725Y-56300D02*
X07875Y-56150D01*
X07875Y-56150D02*
X07750Y-56075D01*
X07750Y-56075D02*
X07775Y-56175D01*
G54D15*
X07875Y-55125D02*
X07900Y-55000D01*
X07825Y-55100D02*
X07875Y-55125D01*
X07900Y-55000D02*
X07825Y-55100D01*
X07750Y-55375D02*
X07900Y-55000D01*
X08000Y-55300D02*
X08150Y-54925D01*
X08150Y-54925D02*
X08075Y-55025D01*
X08075Y-55025D02*
X08125Y-55050D01*
X08125Y-55050D02*
X08150Y-54925D01*
G54D10*
X08670Y-76446D02*
X08658Y-76562D01*
X08624Y-76674D01*
X08569Y-76778D01*
X08495Y-76868D01*
X08405Y-76943D01*
X08302Y-76999D01*
X08190Y-77033D01*
X08074Y-77045D01*
X07958Y-77035D01*
X07846Y-77002D01*
X07742Y-76948D01*
X07651Y-76874D01*
X07575Y-76784D01*
X07519Y-76682D01*
X07484Y-76570D01*
X07471Y-76454D01*
X07480Y-76338D01*
X07513Y-76226D01*
X07566Y-76121D01*
X07639Y-76030D01*
X07728Y-75954D01*
X07830Y-75897D01*
X07942Y-75860D01*
X08058Y-75847D01*
X08174Y-75856D01*
X08286Y-75887D01*
X08391Y-75940D01*
X08483Y-76012D01*
X08560Y-76101D01*
X08618Y-76202D01*
X08655Y-76314D01*
X08669Y-76430D01*
X08670Y-76446D01*
X08660Y-28316D02*
X08648Y-28432D01*
X08614Y-28544D01*
X08559Y-28648D01*
X08485Y-28738D01*
X08395Y-28813D01*
X08292Y-28869D01*
X08180Y-28903D01*
X08064Y-28915D01*
X07948Y-28905D01*
X07836Y-28872D01*
X07732Y-28818D01*
X07641Y-28744D01*
X07565Y-28654D01*
X07509Y-28552D01*
X07474Y-28440D01*
X07461Y-28324D01*
X07470Y-28208D01*
X07503Y-28096D01*
X07556Y-27991D01*
X07629Y-27900D01*
X07718Y-27824D01*
X07820Y-27767D01*
X07932Y-27730D01*
X08048Y-27717D01*
X08164Y-27726D01*
X08276Y-27757D01*
X08381Y-27810D01*
X08473Y-27882D01*
X08550Y-27971D01*
X08608Y-28072D01*
X08645Y-28184D01*
X08659Y-28300D01*
X08660Y-28316D01*
G36*
X10035Y-72366D02*
X10535Y-71866D01*
X10535Y-68266D01*
X10035Y-67766D01*
X06435Y-67766D01*
X05935Y-68266D01*
X05935Y-71866D01*
X06435Y-72366D01*
X10035Y-72366D01*
X10035Y-72366D01*
G37*
G54D12*
X10035Y-72366D02*
X10535Y-71866D01*
X10535Y-68266D01*
X10035Y-67766D01*
X06435Y-67766D01*
X05935Y-68266D01*
X05935Y-71866D01*
X06435Y-72366D01*
X10035Y-72366D01*
M02*
