G04 (created by PCBNEW-RS274X (2012-01-19 BZR 3256)-stable) date 12/6/2012 8:31:16 PM*
G01*
G70*
G90*
%MOIN*%
G04 Gerber Fmt 3.4, Leading zero omitted, Abs format*
%FSLAX34Y34*%
G04 APERTURE LIST*
%ADD10C,0.006000*%
%ADD11C,0.015000*%
%ADD12C,0.146000*%
%ADD13C,0.138100*%
%ADD14C,0.340000*%
%ADD15C,0.010000*%
G04 APERTURE END LIST*
G54D10*
G54D11*
X14425Y-40076D02*
X11925Y-37576D01*
X14425Y-70076D02*
X11925Y-67576D01*
X14425Y-65076D02*
X11925Y-62576D01*
X14425Y-60076D02*
X11925Y-57576D01*
X14425Y-55076D02*
X11925Y-52576D01*
X14425Y-50076D02*
X11925Y-47576D01*
X14425Y-45076D02*
X11925Y-42576D01*
X14425Y-35076D02*
X11925Y-32576D01*
G54D12*
X08070Y-76446D03*
G54D13*
X11925Y-32600D03*
X11925Y-37700D03*
X11925Y-67600D03*
X11925Y-62600D03*
X11925Y-57600D03*
X11925Y-52600D03*
X11925Y-47600D03*
X11925Y-42600D03*
G54D12*
X08060Y-28316D03*
G54D14*
X08225Y-35075D03*
X14425Y-35075D03*
X14425Y-65075D03*
X08225Y-70075D03*
X14425Y-60075D03*
X14425Y-70075D03*
X14425Y-40075D03*
X08225Y-40075D03*
X14425Y-50075D03*
X14425Y-55075D03*
X14425Y-45075D03*
G54D10*
G36*
X07845Y-57326D02*
X07980Y-57321D01*
X08045Y-57316D01*
X08095Y-57311D01*
X08165Y-57301D01*
X08255Y-57286D01*
X08275Y-57281D01*
X08325Y-57271D01*
X08425Y-57246D01*
X08455Y-57236D01*
X08475Y-57231D01*
X08535Y-57211D01*
X08590Y-57191D01*
X08640Y-57171D01*
X08675Y-57156D01*
X08765Y-57116D01*
X08860Y-57066D01*
X08905Y-57041D01*
X08955Y-57011D01*
X09010Y-56976D01*
X09060Y-56941D01*
X09055Y-56941D01*
X09080Y-56926D01*
X09155Y-56871D01*
X09285Y-56761D01*
X09360Y-56686D01*
X09440Y-56596D01*
X09495Y-56531D01*
X09510Y-56511D01*
X09535Y-56481D01*
X09565Y-56436D01*
X09590Y-56401D01*
X09625Y-56351D01*
X09660Y-56291D01*
X09685Y-56251D01*
X09735Y-56151D01*
X09760Y-56096D01*
X09780Y-56056D01*
X09830Y-55931D01*
X09835Y-55911D01*
X09845Y-55886D01*
X09855Y-55856D01*
X09870Y-55806D01*
X09885Y-55746D01*
X09890Y-55731D01*
X09895Y-55701D01*
X09900Y-55681D01*
X09905Y-55656D01*
X09910Y-55636D01*
X09915Y-55611D01*
X09925Y-55551D01*
X09935Y-55481D01*
X09940Y-55431D01*
X09945Y-55366D01*
X09950Y-55286D01*
X09950Y-55221D01*
X09945Y-55066D01*
X09940Y-55011D01*
X09935Y-54966D01*
X09930Y-54936D01*
X09925Y-54901D01*
X09910Y-54811D01*
X09905Y-54791D01*
X09895Y-54746D01*
X09880Y-54686D01*
X09870Y-54651D01*
X09860Y-54611D01*
X09840Y-54551D01*
X09835Y-54546D01*
X09820Y-54496D01*
X09795Y-54431D01*
X09755Y-54341D01*
X09720Y-54266D01*
X09690Y-54211D01*
X09665Y-54166D01*
X09630Y-54111D01*
X09615Y-54086D01*
X09565Y-54011D01*
X09525Y-53956D01*
X09485Y-53906D01*
X09425Y-53836D01*
X09405Y-53811D01*
X09285Y-53691D01*
X09240Y-53651D01*
X09160Y-53581D01*
X09120Y-53551D01*
X09015Y-53476D01*
X08990Y-53461D01*
X08960Y-53441D01*
X08910Y-53411D01*
X08865Y-53386D01*
X08810Y-53356D01*
X08750Y-53326D01*
X08715Y-53311D01*
X08695Y-53301D01*
X08620Y-53271D01*
X08580Y-53256D01*
X08555Y-53246D01*
X08450Y-53211D01*
X08415Y-53201D01*
X08315Y-53176D01*
X08290Y-53171D01*
X08270Y-53166D01*
X08245Y-53161D01*
X08155Y-53146D01*
X08120Y-53141D01*
X08080Y-53136D01*
X08025Y-53131D01*
X07940Y-53126D01*
X07755Y-53126D01*
X07675Y-53131D01*
X07620Y-53136D01*
X07580Y-53141D01*
X07510Y-53151D01*
X07460Y-53161D01*
X07430Y-53166D01*
X07385Y-53176D01*
X07345Y-53186D01*
X07300Y-53196D01*
X07265Y-53206D01*
X07235Y-53216D01*
X07200Y-53226D01*
X07170Y-53236D01*
X07090Y-53266D01*
X07065Y-53276D01*
X07030Y-53291D01*
X06985Y-53311D01*
X06950Y-53326D01*
X06880Y-53361D01*
X06845Y-53381D01*
X06800Y-53406D01*
X06765Y-53426D01*
X06725Y-53451D01*
X06620Y-53521D01*
X06560Y-53566D01*
X06490Y-53626D01*
X06410Y-53696D01*
X06295Y-53811D01*
X06270Y-53841D01*
X06255Y-53856D01*
X06240Y-53876D01*
X06190Y-53936D01*
X06160Y-53976D01*
X06140Y-54006D01*
X06125Y-54026D01*
X06055Y-54131D01*
X06045Y-54151D01*
X06040Y-54156D01*
X06025Y-54186D01*
X06020Y-54191D01*
X06000Y-54231D01*
X05995Y-54236D01*
X05955Y-54316D01*
X05950Y-54331D01*
X05925Y-54381D01*
X05920Y-54396D01*
X05915Y-54406D01*
X05910Y-54421D01*
X05900Y-54441D01*
X05895Y-54456D01*
X05890Y-54466D01*
X05880Y-54496D01*
X05875Y-54506D01*
X05845Y-54596D01*
X05840Y-54616D01*
X05835Y-54631D01*
X05830Y-54651D01*
X05825Y-54666D01*
X05820Y-54686D01*
X05815Y-54696D01*
X05805Y-54746D01*
X05800Y-54761D01*
X05795Y-54786D01*
X05785Y-54841D01*
X05775Y-54891D01*
X05770Y-54931D01*
X05760Y-55016D01*
X05750Y-55176D01*
X05750Y-55301D01*
X05755Y-55386D01*
X05765Y-55481D01*
X05770Y-55526D01*
X05780Y-55586D01*
X05790Y-55636D01*
X05805Y-55706D01*
X05830Y-55806D01*
X05845Y-55851D01*
X05870Y-55931D01*
X05935Y-56086D01*
X05965Y-56151D01*
X06000Y-56221D01*
X06025Y-56266D01*
X06105Y-56396D01*
X06140Y-56446D01*
X06200Y-56526D01*
X06225Y-56556D01*
X06255Y-56591D01*
X06280Y-56621D01*
X06335Y-56681D01*
X06405Y-56751D01*
X06490Y-56826D01*
X06500Y-56836D01*
X06545Y-56871D01*
X06625Y-56931D01*
X06690Y-56976D01*
X06720Y-56996D01*
X06770Y-57026D01*
X06830Y-57061D01*
X06895Y-57096D01*
X06935Y-57116D01*
X07025Y-57156D01*
X07095Y-57186D01*
X07140Y-57201D01*
X07180Y-57216D01*
X07225Y-57231D01*
X07245Y-57236D01*
X07290Y-57251D01*
X07350Y-57266D01*
X07375Y-57271D01*
X07390Y-57276D01*
X07415Y-57281D01*
X07445Y-57286D01*
X07495Y-57296D01*
X07525Y-57301D01*
X07565Y-57306D01*
X07600Y-57311D01*
X07650Y-57316D01*
X07705Y-57321D01*
X07845Y-57326D01*
X07845Y-57326D01*
G37*
G54D15*
X07845Y-57326D02*
X07980Y-57321D01*
X08045Y-57316D01*
X08095Y-57311D01*
X08165Y-57301D01*
X08255Y-57286D01*
X08275Y-57281D01*
X08325Y-57271D01*
X08425Y-57246D01*
X08455Y-57236D01*
X08475Y-57231D01*
X08535Y-57211D01*
X08590Y-57191D01*
X08640Y-57171D01*
X08675Y-57156D01*
X08765Y-57116D01*
X08860Y-57066D01*
X08905Y-57041D01*
X08955Y-57011D01*
X09010Y-56976D01*
X09060Y-56941D01*
X09055Y-56941D01*
X09080Y-56926D01*
X09155Y-56871D01*
X09285Y-56761D01*
X09360Y-56686D01*
X09440Y-56596D01*
X09495Y-56531D01*
X09510Y-56511D01*
X09535Y-56481D01*
X09565Y-56436D01*
X09590Y-56401D01*
X09625Y-56351D01*
X09660Y-56291D01*
X09685Y-56251D01*
X09735Y-56151D01*
X09760Y-56096D01*
X09780Y-56056D01*
X09830Y-55931D01*
X09835Y-55911D01*
X09845Y-55886D01*
X09855Y-55856D01*
X09870Y-55806D01*
X09885Y-55746D01*
X09890Y-55731D01*
X09895Y-55701D01*
X09900Y-55681D01*
X09905Y-55656D01*
X09910Y-55636D01*
X09915Y-55611D01*
X09925Y-55551D01*
X09935Y-55481D01*
X09940Y-55431D01*
X09945Y-55366D01*
X09950Y-55286D01*
X09950Y-55221D01*
X09945Y-55066D01*
X09940Y-55011D01*
X09935Y-54966D01*
X09930Y-54936D01*
X09925Y-54901D01*
X09910Y-54811D01*
X09905Y-54791D01*
X09895Y-54746D01*
X09880Y-54686D01*
X09870Y-54651D01*
X09860Y-54611D01*
X09840Y-54551D01*
X09835Y-54546D01*
X09820Y-54496D01*
X09795Y-54431D01*
X09755Y-54341D01*
X09720Y-54266D01*
X09690Y-54211D01*
X09665Y-54166D01*
X09630Y-54111D01*
X09615Y-54086D01*
X09565Y-54011D01*
X09525Y-53956D01*
X09485Y-53906D01*
X09425Y-53836D01*
X09405Y-53811D01*
X09285Y-53691D01*
X09240Y-53651D01*
X09160Y-53581D01*
X09120Y-53551D01*
X09015Y-53476D01*
X08990Y-53461D01*
X08960Y-53441D01*
X08910Y-53411D01*
X08865Y-53386D01*
X08810Y-53356D01*
X08750Y-53326D01*
X08715Y-53311D01*
X08695Y-53301D01*
X08620Y-53271D01*
X08580Y-53256D01*
X08555Y-53246D01*
X08450Y-53211D01*
X08415Y-53201D01*
X08315Y-53176D01*
X08290Y-53171D01*
X08270Y-53166D01*
X08245Y-53161D01*
X08155Y-53146D01*
X08120Y-53141D01*
X08080Y-53136D01*
X08025Y-53131D01*
X07940Y-53126D01*
X07755Y-53126D01*
X07675Y-53131D01*
X07620Y-53136D01*
X07580Y-53141D01*
X07510Y-53151D01*
X07460Y-53161D01*
X07430Y-53166D01*
X07385Y-53176D01*
X07345Y-53186D01*
X07300Y-53196D01*
X07265Y-53206D01*
X07235Y-53216D01*
X07200Y-53226D01*
X07170Y-53236D01*
X07090Y-53266D01*
X07065Y-53276D01*
X07030Y-53291D01*
X06985Y-53311D01*
X06950Y-53326D01*
X06880Y-53361D01*
X06845Y-53381D01*
X06800Y-53406D01*
X06765Y-53426D01*
X06725Y-53451D01*
X06620Y-53521D01*
X06560Y-53566D01*
X06490Y-53626D01*
X06410Y-53696D01*
X06295Y-53811D01*
X06270Y-53841D01*
X06255Y-53856D01*
X06240Y-53876D01*
X06190Y-53936D01*
X06160Y-53976D01*
X06140Y-54006D01*
X06125Y-54026D01*
X06055Y-54131D01*
X06045Y-54151D01*
X06040Y-54156D01*
X06025Y-54186D01*
X06020Y-54191D01*
X06000Y-54231D01*
X05995Y-54236D01*
X05955Y-54316D01*
X05950Y-54331D01*
X05925Y-54381D01*
X05920Y-54396D01*
X05915Y-54406D01*
X05910Y-54421D01*
X05900Y-54441D01*
X05895Y-54456D01*
X05890Y-54466D01*
X05880Y-54496D01*
X05875Y-54506D01*
X05845Y-54596D01*
X05840Y-54616D01*
X05835Y-54631D01*
X05830Y-54651D01*
X05825Y-54666D01*
X05820Y-54686D01*
X05815Y-54696D01*
X05805Y-54746D01*
X05800Y-54761D01*
X05795Y-54786D01*
X05785Y-54841D01*
X05775Y-54891D01*
X05770Y-54931D01*
X05760Y-55016D01*
X05750Y-55176D01*
X05750Y-55301D01*
X05755Y-55386D01*
X05765Y-55481D01*
X05770Y-55526D01*
X05780Y-55586D01*
X05790Y-55636D01*
X05805Y-55706D01*
X05830Y-55806D01*
X05845Y-55851D01*
X05870Y-55931D01*
X05935Y-56086D01*
X05965Y-56151D01*
X06000Y-56221D01*
X06025Y-56266D01*
X06105Y-56396D01*
X06140Y-56446D01*
X06200Y-56526D01*
X06225Y-56556D01*
X06255Y-56591D01*
X06280Y-56621D01*
X06335Y-56681D01*
X06405Y-56751D01*
X06490Y-56826D01*
X06500Y-56836D01*
X06545Y-56871D01*
X06625Y-56931D01*
X06690Y-56976D01*
X06720Y-56996D01*
X06770Y-57026D01*
X06830Y-57061D01*
X06895Y-57096D01*
X06935Y-57116D01*
X07025Y-57156D01*
X07095Y-57186D01*
X07140Y-57201D01*
X07180Y-57216D01*
X07225Y-57231D01*
X07245Y-57236D01*
X07290Y-57251D01*
X07350Y-57266D01*
X07375Y-57271D01*
X07390Y-57276D01*
X07415Y-57281D01*
X07445Y-57286D01*
X07495Y-57296D01*
X07525Y-57301D01*
X07565Y-57306D01*
X07600Y-57311D01*
X07650Y-57316D01*
X07705Y-57321D01*
X07845Y-57326D01*
M02*
