M48
INCH,TZ
T1C0.040
T2C0.060
T3C0.120
%
G90
G05
T1
X21500Y-71500
X21500Y-72500
X21500Y-73500
X21500Y-74500
X21500Y-75500
X21500Y-76500
X21500Y-77500
X21500Y-78500
X22500Y-71500
X22500Y-72500
X22500Y-73500
X22500Y-74500
X22500Y-75500
X22500Y-76500
X22500Y-77500
X22500Y-78500
X39000Y-71500
X39000Y-72500
X39000Y-73500
X39000Y-74500
X39000Y-75500
X39000Y-76500
X39000Y-77500
X39000Y-78500
X40000Y-71500
X40000Y-72500
X40000Y-73500
X40000Y-74500
X40000Y-75500
X40000Y-76500
X40000Y-77500
X40000Y-78500
X56500Y-71500
X56500Y-72500
X56500Y-73500
X56500Y-74500
X56500Y-75500
X56500Y-76500
X56500Y-77500
X56500Y-78500
X57500Y-71500
X57500Y-72500
X57500Y-73500
X57500Y-74500
X57500Y-75500
X57500Y-76500
X57500Y-77500
X57500Y-78500
X74000Y-71500
X74000Y-72500
X74000Y-73500
X74000Y-74500
X74000Y-75500
X74000Y-76500
X74000Y-77500
X74000Y-78500
X75000Y-71500
X75000Y-72500
X75000Y-73500
X75000Y-74500
X75000Y-75500
X75000Y-76500
X75000Y-77500
X75000Y-78500
X91500Y-71500
X91500Y-72500
X91500Y-73500
X91500Y-74500
X91500Y-75500
X91500Y-76500
X91500Y-77500
X91500Y-78500
X92500Y-71500
X92500Y-72500
X92500Y-73500
X92500Y-74500
X92500Y-75500
X92500Y-76500
X92500Y-77500
X92500Y-78500
X109000Y-71500
X109000Y-72500
X109000Y-73500
X109000Y-74500
X109000Y-75500
X109000Y-76500
X109000Y-77500
X109000Y-78500
X110000Y-71500
X110000Y-72500
X110000Y-73500
X110000Y-74500
X110000Y-75500
X110000Y-76500
X110000Y-77500
X110000Y-78500
X126500Y-71500
X126500Y-72500
X126500Y-73500
X126500Y-74500
X126500Y-75500
X126500Y-76500
X126500Y-77500
X126500Y-78500
X127500Y-71500
X127500Y-72500
X127500Y-73500
X127500Y-74500
X127500Y-75500
X127500Y-76500
X127500Y-77500
X127500Y-78500
X144000Y-71500
X144000Y-72500
X144000Y-73500
X144000Y-74500
X144000Y-75500
X144000Y-76500
X144000Y-77500
X144000Y-78500
X145000Y-71500
X145000Y-72500
X145000Y-73500
X145000Y-74500
X145000Y-75500
X145000Y-76500
X145000Y-77500
X145000Y-78500
T2
X76500Y-78500
X78500Y-77500
X80500Y-76500
X82500Y-75500
X84500Y-74500
X86500Y-73500
X88500Y-72500
X90000Y-71500
T3
X15500Y-71500
X15500Y-78500
X48500Y-79000
X66500Y-71000
X101000Y-79000
X118500Y-71000
X150500Y-71500
X150500Y-78500
T0
M30
