G04 (created by PCBNEW-RS274X (2012-01-19 BZR 3256)-stable) date 12/6/2012 11:22:50 PM*
G01*
G70*
G90*
%MOIN*%
G04 Gerber Fmt 3.4, Leading zero omitted, Abs format*
%FSLAX34Y34*%
G04 APERTURE LIST*
%ADD10C,0.006000*%
%ADD11C,0.180000*%
%ADD12R,0.080000X0.080000*%
%ADD13C,0.080000*%
%ADD14C,0.100000*%
G04 APERTURE END LIST*
G54D10*
G54D11*
X101000Y-79000D03*
X118500Y-71000D03*
X66500Y-71000D03*
X48500Y-79000D03*
X150500Y-71500D03*
X15500Y-78500D03*
G54D12*
X22500Y-78500D03*
G54D13*
X21500Y-78500D03*
X22500Y-77500D03*
X21500Y-77500D03*
X22500Y-76500D03*
X21500Y-76500D03*
X22500Y-75500D03*
X21500Y-75500D03*
X22500Y-74500D03*
X21500Y-74500D03*
X22500Y-73500D03*
X21500Y-73500D03*
X22500Y-72500D03*
X21500Y-72500D03*
X22500Y-71500D03*
X21500Y-71500D03*
G54D12*
X40000Y-78500D03*
G54D13*
X39000Y-78500D03*
X40000Y-77500D03*
X39000Y-77500D03*
X40000Y-76500D03*
X39000Y-76500D03*
X40000Y-75500D03*
X39000Y-75500D03*
X40000Y-74500D03*
X39000Y-74500D03*
X40000Y-73500D03*
X39000Y-73500D03*
X40000Y-72500D03*
X39000Y-72500D03*
X40000Y-71500D03*
X39000Y-71500D03*
G54D12*
X57500Y-78500D03*
G54D13*
X56500Y-78500D03*
X57500Y-77500D03*
X56500Y-77500D03*
X57500Y-76500D03*
X56500Y-76500D03*
X57500Y-75500D03*
X56500Y-75500D03*
X57500Y-74500D03*
X56500Y-74500D03*
X57500Y-73500D03*
X56500Y-73500D03*
X57500Y-72500D03*
X56500Y-72500D03*
X57500Y-71500D03*
X56500Y-71500D03*
G54D12*
X75000Y-78500D03*
G54D13*
X74000Y-78500D03*
X75000Y-77500D03*
X74000Y-77500D03*
X75000Y-76500D03*
X74000Y-76500D03*
X75000Y-75500D03*
X74000Y-75500D03*
X75000Y-74500D03*
X74000Y-74500D03*
X75000Y-73500D03*
X74000Y-73500D03*
X75000Y-72500D03*
X74000Y-72500D03*
X75000Y-71500D03*
X74000Y-71500D03*
G54D12*
X92500Y-78500D03*
G54D13*
X91500Y-78500D03*
X92500Y-77500D03*
X91500Y-77500D03*
X92500Y-76500D03*
X91500Y-76500D03*
X92500Y-75500D03*
X91500Y-75500D03*
X92500Y-74500D03*
X91500Y-74500D03*
X92500Y-73500D03*
X91500Y-73500D03*
X92500Y-72500D03*
X91500Y-72500D03*
X92500Y-71500D03*
X91500Y-71500D03*
G54D12*
X110000Y-78500D03*
G54D13*
X109000Y-78500D03*
X110000Y-77500D03*
X109000Y-77500D03*
X110000Y-76500D03*
X109000Y-76500D03*
X110000Y-75500D03*
X109000Y-75500D03*
X110000Y-74500D03*
X109000Y-74500D03*
X110000Y-73500D03*
X109000Y-73500D03*
X110000Y-72500D03*
X109000Y-72500D03*
X110000Y-71500D03*
X109000Y-71500D03*
G54D12*
X127500Y-78500D03*
G54D13*
X126500Y-78500D03*
X127500Y-77500D03*
X126500Y-77500D03*
X127500Y-76500D03*
X126500Y-76500D03*
X127500Y-75500D03*
X126500Y-75500D03*
X127500Y-74500D03*
X126500Y-74500D03*
X127500Y-73500D03*
X126500Y-73500D03*
X127500Y-72500D03*
X126500Y-72500D03*
X127500Y-71500D03*
X126500Y-71500D03*
G54D12*
X145000Y-78500D03*
G54D13*
X144000Y-78500D03*
X145000Y-77500D03*
X144000Y-77500D03*
X145000Y-76500D03*
X144000Y-76500D03*
X145000Y-75500D03*
X144000Y-75500D03*
X145000Y-74500D03*
X144000Y-74500D03*
X145000Y-73500D03*
X144000Y-73500D03*
X145000Y-72500D03*
X144000Y-72500D03*
X145000Y-71500D03*
X144000Y-71500D03*
G54D11*
X15500Y-71500D03*
G54D14*
X84500Y-74500D03*
X86500Y-73500D03*
X90000Y-71500D03*
X88500Y-72500D03*
X80500Y-76500D03*
X82500Y-75500D03*
X78500Y-77500D03*
X76500Y-78500D03*
G54D11*
X150500Y-78500D03*
M02*
