G04 (created by PCBNEW-RS274X (2012-01-19 BZR 3256)-stable) date 12/6/2012 11:22:50 PM*
G01*
G70*
G90*
%MOIN*%
G04 Gerber Fmt 3.4, Leading zero omitted, Abs format*
%FSLAX34Y34*%
G04 APERTURE LIST*
%ADD10C,0.006000*%
%ADD11C,0.075000*%
%ADD12C,0.015000*%
%ADD13C,0.012000*%
G04 APERTURE END LIST*
G54D10*
G54D11*
X122214Y-75857D02*
X121785Y-75714D01*
X121642Y-75571D01*
X121499Y-75286D01*
X121499Y-74857D01*
X121642Y-74571D01*
X121785Y-74429D01*
X122071Y-74286D01*
X123214Y-74286D01*
X123214Y-77286D01*
X122214Y-77286D01*
X121928Y-77143D01*
X121785Y-77000D01*
X121642Y-76714D01*
X121642Y-76429D01*
X121785Y-76143D01*
X121928Y-76000D01*
X122214Y-75857D01*
X123214Y-75857D01*
X120214Y-77286D02*
X120214Y-74857D01*
X120071Y-74571D01*
X119928Y-74429D01*
X119642Y-74286D01*
X119071Y-74286D01*
X118785Y-74429D01*
X118642Y-74571D01*
X118499Y-74857D01*
X118499Y-77286D01*
X117214Y-74429D02*
X116785Y-74286D01*
X116071Y-74286D01*
X115785Y-74429D01*
X115642Y-74571D01*
X115499Y-74857D01*
X115499Y-75143D01*
X115642Y-75429D01*
X115785Y-75571D01*
X116071Y-75714D01*
X116642Y-75857D01*
X116928Y-76000D01*
X117071Y-76143D01*
X117214Y-76429D01*
X117214Y-76714D01*
X117071Y-77000D01*
X116928Y-77143D01*
X116642Y-77286D01*
X115928Y-77286D01*
X115499Y-77143D01*
X114357Y-74429D02*
X113928Y-74286D01*
X113214Y-74286D01*
X112928Y-74429D01*
X112785Y-74571D01*
X112642Y-74857D01*
X112642Y-75143D01*
X112785Y-75429D01*
X112928Y-75571D01*
X113214Y-75714D01*
X113785Y-75857D01*
X114071Y-76000D01*
X114214Y-76143D01*
X114357Y-76429D01*
X114357Y-76714D01*
X114214Y-77000D01*
X114071Y-77143D01*
X113785Y-77286D01*
X113071Y-77286D01*
X112642Y-77143D01*
X25214Y-75571D02*
X25643Y-75714D01*
X26357Y-75714D01*
X26643Y-75571D01*
X26786Y-75429D01*
X26929Y-75143D01*
X26929Y-74857D01*
X26786Y-74571D01*
X26643Y-74429D01*
X26357Y-74286D01*
X25786Y-74143D01*
X25500Y-74000D01*
X25357Y-73857D01*
X25214Y-73571D01*
X25214Y-73286D01*
X25357Y-73000D01*
X25500Y-72857D01*
X25786Y-72714D01*
X26500Y-72714D01*
X26929Y-72857D01*
X28214Y-75714D02*
X28214Y-72714D01*
X29214Y-74857D01*
X30214Y-72714D01*
X30214Y-75714D01*
X33358Y-75714D02*
X32358Y-74286D01*
X31643Y-75714D02*
X31643Y-72714D01*
X32786Y-72714D01*
X33072Y-72857D01*
X33215Y-73000D01*
X33358Y-73286D01*
X33358Y-73714D01*
X33215Y-74000D01*
X33072Y-74143D01*
X32786Y-74286D01*
X31643Y-74286D01*
X36072Y-75714D02*
X34643Y-75714D01*
X34643Y-72714D01*
X44286Y-74143D02*
X44715Y-74286D01*
X44858Y-74429D01*
X45001Y-74714D01*
X45001Y-75143D01*
X44858Y-75429D01*
X44715Y-75571D01*
X44429Y-75714D01*
X43286Y-75714D01*
X43286Y-72714D01*
X44286Y-72714D01*
X44572Y-72857D01*
X44715Y-73000D01*
X44858Y-73286D01*
X44858Y-73571D01*
X44715Y-73857D01*
X44572Y-74000D01*
X44286Y-74143D01*
X43286Y-74143D01*
X46286Y-72714D02*
X46286Y-75143D01*
X46429Y-75429D01*
X46572Y-75571D01*
X46858Y-75714D01*
X47429Y-75714D01*
X47715Y-75571D01*
X47858Y-75429D01*
X48001Y-75143D01*
X48001Y-72714D01*
X49286Y-75571D02*
X49715Y-75714D01*
X50429Y-75714D01*
X50715Y-75571D01*
X50858Y-75429D01*
X51001Y-75143D01*
X51001Y-74857D01*
X50858Y-74571D01*
X50715Y-74429D01*
X50429Y-74286D01*
X49858Y-74143D01*
X49572Y-74000D01*
X49429Y-73857D01*
X49286Y-73571D01*
X49286Y-73286D01*
X49429Y-73000D01*
X49572Y-72857D01*
X49858Y-72714D01*
X50572Y-72714D01*
X51001Y-72857D01*
X52143Y-75571D02*
X52572Y-75714D01*
X53286Y-75714D01*
X53572Y-75571D01*
X53715Y-75429D01*
X53858Y-75143D01*
X53858Y-74857D01*
X53715Y-74571D01*
X53572Y-74429D01*
X53286Y-74286D01*
X52715Y-74143D01*
X52429Y-74000D01*
X52286Y-73857D01*
X52143Y-73571D01*
X52143Y-73286D01*
X52286Y-73000D01*
X52429Y-72857D01*
X52715Y-72714D01*
X53429Y-72714D01*
X53858Y-72857D01*
X141286Y-74429D02*
X140857Y-74286D01*
X140143Y-74286D01*
X139857Y-74429D01*
X139714Y-74571D01*
X139571Y-74857D01*
X139571Y-75143D01*
X139714Y-75429D01*
X139857Y-75571D01*
X140143Y-75714D01*
X140714Y-75857D01*
X141000Y-76000D01*
X141143Y-76143D01*
X141286Y-76429D01*
X141286Y-76714D01*
X141143Y-77000D01*
X141000Y-77143D01*
X140714Y-77286D01*
X140000Y-77286D01*
X139571Y-77143D01*
X138286Y-74286D02*
X138286Y-77286D01*
X137286Y-75143D01*
X136286Y-77286D01*
X136286Y-74286D01*
X133142Y-74286D02*
X134142Y-75714D01*
X134857Y-74286D02*
X134857Y-77286D01*
X133714Y-77286D01*
X133428Y-77143D01*
X133285Y-77000D01*
X133142Y-76714D01*
X133142Y-76286D01*
X133285Y-76000D01*
X133428Y-75857D01*
X133714Y-75714D01*
X134857Y-75714D01*
X130428Y-74286D02*
X131857Y-74286D01*
X131857Y-77286D01*
G54D12*
X101900Y-79000D02*
X101882Y-79174D01*
X101832Y-79342D01*
X101749Y-79498D01*
X101638Y-79634D01*
X101503Y-79746D01*
X101348Y-79829D01*
X101180Y-79881D01*
X101006Y-79899D01*
X100832Y-79884D01*
X100663Y-79834D01*
X100508Y-79753D01*
X100371Y-79643D01*
X100258Y-79508D01*
X100173Y-79354D01*
X100120Y-79187D01*
X100101Y-79012D01*
X100115Y-78838D01*
X100164Y-78669D01*
X100244Y-78513D01*
X100353Y-78375D01*
X100487Y-78261D01*
X100640Y-78176D01*
X100807Y-78121D01*
X100982Y-78101D01*
X101156Y-78114D01*
X101325Y-78161D01*
X101482Y-78241D01*
X101620Y-78349D01*
X101735Y-78482D01*
X101822Y-78634D01*
X101877Y-78801D01*
X101899Y-78975D01*
X101900Y-79000D01*
X119400Y-71000D02*
X119382Y-71174D01*
X119332Y-71342D01*
X119249Y-71498D01*
X119138Y-71634D01*
X119003Y-71746D01*
X118848Y-71829D01*
X118680Y-71881D01*
X118506Y-71899D01*
X118332Y-71884D01*
X118163Y-71834D01*
X118008Y-71753D01*
X117871Y-71643D01*
X117758Y-71508D01*
X117673Y-71354D01*
X117620Y-71187D01*
X117601Y-71012D01*
X117615Y-70838D01*
X117664Y-70669D01*
X117744Y-70513D01*
X117853Y-70375D01*
X117987Y-70261D01*
X118140Y-70176D01*
X118307Y-70121D01*
X118482Y-70101D01*
X118656Y-70114D01*
X118825Y-70161D01*
X118982Y-70241D01*
X119120Y-70349D01*
X119235Y-70482D01*
X119322Y-70634D01*
X119377Y-70801D01*
X119399Y-70975D01*
X119400Y-71000D01*
X67400Y-71000D02*
X67382Y-71174D01*
X67332Y-71342D01*
X67249Y-71498D01*
X67138Y-71634D01*
X67003Y-71746D01*
X66848Y-71829D01*
X66680Y-71881D01*
X66506Y-71899D01*
X66332Y-71884D01*
X66163Y-71834D01*
X66008Y-71753D01*
X65871Y-71643D01*
X65758Y-71508D01*
X65673Y-71354D01*
X65620Y-71187D01*
X65601Y-71012D01*
X65615Y-70838D01*
X65664Y-70669D01*
X65744Y-70513D01*
X65853Y-70375D01*
X65987Y-70261D01*
X66140Y-70176D01*
X66307Y-70121D01*
X66482Y-70101D01*
X66656Y-70114D01*
X66825Y-70161D01*
X66982Y-70241D01*
X67120Y-70349D01*
X67235Y-70482D01*
X67322Y-70634D01*
X67377Y-70801D01*
X67399Y-70975D01*
X67400Y-71000D01*
X49400Y-79000D02*
X49382Y-79174D01*
X49332Y-79342D01*
X49249Y-79498D01*
X49138Y-79634D01*
X49003Y-79746D01*
X48848Y-79829D01*
X48680Y-79881D01*
X48506Y-79899D01*
X48332Y-79884D01*
X48163Y-79834D01*
X48008Y-79753D01*
X47871Y-79643D01*
X47758Y-79508D01*
X47673Y-79354D01*
X47620Y-79187D01*
X47601Y-79012D01*
X47615Y-78838D01*
X47664Y-78669D01*
X47744Y-78513D01*
X47853Y-78375D01*
X47987Y-78261D01*
X48140Y-78176D01*
X48307Y-78121D01*
X48482Y-78101D01*
X48656Y-78114D01*
X48825Y-78161D01*
X48982Y-78241D01*
X49120Y-78349D01*
X49235Y-78482D01*
X49322Y-78634D01*
X49377Y-78801D01*
X49399Y-78975D01*
X49400Y-79000D01*
X151400Y-71500D02*
X151382Y-71674D01*
X151332Y-71842D01*
X151249Y-71998D01*
X151138Y-72134D01*
X151003Y-72246D01*
X150848Y-72329D01*
X150680Y-72381D01*
X150506Y-72399D01*
X150332Y-72384D01*
X150163Y-72334D01*
X150008Y-72253D01*
X149871Y-72143D01*
X149758Y-72008D01*
X149673Y-71854D01*
X149620Y-71687D01*
X149601Y-71512D01*
X149615Y-71338D01*
X149664Y-71169D01*
X149744Y-71013D01*
X149853Y-70875D01*
X149987Y-70761D01*
X150140Y-70676D01*
X150307Y-70621D01*
X150482Y-70601D01*
X150656Y-70614D01*
X150825Y-70661D01*
X150982Y-70741D01*
X151120Y-70849D01*
X151235Y-70982D01*
X151322Y-71134D01*
X151377Y-71301D01*
X151399Y-71475D01*
X151400Y-71500D01*
X16400Y-78500D02*
X16382Y-78674D01*
X16332Y-78842D01*
X16249Y-78998D01*
X16138Y-79134D01*
X16003Y-79246D01*
X15848Y-79329D01*
X15680Y-79381D01*
X15506Y-79399D01*
X15332Y-79384D01*
X15163Y-79334D01*
X15008Y-79253D01*
X14871Y-79143D01*
X14758Y-79008D01*
X14673Y-78854D01*
X14620Y-78687D01*
X14601Y-78512D01*
X14615Y-78338D01*
X14664Y-78169D01*
X14744Y-78013D01*
X14853Y-77875D01*
X14987Y-77761D01*
X15140Y-77676D01*
X15307Y-77621D01*
X15482Y-77601D01*
X15656Y-77614D01*
X15825Y-77661D01*
X15982Y-77741D01*
X16120Y-77849D01*
X16235Y-77982D01*
X16322Y-78134D01*
X16377Y-78301D01*
X16399Y-78475D01*
X16400Y-78500D01*
G54D13*
X22900Y-78900D02*
X21100Y-78900D01*
X21100Y-78900D02*
X21100Y-71100D01*
X21100Y-71100D02*
X22900Y-71100D01*
X22900Y-71100D02*
X22900Y-78900D01*
X40400Y-78900D02*
X38600Y-78900D01*
X38600Y-78900D02*
X38600Y-71100D01*
X38600Y-71100D02*
X40400Y-71100D01*
X40400Y-71100D02*
X40400Y-78900D01*
X57900Y-78900D02*
X56100Y-78900D01*
X56100Y-78900D02*
X56100Y-71100D01*
X56100Y-71100D02*
X57900Y-71100D01*
X57900Y-71100D02*
X57900Y-78900D01*
X75400Y-78900D02*
X73600Y-78900D01*
X73600Y-78900D02*
X73600Y-71100D01*
X73600Y-71100D02*
X75400Y-71100D01*
X75400Y-71100D02*
X75400Y-78900D01*
X92900Y-78900D02*
X91100Y-78900D01*
X91100Y-78900D02*
X91100Y-71100D01*
X91100Y-71100D02*
X92900Y-71100D01*
X92900Y-71100D02*
X92900Y-78900D01*
X110400Y-78900D02*
X108600Y-78900D01*
X108600Y-78900D02*
X108600Y-71100D01*
X108600Y-71100D02*
X110400Y-71100D01*
X110400Y-71100D02*
X110400Y-78900D01*
X127900Y-78900D02*
X126100Y-78900D01*
X126100Y-78900D02*
X126100Y-71100D01*
X126100Y-71100D02*
X127900Y-71100D01*
X127900Y-71100D02*
X127900Y-78900D01*
X145400Y-78900D02*
X143600Y-78900D01*
X143600Y-78900D02*
X143600Y-71100D01*
X143600Y-71100D02*
X145400Y-71100D01*
X145400Y-71100D02*
X145400Y-78900D01*
G54D12*
X16400Y-71500D02*
X16382Y-71674D01*
X16332Y-71842D01*
X16249Y-71998D01*
X16138Y-72134D01*
X16003Y-72246D01*
X15848Y-72329D01*
X15680Y-72381D01*
X15506Y-72399D01*
X15332Y-72384D01*
X15163Y-72334D01*
X15008Y-72253D01*
X14871Y-72143D01*
X14758Y-72008D01*
X14673Y-71854D01*
X14620Y-71687D01*
X14601Y-71512D01*
X14615Y-71338D01*
X14664Y-71169D01*
X14744Y-71013D01*
X14853Y-70875D01*
X14987Y-70761D01*
X15140Y-70676D01*
X15307Y-70621D01*
X15482Y-70601D01*
X15656Y-70614D01*
X15825Y-70661D01*
X15982Y-70741D01*
X16120Y-70849D01*
X16235Y-70982D01*
X16322Y-71134D01*
X16377Y-71301D01*
X16399Y-71475D01*
X16400Y-71500D01*
X151400Y-78500D02*
X151382Y-78674D01*
X151332Y-78842D01*
X151249Y-78998D01*
X151138Y-79134D01*
X151003Y-79246D01*
X150848Y-79329D01*
X150680Y-79381D01*
X150506Y-79399D01*
X150332Y-79384D01*
X150163Y-79334D01*
X150008Y-79253D01*
X149871Y-79143D01*
X149758Y-79008D01*
X149673Y-78854D01*
X149620Y-78687D01*
X149601Y-78512D01*
X149615Y-78338D01*
X149664Y-78169D01*
X149744Y-78013D01*
X149853Y-77875D01*
X149987Y-77761D01*
X150140Y-77676D01*
X150307Y-77621D01*
X150482Y-77601D01*
X150656Y-77614D01*
X150825Y-77661D01*
X150982Y-77741D01*
X151120Y-77849D01*
X151235Y-77982D01*
X151322Y-78134D01*
X151377Y-78301D01*
X151399Y-78475D01*
X151400Y-78500D01*
M02*
