G04 (created by PCBNEW-RS274X (2012-01-19 BZR 3256)-stable) date 12/6/2012 11:22:50 PM*
G01*
G70*
G90*
%MOIN*%
G04 Gerber Fmt 3.4, Leading zero omitted, Abs format*
%FSLAX34Y34*%
G04 APERTURE LIST*
%ADD10C,0.006000*%
%ADD11C,0.160000*%
%ADD12R,0.060000X0.060000*%
%ADD13C,0.060000*%
%ADD14C,0.080000*%
%ADD15C,0.050000*%
%ADD16C,0.010000*%
G04 APERTURE END LIST*
G54D10*
G54D11*
X101000Y-79000D03*
X118500Y-71000D03*
X66500Y-71000D03*
X48500Y-79000D03*
X150500Y-71500D03*
X15500Y-78500D03*
G54D12*
X22500Y-78500D03*
G54D13*
X21500Y-78500D03*
X22500Y-77500D03*
X21500Y-77500D03*
X22500Y-76500D03*
X21500Y-76500D03*
X22500Y-75500D03*
X21500Y-75500D03*
X22500Y-74500D03*
X21500Y-74500D03*
X22500Y-73500D03*
X21500Y-73500D03*
X22500Y-72500D03*
X21500Y-72500D03*
X22500Y-71500D03*
X21500Y-71500D03*
G54D12*
X40000Y-78500D03*
G54D13*
X39000Y-78500D03*
X40000Y-77500D03*
X39000Y-77500D03*
X40000Y-76500D03*
X39000Y-76500D03*
X40000Y-75500D03*
X39000Y-75500D03*
X40000Y-74500D03*
X39000Y-74500D03*
X40000Y-73500D03*
X39000Y-73500D03*
X40000Y-72500D03*
X39000Y-72500D03*
X40000Y-71500D03*
X39000Y-71500D03*
G54D12*
X57500Y-78500D03*
G54D13*
X56500Y-78500D03*
X57500Y-77500D03*
X56500Y-77500D03*
X57500Y-76500D03*
X56500Y-76500D03*
X57500Y-75500D03*
X56500Y-75500D03*
X57500Y-74500D03*
X56500Y-74500D03*
X57500Y-73500D03*
X56500Y-73500D03*
X57500Y-72500D03*
X56500Y-72500D03*
X57500Y-71500D03*
X56500Y-71500D03*
G54D12*
X75000Y-78500D03*
G54D13*
X74000Y-78500D03*
X75000Y-77500D03*
X74000Y-77500D03*
X75000Y-76500D03*
X74000Y-76500D03*
X75000Y-75500D03*
X74000Y-75500D03*
X75000Y-74500D03*
X74000Y-74500D03*
X75000Y-73500D03*
X74000Y-73500D03*
X75000Y-72500D03*
X74000Y-72500D03*
X75000Y-71500D03*
X74000Y-71500D03*
G54D12*
X92500Y-78500D03*
G54D13*
X91500Y-78500D03*
X92500Y-77500D03*
X91500Y-77500D03*
X92500Y-76500D03*
X91500Y-76500D03*
X92500Y-75500D03*
X91500Y-75500D03*
X92500Y-74500D03*
X91500Y-74500D03*
X92500Y-73500D03*
X91500Y-73500D03*
X92500Y-72500D03*
X91500Y-72500D03*
X92500Y-71500D03*
X91500Y-71500D03*
G54D12*
X110000Y-78500D03*
G54D13*
X109000Y-78500D03*
X110000Y-77500D03*
X109000Y-77500D03*
X110000Y-76500D03*
X109000Y-76500D03*
X110000Y-75500D03*
X109000Y-75500D03*
X110000Y-74500D03*
X109000Y-74500D03*
X110000Y-73500D03*
X109000Y-73500D03*
X110000Y-72500D03*
X109000Y-72500D03*
X110000Y-71500D03*
X109000Y-71500D03*
G54D12*
X127500Y-78500D03*
G54D13*
X126500Y-78500D03*
X127500Y-77500D03*
X126500Y-77500D03*
X127500Y-76500D03*
X126500Y-76500D03*
X127500Y-75500D03*
X126500Y-75500D03*
X127500Y-74500D03*
X126500Y-74500D03*
X127500Y-73500D03*
X126500Y-73500D03*
X127500Y-72500D03*
X126500Y-72500D03*
X127500Y-71500D03*
X126500Y-71500D03*
G54D12*
X145000Y-78500D03*
G54D13*
X144000Y-78500D03*
X145000Y-77500D03*
X144000Y-77500D03*
X145000Y-76500D03*
X144000Y-76500D03*
X145000Y-75500D03*
X144000Y-75500D03*
X145000Y-74500D03*
X144000Y-74500D03*
X145000Y-73500D03*
X144000Y-73500D03*
X145000Y-72500D03*
X144000Y-72500D03*
X145000Y-71500D03*
X144000Y-71500D03*
G54D11*
X15500Y-71500D03*
G54D14*
X84500Y-74500D03*
X86500Y-73500D03*
X90000Y-71500D03*
X88500Y-72500D03*
X80500Y-76500D03*
X82500Y-75500D03*
X78500Y-77500D03*
X76500Y-78500D03*
G54D11*
X150500Y-78500D03*
G54D15*
X21500Y-71500D02*
X40000Y-71500D01*
X116000Y-71500D02*
X117500Y-73000D01*
X117500Y-73000D02*
X119500Y-73000D01*
X121000Y-71500D02*
X145000Y-71500D01*
X57500Y-71500D02*
X64000Y-71500D01*
X64000Y-71500D02*
X65500Y-73000D01*
X40000Y-71500D02*
X57500Y-71500D01*
X65500Y-73000D02*
X67500Y-73000D01*
X67500Y-73000D02*
X69000Y-71500D01*
X69000Y-71500D02*
X116000Y-71500D01*
X119500Y-73000D02*
X121000Y-71500D01*
X115500Y-72500D02*
X117000Y-74000D01*
X68000Y-74000D02*
X69500Y-72500D01*
X69500Y-72500D02*
X115500Y-72500D01*
X120000Y-74000D02*
X121500Y-72500D01*
X117000Y-74000D02*
X120000Y-74000D01*
X65000Y-74000D02*
X68000Y-74000D01*
X21500Y-72500D02*
X63500Y-72500D01*
X63500Y-72500D02*
X65000Y-74000D01*
X121500Y-72500D02*
X145000Y-72500D01*
X64500Y-75000D02*
X68500Y-75000D01*
X120500Y-75000D02*
X122000Y-73500D01*
X70000Y-73500D02*
X115000Y-73500D01*
X115000Y-73500D02*
X116500Y-75000D01*
X21500Y-73500D02*
X63000Y-73500D01*
X122000Y-73500D02*
X145000Y-73500D01*
X116500Y-75000D02*
X120500Y-75000D01*
X63000Y-73500D02*
X64500Y-75000D01*
X68500Y-75000D02*
X70000Y-73500D01*
X122500Y-74500D02*
X145000Y-74500D01*
X21500Y-74500D02*
X62500Y-74500D01*
X70500Y-74500D02*
X114500Y-74500D01*
X69000Y-76000D02*
X70500Y-74500D01*
X62500Y-74500D02*
X64000Y-76000D01*
X114500Y-74500D02*
X116000Y-76000D01*
X116000Y-76000D02*
X121000Y-76000D01*
X64000Y-76000D02*
X69000Y-76000D01*
X121000Y-76000D02*
X122500Y-74500D01*
G54D10*
G36*
X152675Y-80675D02*
X145549Y-80675D01*
X145549Y-78850D01*
X145549Y-78751D01*
X145549Y-78151D01*
X145511Y-78059D01*
X145441Y-77989D01*
X145350Y-77951D01*
X145325Y-77951D01*
X145465Y-77811D01*
X145549Y-77609D01*
X145549Y-77391D01*
X145465Y-77189D01*
X145311Y-77035D01*
X145226Y-77000D01*
X145311Y-76965D01*
X145465Y-76811D01*
X145549Y-76609D01*
X145549Y-76391D01*
X145465Y-76189D01*
X145311Y-76035D01*
X145226Y-76000D01*
X145311Y-75965D01*
X145465Y-75811D01*
X145549Y-75609D01*
X145549Y-75391D01*
X145465Y-75189D01*
X145311Y-75035D01*
X145226Y-75000D01*
X145311Y-74965D01*
X145465Y-74811D01*
X145549Y-74609D01*
X145549Y-74391D01*
X145465Y-74189D01*
X145311Y-74035D01*
X145226Y-74000D01*
X145311Y-73965D01*
X145465Y-73811D01*
X145549Y-73609D01*
X145549Y-73391D01*
X145465Y-73189D01*
X145311Y-73035D01*
X145226Y-73000D01*
X145311Y-72965D01*
X145465Y-72811D01*
X145549Y-72609D01*
X145549Y-72391D01*
X145465Y-72189D01*
X145311Y-72035D01*
X145226Y-72000D01*
X145311Y-71965D01*
X145465Y-71811D01*
X145549Y-71609D01*
X145549Y-71391D01*
X145465Y-71189D01*
X145311Y-71035D01*
X145109Y-70951D01*
X144891Y-70951D01*
X144773Y-71000D01*
X144226Y-71000D01*
X144109Y-70951D01*
X143891Y-70951D01*
X143773Y-71000D01*
X127726Y-71000D01*
X127609Y-70951D01*
X127391Y-70951D01*
X127273Y-71000D01*
X126726Y-71000D01*
X126609Y-70951D01*
X126391Y-70951D01*
X126273Y-71000D01*
X121000Y-71000D01*
X120808Y-71038D01*
X120743Y-71081D01*
X120646Y-71146D01*
X120644Y-71148D01*
X119292Y-72500D01*
X117707Y-72500D01*
X116354Y-71146D01*
X116192Y-71038D01*
X116000Y-70999D01*
X115995Y-71000D01*
X110226Y-71000D01*
X110109Y-70951D01*
X109891Y-70951D01*
X109773Y-71000D01*
X109226Y-71000D01*
X109109Y-70951D01*
X108891Y-70951D01*
X108773Y-71000D01*
X92726Y-71000D01*
X92609Y-70951D01*
X92391Y-70951D01*
X92273Y-71000D01*
X91726Y-71000D01*
X91609Y-70951D01*
X91391Y-70951D01*
X91273Y-71000D01*
X90418Y-71000D01*
X90368Y-70950D01*
X90129Y-70851D01*
X89871Y-70851D01*
X89632Y-70950D01*
X89582Y-71000D01*
X75226Y-71000D01*
X75109Y-70951D01*
X74891Y-70951D01*
X74773Y-71000D01*
X74226Y-71000D01*
X74109Y-70951D01*
X73891Y-70951D01*
X73773Y-71000D01*
X69000Y-71000D01*
X68808Y-71038D01*
X68743Y-71081D01*
X68646Y-71146D01*
X68644Y-71148D01*
X67292Y-72500D01*
X65707Y-72500D01*
X64354Y-71146D01*
X64192Y-71038D01*
X64000Y-70999D01*
X63995Y-71000D01*
X57726Y-71000D01*
X57609Y-70951D01*
X57391Y-70951D01*
X57273Y-71000D01*
X56726Y-71000D01*
X56609Y-70951D01*
X56391Y-70951D01*
X56273Y-71000D01*
X40226Y-71000D01*
X40109Y-70951D01*
X39891Y-70951D01*
X39773Y-71000D01*
X39226Y-71000D01*
X39109Y-70951D01*
X38891Y-70951D01*
X38773Y-71000D01*
X22726Y-71000D01*
X22609Y-70951D01*
X22391Y-70951D01*
X22273Y-71000D01*
X21726Y-71000D01*
X21609Y-70951D01*
X21391Y-70951D01*
X21189Y-71035D01*
X21035Y-71189D01*
X20951Y-71391D01*
X20951Y-71609D01*
X21035Y-71811D01*
X21189Y-71965D01*
X21273Y-72000D01*
X21189Y-72035D01*
X21035Y-72189D01*
X20951Y-72391D01*
X20951Y-72609D01*
X21035Y-72811D01*
X21189Y-72965D01*
X21273Y-73000D01*
X21189Y-73035D01*
X21035Y-73189D01*
X20951Y-73391D01*
X20951Y-73609D01*
X21035Y-73811D01*
X21189Y-73965D01*
X21273Y-74000D01*
X21189Y-74035D01*
X21035Y-74189D01*
X20951Y-74391D01*
X20951Y-74609D01*
X21035Y-74811D01*
X21189Y-74965D01*
X21273Y-75000D01*
X21189Y-75035D01*
X21035Y-75189D01*
X20951Y-75391D01*
X20951Y-75609D01*
X21035Y-75811D01*
X21189Y-75965D01*
X21273Y-76000D01*
X21189Y-76035D01*
X21035Y-76189D01*
X20951Y-76391D01*
X20951Y-76609D01*
X21035Y-76811D01*
X21189Y-76965D01*
X21273Y-77000D01*
X21189Y-77035D01*
X21035Y-77189D01*
X20951Y-77391D01*
X20951Y-77609D01*
X21035Y-77811D01*
X21189Y-77965D01*
X21273Y-78000D01*
X21189Y-78035D01*
X21035Y-78189D01*
X20951Y-78391D01*
X20951Y-78609D01*
X21035Y-78811D01*
X21189Y-78965D01*
X21391Y-79049D01*
X21609Y-79049D01*
X21811Y-78965D01*
X21951Y-78825D01*
X21951Y-78849D01*
X21989Y-78941D01*
X22059Y-79011D01*
X22150Y-79049D01*
X22249Y-79049D01*
X22849Y-79049D01*
X22941Y-79011D01*
X23011Y-78941D01*
X23049Y-78850D01*
X23049Y-78751D01*
X23049Y-78151D01*
X23011Y-78059D01*
X22941Y-77989D01*
X22850Y-77951D01*
X22825Y-77951D01*
X22965Y-77811D01*
X23049Y-77609D01*
X23049Y-77391D01*
X22965Y-77189D01*
X22811Y-77035D01*
X22726Y-77000D01*
X22811Y-76965D01*
X22965Y-76811D01*
X23049Y-76609D01*
X23049Y-76391D01*
X22965Y-76189D01*
X22811Y-76035D01*
X22726Y-76000D01*
X22811Y-75965D01*
X22965Y-75811D01*
X23049Y-75609D01*
X23049Y-75391D01*
X22965Y-75189D01*
X22811Y-75035D01*
X22726Y-75000D01*
X38773Y-75000D01*
X38689Y-75035D01*
X38535Y-75189D01*
X38451Y-75391D01*
X38451Y-75609D01*
X38535Y-75811D01*
X38689Y-75965D01*
X38773Y-76000D01*
X38689Y-76035D01*
X38535Y-76189D01*
X38451Y-76391D01*
X38451Y-76609D01*
X38535Y-76811D01*
X38689Y-76965D01*
X38773Y-77000D01*
X38689Y-77035D01*
X38535Y-77189D01*
X38451Y-77391D01*
X38451Y-77609D01*
X38535Y-77811D01*
X38689Y-77965D01*
X38773Y-78000D01*
X38689Y-78035D01*
X38535Y-78189D01*
X38451Y-78391D01*
X38451Y-78609D01*
X38535Y-78811D01*
X38689Y-78965D01*
X38891Y-79049D01*
X39109Y-79049D01*
X39311Y-78965D01*
X39451Y-78825D01*
X39451Y-78849D01*
X39489Y-78941D01*
X39559Y-79011D01*
X39650Y-79049D01*
X39749Y-79049D01*
X40349Y-79049D01*
X40441Y-79011D01*
X40511Y-78941D01*
X40549Y-78850D01*
X40549Y-78751D01*
X40549Y-78151D01*
X40511Y-78059D01*
X40441Y-77989D01*
X40350Y-77951D01*
X40325Y-77951D01*
X40465Y-77811D01*
X40549Y-77609D01*
X40549Y-77391D01*
X40465Y-77189D01*
X40311Y-77035D01*
X40226Y-77000D01*
X40311Y-76965D01*
X40465Y-76811D01*
X40549Y-76609D01*
X40549Y-76391D01*
X40465Y-76189D01*
X40311Y-76035D01*
X40226Y-76000D01*
X40311Y-75965D01*
X40465Y-75811D01*
X40549Y-75609D01*
X40549Y-75391D01*
X40465Y-75189D01*
X40311Y-75035D01*
X40226Y-75000D01*
X56273Y-75000D01*
X56189Y-75035D01*
X56035Y-75189D01*
X55951Y-75391D01*
X55951Y-75609D01*
X56035Y-75811D01*
X56189Y-75965D01*
X56273Y-76000D01*
X56189Y-76035D01*
X56035Y-76189D01*
X55951Y-76391D01*
X55951Y-76609D01*
X56035Y-76811D01*
X56189Y-76965D01*
X56273Y-77000D01*
X56189Y-77035D01*
X56035Y-77189D01*
X55951Y-77391D01*
X55951Y-77609D01*
X56035Y-77811D01*
X56189Y-77965D01*
X56273Y-78000D01*
X56189Y-78035D01*
X56035Y-78189D01*
X55951Y-78391D01*
X55951Y-78609D01*
X56035Y-78811D01*
X56189Y-78965D01*
X56391Y-79049D01*
X56609Y-79049D01*
X56811Y-78965D01*
X56951Y-78825D01*
X56951Y-78849D01*
X56989Y-78941D01*
X57059Y-79011D01*
X57150Y-79049D01*
X57249Y-79049D01*
X57849Y-79049D01*
X57941Y-79011D01*
X58011Y-78941D01*
X58049Y-78850D01*
X58049Y-78751D01*
X58049Y-78151D01*
X58011Y-78059D01*
X57941Y-77989D01*
X57850Y-77951D01*
X57825Y-77951D01*
X57965Y-77811D01*
X58049Y-77609D01*
X58049Y-77391D01*
X57965Y-77189D01*
X57811Y-77035D01*
X57726Y-77000D01*
X57811Y-76965D01*
X57965Y-76811D01*
X58049Y-76609D01*
X58049Y-76391D01*
X57965Y-76189D01*
X57811Y-76035D01*
X57726Y-76000D01*
X57811Y-75965D01*
X57965Y-75811D01*
X58049Y-75609D01*
X58049Y-75391D01*
X57965Y-75189D01*
X57811Y-75035D01*
X57726Y-75000D01*
X62292Y-75000D01*
X63644Y-76351D01*
X63646Y-76354D01*
X63743Y-76418D01*
X63808Y-76462D01*
X63809Y-76462D01*
X64000Y-76500D01*
X68995Y-76500D01*
X69000Y-76501D01*
X69000Y-76500D01*
X69191Y-76462D01*
X69192Y-76462D01*
X69354Y-76354D01*
X70707Y-75000D01*
X73773Y-75000D01*
X73689Y-75035D01*
X73535Y-75189D01*
X73451Y-75391D01*
X73451Y-75609D01*
X73535Y-75811D01*
X73689Y-75965D01*
X73773Y-76000D01*
X73689Y-76035D01*
X73535Y-76189D01*
X73451Y-76391D01*
X73451Y-76609D01*
X73535Y-76811D01*
X73689Y-76965D01*
X73773Y-77000D01*
X73689Y-77035D01*
X73535Y-77189D01*
X73451Y-77391D01*
X73451Y-77609D01*
X73535Y-77811D01*
X73689Y-77965D01*
X73773Y-78000D01*
X73689Y-78035D01*
X73535Y-78189D01*
X73451Y-78391D01*
X73451Y-78609D01*
X73535Y-78811D01*
X73689Y-78965D01*
X73891Y-79049D01*
X74109Y-79049D01*
X74311Y-78965D01*
X74451Y-78825D01*
X74451Y-78849D01*
X74489Y-78941D01*
X74559Y-79011D01*
X74650Y-79049D01*
X74749Y-79049D01*
X75349Y-79049D01*
X75441Y-79011D01*
X75511Y-78941D01*
X75549Y-78850D01*
X75549Y-78751D01*
X75549Y-78151D01*
X75511Y-78059D01*
X75441Y-77989D01*
X75350Y-77951D01*
X75325Y-77951D01*
X75465Y-77811D01*
X75549Y-77609D01*
X75549Y-77391D01*
X75465Y-77189D01*
X75311Y-77035D01*
X75226Y-77000D01*
X75311Y-76965D01*
X75465Y-76811D01*
X75549Y-76609D01*
X75549Y-76391D01*
X75465Y-76189D01*
X75311Y-76035D01*
X75226Y-76000D01*
X75311Y-75965D01*
X75465Y-75811D01*
X75549Y-75609D01*
X75549Y-75391D01*
X75465Y-75189D01*
X75311Y-75035D01*
X75226Y-75000D01*
X82082Y-75000D01*
X81950Y-75132D01*
X81851Y-75371D01*
X81851Y-75629D01*
X81950Y-75868D01*
X82132Y-76050D01*
X82371Y-76149D01*
X82629Y-76149D01*
X82868Y-76050D01*
X83050Y-75868D01*
X83149Y-75629D01*
X83149Y-75371D01*
X83050Y-75132D01*
X82918Y-75000D01*
X84082Y-75000D01*
X84132Y-75050D01*
X84371Y-75149D01*
X84629Y-75149D01*
X84868Y-75050D01*
X84918Y-75000D01*
X91273Y-75000D01*
X91189Y-75035D01*
X91035Y-75189D01*
X90951Y-75391D01*
X90951Y-75609D01*
X91035Y-75811D01*
X91189Y-75965D01*
X91273Y-76000D01*
X91189Y-76035D01*
X91035Y-76189D01*
X90951Y-76391D01*
X90951Y-76609D01*
X91035Y-76811D01*
X91189Y-76965D01*
X91273Y-77000D01*
X91189Y-77035D01*
X91035Y-77189D01*
X90951Y-77391D01*
X90951Y-77609D01*
X91035Y-77811D01*
X91189Y-77965D01*
X91273Y-78000D01*
X91189Y-78035D01*
X91035Y-78189D01*
X90951Y-78391D01*
X90951Y-78609D01*
X91035Y-78811D01*
X91189Y-78965D01*
X91391Y-79049D01*
X91609Y-79049D01*
X91811Y-78965D01*
X91951Y-78825D01*
X91951Y-78849D01*
X91989Y-78941D01*
X92059Y-79011D01*
X92150Y-79049D01*
X92249Y-79049D01*
X92849Y-79049D01*
X92941Y-79011D01*
X93011Y-78941D01*
X93049Y-78850D01*
X93049Y-78751D01*
X93049Y-78151D01*
X93011Y-78059D01*
X92941Y-77989D01*
X92850Y-77951D01*
X92825Y-77951D01*
X92965Y-77811D01*
X93049Y-77609D01*
X93049Y-77391D01*
X92965Y-77189D01*
X92811Y-77035D01*
X92726Y-77000D01*
X92811Y-76965D01*
X92965Y-76811D01*
X93049Y-76609D01*
X93049Y-76391D01*
X92965Y-76189D01*
X92811Y-76035D01*
X92726Y-76000D01*
X92811Y-75965D01*
X92965Y-75811D01*
X93049Y-75609D01*
X93049Y-75391D01*
X92965Y-75189D01*
X92811Y-75035D01*
X92726Y-75000D01*
X108773Y-75000D01*
X108689Y-75035D01*
X108535Y-75189D01*
X108451Y-75391D01*
X108451Y-75609D01*
X108535Y-75811D01*
X108689Y-75965D01*
X108773Y-76000D01*
X108689Y-76035D01*
X108535Y-76189D01*
X108451Y-76391D01*
X108451Y-76609D01*
X108535Y-76811D01*
X108689Y-76965D01*
X108773Y-77000D01*
X108689Y-77035D01*
X108535Y-77189D01*
X108451Y-77391D01*
X108451Y-77609D01*
X108535Y-77811D01*
X108689Y-77965D01*
X108773Y-78000D01*
X108689Y-78035D01*
X108535Y-78189D01*
X108451Y-78391D01*
X108451Y-78609D01*
X108535Y-78811D01*
X108689Y-78965D01*
X108891Y-79049D01*
X109109Y-79049D01*
X109311Y-78965D01*
X109451Y-78825D01*
X109451Y-78849D01*
X109489Y-78941D01*
X109559Y-79011D01*
X109650Y-79049D01*
X109749Y-79049D01*
X110349Y-79049D01*
X110441Y-79011D01*
X110511Y-78941D01*
X110549Y-78850D01*
X110549Y-78751D01*
X110549Y-78151D01*
X110511Y-78059D01*
X110441Y-77989D01*
X110350Y-77951D01*
X110325Y-77951D01*
X110465Y-77811D01*
X110549Y-77609D01*
X110549Y-77391D01*
X110465Y-77189D01*
X110311Y-77035D01*
X110226Y-77000D01*
X110311Y-76965D01*
X110465Y-76811D01*
X110549Y-76609D01*
X110549Y-76391D01*
X110465Y-76189D01*
X110311Y-76035D01*
X110226Y-76000D01*
X110311Y-75965D01*
X110465Y-75811D01*
X110549Y-75609D01*
X110549Y-75391D01*
X110465Y-75189D01*
X110311Y-75035D01*
X110226Y-75000D01*
X114292Y-75000D01*
X115644Y-76351D01*
X115646Y-76354D01*
X115743Y-76418D01*
X115808Y-76462D01*
X115809Y-76462D01*
X116000Y-76500D01*
X120995Y-76500D01*
X121000Y-76501D01*
X121000Y-76500D01*
X121191Y-76462D01*
X121192Y-76462D01*
X121354Y-76354D01*
X122707Y-75000D01*
X126273Y-75000D01*
X126189Y-75035D01*
X126035Y-75189D01*
X125951Y-75391D01*
X125951Y-75609D01*
X126035Y-75811D01*
X126189Y-75965D01*
X126273Y-76000D01*
X126189Y-76035D01*
X126035Y-76189D01*
X125951Y-76391D01*
X125951Y-76609D01*
X126035Y-76811D01*
X126189Y-76965D01*
X126273Y-77000D01*
X126189Y-77035D01*
X126035Y-77189D01*
X125951Y-77391D01*
X125951Y-77609D01*
X126035Y-77811D01*
X126189Y-77965D01*
X126273Y-78000D01*
X126189Y-78035D01*
X126035Y-78189D01*
X125951Y-78391D01*
X125951Y-78609D01*
X126035Y-78811D01*
X126189Y-78965D01*
X126391Y-79049D01*
X126609Y-79049D01*
X126811Y-78965D01*
X126951Y-78825D01*
X126951Y-78849D01*
X126989Y-78941D01*
X127059Y-79011D01*
X127150Y-79049D01*
X127249Y-79049D01*
X127849Y-79049D01*
X127941Y-79011D01*
X128011Y-78941D01*
X128049Y-78850D01*
X128049Y-78751D01*
X128049Y-78151D01*
X128011Y-78059D01*
X127941Y-77989D01*
X127850Y-77951D01*
X127825Y-77951D01*
X127965Y-77811D01*
X128049Y-77609D01*
X128049Y-77391D01*
X127965Y-77189D01*
X127811Y-77035D01*
X127726Y-77000D01*
X127811Y-76965D01*
X127965Y-76811D01*
X128049Y-76609D01*
X128049Y-76391D01*
X127965Y-76189D01*
X127811Y-76035D01*
X127726Y-76000D01*
X127811Y-75965D01*
X127965Y-75811D01*
X128049Y-75609D01*
X128049Y-75391D01*
X127965Y-75189D01*
X127811Y-75035D01*
X127726Y-75000D01*
X143773Y-75000D01*
X143689Y-75035D01*
X143535Y-75189D01*
X143451Y-75391D01*
X143451Y-75609D01*
X143535Y-75811D01*
X143689Y-75965D01*
X143773Y-76000D01*
X143689Y-76035D01*
X143535Y-76189D01*
X143451Y-76391D01*
X143451Y-76609D01*
X143535Y-76811D01*
X143689Y-76965D01*
X143773Y-77000D01*
X143689Y-77035D01*
X143535Y-77189D01*
X143451Y-77391D01*
X143451Y-77609D01*
X143535Y-77811D01*
X143689Y-77965D01*
X143773Y-78000D01*
X143689Y-78035D01*
X143535Y-78189D01*
X143451Y-78391D01*
X143451Y-78609D01*
X143535Y-78811D01*
X143689Y-78965D01*
X143891Y-79049D01*
X144109Y-79049D01*
X144311Y-78965D01*
X144451Y-78825D01*
X144451Y-78849D01*
X144489Y-78941D01*
X144559Y-79011D01*
X144650Y-79049D01*
X144749Y-79049D01*
X145349Y-79049D01*
X145441Y-79011D01*
X145511Y-78941D01*
X145549Y-78850D01*
X145549Y-80675D01*
X81149Y-80675D01*
X81149Y-76629D01*
X81149Y-76371D01*
X81050Y-76132D01*
X80868Y-75950D01*
X80629Y-75851D01*
X80371Y-75851D01*
X80132Y-75950D01*
X79950Y-76132D01*
X79851Y-76371D01*
X79851Y-76629D01*
X79950Y-76868D01*
X80132Y-77050D01*
X80371Y-77149D01*
X80629Y-77149D01*
X80868Y-77050D01*
X81050Y-76868D01*
X81149Y-76629D01*
X81149Y-80675D01*
X79149Y-80675D01*
X79149Y-77629D01*
X79149Y-77371D01*
X79050Y-77132D01*
X78868Y-76950D01*
X78629Y-76851D01*
X78371Y-76851D01*
X78132Y-76950D01*
X77950Y-77132D01*
X77851Y-77371D01*
X77851Y-77629D01*
X77950Y-77868D01*
X78132Y-78050D01*
X78371Y-78149D01*
X78629Y-78149D01*
X78868Y-78050D01*
X79050Y-77868D01*
X79149Y-77629D01*
X79149Y-80675D01*
X77149Y-80675D01*
X77149Y-78629D01*
X77149Y-78371D01*
X77050Y-78132D01*
X76868Y-77950D01*
X76629Y-77851D01*
X76371Y-77851D01*
X76132Y-77950D01*
X75950Y-78132D01*
X75851Y-78371D01*
X75851Y-78629D01*
X75950Y-78868D01*
X76132Y-79050D01*
X76371Y-79149D01*
X76629Y-79149D01*
X76868Y-79050D01*
X77050Y-78868D01*
X77149Y-78629D01*
X77149Y-80675D01*
X13325Y-80675D01*
X13325Y-69325D01*
X152675Y-69325D01*
X152675Y-80675D01*
X152675Y-80675D01*
G37*
G54D16*
X152675Y-80675D02*
X145549Y-80675D01*
X145549Y-78850D01*
X145549Y-78751D01*
X145549Y-78151D01*
X145511Y-78059D01*
X145441Y-77989D01*
X145350Y-77951D01*
X145325Y-77951D01*
X145465Y-77811D01*
X145549Y-77609D01*
X145549Y-77391D01*
X145465Y-77189D01*
X145311Y-77035D01*
X145226Y-77000D01*
X145311Y-76965D01*
X145465Y-76811D01*
X145549Y-76609D01*
X145549Y-76391D01*
X145465Y-76189D01*
X145311Y-76035D01*
X145226Y-76000D01*
X145311Y-75965D01*
X145465Y-75811D01*
X145549Y-75609D01*
X145549Y-75391D01*
X145465Y-75189D01*
X145311Y-75035D01*
X145226Y-75000D01*
X145311Y-74965D01*
X145465Y-74811D01*
X145549Y-74609D01*
X145549Y-74391D01*
X145465Y-74189D01*
X145311Y-74035D01*
X145226Y-74000D01*
X145311Y-73965D01*
X145465Y-73811D01*
X145549Y-73609D01*
X145549Y-73391D01*
X145465Y-73189D01*
X145311Y-73035D01*
X145226Y-73000D01*
X145311Y-72965D01*
X145465Y-72811D01*
X145549Y-72609D01*
X145549Y-72391D01*
X145465Y-72189D01*
X145311Y-72035D01*
X145226Y-72000D01*
X145311Y-71965D01*
X145465Y-71811D01*
X145549Y-71609D01*
X145549Y-71391D01*
X145465Y-71189D01*
X145311Y-71035D01*
X145109Y-70951D01*
X144891Y-70951D01*
X144773Y-71000D01*
X144226Y-71000D01*
X144109Y-70951D01*
X143891Y-70951D01*
X143773Y-71000D01*
X127726Y-71000D01*
X127609Y-70951D01*
X127391Y-70951D01*
X127273Y-71000D01*
X126726Y-71000D01*
X126609Y-70951D01*
X126391Y-70951D01*
X126273Y-71000D01*
X121000Y-71000D01*
X120808Y-71038D01*
X120743Y-71081D01*
X120646Y-71146D01*
X120644Y-71148D01*
X119292Y-72500D01*
X117707Y-72500D01*
X116354Y-71146D01*
X116192Y-71038D01*
X116000Y-70999D01*
X115995Y-71000D01*
X110226Y-71000D01*
X110109Y-70951D01*
X109891Y-70951D01*
X109773Y-71000D01*
X109226Y-71000D01*
X109109Y-70951D01*
X108891Y-70951D01*
X108773Y-71000D01*
X92726Y-71000D01*
X92609Y-70951D01*
X92391Y-70951D01*
X92273Y-71000D01*
X91726Y-71000D01*
X91609Y-70951D01*
X91391Y-70951D01*
X91273Y-71000D01*
X90418Y-71000D01*
X90368Y-70950D01*
X90129Y-70851D01*
X89871Y-70851D01*
X89632Y-70950D01*
X89582Y-71000D01*
X75226Y-71000D01*
X75109Y-70951D01*
X74891Y-70951D01*
X74773Y-71000D01*
X74226Y-71000D01*
X74109Y-70951D01*
X73891Y-70951D01*
X73773Y-71000D01*
X69000Y-71000D01*
X68808Y-71038D01*
X68743Y-71081D01*
X68646Y-71146D01*
X68644Y-71148D01*
X67292Y-72500D01*
X65707Y-72500D01*
X64354Y-71146D01*
X64192Y-71038D01*
X64000Y-70999D01*
X63995Y-71000D01*
X57726Y-71000D01*
X57609Y-70951D01*
X57391Y-70951D01*
X57273Y-71000D01*
X56726Y-71000D01*
X56609Y-70951D01*
X56391Y-70951D01*
X56273Y-71000D01*
X40226Y-71000D01*
X40109Y-70951D01*
X39891Y-70951D01*
X39773Y-71000D01*
X39226Y-71000D01*
X39109Y-70951D01*
X38891Y-70951D01*
X38773Y-71000D01*
X22726Y-71000D01*
X22609Y-70951D01*
X22391Y-70951D01*
X22273Y-71000D01*
X21726Y-71000D01*
X21609Y-70951D01*
X21391Y-70951D01*
X21189Y-71035D01*
X21035Y-71189D01*
X20951Y-71391D01*
X20951Y-71609D01*
X21035Y-71811D01*
X21189Y-71965D01*
X21273Y-72000D01*
X21189Y-72035D01*
X21035Y-72189D01*
X20951Y-72391D01*
X20951Y-72609D01*
X21035Y-72811D01*
X21189Y-72965D01*
X21273Y-73000D01*
X21189Y-73035D01*
X21035Y-73189D01*
X20951Y-73391D01*
X20951Y-73609D01*
X21035Y-73811D01*
X21189Y-73965D01*
X21273Y-74000D01*
X21189Y-74035D01*
X21035Y-74189D01*
X20951Y-74391D01*
X20951Y-74609D01*
X21035Y-74811D01*
X21189Y-74965D01*
X21273Y-75000D01*
X21189Y-75035D01*
X21035Y-75189D01*
X20951Y-75391D01*
X20951Y-75609D01*
X21035Y-75811D01*
X21189Y-75965D01*
X21273Y-76000D01*
X21189Y-76035D01*
X21035Y-76189D01*
X20951Y-76391D01*
X20951Y-76609D01*
X21035Y-76811D01*
X21189Y-76965D01*
X21273Y-77000D01*
X21189Y-77035D01*
X21035Y-77189D01*
X20951Y-77391D01*
X20951Y-77609D01*
X21035Y-77811D01*
X21189Y-77965D01*
X21273Y-78000D01*
X21189Y-78035D01*
X21035Y-78189D01*
X20951Y-78391D01*
X20951Y-78609D01*
X21035Y-78811D01*
X21189Y-78965D01*
X21391Y-79049D01*
X21609Y-79049D01*
X21811Y-78965D01*
X21951Y-78825D01*
X21951Y-78849D01*
X21989Y-78941D01*
X22059Y-79011D01*
X22150Y-79049D01*
X22249Y-79049D01*
X22849Y-79049D01*
X22941Y-79011D01*
X23011Y-78941D01*
X23049Y-78850D01*
X23049Y-78751D01*
X23049Y-78151D01*
X23011Y-78059D01*
X22941Y-77989D01*
X22850Y-77951D01*
X22825Y-77951D01*
X22965Y-77811D01*
X23049Y-77609D01*
X23049Y-77391D01*
X22965Y-77189D01*
X22811Y-77035D01*
X22726Y-77000D01*
X22811Y-76965D01*
X22965Y-76811D01*
X23049Y-76609D01*
X23049Y-76391D01*
X22965Y-76189D01*
X22811Y-76035D01*
X22726Y-76000D01*
X22811Y-75965D01*
X22965Y-75811D01*
X23049Y-75609D01*
X23049Y-75391D01*
X22965Y-75189D01*
X22811Y-75035D01*
X22726Y-75000D01*
X38773Y-75000D01*
X38689Y-75035D01*
X38535Y-75189D01*
X38451Y-75391D01*
X38451Y-75609D01*
X38535Y-75811D01*
X38689Y-75965D01*
X38773Y-76000D01*
X38689Y-76035D01*
X38535Y-76189D01*
X38451Y-76391D01*
X38451Y-76609D01*
X38535Y-76811D01*
X38689Y-76965D01*
X38773Y-77000D01*
X38689Y-77035D01*
X38535Y-77189D01*
X38451Y-77391D01*
X38451Y-77609D01*
X38535Y-77811D01*
X38689Y-77965D01*
X38773Y-78000D01*
X38689Y-78035D01*
X38535Y-78189D01*
X38451Y-78391D01*
X38451Y-78609D01*
X38535Y-78811D01*
X38689Y-78965D01*
X38891Y-79049D01*
X39109Y-79049D01*
X39311Y-78965D01*
X39451Y-78825D01*
X39451Y-78849D01*
X39489Y-78941D01*
X39559Y-79011D01*
X39650Y-79049D01*
X39749Y-79049D01*
X40349Y-79049D01*
X40441Y-79011D01*
X40511Y-78941D01*
X40549Y-78850D01*
X40549Y-78751D01*
X40549Y-78151D01*
X40511Y-78059D01*
X40441Y-77989D01*
X40350Y-77951D01*
X40325Y-77951D01*
X40465Y-77811D01*
X40549Y-77609D01*
X40549Y-77391D01*
X40465Y-77189D01*
X40311Y-77035D01*
X40226Y-77000D01*
X40311Y-76965D01*
X40465Y-76811D01*
X40549Y-76609D01*
X40549Y-76391D01*
X40465Y-76189D01*
X40311Y-76035D01*
X40226Y-76000D01*
X40311Y-75965D01*
X40465Y-75811D01*
X40549Y-75609D01*
X40549Y-75391D01*
X40465Y-75189D01*
X40311Y-75035D01*
X40226Y-75000D01*
X56273Y-75000D01*
X56189Y-75035D01*
X56035Y-75189D01*
X55951Y-75391D01*
X55951Y-75609D01*
X56035Y-75811D01*
X56189Y-75965D01*
X56273Y-76000D01*
X56189Y-76035D01*
X56035Y-76189D01*
X55951Y-76391D01*
X55951Y-76609D01*
X56035Y-76811D01*
X56189Y-76965D01*
X56273Y-77000D01*
X56189Y-77035D01*
X56035Y-77189D01*
X55951Y-77391D01*
X55951Y-77609D01*
X56035Y-77811D01*
X56189Y-77965D01*
X56273Y-78000D01*
X56189Y-78035D01*
X56035Y-78189D01*
X55951Y-78391D01*
X55951Y-78609D01*
X56035Y-78811D01*
X56189Y-78965D01*
X56391Y-79049D01*
X56609Y-79049D01*
X56811Y-78965D01*
X56951Y-78825D01*
X56951Y-78849D01*
X56989Y-78941D01*
X57059Y-79011D01*
X57150Y-79049D01*
X57249Y-79049D01*
X57849Y-79049D01*
X57941Y-79011D01*
X58011Y-78941D01*
X58049Y-78850D01*
X58049Y-78751D01*
X58049Y-78151D01*
X58011Y-78059D01*
X57941Y-77989D01*
X57850Y-77951D01*
X57825Y-77951D01*
X57965Y-77811D01*
X58049Y-77609D01*
X58049Y-77391D01*
X57965Y-77189D01*
X57811Y-77035D01*
X57726Y-77000D01*
X57811Y-76965D01*
X57965Y-76811D01*
X58049Y-76609D01*
X58049Y-76391D01*
X57965Y-76189D01*
X57811Y-76035D01*
X57726Y-76000D01*
X57811Y-75965D01*
X57965Y-75811D01*
X58049Y-75609D01*
X58049Y-75391D01*
X57965Y-75189D01*
X57811Y-75035D01*
X57726Y-75000D01*
X62292Y-75000D01*
X63644Y-76351D01*
X63646Y-76354D01*
X63743Y-76418D01*
X63808Y-76462D01*
X63809Y-76462D01*
X64000Y-76500D01*
X68995Y-76500D01*
X69000Y-76501D01*
X69000Y-76500D01*
X69191Y-76462D01*
X69192Y-76462D01*
X69354Y-76354D01*
X70707Y-75000D01*
X73773Y-75000D01*
X73689Y-75035D01*
X73535Y-75189D01*
X73451Y-75391D01*
X73451Y-75609D01*
X73535Y-75811D01*
X73689Y-75965D01*
X73773Y-76000D01*
X73689Y-76035D01*
X73535Y-76189D01*
X73451Y-76391D01*
X73451Y-76609D01*
X73535Y-76811D01*
X73689Y-76965D01*
X73773Y-77000D01*
X73689Y-77035D01*
X73535Y-77189D01*
X73451Y-77391D01*
X73451Y-77609D01*
X73535Y-77811D01*
X73689Y-77965D01*
X73773Y-78000D01*
X73689Y-78035D01*
X73535Y-78189D01*
X73451Y-78391D01*
X73451Y-78609D01*
X73535Y-78811D01*
X73689Y-78965D01*
X73891Y-79049D01*
X74109Y-79049D01*
X74311Y-78965D01*
X74451Y-78825D01*
X74451Y-78849D01*
X74489Y-78941D01*
X74559Y-79011D01*
X74650Y-79049D01*
X74749Y-79049D01*
X75349Y-79049D01*
X75441Y-79011D01*
X75511Y-78941D01*
X75549Y-78850D01*
X75549Y-78751D01*
X75549Y-78151D01*
X75511Y-78059D01*
X75441Y-77989D01*
X75350Y-77951D01*
X75325Y-77951D01*
X75465Y-77811D01*
X75549Y-77609D01*
X75549Y-77391D01*
X75465Y-77189D01*
X75311Y-77035D01*
X75226Y-77000D01*
X75311Y-76965D01*
X75465Y-76811D01*
X75549Y-76609D01*
X75549Y-76391D01*
X75465Y-76189D01*
X75311Y-76035D01*
X75226Y-76000D01*
X75311Y-75965D01*
X75465Y-75811D01*
X75549Y-75609D01*
X75549Y-75391D01*
X75465Y-75189D01*
X75311Y-75035D01*
X75226Y-75000D01*
X82082Y-75000D01*
X81950Y-75132D01*
X81851Y-75371D01*
X81851Y-75629D01*
X81950Y-75868D01*
X82132Y-76050D01*
X82371Y-76149D01*
X82629Y-76149D01*
X82868Y-76050D01*
X83050Y-75868D01*
X83149Y-75629D01*
X83149Y-75371D01*
X83050Y-75132D01*
X82918Y-75000D01*
X84082Y-75000D01*
X84132Y-75050D01*
X84371Y-75149D01*
X84629Y-75149D01*
X84868Y-75050D01*
X84918Y-75000D01*
X91273Y-75000D01*
X91189Y-75035D01*
X91035Y-75189D01*
X90951Y-75391D01*
X90951Y-75609D01*
X91035Y-75811D01*
X91189Y-75965D01*
X91273Y-76000D01*
X91189Y-76035D01*
X91035Y-76189D01*
X90951Y-76391D01*
X90951Y-76609D01*
X91035Y-76811D01*
X91189Y-76965D01*
X91273Y-77000D01*
X91189Y-77035D01*
X91035Y-77189D01*
X90951Y-77391D01*
X90951Y-77609D01*
X91035Y-77811D01*
X91189Y-77965D01*
X91273Y-78000D01*
X91189Y-78035D01*
X91035Y-78189D01*
X90951Y-78391D01*
X90951Y-78609D01*
X91035Y-78811D01*
X91189Y-78965D01*
X91391Y-79049D01*
X91609Y-79049D01*
X91811Y-78965D01*
X91951Y-78825D01*
X91951Y-78849D01*
X91989Y-78941D01*
X92059Y-79011D01*
X92150Y-79049D01*
X92249Y-79049D01*
X92849Y-79049D01*
X92941Y-79011D01*
X93011Y-78941D01*
X93049Y-78850D01*
X93049Y-78751D01*
X93049Y-78151D01*
X93011Y-78059D01*
X92941Y-77989D01*
X92850Y-77951D01*
X92825Y-77951D01*
X92965Y-77811D01*
X93049Y-77609D01*
X93049Y-77391D01*
X92965Y-77189D01*
X92811Y-77035D01*
X92726Y-77000D01*
X92811Y-76965D01*
X92965Y-76811D01*
X93049Y-76609D01*
X93049Y-76391D01*
X92965Y-76189D01*
X92811Y-76035D01*
X92726Y-76000D01*
X92811Y-75965D01*
X92965Y-75811D01*
X93049Y-75609D01*
X93049Y-75391D01*
X92965Y-75189D01*
X92811Y-75035D01*
X92726Y-75000D01*
X108773Y-75000D01*
X108689Y-75035D01*
X108535Y-75189D01*
X108451Y-75391D01*
X108451Y-75609D01*
X108535Y-75811D01*
X108689Y-75965D01*
X108773Y-76000D01*
X108689Y-76035D01*
X108535Y-76189D01*
X108451Y-76391D01*
X108451Y-76609D01*
X108535Y-76811D01*
X108689Y-76965D01*
X108773Y-77000D01*
X108689Y-77035D01*
X108535Y-77189D01*
X108451Y-77391D01*
X108451Y-77609D01*
X108535Y-77811D01*
X108689Y-77965D01*
X108773Y-78000D01*
X108689Y-78035D01*
X108535Y-78189D01*
X108451Y-78391D01*
X108451Y-78609D01*
X108535Y-78811D01*
X108689Y-78965D01*
X108891Y-79049D01*
X109109Y-79049D01*
X109311Y-78965D01*
X109451Y-78825D01*
X109451Y-78849D01*
X109489Y-78941D01*
X109559Y-79011D01*
X109650Y-79049D01*
X109749Y-79049D01*
X110349Y-79049D01*
X110441Y-79011D01*
X110511Y-78941D01*
X110549Y-78850D01*
X110549Y-78751D01*
X110549Y-78151D01*
X110511Y-78059D01*
X110441Y-77989D01*
X110350Y-77951D01*
X110325Y-77951D01*
X110465Y-77811D01*
X110549Y-77609D01*
X110549Y-77391D01*
X110465Y-77189D01*
X110311Y-77035D01*
X110226Y-77000D01*
X110311Y-76965D01*
X110465Y-76811D01*
X110549Y-76609D01*
X110549Y-76391D01*
X110465Y-76189D01*
X110311Y-76035D01*
X110226Y-76000D01*
X110311Y-75965D01*
X110465Y-75811D01*
X110549Y-75609D01*
X110549Y-75391D01*
X110465Y-75189D01*
X110311Y-75035D01*
X110226Y-75000D01*
X114292Y-75000D01*
X115644Y-76351D01*
X115646Y-76354D01*
X115743Y-76418D01*
X115808Y-76462D01*
X115809Y-76462D01*
X116000Y-76500D01*
X120995Y-76500D01*
X121000Y-76501D01*
X121000Y-76500D01*
X121191Y-76462D01*
X121192Y-76462D01*
X121354Y-76354D01*
X122707Y-75000D01*
X126273Y-75000D01*
X126189Y-75035D01*
X126035Y-75189D01*
X125951Y-75391D01*
X125951Y-75609D01*
X126035Y-75811D01*
X126189Y-75965D01*
X126273Y-76000D01*
X126189Y-76035D01*
X126035Y-76189D01*
X125951Y-76391D01*
X125951Y-76609D01*
X126035Y-76811D01*
X126189Y-76965D01*
X126273Y-77000D01*
X126189Y-77035D01*
X126035Y-77189D01*
X125951Y-77391D01*
X125951Y-77609D01*
X126035Y-77811D01*
X126189Y-77965D01*
X126273Y-78000D01*
X126189Y-78035D01*
X126035Y-78189D01*
X125951Y-78391D01*
X125951Y-78609D01*
X126035Y-78811D01*
X126189Y-78965D01*
X126391Y-79049D01*
X126609Y-79049D01*
X126811Y-78965D01*
X126951Y-78825D01*
X126951Y-78849D01*
X126989Y-78941D01*
X127059Y-79011D01*
X127150Y-79049D01*
X127249Y-79049D01*
X127849Y-79049D01*
X127941Y-79011D01*
X128011Y-78941D01*
X128049Y-78850D01*
X128049Y-78751D01*
X128049Y-78151D01*
X128011Y-78059D01*
X127941Y-77989D01*
X127850Y-77951D01*
X127825Y-77951D01*
X127965Y-77811D01*
X128049Y-77609D01*
X128049Y-77391D01*
X127965Y-77189D01*
X127811Y-77035D01*
X127726Y-77000D01*
X127811Y-76965D01*
X127965Y-76811D01*
X128049Y-76609D01*
X128049Y-76391D01*
X127965Y-76189D01*
X127811Y-76035D01*
X127726Y-76000D01*
X127811Y-75965D01*
X127965Y-75811D01*
X128049Y-75609D01*
X128049Y-75391D01*
X127965Y-75189D01*
X127811Y-75035D01*
X127726Y-75000D01*
X143773Y-75000D01*
X143689Y-75035D01*
X143535Y-75189D01*
X143451Y-75391D01*
X143451Y-75609D01*
X143535Y-75811D01*
X143689Y-75965D01*
X143773Y-76000D01*
X143689Y-76035D01*
X143535Y-76189D01*
X143451Y-76391D01*
X143451Y-76609D01*
X143535Y-76811D01*
X143689Y-76965D01*
X143773Y-77000D01*
X143689Y-77035D01*
X143535Y-77189D01*
X143451Y-77391D01*
X143451Y-77609D01*
X143535Y-77811D01*
X143689Y-77965D01*
X143773Y-78000D01*
X143689Y-78035D01*
X143535Y-78189D01*
X143451Y-78391D01*
X143451Y-78609D01*
X143535Y-78811D01*
X143689Y-78965D01*
X143891Y-79049D01*
X144109Y-79049D01*
X144311Y-78965D01*
X144451Y-78825D01*
X144451Y-78849D01*
X144489Y-78941D01*
X144559Y-79011D01*
X144650Y-79049D01*
X144749Y-79049D01*
X145349Y-79049D01*
X145441Y-79011D01*
X145511Y-78941D01*
X145549Y-78850D01*
X145549Y-80675D01*
X81149Y-80675D01*
X81149Y-76629D01*
X81149Y-76371D01*
X81050Y-76132D01*
X80868Y-75950D01*
X80629Y-75851D01*
X80371Y-75851D01*
X80132Y-75950D01*
X79950Y-76132D01*
X79851Y-76371D01*
X79851Y-76629D01*
X79950Y-76868D01*
X80132Y-77050D01*
X80371Y-77149D01*
X80629Y-77149D01*
X80868Y-77050D01*
X81050Y-76868D01*
X81149Y-76629D01*
X81149Y-80675D01*
X79149Y-80675D01*
X79149Y-77629D01*
X79149Y-77371D01*
X79050Y-77132D01*
X78868Y-76950D01*
X78629Y-76851D01*
X78371Y-76851D01*
X78132Y-76950D01*
X77950Y-77132D01*
X77851Y-77371D01*
X77851Y-77629D01*
X77950Y-77868D01*
X78132Y-78050D01*
X78371Y-78149D01*
X78629Y-78149D01*
X78868Y-78050D01*
X79050Y-77868D01*
X79149Y-77629D01*
X79149Y-80675D01*
X77149Y-80675D01*
X77149Y-78629D01*
X77149Y-78371D01*
X77050Y-78132D01*
X76868Y-77950D01*
X76629Y-77851D01*
X76371Y-77851D01*
X76132Y-77950D01*
X75950Y-78132D01*
X75851Y-78371D01*
X75851Y-78629D01*
X75950Y-78868D01*
X76132Y-79050D01*
X76371Y-79149D01*
X76629Y-79149D01*
X76868Y-79050D01*
X77050Y-78868D01*
X77149Y-78629D01*
X77149Y-80675D01*
X13325Y-80675D01*
X13325Y-69325D01*
X152675Y-69325D01*
X152675Y-80675D01*
M02*
