G04 (created by PCBNEW-RS274X (2012-01-19 BZR 3256)-stable) date 12/6/2012 11:22:42 PM*
G01*
G70*
G90*
%MOIN*%
G04 Gerber Fmt 3.4, Leading zero omitted, Abs format*
%FSLAX34Y34*%
G04 APERTURE LIST*
%ADD10C,0.006000*%
%ADD11C,0.160000*%
%ADD12R,0.060000X0.060000*%
%ADD13C,0.060000*%
%ADD14C,0.080000*%
%ADD15C,0.050000*%
%ADD16C,0.010000*%
G04 APERTURE END LIST*
G54D10*
G54D11*
X101000Y-79000D03*
X118500Y-71000D03*
X66500Y-71000D03*
X48500Y-79000D03*
X150500Y-71500D03*
X15500Y-78500D03*
G54D12*
X22500Y-78500D03*
G54D13*
X21500Y-78500D03*
X22500Y-77500D03*
X21500Y-77500D03*
X22500Y-76500D03*
X21500Y-76500D03*
X22500Y-75500D03*
X21500Y-75500D03*
X22500Y-74500D03*
X21500Y-74500D03*
X22500Y-73500D03*
X21500Y-73500D03*
X22500Y-72500D03*
X21500Y-72500D03*
X22500Y-71500D03*
X21500Y-71500D03*
G54D12*
X40000Y-78500D03*
G54D13*
X39000Y-78500D03*
X40000Y-77500D03*
X39000Y-77500D03*
X40000Y-76500D03*
X39000Y-76500D03*
X40000Y-75500D03*
X39000Y-75500D03*
X40000Y-74500D03*
X39000Y-74500D03*
X40000Y-73500D03*
X39000Y-73500D03*
X40000Y-72500D03*
X39000Y-72500D03*
X40000Y-71500D03*
X39000Y-71500D03*
G54D12*
X57500Y-78500D03*
G54D13*
X56500Y-78500D03*
X57500Y-77500D03*
X56500Y-77500D03*
X57500Y-76500D03*
X56500Y-76500D03*
X57500Y-75500D03*
X56500Y-75500D03*
X57500Y-74500D03*
X56500Y-74500D03*
X57500Y-73500D03*
X56500Y-73500D03*
X57500Y-72500D03*
X56500Y-72500D03*
X57500Y-71500D03*
X56500Y-71500D03*
G54D12*
X75000Y-78500D03*
G54D13*
X74000Y-78500D03*
X75000Y-77500D03*
X74000Y-77500D03*
X75000Y-76500D03*
X74000Y-76500D03*
X75000Y-75500D03*
X74000Y-75500D03*
X75000Y-74500D03*
X74000Y-74500D03*
X75000Y-73500D03*
X74000Y-73500D03*
X75000Y-72500D03*
X74000Y-72500D03*
X75000Y-71500D03*
X74000Y-71500D03*
G54D12*
X92500Y-78500D03*
G54D13*
X91500Y-78500D03*
X92500Y-77500D03*
X91500Y-77500D03*
X92500Y-76500D03*
X91500Y-76500D03*
X92500Y-75500D03*
X91500Y-75500D03*
X92500Y-74500D03*
X91500Y-74500D03*
X92500Y-73500D03*
X91500Y-73500D03*
X92500Y-72500D03*
X91500Y-72500D03*
X92500Y-71500D03*
X91500Y-71500D03*
G54D12*
X110000Y-78500D03*
G54D13*
X109000Y-78500D03*
X110000Y-77500D03*
X109000Y-77500D03*
X110000Y-76500D03*
X109000Y-76500D03*
X110000Y-75500D03*
X109000Y-75500D03*
X110000Y-74500D03*
X109000Y-74500D03*
X110000Y-73500D03*
X109000Y-73500D03*
X110000Y-72500D03*
X109000Y-72500D03*
X110000Y-71500D03*
X109000Y-71500D03*
G54D12*
X127500Y-78500D03*
G54D13*
X126500Y-78500D03*
X127500Y-77500D03*
X126500Y-77500D03*
X127500Y-76500D03*
X126500Y-76500D03*
X127500Y-75500D03*
X126500Y-75500D03*
X127500Y-74500D03*
X126500Y-74500D03*
X127500Y-73500D03*
X126500Y-73500D03*
X127500Y-72500D03*
X126500Y-72500D03*
X127500Y-71500D03*
X126500Y-71500D03*
G54D12*
X145000Y-78500D03*
G54D13*
X144000Y-78500D03*
X145000Y-77500D03*
X144000Y-77500D03*
X145000Y-76500D03*
X144000Y-76500D03*
X145000Y-75500D03*
X144000Y-75500D03*
X145000Y-74500D03*
X144000Y-74500D03*
X145000Y-73500D03*
X144000Y-73500D03*
X145000Y-72500D03*
X144000Y-72500D03*
X145000Y-71500D03*
X144000Y-71500D03*
G54D11*
X15500Y-71500D03*
G54D14*
X84500Y-74500D03*
X86500Y-73500D03*
X90000Y-71500D03*
X88500Y-72500D03*
X80500Y-76500D03*
X82500Y-75500D03*
X78500Y-77500D03*
X76500Y-78500D03*
G54D11*
X150500Y-78500D03*
G54D15*
X23500Y-71500D02*
X27500Y-71500D01*
X105000Y-75500D02*
X145000Y-75500D01*
X46000Y-74000D02*
X51000Y-74000D01*
X52500Y-75500D02*
X96500Y-75500D01*
X103500Y-74000D02*
X105000Y-75500D01*
X21500Y-75500D02*
X44500Y-75500D01*
X44500Y-75500D02*
X46000Y-74000D01*
X98000Y-74000D02*
X103500Y-74000D01*
X51000Y-74000D02*
X52500Y-75500D01*
X96500Y-75500D02*
X98000Y-74000D01*
X45000Y-76500D02*
X46500Y-75000D01*
X52000Y-76500D02*
X97000Y-76500D01*
X98500Y-75000D02*
X103000Y-75000D01*
X21500Y-76500D02*
X45000Y-76500D01*
X103000Y-75000D02*
X104500Y-76500D01*
X104500Y-76500D02*
X145000Y-76500D01*
X50500Y-75000D02*
X52000Y-76500D01*
X97000Y-76500D02*
X98500Y-75000D01*
X46500Y-75000D02*
X50500Y-75000D01*
X104000Y-77500D02*
X145000Y-77500D01*
X50000Y-76000D02*
X51500Y-77500D01*
X21500Y-77500D02*
X45500Y-77500D01*
X51500Y-77500D02*
X97500Y-77500D01*
X97500Y-77500D02*
X99000Y-76000D01*
X99000Y-76000D02*
X102500Y-76000D01*
X47000Y-76000D02*
X50000Y-76000D01*
X102500Y-76000D02*
X104000Y-77500D01*
X45500Y-77500D02*
X47000Y-76000D01*
X46000Y-78500D02*
X47500Y-77000D01*
X47500Y-77000D02*
X49500Y-77000D01*
X49500Y-77000D02*
X51000Y-78500D01*
X51000Y-78500D02*
X98000Y-78500D01*
X98000Y-78500D02*
X99500Y-77000D01*
X99500Y-77000D02*
X102000Y-77000D01*
X102000Y-77000D02*
X103500Y-78500D01*
X103500Y-78500D02*
X145000Y-78500D01*
X21500Y-78500D02*
X46000Y-78500D01*
G54D10*
G36*
X152675Y-80675D02*
X145549Y-80675D01*
X145549Y-78850D01*
X145549Y-78751D01*
X145549Y-78151D01*
X145511Y-78059D01*
X145441Y-77989D01*
X145350Y-77951D01*
X145325Y-77951D01*
X145465Y-77811D01*
X145549Y-77609D01*
X145549Y-77391D01*
X145465Y-77189D01*
X145311Y-77035D01*
X145226Y-77000D01*
X145311Y-76965D01*
X145465Y-76811D01*
X145549Y-76609D01*
X145549Y-76391D01*
X145465Y-76189D01*
X145311Y-76035D01*
X145226Y-76000D01*
X145311Y-75965D01*
X145465Y-75811D01*
X145549Y-75609D01*
X145549Y-75391D01*
X145465Y-75189D01*
X145311Y-75035D01*
X145226Y-75000D01*
X145311Y-74965D01*
X145465Y-74811D01*
X145549Y-74609D01*
X145549Y-74391D01*
X145465Y-74189D01*
X145311Y-74035D01*
X145226Y-74000D01*
X145311Y-73965D01*
X145465Y-73811D01*
X145549Y-73609D01*
X145549Y-73391D01*
X145465Y-73189D01*
X145311Y-73035D01*
X145226Y-73000D01*
X145311Y-72965D01*
X145465Y-72811D01*
X145549Y-72609D01*
X145549Y-72391D01*
X145465Y-72189D01*
X145311Y-72035D01*
X145226Y-72000D01*
X145311Y-71965D01*
X145465Y-71811D01*
X145549Y-71609D01*
X145549Y-71391D01*
X145465Y-71189D01*
X145311Y-71035D01*
X145109Y-70951D01*
X144891Y-70951D01*
X144689Y-71035D01*
X144535Y-71189D01*
X144500Y-71273D01*
X144465Y-71189D01*
X144311Y-71035D01*
X144109Y-70951D01*
X143891Y-70951D01*
X143689Y-71035D01*
X143535Y-71189D01*
X143451Y-71391D01*
X143451Y-71609D01*
X143535Y-71811D01*
X143689Y-71965D01*
X143773Y-72000D01*
X143689Y-72035D01*
X143535Y-72189D01*
X143451Y-72391D01*
X143451Y-72609D01*
X143535Y-72811D01*
X143689Y-72965D01*
X143773Y-73000D01*
X143689Y-73035D01*
X143535Y-73189D01*
X143451Y-73391D01*
X143451Y-73609D01*
X143535Y-73811D01*
X143689Y-73965D01*
X143773Y-74000D01*
X143689Y-74035D01*
X143535Y-74189D01*
X143451Y-74391D01*
X143451Y-74609D01*
X143535Y-74811D01*
X143689Y-74965D01*
X143773Y-75000D01*
X127726Y-75000D01*
X127811Y-74965D01*
X127965Y-74811D01*
X128049Y-74609D01*
X128049Y-74391D01*
X127965Y-74189D01*
X127811Y-74035D01*
X127726Y-74000D01*
X127811Y-73965D01*
X127965Y-73811D01*
X128049Y-73609D01*
X128049Y-73391D01*
X127965Y-73189D01*
X127811Y-73035D01*
X127726Y-73000D01*
X127811Y-72965D01*
X127965Y-72811D01*
X128049Y-72609D01*
X128049Y-72391D01*
X127965Y-72189D01*
X127811Y-72035D01*
X127726Y-72000D01*
X127811Y-71965D01*
X127965Y-71811D01*
X128049Y-71609D01*
X128049Y-71391D01*
X127965Y-71189D01*
X127811Y-71035D01*
X127609Y-70951D01*
X127391Y-70951D01*
X127189Y-71035D01*
X127035Y-71189D01*
X127000Y-71273D01*
X126965Y-71189D01*
X126811Y-71035D01*
X126609Y-70951D01*
X126391Y-70951D01*
X126189Y-71035D01*
X126035Y-71189D01*
X125951Y-71391D01*
X125951Y-71609D01*
X126035Y-71811D01*
X126189Y-71965D01*
X126273Y-72000D01*
X126189Y-72035D01*
X126035Y-72189D01*
X125951Y-72391D01*
X125951Y-72609D01*
X126035Y-72811D01*
X126189Y-72965D01*
X126273Y-73000D01*
X126189Y-73035D01*
X126035Y-73189D01*
X125951Y-73391D01*
X125951Y-73609D01*
X126035Y-73811D01*
X126189Y-73965D01*
X126273Y-74000D01*
X126189Y-74035D01*
X126035Y-74189D01*
X125951Y-74391D01*
X125951Y-74609D01*
X126035Y-74811D01*
X126189Y-74965D01*
X126273Y-75000D01*
X110226Y-75000D01*
X110311Y-74965D01*
X110465Y-74811D01*
X110549Y-74609D01*
X110549Y-74391D01*
X110465Y-74189D01*
X110311Y-74035D01*
X110226Y-74000D01*
X110311Y-73965D01*
X110465Y-73811D01*
X110549Y-73609D01*
X110549Y-73391D01*
X110465Y-73189D01*
X110311Y-73035D01*
X110226Y-73000D01*
X110311Y-72965D01*
X110465Y-72811D01*
X110549Y-72609D01*
X110549Y-72391D01*
X110465Y-72189D01*
X110311Y-72035D01*
X110226Y-72000D01*
X110311Y-71965D01*
X110465Y-71811D01*
X110549Y-71609D01*
X110549Y-71391D01*
X110465Y-71189D01*
X110311Y-71035D01*
X110109Y-70951D01*
X109891Y-70951D01*
X109689Y-71035D01*
X109535Y-71189D01*
X109500Y-71273D01*
X109465Y-71189D01*
X109311Y-71035D01*
X109109Y-70951D01*
X108891Y-70951D01*
X108689Y-71035D01*
X108535Y-71189D01*
X108451Y-71391D01*
X108451Y-71609D01*
X108535Y-71811D01*
X108689Y-71965D01*
X108773Y-72000D01*
X108689Y-72035D01*
X108535Y-72189D01*
X108451Y-72391D01*
X108451Y-72609D01*
X108535Y-72811D01*
X108689Y-72965D01*
X108773Y-73000D01*
X108689Y-73035D01*
X108535Y-73189D01*
X108451Y-73391D01*
X108451Y-73609D01*
X108535Y-73811D01*
X108689Y-73965D01*
X108773Y-74000D01*
X108689Y-74035D01*
X108535Y-74189D01*
X108451Y-74391D01*
X108451Y-74609D01*
X108535Y-74811D01*
X108689Y-74965D01*
X108773Y-75000D01*
X105207Y-75000D01*
X103854Y-73646D01*
X103692Y-73538D01*
X103500Y-73499D01*
X103495Y-73500D01*
X98000Y-73500D01*
X97808Y-73538D01*
X97743Y-73581D01*
X97646Y-73646D01*
X97644Y-73648D01*
X96292Y-75000D01*
X92726Y-75000D01*
X92811Y-74965D01*
X92965Y-74811D01*
X93049Y-74609D01*
X93049Y-74391D01*
X92965Y-74189D01*
X92811Y-74035D01*
X92726Y-74000D01*
X92811Y-73965D01*
X92965Y-73811D01*
X93049Y-73609D01*
X93049Y-73391D01*
X92965Y-73189D01*
X92811Y-73035D01*
X92726Y-73000D01*
X92811Y-72965D01*
X92965Y-72811D01*
X93049Y-72609D01*
X93049Y-72391D01*
X92965Y-72189D01*
X92811Y-72035D01*
X92726Y-72000D01*
X92811Y-71965D01*
X92965Y-71811D01*
X93049Y-71609D01*
X93049Y-71391D01*
X92965Y-71189D01*
X92811Y-71035D01*
X92609Y-70951D01*
X92391Y-70951D01*
X92189Y-71035D01*
X92035Y-71189D01*
X92000Y-71273D01*
X91965Y-71189D01*
X91811Y-71035D01*
X91609Y-70951D01*
X91391Y-70951D01*
X91189Y-71035D01*
X91035Y-71189D01*
X90951Y-71391D01*
X90951Y-71609D01*
X91035Y-71811D01*
X91189Y-71965D01*
X91273Y-72000D01*
X91189Y-72035D01*
X91035Y-72189D01*
X90951Y-72391D01*
X90951Y-72609D01*
X91035Y-72811D01*
X91189Y-72965D01*
X91273Y-73000D01*
X91189Y-73035D01*
X91035Y-73189D01*
X90951Y-73391D01*
X90951Y-73609D01*
X91035Y-73811D01*
X91189Y-73965D01*
X91273Y-74000D01*
X91189Y-74035D01*
X91035Y-74189D01*
X90951Y-74391D01*
X90951Y-74609D01*
X91035Y-74811D01*
X91189Y-74965D01*
X91273Y-75000D01*
X90649Y-75000D01*
X90649Y-71629D01*
X90649Y-71371D01*
X90550Y-71132D01*
X90368Y-70950D01*
X90129Y-70851D01*
X89871Y-70851D01*
X89632Y-70950D01*
X89450Y-71132D01*
X89351Y-71371D01*
X89351Y-71629D01*
X89450Y-71868D01*
X89632Y-72050D01*
X89871Y-72149D01*
X90129Y-72149D01*
X90368Y-72050D01*
X90550Y-71868D01*
X90649Y-71629D01*
X90649Y-75000D01*
X89149Y-75000D01*
X89149Y-72629D01*
X89149Y-72371D01*
X89050Y-72132D01*
X88868Y-71950D01*
X88629Y-71851D01*
X88371Y-71851D01*
X88132Y-71950D01*
X87950Y-72132D01*
X87851Y-72371D01*
X87851Y-72629D01*
X87950Y-72868D01*
X88132Y-73050D01*
X88371Y-73149D01*
X88629Y-73149D01*
X88868Y-73050D01*
X89050Y-72868D01*
X89149Y-72629D01*
X89149Y-75000D01*
X87149Y-75000D01*
X87149Y-73629D01*
X87149Y-73371D01*
X87050Y-73132D01*
X86868Y-72950D01*
X86629Y-72851D01*
X86371Y-72851D01*
X86132Y-72950D01*
X85950Y-73132D01*
X85851Y-73371D01*
X85851Y-73629D01*
X85950Y-73868D01*
X86132Y-74050D01*
X86371Y-74149D01*
X86629Y-74149D01*
X86868Y-74050D01*
X87050Y-73868D01*
X87149Y-73629D01*
X87149Y-75000D01*
X84918Y-75000D01*
X85050Y-74868D01*
X85149Y-74629D01*
X85149Y-74371D01*
X85050Y-74132D01*
X84868Y-73950D01*
X84629Y-73851D01*
X84371Y-73851D01*
X84132Y-73950D01*
X83950Y-74132D01*
X83851Y-74371D01*
X83851Y-74629D01*
X83950Y-74868D01*
X84082Y-75000D01*
X82918Y-75000D01*
X82868Y-74950D01*
X82629Y-74851D01*
X82371Y-74851D01*
X82132Y-74950D01*
X82082Y-75000D01*
X75226Y-75000D01*
X75311Y-74965D01*
X75465Y-74811D01*
X75549Y-74609D01*
X75549Y-74391D01*
X75465Y-74189D01*
X75311Y-74035D01*
X75226Y-74000D01*
X75311Y-73965D01*
X75465Y-73811D01*
X75549Y-73609D01*
X75549Y-73391D01*
X75465Y-73189D01*
X75311Y-73035D01*
X75226Y-73000D01*
X75311Y-72965D01*
X75465Y-72811D01*
X75549Y-72609D01*
X75549Y-72391D01*
X75465Y-72189D01*
X75311Y-72035D01*
X75226Y-72000D01*
X75311Y-71965D01*
X75465Y-71811D01*
X75549Y-71609D01*
X75549Y-71391D01*
X75465Y-71189D01*
X75311Y-71035D01*
X75109Y-70951D01*
X74891Y-70951D01*
X74689Y-71035D01*
X74535Y-71189D01*
X74500Y-71273D01*
X74465Y-71189D01*
X74311Y-71035D01*
X74109Y-70951D01*
X73891Y-70951D01*
X73689Y-71035D01*
X73535Y-71189D01*
X73451Y-71391D01*
X73451Y-71609D01*
X73535Y-71811D01*
X73689Y-71965D01*
X73773Y-72000D01*
X73689Y-72035D01*
X73535Y-72189D01*
X73451Y-72391D01*
X73451Y-72609D01*
X73535Y-72811D01*
X73689Y-72965D01*
X73773Y-73000D01*
X73689Y-73035D01*
X73535Y-73189D01*
X73451Y-73391D01*
X73451Y-73609D01*
X73535Y-73811D01*
X73689Y-73965D01*
X73773Y-74000D01*
X73689Y-74035D01*
X73535Y-74189D01*
X73451Y-74391D01*
X73451Y-74609D01*
X73535Y-74811D01*
X73689Y-74965D01*
X73773Y-75000D01*
X57726Y-75000D01*
X57811Y-74965D01*
X57965Y-74811D01*
X58049Y-74609D01*
X58049Y-74391D01*
X57965Y-74189D01*
X57811Y-74035D01*
X57726Y-74000D01*
X57811Y-73965D01*
X57965Y-73811D01*
X58049Y-73609D01*
X58049Y-73391D01*
X57965Y-73189D01*
X57811Y-73035D01*
X57726Y-73000D01*
X57811Y-72965D01*
X57965Y-72811D01*
X58049Y-72609D01*
X58049Y-72391D01*
X57965Y-72189D01*
X57811Y-72035D01*
X57726Y-72000D01*
X57811Y-71965D01*
X57965Y-71811D01*
X58049Y-71609D01*
X58049Y-71391D01*
X57965Y-71189D01*
X57811Y-71035D01*
X57609Y-70951D01*
X57391Y-70951D01*
X57189Y-71035D01*
X57035Y-71189D01*
X57000Y-71273D01*
X56965Y-71189D01*
X56811Y-71035D01*
X56609Y-70951D01*
X56391Y-70951D01*
X56189Y-71035D01*
X56035Y-71189D01*
X55951Y-71391D01*
X55951Y-71609D01*
X56035Y-71811D01*
X56189Y-71965D01*
X56273Y-72000D01*
X56189Y-72035D01*
X56035Y-72189D01*
X55951Y-72391D01*
X55951Y-72609D01*
X56035Y-72811D01*
X56189Y-72965D01*
X56273Y-73000D01*
X56189Y-73035D01*
X56035Y-73189D01*
X55951Y-73391D01*
X55951Y-73609D01*
X56035Y-73811D01*
X56189Y-73965D01*
X56273Y-74000D01*
X56189Y-74035D01*
X56035Y-74189D01*
X55951Y-74391D01*
X55951Y-74609D01*
X56035Y-74811D01*
X56189Y-74965D01*
X56273Y-75000D01*
X52707Y-75000D01*
X51354Y-73646D01*
X51192Y-73538D01*
X51000Y-73499D01*
X50995Y-73500D01*
X46000Y-73500D01*
X45808Y-73538D01*
X45743Y-73581D01*
X45646Y-73646D01*
X45644Y-73648D01*
X44292Y-75000D01*
X40226Y-75000D01*
X40311Y-74965D01*
X40465Y-74811D01*
X40549Y-74609D01*
X40549Y-74391D01*
X40465Y-74189D01*
X40311Y-74035D01*
X40226Y-74000D01*
X40311Y-73965D01*
X40465Y-73811D01*
X40549Y-73609D01*
X40549Y-73391D01*
X40465Y-73189D01*
X40311Y-73035D01*
X40226Y-73000D01*
X40311Y-72965D01*
X40465Y-72811D01*
X40549Y-72609D01*
X40549Y-72391D01*
X40465Y-72189D01*
X40311Y-72035D01*
X40226Y-72000D01*
X40311Y-71965D01*
X40465Y-71811D01*
X40549Y-71609D01*
X40549Y-71391D01*
X40465Y-71189D01*
X40311Y-71035D01*
X40109Y-70951D01*
X39891Y-70951D01*
X39689Y-71035D01*
X39535Y-71189D01*
X39500Y-71273D01*
X39465Y-71189D01*
X39311Y-71035D01*
X39109Y-70951D01*
X38891Y-70951D01*
X38689Y-71035D01*
X38535Y-71189D01*
X38451Y-71391D01*
X38451Y-71609D01*
X38535Y-71811D01*
X38689Y-71965D01*
X38773Y-72000D01*
X38689Y-72035D01*
X38535Y-72189D01*
X38451Y-72391D01*
X38451Y-72609D01*
X38535Y-72811D01*
X38689Y-72965D01*
X38773Y-73000D01*
X38689Y-73035D01*
X38535Y-73189D01*
X38451Y-73391D01*
X38451Y-73609D01*
X38535Y-73811D01*
X38689Y-73965D01*
X38773Y-74000D01*
X38689Y-74035D01*
X38535Y-74189D01*
X38451Y-74391D01*
X38451Y-74609D01*
X38535Y-74811D01*
X38689Y-74965D01*
X38773Y-75000D01*
X22726Y-75000D01*
X22811Y-74965D01*
X22965Y-74811D01*
X23049Y-74609D01*
X23049Y-74391D01*
X22965Y-74189D01*
X22811Y-74035D01*
X22726Y-74000D01*
X22811Y-73965D01*
X22965Y-73811D01*
X23049Y-73609D01*
X23049Y-73391D01*
X22965Y-73189D01*
X22811Y-73035D01*
X22726Y-73000D01*
X22811Y-72965D01*
X22965Y-72811D01*
X23049Y-72609D01*
X23049Y-72391D01*
X22965Y-72189D01*
X22811Y-72035D01*
X22726Y-72000D01*
X22811Y-71965D01*
X22965Y-71811D01*
X23049Y-71609D01*
X23049Y-71391D01*
X22965Y-71189D01*
X22811Y-71035D01*
X22609Y-70951D01*
X22391Y-70951D01*
X22189Y-71035D01*
X22035Y-71189D01*
X22000Y-71273D01*
X21965Y-71189D01*
X21811Y-71035D01*
X21609Y-70951D01*
X21391Y-70951D01*
X21189Y-71035D01*
X21035Y-71189D01*
X20951Y-71391D01*
X20951Y-71609D01*
X21035Y-71811D01*
X21189Y-71965D01*
X21273Y-72000D01*
X21189Y-72035D01*
X21035Y-72189D01*
X20951Y-72391D01*
X20951Y-72609D01*
X21035Y-72811D01*
X21189Y-72965D01*
X21273Y-73000D01*
X21189Y-73035D01*
X21035Y-73189D01*
X20951Y-73391D01*
X20951Y-73609D01*
X21035Y-73811D01*
X21189Y-73965D01*
X21273Y-74000D01*
X21189Y-74035D01*
X21035Y-74189D01*
X20951Y-74391D01*
X20951Y-74609D01*
X21035Y-74811D01*
X21189Y-74965D01*
X21273Y-75000D01*
X21189Y-75035D01*
X21035Y-75189D01*
X20951Y-75391D01*
X20951Y-75609D01*
X21035Y-75811D01*
X21189Y-75965D01*
X21273Y-76000D01*
X21189Y-76035D01*
X21035Y-76189D01*
X20951Y-76391D01*
X20951Y-76609D01*
X21035Y-76811D01*
X21189Y-76965D01*
X21273Y-77000D01*
X21189Y-77035D01*
X21035Y-77189D01*
X20951Y-77391D01*
X20951Y-77609D01*
X21035Y-77811D01*
X21189Y-77965D01*
X21273Y-78000D01*
X21189Y-78035D01*
X21035Y-78189D01*
X20951Y-78391D01*
X20951Y-78609D01*
X21035Y-78811D01*
X21189Y-78965D01*
X21391Y-79049D01*
X21609Y-79049D01*
X21726Y-79000D01*
X22048Y-79000D01*
X22059Y-79011D01*
X22150Y-79049D01*
X22249Y-79049D01*
X22849Y-79049D01*
X22941Y-79011D01*
X22952Y-79000D01*
X38773Y-79000D01*
X38891Y-79049D01*
X39109Y-79049D01*
X39226Y-79000D01*
X39548Y-79000D01*
X39559Y-79011D01*
X39650Y-79049D01*
X39749Y-79049D01*
X40349Y-79049D01*
X40441Y-79011D01*
X40452Y-79000D01*
X45995Y-79000D01*
X46000Y-79001D01*
X46000Y-79000D01*
X46191Y-78962D01*
X46192Y-78962D01*
X46354Y-78854D01*
X47707Y-77500D01*
X49292Y-77500D01*
X50644Y-78851D01*
X50646Y-78854D01*
X50743Y-78918D01*
X50808Y-78962D01*
X50809Y-78962D01*
X51000Y-79000D01*
X56273Y-79000D01*
X56391Y-79049D01*
X56609Y-79049D01*
X56726Y-79000D01*
X57048Y-79000D01*
X57059Y-79011D01*
X57150Y-79049D01*
X57249Y-79049D01*
X57849Y-79049D01*
X57941Y-79011D01*
X57952Y-79000D01*
X73773Y-79000D01*
X73891Y-79049D01*
X74109Y-79049D01*
X74226Y-79000D01*
X74548Y-79000D01*
X74559Y-79011D01*
X74650Y-79049D01*
X74749Y-79049D01*
X75349Y-79049D01*
X75441Y-79011D01*
X75452Y-79000D01*
X76082Y-79000D01*
X76132Y-79050D01*
X76371Y-79149D01*
X76629Y-79149D01*
X76868Y-79050D01*
X76918Y-79000D01*
X91273Y-79000D01*
X91391Y-79049D01*
X91609Y-79049D01*
X91726Y-79000D01*
X92048Y-79000D01*
X92059Y-79011D01*
X92150Y-79049D01*
X92249Y-79049D01*
X92849Y-79049D01*
X92941Y-79011D01*
X92952Y-79000D01*
X97995Y-79000D01*
X98000Y-79001D01*
X98000Y-79000D01*
X98191Y-78962D01*
X98192Y-78962D01*
X98354Y-78854D01*
X99707Y-77500D01*
X101792Y-77500D01*
X103144Y-78851D01*
X103146Y-78854D01*
X103243Y-78918D01*
X103308Y-78962D01*
X103309Y-78962D01*
X103500Y-79000D01*
X108773Y-79000D01*
X108891Y-79049D01*
X109109Y-79049D01*
X109226Y-79000D01*
X109548Y-79000D01*
X109559Y-79011D01*
X109650Y-79049D01*
X109749Y-79049D01*
X110349Y-79049D01*
X110441Y-79011D01*
X110452Y-79000D01*
X126273Y-79000D01*
X126391Y-79049D01*
X126609Y-79049D01*
X126726Y-79000D01*
X127048Y-79000D01*
X127059Y-79011D01*
X127150Y-79049D01*
X127249Y-79049D01*
X127849Y-79049D01*
X127941Y-79011D01*
X127952Y-79000D01*
X143773Y-79000D01*
X143891Y-79049D01*
X144109Y-79049D01*
X144226Y-79000D01*
X144548Y-79000D01*
X144559Y-79011D01*
X144650Y-79049D01*
X144749Y-79049D01*
X145349Y-79049D01*
X145441Y-79011D01*
X145511Y-78941D01*
X145549Y-78850D01*
X145549Y-80675D01*
X13325Y-80675D01*
X13325Y-69325D01*
X152675Y-69325D01*
X152675Y-80675D01*
X152675Y-80675D01*
G37*
G54D16*
X152675Y-80675D02*
X145549Y-80675D01*
X145549Y-78850D01*
X145549Y-78751D01*
X145549Y-78151D01*
X145511Y-78059D01*
X145441Y-77989D01*
X145350Y-77951D01*
X145325Y-77951D01*
X145465Y-77811D01*
X145549Y-77609D01*
X145549Y-77391D01*
X145465Y-77189D01*
X145311Y-77035D01*
X145226Y-77000D01*
X145311Y-76965D01*
X145465Y-76811D01*
X145549Y-76609D01*
X145549Y-76391D01*
X145465Y-76189D01*
X145311Y-76035D01*
X145226Y-76000D01*
X145311Y-75965D01*
X145465Y-75811D01*
X145549Y-75609D01*
X145549Y-75391D01*
X145465Y-75189D01*
X145311Y-75035D01*
X145226Y-75000D01*
X145311Y-74965D01*
X145465Y-74811D01*
X145549Y-74609D01*
X145549Y-74391D01*
X145465Y-74189D01*
X145311Y-74035D01*
X145226Y-74000D01*
X145311Y-73965D01*
X145465Y-73811D01*
X145549Y-73609D01*
X145549Y-73391D01*
X145465Y-73189D01*
X145311Y-73035D01*
X145226Y-73000D01*
X145311Y-72965D01*
X145465Y-72811D01*
X145549Y-72609D01*
X145549Y-72391D01*
X145465Y-72189D01*
X145311Y-72035D01*
X145226Y-72000D01*
X145311Y-71965D01*
X145465Y-71811D01*
X145549Y-71609D01*
X145549Y-71391D01*
X145465Y-71189D01*
X145311Y-71035D01*
X145109Y-70951D01*
X144891Y-70951D01*
X144689Y-71035D01*
X144535Y-71189D01*
X144500Y-71273D01*
X144465Y-71189D01*
X144311Y-71035D01*
X144109Y-70951D01*
X143891Y-70951D01*
X143689Y-71035D01*
X143535Y-71189D01*
X143451Y-71391D01*
X143451Y-71609D01*
X143535Y-71811D01*
X143689Y-71965D01*
X143773Y-72000D01*
X143689Y-72035D01*
X143535Y-72189D01*
X143451Y-72391D01*
X143451Y-72609D01*
X143535Y-72811D01*
X143689Y-72965D01*
X143773Y-73000D01*
X143689Y-73035D01*
X143535Y-73189D01*
X143451Y-73391D01*
X143451Y-73609D01*
X143535Y-73811D01*
X143689Y-73965D01*
X143773Y-74000D01*
X143689Y-74035D01*
X143535Y-74189D01*
X143451Y-74391D01*
X143451Y-74609D01*
X143535Y-74811D01*
X143689Y-74965D01*
X143773Y-75000D01*
X127726Y-75000D01*
X127811Y-74965D01*
X127965Y-74811D01*
X128049Y-74609D01*
X128049Y-74391D01*
X127965Y-74189D01*
X127811Y-74035D01*
X127726Y-74000D01*
X127811Y-73965D01*
X127965Y-73811D01*
X128049Y-73609D01*
X128049Y-73391D01*
X127965Y-73189D01*
X127811Y-73035D01*
X127726Y-73000D01*
X127811Y-72965D01*
X127965Y-72811D01*
X128049Y-72609D01*
X128049Y-72391D01*
X127965Y-72189D01*
X127811Y-72035D01*
X127726Y-72000D01*
X127811Y-71965D01*
X127965Y-71811D01*
X128049Y-71609D01*
X128049Y-71391D01*
X127965Y-71189D01*
X127811Y-71035D01*
X127609Y-70951D01*
X127391Y-70951D01*
X127189Y-71035D01*
X127035Y-71189D01*
X127000Y-71273D01*
X126965Y-71189D01*
X126811Y-71035D01*
X126609Y-70951D01*
X126391Y-70951D01*
X126189Y-71035D01*
X126035Y-71189D01*
X125951Y-71391D01*
X125951Y-71609D01*
X126035Y-71811D01*
X126189Y-71965D01*
X126273Y-72000D01*
X126189Y-72035D01*
X126035Y-72189D01*
X125951Y-72391D01*
X125951Y-72609D01*
X126035Y-72811D01*
X126189Y-72965D01*
X126273Y-73000D01*
X126189Y-73035D01*
X126035Y-73189D01*
X125951Y-73391D01*
X125951Y-73609D01*
X126035Y-73811D01*
X126189Y-73965D01*
X126273Y-74000D01*
X126189Y-74035D01*
X126035Y-74189D01*
X125951Y-74391D01*
X125951Y-74609D01*
X126035Y-74811D01*
X126189Y-74965D01*
X126273Y-75000D01*
X110226Y-75000D01*
X110311Y-74965D01*
X110465Y-74811D01*
X110549Y-74609D01*
X110549Y-74391D01*
X110465Y-74189D01*
X110311Y-74035D01*
X110226Y-74000D01*
X110311Y-73965D01*
X110465Y-73811D01*
X110549Y-73609D01*
X110549Y-73391D01*
X110465Y-73189D01*
X110311Y-73035D01*
X110226Y-73000D01*
X110311Y-72965D01*
X110465Y-72811D01*
X110549Y-72609D01*
X110549Y-72391D01*
X110465Y-72189D01*
X110311Y-72035D01*
X110226Y-72000D01*
X110311Y-71965D01*
X110465Y-71811D01*
X110549Y-71609D01*
X110549Y-71391D01*
X110465Y-71189D01*
X110311Y-71035D01*
X110109Y-70951D01*
X109891Y-70951D01*
X109689Y-71035D01*
X109535Y-71189D01*
X109500Y-71273D01*
X109465Y-71189D01*
X109311Y-71035D01*
X109109Y-70951D01*
X108891Y-70951D01*
X108689Y-71035D01*
X108535Y-71189D01*
X108451Y-71391D01*
X108451Y-71609D01*
X108535Y-71811D01*
X108689Y-71965D01*
X108773Y-72000D01*
X108689Y-72035D01*
X108535Y-72189D01*
X108451Y-72391D01*
X108451Y-72609D01*
X108535Y-72811D01*
X108689Y-72965D01*
X108773Y-73000D01*
X108689Y-73035D01*
X108535Y-73189D01*
X108451Y-73391D01*
X108451Y-73609D01*
X108535Y-73811D01*
X108689Y-73965D01*
X108773Y-74000D01*
X108689Y-74035D01*
X108535Y-74189D01*
X108451Y-74391D01*
X108451Y-74609D01*
X108535Y-74811D01*
X108689Y-74965D01*
X108773Y-75000D01*
X105207Y-75000D01*
X103854Y-73646D01*
X103692Y-73538D01*
X103500Y-73499D01*
X103495Y-73500D01*
X98000Y-73500D01*
X97808Y-73538D01*
X97743Y-73581D01*
X97646Y-73646D01*
X97644Y-73648D01*
X96292Y-75000D01*
X92726Y-75000D01*
X92811Y-74965D01*
X92965Y-74811D01*
X93049Y-74609D01*
X93049Y-74391D01*
X92965Y-74189D01*
X92811Y-74035D01*
X92726Y-74000D01*
X92811Y-73965D01*
X92965Y-73811D01*
X93049Y-73609D01*
X93049Y-73391D01*
X92965Y-73189D01*
X92811Y-73035D01*
X92726Y-73000D01*
X92811Y-72965D01*
X92965Y-72811D01*
X93049Y-72609D01*
X93049Y-72391D01*
X92965Y-72189D01*
X92811Y-72035D01*
X92726Y-72000D01*
X92811Y-71965D01*
X92965Y-71811D01*
X93049Y-71609D01*
X93049Y-71391D01*
X92965Y-71189D01*
X92811Y-71035D01*
X92609Y-70951D01*
X92391Y-70951D01*
X92189Y-71035D01*
X92035Y-71189D01*
X92000Y-71273D01*
X91965Y-71189D01*
X91811Y-71035D01*
X91609Y-70951D01*
X91391Y-70951D01*
X91189Y-71035D01*
X91035Y-71189D01*
X90951Y-71391D01*
X90951Y-71609D01*
X91035Y-71811D01*
X91189Y-71965D01*
X91273Y-72000D01*
X91189Y-72035D01*
X91035Y-72189D01*
X90951Y-72391D01*
X90951Y-72609D01*
X91035Y-72811D01*
X91189Y-72965D01*
X91273Y-73000D01*
X91189Y-73035D01*
X91035Y-73189D01*
X90951Y-73391D01*
X90951Y-73609D01*
X91035Y-73811D01*
X91189Y-73965D01*
X91273Y-74000D01*
X91189Y-74035D01*
X91035Y-74189D01*
X90951Y-74391D01*
X90951Y-74609D01*
X91035Y-74811D01*
X91189Y-74965D01*
X91273Y-75000D01*
X90649Y-75000D01*
X90649Y-71629D01*
X90649Y-71371D01*
X90550Y-71132D01*
X90368Y-70950D01*
X90129Y-70851D01*
X89871Y-70851D01*
X89632Y-70950D01*
X89450Y-71132D01*
X89351Y-71371D01*
X89351Y-71629D01*
X89450Y-71868D01*
X89632Y-72050D01*
X89871Y-72149D01*
X90129Y-72149D01*
X90368Y-72050D01*
X90550Y-71868D01*
X90649Y-71629D01*
X90649Y-75000D01*
X89149Y-75000D01*
X89149Y-72629D01*
X89149Y-72371D01*
X89050Y-72132D01*
X88868Y-71950D01*
X88629Y-71851D01*
X88371Y-71851D01*
X88132Y-71950D01*
X87950Y-72132D01*
X87851Y-72371D01*
X87851Y-72629D01*
X87950Y-72868D01*
X88132Y-73050D01*
X88371Y-73149D01*
X88629Y-73149D01*
X88868Y-73050D01*
X89050Y-72868D01*
X89149Y-72629D01*
X89149Y-75000D01*
X87149Y-75000D01*
X87149Y-73629D01*
X87149Y-73371D01*
X87050Y-73132D01*
X86868Y-72950D01*
X86629Y-72851D01*
X86371Y-72851D01*
X86132Y-72950D01*
X85950Y-73132D01*
X85851Y-73371D01*
X85851Y-73629D01*
X85950Y-73868D01*
X86132Y-74050D01*
X86371Y-74149D01*
X86629Y-74149D01*
X86868Y-74050D01*
X87050Y-73868D01*
X87149Y-73629D01*
X87149Y-75000D01*
X84918Y-75000D01*
X85050Y-74868D01*
X85149Y-74629D01*
X85149Y-74371D01*
X85050Y-74132D01*
X84868Y-73950D01*
X84629Y-73851D01*
X84371Y-73851D01*
X84132Y-73950D01*
X83950Y-74132D01*
X83851Y-74371D01*
X83851Y-74629D01*
X83950Y-74868D01*
X84082Y-75000D01*
X82918Y-75000D01*
X82868Y-74950D01*
X82629Y-74851D01*
X82371Y-74851D01*
X82132Y-74950D01*
X82082Y-75000D01*
X75226Y-75000D01*
X75311Y-74965D01*
X75465Y-74811D01*
X75549Y-74609D01*
X75549Y-74391D01*
X75465Y-74189D01*
X75311Y-74035D01*
X75226Y-74000D01*
X75311Y-73965D01*
X75465Y-73811D01*
X75549Y-73609D01*
X75549Y-73391D01*
X75465Y-73189D01*
X75311Y-73035D01*
X75226Y-73000D01*
X75311Y-72965D01*
X75465Y-72811D01*
X75549Y-72609D01*
X75549Y-72391D01*
X75465Y-72189D01*
X75311Y-72035D01*
X75226Y-72000D01*
X75311Y-71965D01*
X75465Y-71811D01*
X75549Y-71609D01*
X75549Y-71391D01*
X75465Y-71189D01*
X75311Y-71035D01*
X75109Y-70951D01*
X74891Y-70951D01*
X74689Y-71035D01*
X74535Y-71189D01*
X74500Y-71273D01*
X74465Y-71189D01*
X74311Y-71035D01*
X74109Y-70951D01*
X73891Y-70951D01*
X73689Y-71035D01*
X73535Y-71189D01*
X73451Y-71391D01*
X73451Y-71609D01*
X73535Y-71811D01*
X73689Y-71965D01*
X73773Y-72000D01*
X73689Y-72035D01*
X73535Y-72189D01*
X73451Y-72391D01*
X73451Y-72609D01*
X73535Y-72811D01*
X73689Y-72965D01*
X73773Y-73000D01*
X73689Y-73035D01*
X73535Y-73189D01*
X73451Y-73391D01*
X73451Y-73609D01*
X73535Y-73811D01*
X73689Y-73965D01*
X73773Y-74000D01*
X73689Y-74035D01*
X73535Y-74189D01*
X73451Y-74391D01*
X73451Y-74609D01*
X73535Y-74811D01*
X73689Y-74965D01*
X73773Y-75000D01*
X57726Y-75000D01*
X57811Y-74965D01*
X57965Y-74811D01*
X58049Y-74609D01*
X58049Y-74391D01*
X57965Y-74189D01*
X57811Y-74035D01*
X57726Y-74000D01*
X57811Y-73965D01*
X57965Y-73811D01*
X58049Y-73609D01*
X58049Y-73391D01*
X57965Y-73189D01*
X57811Y-73035D01*
X57726Y-73000D01*
X57811Y-72965D01*
X57965Y-72811D01*
X58049Y-72609D01*
X58049Y-72391D01*
X57965Y-72189D01*
X57811Y-72035D01*
X57726Y-72000D01*
X57811Y-71965D01*
X57965Y-71811D01*
X58049Y-71609D01*
X58049Y-71391D01*
X57965Y-71189D01*
X57811Y-71035D01*
X57609Y-70951D01*
X57391Y-70951D01*
X57189Y-71035D01*
X57035Y-71189D01*
X57000Y-71273D01*
X56965Y-71189D01*
X56811Y-71035D01*
X56609Y-70951D01*
X56391Y-70951D01*
X56189Y-71035D01*
X56035Y-71189D01*
X55951Y-71391D01*
X55951Y-71609D01*
X56035Y-71811D01*
X56189Y-71965D01*
X56273Y-72000D01*
X56189Y-72035D01*
X56035Y-72189D01*
X55951Y-72391D01*
X55951Y-72609D01*
X56035Y-72811D01*
X56189Y-72965D01*
X56273Y-73000D01*
X56189Y-73035D01*
X56035Y-73189D01*
X55951Y-73391D01*
X55951Y-73609D01*
X56035Y-73811D01*
X56189Y-73965D01*
X56273Y-74000D01*
X56189Y-74035D01*
X56035Y-74189D01*
X55951Y-74391D01*
X55951Y-74609D01*
X56035Y-74811D01*
X56189Y-74965D01*
X56273Y-75000D01*
X52707Y-75000D01*
X51354Y-73646D01*
X51192Y-73538D01*
X51000Y-73499D01*
X50995Y-73500D01*
X46000Y-73500D01*
X45808Y-73538D01*
X45743Y-73581D01*
X45646Y-73646D01*
X45644Y-73648D01*
X44292Y-75000D01*
X40226Y-75000D01*
X40311Y-74965D01*
X40465Y-74811D01*
X40549Y-74609D01*
X40549Y-74391D01*
X40465Y-74189D01*
X40311Y-74035D01*
X40226Y-74000D01*
X40311Y-73965D01*
X40465Y-73811D01*
X40549Y-73609D01*
X40549Y-73391D01*
X40465Y-73189D01*
X40311Y-73035D01*
X40226Y-73000D01*
X40311Y-72965D01*
X40465Y-72811D01*
X40549Y-72609D01*
X40549Y-72391D01*
X40465Y-72189D01*
X40311Y-72035D01*
X40226Y-72000D01*
X40311Y-71965D01*
X40465Y-71811D01*
X40549Y-71609D01*
X40549Y-71391D01*
X40465Y-71189D01*
X40311Y-71035D01*
X40109Y-70951D01*
X39891Y-70951D01*
X39689Y-71035D01*
X39535Y-71189D01*
X39500Y-71273D01*
X39465Y-71189D01*
X39311Y-71035D01*
X39109Y-70951D01*
X38891Y-70951D01*
X38689Y-71035D01*
X38535Y-71189D01*
X38451Y-71391D01*
X38451Y-71609D01*
X38535Y-71811D01*
X38689Y-71965D01*
X38773Y-72000D01*
X38689Y-72035D01*
X38535Y-72189D01*
X38451Y-72391D01*
X38451Y-72609D01*
X38535Y-72811D01*
X38689Y-72965D01*
X38773Y-73000D01*
X38689Y-73035D01*
X38535Y-73189D01*
X38451Y-73391D01*
X38451Y-73609D01*
X38535Y-73811D01*
X38689Y-73965D01*
X38773Y-74000D01*
X38689Y-74035D01*
X38535Y-74189D01*
X38451Y-74391D01*
X38451Y-74609D01*
X38535Y-74811D01*
X38689Y-74965D01*
X38773Y-75000D01*
X22726Y-75000D01*
X22811Y-74965D01*
X22965Y-74811D01*
X23049Y-74609D01*
X23049Y-74391D01*
X22965Y-74189D01*
X22811Y-74035D01*
X22726Y-74000D01*
X22811Y-73965D01*
X22965Y-73811D01*
X23049Y-73609D01*
X23049Y-73391D01*
X22965Y-73189D01*
X22811Y-73035D01*
X22726Y-73000D01*
X22811Y-72965D01*
X22965Y-72811D01*
X23049Y-72609D01*
X23049Y-72391D01*
X22965Y-72189D01*
X22811Y-72035D01*
X22726Y-72000D01*
X22811Y-71965D01*
X22965Y-71811D01*
X23049Y-71609D01*
X23049Y-71391D01*
X22965Y-71189D01*
X22811Y-71035D01*
X22609Y-70951D01*
X22391Y-70951D01*
X22189Y-71035D01*
X22035Y-71189D01*
X22000Y-71273D01*
X21965Y-71189D01*
X21811Y-71035D01*
X21609Y-70951D01*
X21391Y-70951D01*
X21189Y-71035D01*
X21035Y-71189D01*
X20951Y-71391D01*
X20951Y-71609D01*
X21035Y-71811D01*
X21189Y-71965D01*
X21273Y-72000D01*
X21189Y-72035D01*
X21035Y-72189D01*
X20951Y-72391D01*
X20951Y-72609D01*
X21035Y-72811D01*
X21189Y-72965D01*
X21273Y-73000D01*
X21189Y-73035D01*
X21035Y-73189D01*
X20951Y-73391D01*
X20951Y-73609D01*
X21035Y-73811D01*
X21189Y-73965D01*
X21273Y-74000D01*
X21189Y-74035D01*
X21035Y-74189D01*
X20951Y-74391D01*
X20951Y-74609D01*
X21035Y-74811D01*
X21189Y-74965D01*
X21273Y-75000D01*
X21189Y-75035D01*
X21035Y-75189D01*
X20951Y-75391D01*
X20951Y-75609D01*
X21035Y-75811D01*
X21189Y-75965D01*
X21273Y-76000D01*
X21189Y-76035D01*
X21035Y-76189D01*
X20951Y-76391D01*
X20951Y-76609D01*
X21035Y-76811D01*
X21189Y-76965D01*
X21273Y-77000D01*
X21189Y-77035D01*
X21035Y-77189D01*
X20951Y-77391D01*
X20951Y-77609D01*
X21035Y-77811D01*
X21189Y-77965D01*
X21273Y-78000D01*
X21189Y-78035D01*
X21035Y-78189D01*
X20951Y-78391D01*
X20951Y-78609D01*
X21035Y-78811D01*
X21189Y-78965D01*
X21391Y-79049D01*
X21609Y-79049D01*
X21726Y-79000D01*
X22048Y-79000D01*
X22059Y-79011D01*
X22150Y-79049D01*
X22249Y-79049D01*
X22849Y-79049D01*
X22941Y-79011D01*
X22952Y-79000D01*
X38773Y-79000D01*
X38891Y-79049D01*
X39109Y-79049D01*
X39226Y-79000D01*
X39548Y-79000D01*
X39559Y-79011D01*
X39650Y-79049D01*
X39749Y-79049D01*
X40349Y-79049D01*
X40441Y-79011D01*
X40452Y-79000D01*
X45995Y-79000D01*
X46000Y-79001D01*
X46000Y-79000D01*
X46191Y-78962D01*
X46192Y-78962D01*
X46354Y-78854D01*
X47707Y-77500D01*
X49292Y-77500D01*
X50644Y-78851D01*
X50646Y-78854D01*
X50743Y-78918D01*
X50808Y-78962D01*
X50809Y-78962D01*
X51000Y-79000D01*
X56273Y-79000D01*
X56391Y-79049D01*
X56609Y-79049D01*
X56726Y-79000D01*
X57048Y-79000D01*
X57059Y-79011D01*
X57150Y-79049D01*
X57249Y-79049D01*
X57849Y-79049D01*
X57941Y-79011D01*
X57952Y-79000D01*
X73773Y-79000D01*
X73891Y-79049D01*
X74109Y-79049D01*
X74226Y-79000D01*
X74548Y-79000D01*
X74559Y-79011D01*
X74650Y-79049D01*
X74749Y-79049D01*
X75349Y-79049D01*
X75441Y-79011D01*
X75452Y-79000D01*
X76082Y-79000D01*
X76132Y-79050D01*
X76371Y-79149D01*
X76629Y-79149D01*
X76868Y-79050D01*
X76918Y-79000D01*
X91273Y-79000D01*
X91391Y-79049D01*
X91609Y-79049D01*
X91726Y-79000D01*
X92048Y-79000D01*
X92059Y-79011D01*
X92150Y-79049D01*
X92249Y-79049D01*
X92849Y-79049D01*
X92941Y-79011D01*
X92952Y-79000D01*
X97995Y-79000D01*
X98000Y-79001D01*
X98000Y-79000D01*
X98191Y-78962D01*
X98192Y-78962D01*
X98354Y-78854D01*
X99707Y-77500D01*
X101792Y-77500D01*
X103144Y-78851D01*
X103146Y-78854D01*
X103243Y-78918D01*
X103308Y-78962D01*
X103309Y-78962D01*
X103500Y-79000D01*
X108773Y-79000D01*
X108891Y-79049D01*
X109109Y-79049D01*
X109226Y-79000D01*
X109548Y-79000D01*
X109559Y-79011D01*
X109650Y-79049D01*
X109749Y-79049D01*
X110349Y-79049D01*
X110441Y-79011D01*
X110452Y-79000D01*
X126273Y-79000D01*
X126391Y-79049D01*
X126609Y-79049D01*
X126726Y-79000D01*
X127048Y-79000D01*
X127059Y-79011D01*
X127150Y-79049D01*
X127249Y-79049D01*
X127849Y-79049D01*
X127941Y-79011D01*
X127952Y-79000D01*
X143773Y-79000D01*
X143891Y-79049D01*
X144109Y-79049D01*
X144226Y-79000D01*
X144548Y-79000D01*
X144559Y-79011D01*
X144650Y-79049D01*
X144749Y-79049D01*
X145349Y-79049D01*
X145441Y-79011D01*
X145511Y-78941D01*
X145549Y-78850D01*
X145549Y-80675D01*
X13325Y-80675D01*
X13325Y-69325D01*
X152675Y-69325D01*
X152675Y-80675D01*
M02*
