G04 (created by PCBNEW-RS274X (2012-01-19 BZR 3256)-stable) date 12/6/2012 10:52:00 PM*
G01*
G70*
G90*
%MOIN*%
G04 Gerber Fmt 3.4, Leading zero omitted, Abs format*
%FSLAX34Y34*%
G04 APERTURE LIST*
%ADD10C,0.006000*%
%ADD11C,0.012000*%
%ADD12C,0.005000*%
%ADD13C,0.012500*%
%ADD14C,0.015000*%
%ADD15C,0.008000*%
G04 APERTURE END LIST*
G54D10*
G54D11*
X43422Y-58769D02*
X43879Y-58769D01*
G54D12*
X44858Y-34515D02*
X44858Y-35201D01*
X44829Y-35277D01*
X44772Y-35315D01*
X44744Y-35315D01*
X44858Y-34249D02*
X44829Y-34287D01*
X44858Y-34325D01*
X44886Y-34287D01*
X44858Y-34249D01*
X44858Y-34325D01*
X45401Y-35049D02*
X45401Y-34630D01*
X45372Y-34554D01*
X45315Y-34515D01*
X45201Y-34515D01*
X45144Y-34554D01*
X45401Y-35011D02*
X45344Y-35049D01*
X45201Y-35049D01*
X45144Y-35011D01*
X45115Y-34935D01*
X45115Y-34858D01*
X45144Y-34782D01*
X45201Y-34744D01*
X45344Y-34744D01*
X45401Y-34706D01*
X45944Y-35011D02*
X45887Y-35049D01*
X45773Y-35049D01*
X45715Y-35011D01*
X45687Y-34973D01*
X45658Y-34896D01*
X45658Y-34668D01*
X45687Y-34592D01*
X45715Y-34554D01*
X45773Y-34515D01*
X45887Y-34515D01*
X45944Y-34554D01*
X46201Y-35049D02*
X46201Y-34249D01*
X46258Y-34744D02*
X46429Y-35049D01*
X46429Y-34515D02*
X46201Y-34820D01*
X47144Y-34515D02*
X47144Y-35315D01*
X47144Y-34554D02*
X47201Y-34515D01*
X47315Y-34515D01*
X47372Y-34554D01*
X47401Y-34592D01*
X47430Y-34668D01*
X47430Y-34896D01*
X47401Y-34973D01*
X47372Y-35011D01*
X47315Y-35049D01*
X47201Y-35049D01*
X47144Y-35011D01*
X47944Y-35011D02*
X47887Y-35049D01*
X47773Y-35049D01*
X47715Y-35011D01*
X47687Y-34973D01*
X47658Y-34896D01*
X47658Y-34668D01*
X47687Y-34592D01*
X47715Y-34554D01*
X47773Y-34515D01*
X47887Y-34515D01*
X47944Y-34554D01*
X48201Y-35049D02*
X48201Y-34249D01*
X48201Y-34554D02*
X48258Y-34515D01*
X48372Y-34515D01*
X48429Y-34554D01*
X48458Y-34592D01*
X48487Y-34668D01*
X48487Y-34896D01*
X48458Y-34973D01*
X48429Y-35011D01*
X48372Y-35049D01*
X48258Y-35049D01*
X48201Y-35011D01*
X49144Y-34515D02*
X49287Y-35049D01*
X49429Y-34515D01*
X49972Y-35049D02*
X49629Y-35049D01*
X49801Y-35049D02*
X49801Y-34249D01*
X49744Y-34363D01*
X49686Y-34439D01*
X49629Y-34477D01*
G54D11*
X43572Y-68669D02*
X44029Y-68669D01*
X43472Y-63869D02*
X43929Y-63869D01*
X42722Y-33944D02*
X43179Y-33944D01*
X43572Y-38869D02*
X44029Y-38869D01*
X43472Y-43719D02*
X43929Y-43719D01*
X43472Y-48769D02*
X43929Y-48769D01*
X43447Y-53669D02*
X43904Y-53669D01*
G54D12*
X44109Y-33761D02*
X44186Y-33799D01*
X44338Y-33799D01*
X44414Y-33761D01*
X44452Y-33685D01*
X44452Y-33646D01*
X44414Y-33570D01*
X44338Y-33532D01*
X44224Y-33532D01*
X44147Y-33494D01*
X44109Y-33418D01*
X44109Y-33380D01*
X44147Y-33304D01*
X44224Y-33265D01*
X44338Y-33265D01*
X44414Y-33304D01*
X44795Y-33799D02*
X44795Y-33265D01*
X44795Y-33342D02*
X44834Y-33304D01*
X44910Y-33265D01*
X45024Y-33265D01*
X45100Y-33304D01*
X45138Y-33380D01*
X45138Y-33799D01*
X45138Y-33380D02*
X45176Y-33304D01*
X45253Y-33265D01*
X45367Y-33265D01*
X45443Y-33304D01*
X45481Y-33380D01*
X45481Y-33799D01*
X45862Y-33799D02*
X45862Y-33265D01*
X45862Y-33418D02*
X45901Y-33342D01*
X45939Y-33304D01*
X46015Y-33265D01*
X46091Y-33265D01*
X46472Y-33799D02*
X46396Y-33761D01*
X46357Y-33685D01*
X46357Y-32999D01*
X47348Y-33075D02*
X47386Y-33037D01*
X47463Y-32999D01*
X47653Y-32999D01*
X47729Y-33037D01*
X47767Y-33075D01*
X47806Y-33151D01*
X47806Y-33227D01*
X47767Y-33342D01*
X47310Y-33799D01*
X47806Y-33799D01*
X48301Y-32999D02*
X48377Y-32999D01*
X48453Y-33037D01*
X48491Y-33075D01*
X48529Y-33151D01*
X48568Y-33304D01*
X48568Y-33494D01*
X48529Y-33646D01*
X48491Y-33723D01*
X48453Y-33761D01*
X48377Y-33799D01*
X48301Y-33799D01*
X48225Y-33761D01*
X48187Y-33723D01*
X48148Y-33646D01*
X48110Y-33494D01*
X48110Y-33304D01*
X48148Y-33151D01*
X48187Y-33075D01*
X48225Y-33037D01*
X48301Y-32999D01*
X49330Y-33799D02*
X48872Y-33799D01*
X49101Y-33799D02*
X49101Y-32999D01*
X49025Y-33113D01*
X48949Y-33189D01*
X48872Y-33227D01*
X49634Y-33075D02*
X49672Y-33037D01*
X49749Y-32999D01*
X49939Y-32999D01*
X50015Y-33037D01*
X50053Y-33075D01*
X50092Y-33151D01*
X50092Y-33227D01*
X50053Y-33342D01*
X49596Y-33799D01*
X50092Y-33799D01*
G54D13*
X44000Y-77025D02*
X45000Y-77025D01*
X44000Y-76025D02*
X45000Y-76025D01*
G54D11*
X44000Y-77025D02*
X44000Y-76025D01*
X45000Y-76025D02*
X45000Y-77025D01*
X45000Y-60725D02*
X46800Y-60725D01*
X46800Y-60725D02*
X46800Y-68525D01*
X46800Y-68525D02*
X45000Y-68525D01*
X45000Y-68525D02*
X45000Y-60725D01*
G54D14*
X46500Y-47000D02*
X44500Y-47000D01*
X44500Y-47000D02*
X44500Y-59000D01*
X44500Y-59000D02*
X46500Y-59000D01*
X46500Y-59000D02*
X46500Y-47000D01*
G54D10*
X45130Y-60855D02*
X45130Y-61395D01*
X45670Y-61395D01*
X45670Y-60855D01*
X45130Y-60855D01*
X46670Y-61125D02*
X46664Y-61177D01*
X46649Y-61227D01*
X46624Y-61274D01*
X46591Y-61315D01*
X46550Y-61348D01*
X46504Y-61373D01*
X46454Y-61389D01*
X46401Y-61394D01*
X46350Y-61390D01*
X46299Y-61375D01*
X46253Y-61350D01*
X46212Y-61317D01*
X46178Y-61277D01*
X46152Y-61231D01*
X46136Y-61181D01*
X46131Y-61128D01*
X46135Y-61077D01*
X46149Y-61026D01*
X46174Y-60979D01*
X46206Y-60938D01*
X46246Y-60904D01*
X46292Y-60878D01*
X46343Y-60862D01*
X46395Y-60856D01*
X46446Y-60860D01*
X46497Y-60874D01*
X46544Y-60898D01*
X46586Y-60930D01*
X46620Y-60970D01*
X46646Y-61016D01*
X46663Y-61066D01*
X46669Y-61118D01*
X46670Y-61125D01*
X45670Y-62125D02*
X45664Y-62177D01*
X45649Y-62227D01*
X45624Y-62274D01*
X45591Y-62315D01*
X45550Y-62348D01*
X45504Y-62373D01*
X45454Y-62389D01*
X45401Y-62394D01*
X45350Y-62390D01*
X45299Y-62375D01*
X45253Y-62350D01*
X45212Y-62317D01*
X45178Y-62277D01*
X45152Y-62231D01*
X45136Y-62181D01*
X45131Y-62128D01*
X45135Y-62077D01*
X45149Y-62026D01*
X45174Y-61979D01*
X45206Y-61938D01*
X45246Y-61904D01*
X45292Y-61878D01*
X45343Y-61862D01*
X45395Y-61856D01*
X45446Y-61860D01*
X45497Y-61874D01*
X45544Y-61898D01*
X45586Y-61930D01*
X45620Y-61970D01*
X45646Y-62016D01*
X45663Y-62066D01*
X45669Y-62118D01*
X45670Y-62125D01*
X46670Y-62125D02*
X46664Y-62177D01*
X46649Y-62227D01*
X46624Y-62274D01*
X46591Y-62315D01*
X46550Y-62348D01*
X46504Y-62373D01*
X46454Y-62389D01*
X46401Y-62394D01*
X46350Y-62390D01*
X46299Y-62375D01*
X46253Y-62350D01*
X46212Y-62317D01*
X46178Y-62277D01*
X46152Y-62231D01*
X46136Y-62181D01*
X46131Y-62128D01*
X46135Y-62077D01*
X46149Y-62026D01*
X46174Y-61979D01*
X46206Y-61938D01*
X46246Y-61904D01*
X46292Y-61878D01*
X46343Y-61862D01*
X46395Y-61856D01*
X46446Y-61860D01*
X46497Y-61874D01*
X46544Y-61898D01*
X46586Y-61930D01*
X46620Y-61970D01*
X46646Y-62016D01*
X46663Y-62066D01*
X46669Y-62118D01*
X46670Y-62125D01*
X45670Y-63125D02*
X45664Y-63177D01*
X45649Y-63227D01*
X45624Y-63274D01*
X45591Y-63315D01*
X45550Y-63348D01*
X45504Y-63373D01*
X45454Y-63389D01*
X45401Y-63394D01*
X45350Y-63390D01*
X45299Y-63375D01*
X45253Y-63350D01*
X45212Y-63317D01*
X45178Y-63277D01*
X45152Y-63231D01*
X45136Y-63181D01*
X45131Y-63128D01*
X45135Y-63077D01*
X45149Y-63026D01*
X45174Y-62979D01*
X45206Y-62938D01*
X45246Y-62904D01*
X45292Y-62878D01*
X45343Y-62862D01*
X45395Y-62856D01*
X45446Y-62860D01*
X45497Y-62874D01*
X45544Y-62898D01*
X45586Y-62930D01*
X45620Y-62970D01*
X45646Y-63016D01*
X45663Y-63066D01*
X45669Y-63118D01*
X45670Y-63125D01*
X46670Y-63125D02*
X46664Y-63177D01*
X46649Y-63227D01*
X46624Y-63274D01*
X46591Y-63315D01*
X46550Y-63348D01*
X46504Y-63373D01*
X46454Y-63389D01*
X46401Y-63394D01*
X46350Y-63390D01*
X46299Y-63375D01*
X46253Y-63350D01*
X46212Y-63317D01*
X46178Y-63277D01*
X46152Y-63231D01*
X46136Y-63181D01*
X46131Y-63128D01*
X46135Y-63077D01*
X46149Y-63026D01*
X46174Y-62979D01*
X46206Y-62938D01*
X46246Y-62904D01*
X46292Y-62878D01*
X46343Y-62862D01*
X46395Y-62856D01*
X46446Y-62860D01*
X46497Y-62874D01*
X46544Y-62898D01*
X46586Y-62930D01*
X46620Y-62970D01*
X46646Y-63016D01*
X46663Y-63066D01*
X46669Y-63118D01*
X46670Y-63125D01*
X45670Y-64125D02*
X45664Y-64177D01*
X45649Y-64227D01*
X45624Y-64274D01*
X45591Y-64315D01*
X45550Y-64348D01*
X45504Y-64373D01*
X45454Y-64389D01*
X45401Y-64394D01*
X45350Y-64390D01*
X45299Y-64375D01*
X45253Y-64350D01*
X45212Y-64317D01*
X45178Y-64277D01*
X45152Y-64231D01*
X45136Y-64181D01*
X45131Y-64128D01*
X45135Y-64077D01*
X45149Y-64026D01*
X45174Y-63979D01*
X45206Y-63938D01*
X45246Y-63904D01*
X45292Y-63878D01*
X45343Y-63862D01*
X45395Y-63856D01*
X45446Y-63860D01*
X45497Y-63874D01*
X45544Y-63898D01*
X45586Y-63930D01*
X45620Y-63970D01*
X45646Y-64016D01*
X45663Y-64066D01*
X45669Y-64118D01*
X45670Y-64125D01*
X46670Y-64125D02*
X46664Y-64177D01*
X46649Y-64227D01*
X46624Y-64274D01*
X46591Y-64315D01*
X46550Y-64348D01*
X46504Y-64373D01*
X46454Y-64389D01*
X46401Y-64394D01*
X46350Y-64390D01*
X46299Y-64375D01*
X46253Y-64350D01*
X46212Y-64317D01*
X46178Y-64277D01*
X46152Y-64231D01*
X46136Y-64181D01*
X46131Y-64128D01*
X46135Y-64077D01*
X46149Y-64026D01*
X46174Y-63979D01*
X46206Y-63938D01*
X46246Y-63904D01*
X46292Y-63878D01*
X46343Y-63862D01*
X46395Y-63856D01*
X46446Y-63860D01*
X46497Y-63874D01*
X46544Y-63898D01*
X46586Y-63930D01*
X46620Y-63970D01*
X46646Y-64016D01*
X46663Y-64066D01*
X46669Y-64118D01*
X46670Y-64125D01*
X45670Y-65125D02*
X45664Y-65177D01*
X45649Y-65227D01*
X45624Y-65274D01*
X45591Y-65315D01*
X45550Y-65348D01*
X45504Y-65373D01*
X45454Y-65389D01*
X45401Y-65394D01*
X45350Y-65390D01*
X45299Y-65375D01*
X45253Y-65350D01*
X45212Y-65317D01*
X45178Y-65277D01*
X45152Y-65231D01*
X45136Y-65181D01*
X45131Y-65128D01*
X45135Y-65077D01*
X45149Y-65026D01*
X45174Y-64979D01*
X45206Y-64938D01*
X45246Y-64904D01*
X45292Y-64878D01*
X45343Y-64862D01*
X45395Y-64856D01*
X45446Y-64860D01*
X45497Y-64874D01*
X45544Y-64898D01*
X45586Y-64930D01*
X45620Y-64970D01*
X45646Y-65016D01*
X45663Y-65066D01*
X45669Y-65118D01*
X45670Y-65125D01*
X46670Y-65125D02*
X46664Y-65177D01*
X46649Y-65227D01*
X46624Y-65274D01*
X46591Y-65315D01*
X46550Y-65348D01*
X46504Y-65373D01*
X46454Y-65389D01*
X46401Y-65394D01*
X46350Y-65390D01*
X46299Y-65375D01*
X46253Y-65350D01*
X46212Y-65317D01*
X46178Y-65277D01*
X46152Y-65231D01*
X46136Y-65181D01*
X46131Y-65128D01*
X46135Y-65077D01*
X46149Y-65026D01*
X46174Y-64979D01*
X46206Y-64938D01*
X46246Y-64904D01*
X46292Y-64878D01*
X46343Y-64862D01*
X46395Y-64856D01*
X46446Y-64860D01*
X46497Y-64874D01*
X46544Y-64898D01*
X46586Y-64930D01*
X46620Y-64970D01*
X46646Y-65016D01*
X46663Y-65066D01*
X46669Y-65118D01*
X46670Y-65125D01*
X45670Y-66125D02*
X45664Y-66177D01*
X45649Y-66227D01*
X45624Y-66274D01*
X45591Y-66315D01*
X45550Y-66348D01*
X45504Y-66373D01*
X45454Y-66389D01*
X45401Y-66394D01*
X45350Y-66390D01*
X45299Y-66375D01*
X45253Y-66350D01*
X45212Y-66317D01*
X45178Y-66277D01*
X45152Y-66231D01*
X45136Y-66181D01*
X45131Y-66128D01*
X45135Y-66077D01*
X45149Y-66026D01*
X45174Y-65979D01*
X45206Y-65938D01*
X45246Y-65904D01*
X45292Y-65878D01*
X45343Y-65862D01*
X45395Y-65856D01*
X45446Y-65860D01*
X45497Y-65874D01*
X45544Y-65898D01*
X45586Y-65930D01*
X45620Y-65970D01*
X45646Y-66016D01*
X45663Y-66066D01*
X45669Y-66118D01*
X45670Y-66125D01*
X46670Y-66125D02*
X46664Y-66177D01*
X46649Y-66227D01*
X46624Y-66274D01*
X46591Y-66315D01*
X46550Y-66348D01*
X46504Y-66373D01*
X46454Y-66389D01*
X46401Y-66394D01*
X46350Y-66390D01*
X46299Y-66375D01*
X46253Y-66350D01*
X46212Y-66317D01*
X46178Y-66277D01*
X46152Y-66231D01*
X46136Y-66181D01*
X46131Y-66128D01*
X46135Y-66077D01*
X46149Y-66026D01*
X46174Y-65979D01*
X46206Y-65938D01*
X46246Y-65904D01*
X46292Y-65878D01*
X46343Y-65862D01*
X46395Y-65856D01*
X46446Y-65860D01*
X46497Y-65874D01*
X46544Y-65898D01*
X46586Y-65930D01*
X46620Y-65970D01*
X46646Y-66016D01*
X46663Y-66066D01*
X46669Y-66118D01*
X46670Y-66125D01*
X45670Y-67125D02*
X45664Y-67177D01*
X45649Y-67227D01*
X45624Y-67274D01*
X45591Y-67315D01*
X45550Y-67348D01*
X45504Y-67373D01*
X45454Y-67389D01*
X45401Y-67394D01*
X45350Y-67390D01*
X45299Y-67375D01*
X45253Y-67350D01*
X45212Y-67317D01*
X45178Y-67277D01*
X45152Y-67231D01*
X45136Y-67181D01*
X45131Y-67128D01*
X45135Y-67077D01*
X45149Y-67026D01*
X45174Y-66979D01*
X45206Y-66938D01*
X45246Y-66904D01*
X45292Y-66878D01*
X45343Y-66862D01*
X45395Y-66856D01*
X45446Y-66860D01*
X45497Y-66874D01*
X45544Y-66898D01*
X45586Y-66930D01*
X45620Y-66970D01*
X45646Y-67016D01*
X45663Y-67066D01*
X45669Y-67118D01*
X45670Y-67125D01*
X46670Y-67125D02*
X46664Y-67177D01*
X46649Y-67227D01*
X46624Y-67274D01*
X46591Y-67315D01*
X46550Y-67348D01*
X46504Y-67373D01*
X46454Y-67389D01*
X46401Y-67394D01*
X46350Y-67390D01*
X46299Y-67375D01*
X46253Y-67350D01*
X46212Y-67317D01*
X46178Y-67277D01*
X46152Y-67231D01*
X46136Y-67181D01*
X46131Y-67128D01*
X46135Y-67077D01*
X46149Y-67026D01*
X46174Y-66979D01*
X46206Y-66938D01*
X46246Y-66904D01*
X46292Y-66878D01*
X46343Y-66862D01*
X46395Y-66856D01*
X46446Y-66860D01*
X46497Y-66874D01*
X46544Y-66898D01*
X46586Y-66930D01*
X46620Y-66970D01*
X46646Y-67016D01*
X46663Y-67066D01*
X46669Y-67118D01*
X46670Y-67125D01*
X45670Y-68125D02*
X45664Y-68177D01*
X45649Y-68227D01*
X45624Y-68274D01*
X45591Y-68315D01*
X45550Y-68348D01*
X45504Y-68373D01*
X45454Y-68389D01*
X45401Y-68394D01*
X45350Y-68390D01*
X45299Y-68375D01*
X45253Y-68350D01*
X45212Y-68317D01*
X45178Y-68277D01*
X45152Y-68231D01*
X45136Y-68181D01*
X45131Y-68128D01*
X45135Y-68077D01*
X45149Y-68026D01*
X45174Y-67979D01*
X45206Y-67938D01*
X45246Y-67904D01*
X45292Y-67878D01*
X45343Y-67862D01*
X45395Y-67856D01*
X45446Y-67860D01*
X45497Y-67874D01*
X45544Y-67898D01*
X45586Y-67930D01*
X45620Y-67970D01*
X45646Y-68016D01*
X45663Y-68066D01*
X45669Y-68118D01*
X45670Y-68125D01*
X46670Y-68125D02*
X46664Y-68177D01*
X46649Y-68227D01*
X46624Y-68274D01*
X46591Y-68315D01*
X46550Y-68348D01*
X46504Y-68373D01*
X46454Y-68389D01*
X46401Y-68394D01*
X46350Y-68390D01*
X46299Y-68375D01*
X46253Y-68350D01*
X46212Y-68317D01*
X46178Y-68277D01*
X46152Y-68231D01*
X46136Y-68181D01*
X46131Y-68128D01*
X46135Y-68077D01*
X46149Y-68026D01*
X46174Y-67979D01*
X46206Y-67938D01*
X46246Y-67904D01*
X46292Y-67878D01*
X46343Y-67862D01*
X46395Y-67856D01*
X46446Y-67860D01*
X46497Y-67874D01*
X46544Y-67898D01*
X46586Y-67930D01*
X46620Y-67970D01*
X46646Y-68016D01*
X46663Y-68066D01*
X46669Y-68118D01*
X46670Y-68125D01*
X44730Y-47230D02*
X44730Y-47770D01*
X45270Y-47770D01*
X45270Y-47230D01*
X44730Y-47230D01*
X46270Y-47500D02*
X46264Y-47552D01*
X46249Y-47602D01*
X46224Y-47649D01*
X46191Y-47690D01*
X46150Y-47723D01*
X46104Y-47748D01*
X46054Y-47764D01*
X46001Y-47769D01*
X45950Y-47765D01*
X45899Y-47750D01*
X45853Y-47725D01*
X45812Y-47692D01*
X45778Y-47652D01*
X45752Y-47606D01*
X45736Y-47556D01*
X45731Y-47503D01*
X45735Y-47452D01*
X45749Y-47401D01*
X45774Y-47354D01*
X45806Y-47313D01*
X45846Y-47279D01*
X45892Y-47253D01*
X45943Y-47237D01*
X45995Y-47231D01*
X46046Y-47235D01*
X46097Y-47249D01*
X46144Y-47273D01*
X46186Y-47305D01*
X46220Y-47345D01*
X46246Y-47391D01*
X46263Y-47441D01*
X46269Y-47493D01*
X46270Y-47500D01*
X45270Y-48500D02*
X45264Y-48552D01*
X45249Y-48602D01*
X45224Y-48649D01*
X45191Y-48690D01*
X45150Y-48723D01*
X45104Y-48748D01*
X45054Y-48764D01*
X45001Y-48769D01*
X44950Y-48765D01*
X44899Y-48750D01*
X44853Y-48725D01*
X44812Y-48692D01*
X44778Y-48652D01*
X44752Y-48606D01*
X44736Y-48556D01*
X44731Y-48503D01*
X44735Y-48452D01*
X44749Y-48401D01*
X44774Y-48354D01*
X44806Y-48313D01*
X44846Y-48279D01*
X44892Y-48253D01*
X44943Y-48237D01*
X44995Y-48231D01*
X45046Y-48235D01*
X45097Y-48249D01*
X45144Y-48273D01*
X45186Y-48305D01*
X45220Y-48345D01*
X45246Y-48391D01*
X45263Y-48441D01*
X45269Y-48493D01*
X45270Y-48500D01*
X46270Y-48500D02*
X46264Y-48552D01*
X46249Y-48602D01*
X46224Y-48649D01*
X46191Y-48690D01*
X46150Y-48723D01*
X46104Y-48748D01*
X46054Y-48764D01*
X46001Y-48769D01*
X45950Y-48765D01*
X45899Y-48750D01*
X45853Y-48725D01*
X45812Y-48692D01*
X45778Y-48652D01*
X45752Y-48606D01*
X45736Y-48556D01*
X45731Y-48503D01*
X45735Y-48452D01*
X45749Y-48401D01*
X45774Y-48354D01*
X45806Y-48313D01*
X45846Y-48279D01*
X45892Y-48253D01*
X45943Y-48237D01*
X45995Y-48231D01*
X46046Y-48235D01*
X46097Y-48249D01*
X46144Y-48273D01*
X46186Y-48305D01*
X46220Y-48345D01*
X46246Y-48391D01*
X46263Y-48441D01*
X46269Y-48493D01*
X46270Y-48500D01*
X45270Y-49500D02*
X45264Y-49552D01*
X45249Y-49602D01*
X45224Y-49649D01*
X45191Y-49690D01*
X45150Y-49723D01*
X45104Y-49748D01*
X45054Y-49764D01*
X45001Y-49769D01*
X44950Y-49765D01*
X44899Y-49750D01*
X44853Y-49725D01*
X44812Y-49692D01*
X44778Y-49652D01*
X44752Y-49606D01*
X44736Y-49556D01*
X44731Y-49503D01*
X44735Y-49452D01*
X44749Y-49401D01*
X44774Y-49354D01*
X44806Y-49313D01*
X44846Y-49279D01*
X44892Y-49253D01*
X44943Y-49237D01*
X44995Y-49231D01*
X45046Y-49235D01*
X45097Y-49249D01*
X45144Y-49273D01*
X45186Y-49305D01*
X45220Y-49345D01*
X45246Y-49391D01*
X45263Y-49441D01*
X45269Y-49493D01*
X45270Y-49500D01*
X46270Y-49500D02*
X46264Y-49552D01*
X46249Y-49602D01*
X46224Y-49649D01*
X46191Y-49690D01*
X46150Y-49723D01*
X46104Y-49748D01*
X46054Y-49764D01*
X46001Y-49769D01*
X45950Y-49765D01*
X45899Y-49750D01*
X45853Y-49725D01*
X45812Y-49692D01*
X45778Y-49652D01*
X45752Y-49606D01*
X45736Y-49556D01*
X45731Y-49503D01*
X45735Y-49452D01*
X45749Y-49401D01*
X45774Y-49354D01*
X45806Y-49313D01*
X45846Y-49279D01*
X45892Y-49253D01*
X45943Y-49237D01*
X45995Y-49231D01*
X46046Y-49235D01*
X46097Y-49249D01*
X46144Y-49273D01*
X46186Y-49305D01*
X46220Y-49345D01*
X46246Y-49391D01*
X46263Y-49441D01*
X46269Y-49493D01*
X46270Y-49500D01*
X45270Y-50500D02*
X45264Y-50552D01*
X45249Y-50602D01*
X45224Y-50649D01*
X45191Y-50690D01*
X45150Y-50723D01*
X45104Y-50748D01*
X45054Y-50764D01*
X45001Y-50769D01*
X44950Y-50765D01*
X44899Y-50750D01*
X44853Y-50725D01*
X44812Y-50692D01*
X44778Y-50652D01*
X44752Y-50606D01*
X44736Y-50556D01*
X44731Y-50503D01*
X44735Y-50452D01*
X44749Y-50401D01*
X44774Y-50354D01*
X44806Y-50313D01*
X44846Y-50279D01*
X44892Y-50253D01*
X44943Y-50237D01*
X44995Y-50231D01*
X45046Y-50235D01*
X45097Y-50249D01*
X45144Y-50273D01*
X45186Y-50305D01*
X45220Y-50345D01*
X45246Y-50391D01*
X45263Y-50441D01*
X45269Y-50493D01*
X45270Y-50500D01*
X46270Y-50500D02*
X46264Y-50552D01*
X46249Y-50602D01*
X46224Y-50649D01*
X46191Y-50690D01*
X46150Y-50723D01*
X46104Y-50748D01*
X46054Y-50764D01*
X46001Y-50769D01*
X45950Y-50765D01*
X45899Y-50750D01*
X45853Y-50725D01*
X45812Y-50692D01*
X45778Y-50652D01*
X45752Y-50606D01*
X45736Y-50556D01*
X45731Y-50503D01*
X45735Y-50452D01*
X45749Y-50401D01*
X45774Y-50354D01*
X45806Y-50313D01*
X45846Y-50279D01*
X45892Y-50253D01*
X45943Y-50237D01*
X45995Y-50231D01*
X46046Y-50235D01*
X46097Y-50249D01*
X46144Y-50273D01*
X46186Y-50305D01*
X46220Y-50345D01*
X46246Y-50391D01*
X46263Y-50441D01*
X46269Y-50493D01*
X46270Y-50500D01*
X45270Y-51500D02*
X45264Y-51552D01*
X45249Y-51602D01*
X45224Y-51649D01*
X45191Y-51690D01*
X45150Y-51723D01*
X45104Y-51748D01*
X45054Y-51764D01*
X45001Y-51769D01*
X44950Y-51765D01*
X44899Y-51750D01*
X44853Y-51725D01*
X44812Y-51692D01*
X44778Y-51652D01*
X44752Y-51606D01*
X44736Y-51556D01*
X44731Y-51503D01*
X44735Y-51452D01*
X44749Y-51401D01*
X44774Y-51354D01*
X44806Y-51313D01*
X44846Y-51279D01*
X44892Y-51253D01*
X44943Y-51237D01*
X44995Y-51231D01*
X45046Y-51235D01*
X45097Y-51249D01*
X45144Y-51273D01*
X45186Y-51305D01*
X45220Y-51345D01*
X45246Y-51391D01*
X45263Y-51441D01*
X45269Y-51493D01*
X45270Y-51500D01*
X46270Y-51500D02*
X46264Y-51552D01*
X46249Y-51602D01*
X46224Y-51649D01*
X46191Y-51690D01*
X46150Y-51723D01*
X46104Y-51748D01*
X46054Y-51764D01*
X46001Y-51769D01*
X45950Y-51765D01*
X45899Y-51750D01*
X45853Y-51725D01*
X45812Y-51692D01*
X45778Y-51652D01*
X45752Y-51606D01*
X45736Y-51556D01*
X45731Y-51503D01*
X45735Y-51452D01*
X45749Y-51401D01*
X45774Y-51354D01*
X45806Y-51313D01*
X45846Y-51279D01*
X45892Y-51253D01*
X45943Y-51237D01*
X45995Y-51231D01*
X46046Y-51235D01*
X46097Y-51249D01*
X46144Y-51273D01*
X46186Y-51305D01*
X46220Y-51345D01*
X46246Y-51391D01*
X46263Y-51441D01*
X46269Y-51493D01*
X46270Y-51500D01*
X45270Y-52500D02*
X45264Y-52552D01*
X45249Y-52602D01*
X45224Y-52649D01*
X45191Y-52690D01*
X45150Y-52723D01*
X45104Y-52748D01*
X45054Y-52764D01*
X45001Y-52769D01*
X44950Y-52765D01*
X44899Y-52750D01*
X44853Y-52725D01*
X44812Y-52692D01*
X44778Y-52652D01*
X44752Y-52606D01*
X44736Y-52556D01*
X44731Y-52503D01*
X44735Y-52452D01*
X44749Y-52401D01*
X44774Y-52354D01*
X44806Y-52313D01*
X44846Y-52279D01*
X44892Y-52253D01*
X44943Y-52237D01*
X44995Y-52231D01*
X45046Y-52235D01*
X45097Y-52249D01*
X45144Y-52273D01*
X45186Y-52305D01*
X45220Y-52345D01*
X45246Y-52391D01*
X45263Y-52441D01*
X45269Y-52493D01*
X45270Y-52500D01*
X46270Y-52500D02*
X46264Y-52552D01*
X46249Y-52602D01*
X46224Y-52649D01*
X46191Y-52690D01*
X46150Y-52723D01*
X46104Y-52748D01*
X46054Y-52764D01*
X46001Y-52769D01*
X45950Y-52765D01*
X45899Y-52750D01*
X45853Y-52725D01*
X45812Y-52692D01*
X45778Y-52652D01*
X45752Y-52606D01*
X45736Y-52556D01*
X45731Y-52503D01*
X45735Y-52452D01*
X45749Y-52401D01*
X45774Y-52354D01*
X45806Y-52313D01*
X45846Y-52279D01*
X45892Y-52253D01*
X45943Y-52237D01*
X45995Y-52231D01*
X46046Y-52235D01*
X46097Y-52249D01*
X46144Y-52273D01*
X46186Y-52305D01*
X46220Y-52345D01*
X46246Y-52391D01*
X46263Y-52441D01*
X46269Y-52493D01*
X46270Y-52500D01*
X45270Y-53500D02*
X45264Y-53552D01*
X45249Y-53602D01*
X45224Y-53649D01*
X45191Y-53690D01*
X45150Y-53723D01*
X45104Y-53748D01*
X45054Y-53764D01*
X45001Y-53769D01*
X44950Y-53765D01*
X44899Y-53750D01*
X44853Y-53725D01*
X44812Y-53692D01*
X44778Y-53652D01*
X44752Y-53606D01*
X44736Y-53556D01*
X44731Y-53503D01*
X44735Y-53452D01*
X44749Y-53401D01*
X44774Y-53354D01*
X44806Y-53313D01*
X44846Y-53279D01*
X44892Y-53253D01*
X44943Y-53237D01*
X44995Y-53231D01*
X45046Y-53235D01*
X45097Y-53249D01*
X45144Y-53273D01*
X45186Y-53305D01*
X45220Y-53345D01*
X45246Y-53391D01*
X45263Y-53441D01*
X45269Y-53493D01*
X45270Y-53500D01*
X46270Y-53500D02*
X46264Y-53552D01*
X46249Y-53602D01*
X46224Y-53649D01*
X46191Y-53690D01*
X46150Y-53723D01*
X46104Y-53748D01*
X46054Y-53764D01*
X46001Y-53769D01*
X45950Y-53765D01*
X45899Y-53750D01*
X45853Y-53725D01*
X45812Y-53692D01*
X45778Y-53652D01*
X45752Y-53606D01*
X45736Y-53556D01*
X45731Y-53503D01*
X45735Y-53452D01*
X45749Y-53401D01*
X45774Y-53354D01*
X45806Y-53313D01*
X45846Y-53279D01*
X45892Y-53253D01*
X45943Y-53237D01*
X45995Y-53231D01*
X46046Y-53235D01*
X46097Y-53249D01*
X46144Y-53273D01*
X46186Y-53305D01*
X46220Y-53345D01*
X46246Y-53391D01*
X46263Y-53441D01*
X46269Y-53493D01*
X46270Y-53500D01*
X45270Y-54500D02*
X45264Y-54552D01*
X45249Y-54602D01*
X45224Y-54649D01*
X45191Y-54690D01*
X45150Y-54723D01*
X45104Y-54748D01*
X45054Y-54764D01*
X45001Y-54769D01*
X44950Y-54765D01*
X44899Y-54750D01*
X44853Y-54725D01*
X44812Y-54692D01*
X44778Y-54652D01*
X44752Y-54606D01*
X44736Y-54556D01*
X44731Y-54503D01*
X44735Y-54452D01*
X44749Y-54401D01*
X44774Y-54354D01*
X44806Y-54313D01*
X44846Y-54279D01*
X44892Y-54253D01*
X44943Y-54237D01*
X44995Y-54231D01*
X45046Y-54235D01*
X45097Y-54249D01*
X45144Y-54273D01*
X45186Y-54305D01*
X45220Y-54345D01*
X45246Y-54391D01*
X45263Y-54441D01*
X45269Y-54493D01*
X45270Y-54500D01*
X46270Y-54500D02*
X46264Y-54552D01*
X46249Y-54602D01*
X46224Y-54649D01*
X46191Y-54690D01*
X46150Y-54723D01*
X46104Y-54748D01*
X46054Y-54764D01*
X46001Y-54769D01*
X45950Y-54765D01*
X45899Y-54750D01*
X45853Y-54725D01*
X45812Y-54692D01*
X45778Y-54652D01*
X45752Y-54606D01*
X45736Y-54556D01*
X45731Y-54503D01*
X45735Y-54452D01*
X45749Y-54401D01*
X45774Y-54354D01*
X45806Y-54313D01*
X45846Y-54279D01*
X45892Y-54253D01*
X45943Y-54237D01*
X45995Y-54231D01*
X46046Y-54235D01*
X46097Y-54249D01*
X46144Y-54273D01*
X46186Y-54305D01*
X46220Y-54345D01*
X46246Y-54391D01*
X46263Y-54441D01*
X46269Y-54493D01*
X46270Y-54500D01*
X45270Y-55500D02*
X45264Y-55552D01*
X45249Y-55602D01*
X45224Y-55649D01*
X45191Y-55690D01*
X45150Y-55723D01*
X45104Y-55748D01*
X45054Y-55764D01*
X45001Y-55769D01*
X44950Y-55765D01*
X44899Y-55750D01*
X44853Y-55725D01*
X44812Y-55692D01*
X44778Y-55652D01*
X44752Y-55606D01*
X44736Y-55556D01*
X44731Y-55503D01*
X44735Y-55452D01*
X44749Y-55401D01*
X44774Y-55354D01*
X44806Y-55313D01*
X44846Y-55279D01*
X44892Y-55253D01*
X44943Y-55237D01*
X44995Y-55231D01*
X45046Y-55235D01*
X45097Y-55249D01*
X45144Y-55273D01*
X45186Y-55305D01*
X45220Y-55345D01*
X45246Y-55391D01*
X45263Y-55441D01*
X45269Y-55493D01*
X45270Y-55500D01*
X46270Y-55500D02*
X46264Y-55552D01*
X46249Y-55602D01*
X46224Y-55649D01*
X46191Y-55690D01*
X46150Y-55723D01*
X46104Y-55748D01*
X46054Y-55764D01*
X46001Y-55769D01*
X45950Y-55765D01*
X45899Y-55750D01*
X45853Y-55725D01*
X45812Y-55692D01*
X45778Y-55652D01*
X45752Y-55606D01*
X45736Y-55556D01*
X45731Y-55503D01*
X45735Y-55452D01*
X45749Y-55401D01*
X45774Y-55354D01*
X45806Y-55313D01*
X45846Y-55279D01*
X45892Y-55253D01*
X45943Y-55237D01*
X45995Y-55231D01*
X46046Y-55235D01*
X46097Y-55249D01*
X46144Y-55273D01*
X46186Y-55305D01*
X46220Y-55345D01*
X46246Y-55391D01*
X46263Y-55441D01*
X46269Y-55493D01*
X46270Y-55500D01*
X45270Y-56500D02*
X45264Y-56552D01*
X45249Y-56602D01*
X45224Y-56649D01*
X45191Y-56690D01*
X45150Y-56723D01*
X45104Y-56748D01*
X45054Y-56764D01*
X45001Y-56769D01*
X44950Y-56765D01*
X44899Y-56750D01*
X44853Y-56725D01*
X44812Y-56692D01*
X44778Y-56652D01*
X44752Y-56606D01*
X44736Y-56556D01*
X44731Y-56503D01*
X44735Y-56452D01*
X44749Y-56401D01*
X44774Y-56354D01*
X44806Y-56313D01*
X44846Y-56279D01*
X44892Y-56253D01*
X44943Y-56237D01*
X44995Y-56231D01*
X45046Y-56235D01*
X45097Y-56249D01*
X45144Y-56273D01*
X45186Y-56305D01*
X45220Y-56345D01*
X45246Y-56391D01*
X45263Y-56441D01*
X45269Y-56493D01*
X45270Y-56500D01*
X46270Y-56500D02*
X46264Y-56552D01*
X46249Y-56602D01*
X46224Y-56649D01*
X46191Y-56690D01*
X46150Y-56723D01*
X46104Y-56748D01*
X46054Y-56764D01*
X46001Y-56769D01*
X45950Y-56765D01*
X45899Y-56750D01*
X45853Y-56725D01*
X45812Y-56692D01*
X45778Y-56652D01*
X45752Y-56606D01*
X45736Y-56556D01*
X45731Y-56503D01*
X45735Y-56452D01*
X45749Y-56401D01*
X45774Y-56354D01*
X45806Y-56313D01*
X45846Y-56279D01*
X45892Y-56253D01*
X45943Y-56237D01*
X45995Y-56231D01*
X46046Y-56235D01*
X46097Y-56249D01*
X46144Y-56273D01*
X46186Y-56305D01*
X46220Y-56345D01*
X46246Y-56391D01*
X46263Y-56441D01*
X46269Y-56493D01*
X46270Y-56500D01*
X45270Y-57500D02*
X45264Y-57552D01*
X45249Y-57602D01*
X45224Y-57649D01*
X45191Y-57690D01*
X45150Y-57723D01*
X45104Y-57748D01*
X45054Y-57764D01*
X45001Y-57769D01*
X44950Y-57765D01*
X44899Y-57750D01*
X44853Y-57725D01*
X44812Y-57692D01*
X44778Y-57652D01*
X44752Y-57606D01*
X44736Y-57556D01*
X44731Y-57503D01*
X44735Y-57452D01*
X44749Y-57401D01*
X44774Y-57354D01*
X44806Y-57313D01*
X44846Y-57279D01*
X44892Y-57253D01*
X44943Y-57237D01*
X44995Y-57231D01*
X45046Y-57235D01*
X45097Y-57249D01*
X45144Y-57273D01*
X45186Y-57305D01*
X45220Y-57345D01*
X45246Y-57391D01*
X45263Y-57441D01*
X45269Y-57493D01*
X45270Y-57500D01*
X46270Y-57500D02*
X46264Y-57552D01*
X46249Y-57602D01*
X46224Y-57649D01*
X46191Y-57690D01*
X46150Y-57723D01*
X46104Y-57748D01*
X46054Y-57764D01*
X46001Y-57769D01*
X45950Y-57765D01*
X45899Y-57750D01*
X45853Y-57725D01*
X45812Y-57692D01*
X45778Y-57652D01*
X45752Y-57606D01*
X45736Y-57556D01*
X45731Y-57503D01*
X45735Y-57452D01*
X45749Y-57401D01*
X45774Y-57354D01*
X45806Y-57313D01*
X45846Y-57279D01*
X45892Y-57253D01*
X45943Y-57237D01*
X45995Y-57231D01*
X46046Y-57235D01*
X46097Y-57249D01*
X46144Y-57273D01*
X46186Y-57305D01*
X46220Y-57345D01*
X46246Y-57391D01*
X46263Y-57441D01*
X46269Y-57493D01*
X46270Y-57500D01*
X45270Y-58500D02*
X45264Y-58552D01*
X45249Y-58602D01*
X45224Y-58649D01*
X45191Y-58690D01*
X45150Y-58723D01*
X45104Y-58748D01*
X45054Y-58764D01*
X45001Y-58769D01*
X44950Y-58765D01*
X44899Y-58750D01*
X44853Y-58725D01*
X44812Y-58692D01*
X44778Y-58652D01*
X44752Y-58606D01*
X44736Y-58556D01*
X44731Y-58503D01*
X44735Y-58452D01*
X44749Y-58401D01*
X44774Y-58354D01*
X44806Y-58313D01*
X44846Y-58279D01*
X44892Y-58253D01*
X44943Y-58237D01*
X44995Y-58231D01*
X45046Y-58235D01*
X45097Y-58249D01*
X45144Y-58273D01*
X45186Y-58305D01*
X45220Y-58345D01*
X45246Y-58391D01*
X45263Y-58441D01*
X45269Y-58493D01*
X45270Y-58500D01*
X46270Y-58500D02*
X46264Y-58552D01*
X46249Y-58602D01*
X46224Y-58649D01*
X46191Y-58690D01*
X46150Y-58723D01*
X46104Y-58748D01*
X46054Y-58764D01*
X46001Y-58769D01*
X45950Y-58765D01*
X45899Y-58750D01*
X45853Y-58725D01*
X45812Y-58692D01*
X45778Y-58652D01*
X45752Y-58606D01*
X45736Y-58556D01*
X45731Y-58503D01*
X45735Y-58452D01*
X45749Y-58401D01*
X45774Y-58354D01*
X45806Y-58313D01*
X45846Y-58279D01*
X45892Y-58253D01*
X45943Y-58237D01*
X45995Y-58231D01*
X46046Y-58235D01*
X46097Y-58249D01*
X46144Y-58273D01*
X46186Y-58305D01*
X46220Y-58345D01*
X46246Y-58391D01*
X46263Y-58441D01*
X46269Y-58493D01*
X46270Y-58500D01*
G54D15*
M02*
