G04 (created by PCBNEW-RS274X (2012-01-19 BZR 3256)-stable) date 12/6/2012 10:52:00 PM*
G01*
G70*
G90*
%MOIN*%
G04 Gerber Fmt 3.4, Leading zero omitted, Abs format*
%FSLAX34Y34*%
G04 APERTURE LIST*
%ADD10C,0.006000*%
%ADD11R,0.065000X0.065000*%
%ADD12R,0.070000X0.070000*%
%ADD13C,0.070000*%
%ADD14O,0.167500X0.167500*%
%ADD15C,0.120000*%
%ADD16C,0.065000*%
G04 APERTURE END LIST*
G54D10*
G54D11*
X44500Y-76525D03*
G54D12*
X45400Y-61125D03*
G54D13*
X46400Y-61125D03*
X45400Y-62125D03*
X46400Y-62125D03*
X45400Y-63125D03*
X46400Y-63125D03*
X45400Y-64125D03*
X46400Y-64125D03*
X45400Y-65125D03*
X46400Y-65125D03*
X45400Y-66125D03*
X46400Y-66125D03*
X45400Y-67125D03*
X46400Y-67125D03*
X45400Y-68125D03*
X46400Y-68125D03*
G54D12*
X45000Y-47500D03*
G54D13*
X46000Y-47500D03*
X45000Y-48500D03*
X46000Y-48500D03*
X45000Y-49500D03*
X46000Y-49500D03*
X45000Y-50500D03*
X46000Y-50500D03*
X45000Y-51500D03*
X46000Y-51500D03*
X45000Y-52500D03*
X46000Y-52500D03*
X45000Y-53500D03*
X46000Y-53500D03*
X45000Y-54500D03*
X46000Y-54500D03*
X45000Y-55500D03*
X46000Y-55500D03*
X45000Y-56500D03*
X46000Y-56500D03*
X45000Y-57500D03*
X46000Y-57500D03*
X45000Y-58500D03*
X46000Y-58500D03*
G54D14*
X49410Y-42520D03*
X46060Y-42520D03*
G54D15*
X47550Y-42500D03*
G54D14*
X39490Y-72480D03*
X42840Y-72480D03*
G54D15*
X41350Y-72500D03*
G54D14*
X39490Y-67480D03*
X42840Y-67480D03*
G54D15*
X41350Y-67500D03*
G54D14*
X39490Y-42480D03*
X42840Y-42480D03*
G54D15*
X41350Y-42500D03*
G54D14*
X49410Y-72520D03*
X46060Y-72520D03*
G54D15*
X47550Y-72500D03*
G54D14*
X49410Y-37520D03*
X46060Y-37520D03*
G54D15*
X47550Y-37500D03*
G54D14*
X39490Y-57480D03*
X42840Y-57480D03*
G54D15*
X41350Y-57500D03*
G54D14*
X39490Y-52480D03*
X42840Y-52480D03*
G54D15*
X41350Y-52500D03*
G54D14*
X39490Y-37480D03*
X42840Y-37480D03*
G54D15*
X41350Y-37500D03*
G54D14*
X39490Y-47480D03*
X42840Y-47480D03*
G54D15*
X41350Y-47500D03*
G54D14*
X39490Y-62480D03*
X42840Y-62480D03*
G54D15*
X41350Y-62500D03*
G54D11*
X43800Y-35500D03*
G54D16*
X43800Y-34500D03*
G54D11*
X43800Y-40600D03*
G54D16*
X43800Y-39600D03*
G54D11*
X43700Y-50500D03*
G54D16*
X43700Y-49500D03*
G54D11*
X43700Y-45500D03*
G54D16*
X43700Y-44500D03*
G54D11*
X43700Y-65500D03*
G54D16*
X43700Y-64500D03*
G54D11*
X43800Y-70500D03*
G54D16*
X43800Y-69500D03*
G54D11*
X43700Y-60500D03*
G54D16*
X43700Y-59500D03*
G54D11*
X43700Y-55500D03*
G54D16*
X43700Y-54500D03*
M02*
