G04 (created by PCBNEW (2012-01-19 BZR 3256)-stable) date 12/6/2012 10:52:15 PM*
G01*
G70*
G90*
%MOIN*%
G04 Gerber Fmt 3.4, Leading zero omitted, Abs format*
%FSLAX34Y34*%
G04 APERTURE LIST*
%ADD10C,0.001000*%
%ADD11C,0.015000*%
%ADD12C,0.008000*%
G04 APERTURE END LIST*
G54D10*
G54D11*
X50700Y-60300D02*
X50700Y-69100D01*
X50700Y-69000D02*
X50700Y-77000D01*
X50700Y-60250D02*
X50700Y-33000D01*
X50700Y-33000D02*
X50700Y-32500D01*
X50700Y-32500D02*
X38700Y-32500D01*
X50700Y-77000D02*
X50700Y-77500D01*
X50700Y-77500D02*
X38700Y-77500D01*
X38700Y-32500D02*
X38200Y-32500D01*
X38200Y-32500D02*
X38200Y-77500D01*
X38200Y-77500D02*
X38700Y-77500D01*
G54D10*
X39575Y-34300D02*
X39825Y-34550D01*
X39825Y-34300D02*
X39575Y-34550D01*
X39575Y-55475D02*
X39825Y-55725D01*
X39825Y-55475D02*
X39575Y-55725D01*
X41475Y-66200D02*
X41725Y-66450D01*
X41725Y-66200D02*
X41475Y-66450D01*
X41500Y-71150D02*
X41750Y-71400D01*
X41750Y-71150D02*
X41500Y-71400D01*
X42175Y-54375D02*
X42425Y-54625D01*
X42425Y-54375D02*
X42175Y-54625D01*
X43800Y-56650D02*
X44050Y-56900D01*
X44050Y-56650D02*
X43800Y-56900D01*
X44275Y-60900D02*
X44525Y-61150D01*
X44525Y-60900D02*
X44275Y-61150D01*
X46800Y-50675D02*
X47050Y-50925D01*
X47050Y-50675D02*
X46800Y-50925D01*
X47275Y-54000D02*
X47525Y-54250D01*
X47525Y-54000D02*
X47275Y-54250D01*
X47275Y-67500D02*
X47525Y-67750D01*
X47525Y-67500D02*
X47275Y-67750D01*
X47375Y-53200D02*
X47625Y-53450D01*
X47625Y-53200D02*
X47375Y-53450D01*
X47875Y-44775D02*
X48125Y-45025D01*
X48125Y-44775D02*
X47875Y-45025D01*
X47975Y-66400D02*
X48225Y-66650D01*
X48225Y-66400D02*
X47975Y-66650D01*
X48375Y-45875D02*
X48625Y-46125D01*
X48625Y-45875D02*
X48375Y-46125D01*
X49575Y-48800D02*
X49825Y-49050D01*
X49825Y-48800D02*
X49575Y-49050D01*
X43860Y-44500D02*
X43856Y-44531D01*
X43847Y-44560D01*
X43833Y-44588D01*
X43813Y-44612D01*
X43789Y-44632D01*
X43762Y-44647D01*
X43732Y-44656D01*
X43701Y-44659D01*
X43671Y-44657D01*
X43641Y-44648D01*
X43613Y-44633D01*
X43589Y-44614D01*
X43568Y-44590D01*
X43553Y-44563D01*
X43544Y-44533D01*
X43541Y-44502D01*
X43543Y-44472D01*
X43552Y-44442D01*
X43566Y-44414D01*
X43585Y-44389D01*
X43609Y-44369D01*
X43636Y-44354D01*
X43666Y-44344D01*
X43697Y-44341D01*
X43727Y-44343D01*
X43757Y-44351D01*
X43785Y-44365D01*
X43810Y-44385D01*
X43830Y-44408D01*
X43846Y-44435D01*
X43856Y-44465D01*
X43859Y-44496D01*
X43860Y-44500D01*
X43860Y-45500D02*
X43856Y-45531D01*
X43847Y-45560D01*
X43833Y-45588D01*
X43813Y-45612D01*
X43789Y-45632D01*
X43762Y-45647D01*
X43732Y-45656D01*
X43701Y-45659D01*
X43671Y-45657D01*
X43641Y-45648D01*
X43613Y-45633D01*
X43589Y-45614D01*
X43568Y-45590D01*
X43553Y-45563D01*
X43544Y-45533D01*
X43541Y-45502D01*
X43543Y-45472D01*
X43552Y-45442D01*
X43566Y-45414D01*
X43585Y-45389D01*
X43609Y-45369D01*
X43636Y-45354D01*
X43666Y-45344D01*
X43697Y-45341D01*
X43727Y-45343D01*
X43757Y-45351D01*
X43785Y-45365D01*
X43810Y-45385D01*
X43830Y-45408D01*
X43846Y-45435D01*
X43856Y-45465D01*
X43859Y-45496D01*
X43860Y-45500D01*
X43860Y-49500D02*
X43856Y-49531D01*
X43847Y-49560D01*
X43833Y-49588D01*
X43813Y-49612D01*
X43789Y-49632D01*
X43762Y-49647D01*
X43732Y-49656D01*
X43701Y-49659D01*
X43671Y-49657D01*
X43641Y-49648D01*
X43613Y-49633D01*
X43589Y-49614D01*
X43568Y-49590D01*
X43553Y-49563D01*
X43544Y-49533D01*
X43541Y-49502D01*
X43543Y-49472D01*
X43552Y-49442D01*
X43566Y-49414D01*
X43585Y-49389D01*
X43609Y-49369D01*
X43636Y-49354D01*
X43666Y-49344D01*
X43697Y-49341D01*
X43727Y-49343D01*
X43757Y-49351D01*
X43785Y-49365D01*
X43810Y-49385D01*
X43830Y-49408D01*
X43846Y-49435D01*
X43856Y-49465D01*
X43859Y-49496D01*
X43860Y-49500D01*
X43860Y-50500D02*
X43856Y-50531D01*
X43847Y-50560D01*
X43833Y-50588D01*
X43813Y-50612D01*
X43789Y-50632D01*
X43762Y-50647D01*
X43732Y-50656D01*
X43701Y-50659D01*
X43671Y-50657D01*
X43641Y-50648D01*
X43613Y-50633D01*
X43589Y-50614D01*
X43568Y-50590D01*
X43553Y-50563D01*
X43544Y-50533D01*
X43541Y-50502D01*
X43543Y-50472D01*
X43552Y-50442D01*
X43566Y-50414D01*
X43585Y-50389D01*
X43609Y-50369D01*
X43636Y-50354D01*
X43666Y-50344D01*
X43697Y-50341D01*
X43727Y-50343D01*
X43757Y-50351D01*
X43785Y-50365D01*
X43810Y-50385D01*
X43830Y-50408D01*
X43846Y-50435D01*
X43856Y-50465D01*
X43859Y-50496D01*
X43860Y-50500D01*
X43860Y-54500D02*
X43856Y-54531D01*
X43847Y-54560D01*
X43833Y-54588D01*
X43813Y-54612D01*
X43789Y-54632D01*
X43762Y-54647D01*
X43732Y-54656D01*
X43701Y-54659D01*
X43671Y-54657D01*
X43641Y-54648D01*
X43613Y-54633D01*
X43589Y-54614D01*
X43568Y-54590D01*
X43553Y-54563D01*
X43544Y-54533D01*
X43541Y-54502D01*
X43543Y-54472D01*
X43552Y-54442D01*
X43566Y-54414D01*
X43585Y-54389D01*
X43609Y-54369D01*
X43636Y-54354D01*
X43666Y-54344D01*
X43697Y-54341D01*
X43727Y-54343D01*
X43757Y-54351D01*
X43785Y-54365D01*
X43810Y-54385D01*
X43830Y-54408D01*
X43846Y-54435D01*
X43856Y-54465D01*
X43859Y-54496D01*
X43860Y-54500D01*
X43860Y-55500D02*
X43856Y-55531D01*
X43847Y-55560D01*
X43833Y-55588D01*
X43813Y-55612D01*
X43789Y-55632D01*
X43762Y-55647D01*
X43732Y-55656D01*
X43701Y-55659D01*
X43671Y-55657D01*
X43641Y-55648D01*
X43613Y-55633D01*
X43589Y-55614D01*
X43568Y-55590D01*
X43553Y-55563D01*
X43544Y-55533D01*
X43541Y-55502D01*
X43543Y-55472D01*
X43552Y-55442D01*
X43566Y-55414D01*
X43585Y-55389D01*
X43609Y-55369D01*
X43636Y-55354D01*
X43666Y-55344D01*
X43697Y-55341D01*
X43727Y-55343D01*
X43757Y-55351D01*
X43785Y-55365D01*
X43810Y-55385D01*
X43830Y-55408D01*
X43846Y-55435D01*
X43856Y-55465D01*
X43859Y-55496D01*
X43860Y-55500D01*
X43860Y-59500D02*
X43856Y-59531D01*
X43847Y-59560D01*
X43833Y-59588D01*
X43813Y-59612D01*
X43789Y-59632D01*
X43762Y-59647D01*
X43732Y-59656D01*
X43701Y-59659D01*
X43671Y-59657D01*
X43641Y-59648D01*
X43613Y-59633D01*
X43589Y-59614D01*
X43568Y-59590D01*
X43553Y-59563D01*
X43544Y-59533D01*
X43541Y-59502D01*
X43543Y-59472D01*
X43552Y-59442D01*
X43566Y-59414D01*
X43585Y-59389D01*
X43609Y-59369D01*
X43636Y-59354D01*
X43666Y-59344D01*
X43697Y-59341D01*
X43727Y-59343D01*
X43757Y-59351D01*
X43785Y-59365D01*
X43810Y-59385D01*
X43830Y-59408D01*
X43846Y-59435D01*
X43856Y-59465D01*
X43859Y-59496D01*
X43860Y-59500D01*
X43860Y-60500D02*
X43856Y-60531D01*
X43847Y-60560D01*
X43833Y-60588D01*
X43813Y-60612D01*
X43789Y-60632D01*
X43762Y-60647D01*
X43732Y-60656D01*
X43701Y-60659D01*
X43671Y-60657D01*
X43641Y-60648D01*
X43613Y-60633D01*
X43589Y-60614D01*
X43568Y-60590D01*
X43553Y-60563D01*
X43544Y-60533D01*
X43541Y-60502D01*
X43543Y-60472D01*
X43552Y-60442D01*
X43566Y-60414D01*
X43585Y-60389D01*
X43609Y-60369D01*
X43636Y-60354D01*
X43666Y-60344D01*
X43697Y-60341D01*
X43727Y-60343D01*
X43757Y-60351D01*
X43785Y-60365D01*
X43810Y-60385D01*
X43830Y-60408D01*
X43846Y-60435D01*
X43856Y-60465D01*
X43859Y-60496D01*
X43860Y-60500D01*
X43860Y-64500D02*
X43856Y-64531D01*
X43847Y-64560D01*
X43833Y-64588D01*
X43813Y-64612D01*
X43789Y-64632D01*
X43762Y-64647D01*
X43732Y-64656D01*
X43701Y-64659D01*
X43671Y-64657D01*
X43641Y-64648D01*
X43613Y-64633D01*
X43589Y-64614D01*
X43568Y-64590D01*
X43553Y-64563D01*
X43544Y-64533D01*
X43541Y-64502D01*
X43543Y-64472D01*
X43552Y-64442D01*
X43566Y-64414D01*
X43585Y-64389D01*
X43609Y-64369D01*
X43636Y-64354D01*
X43666Y-64344D01*
X43697Y-64341D01*
X43727Y-64343D01*
X43757Y-64351D01*
X43785Y-64365D01*
X43810Y-64385D01*
X43830Y-64408D01*
X43846Y-64435D01*
X43856Y-64465D01*
X43859Y-64496D01*
X43860Y-64500D01*
X43860Y-65500D02*
X43856Y-65531D01*
X43847Y-65560D01*
X43833Y-65588D01*
X43813Y-65612D01*
X43789Y-65632D01*
X43762Y-65647D01*
X43732Y-65656D01*
X43701Y-65659D01*
X43671Y-65657D01*
X43641Y-65648D01*
X43613Y-65633D01*
X43589Y-65614D01*
X43568Y-65590D01*
X43553Y-65563D01*
X43544Y-65533D01*
X43541Y-65502D01*
X43543Y-65472D01*
X43552Y-65442D01*
X43566Y-65414D01*
X43585Y-65389D01*
X43609Y-65369D01*
X43636Y-65354D01*
X43666Y-65344D01*
X43697Y-65341D01*
X43727Y-65343D01*
X43757Y-65351D01*
X43785Y-65365D01*
X43810Y-65385D01*
X43830Y-65408D01*
X43846Y-65435D01*
X43856Y-65465D01*
X43859Y-65496D01*
X43860Y-65500D01*
X43960Y-34500D02*
X43956Y-34531D01*
X43947Y-34560D01*
X43933Y-34588D01*
X43913Y-34612D01*
X43889Y-34632D01*
X43862Y-34647D01*
X43832Y-34656D01*
X43801Y-34659D01*
X43771Y-34657D01*
X43741Y-34648D01*
X43713Y-34633D01*
X43689Y-34614D01*
X43668Y-34590D01*
X43653Y-34563D01*
X43644Y-34533D01*
X43641Y-34502D01*
X43643Y-34472D01*
X43652Y-34442D01*
X43666Y-34414D01*
X43685Y-34389D01*
X43709Y-34369D01*
X43736Y-34354D01*
X43766Y-34344D01*
X43797Y-34341D01*
X43827Y-34343D01*
X43857Y-34351D01*
X43885Y-34365D01*
X43910Y-34385D01*
X43930Y-34408D01*
X43946Y-34435D01*
X43956Y-34465D01*
X43959Y-34496D01*
X43960Y-34500D01*
X43960Y-35500D02*
X43956Y-35531D01*
X43947Y-35560D01*
X43933Y-35588D01*
X43913Y-35612D01*
X43889Y-35632D01*
X43862Y-35647D01*
X43832Y-35656D01*
X43801Y-35659D01*
X43771Y-35657D01*
X43741Y-35648D01*
X43713Y-35633D01*
X43689Y-35614D01*
X43668Y-35590D01*
X43653Y-35563D01*
X43644Y-35533D01*
X43641Y-35502D01*
X43643Y-35472D01*
X43652Y-35442D01*
X43666Y-35414D01*
X43685Y-35389D01*
X43709Y-35369D01*
X43736Y-35354D01*
X43766Y-35344D01*
X43797Y-35341D01*
X43827Y-35343D01*
X43857Y-35351D01*
X43885Y-35365D01*
X43910Y-35385D01*
X43930Y-35408D01*
X43946Y-35435D01*
X43956Y-35465D01*
X43959Y-35496D01*
X43960Y-35500D01*
X43960Y-39600D02*
X43956Y-39631D01*
X43947Y-39660D01*
X43933Y-39688D01*
X43913Y-39712D01*
X43889Y-39732D01*
X43862Y-39747D01*
X43832Y-39756D01*
X43801Y-39759D01*
X43771Y-39757D01*
X43741Y-39748D01*
X43713Y-39733D01*
X43689Y-39714D01*
X43668Y-39690D01*
X43653Y-39663D01*
X43644Y-39633D01*
X43641Y-39602D01*
X43643Y-39572D01*
X43652Y-39542D01*
X43666Y-39514D01*
X43685Y-39489D01*
X43709Y-39469D01*
X43736Y-39454D01*
X43766Y-39444D01*
X43797Y-39441D01*
X43827Y-39443D01*
X43857Y-39451D01*
X43885Y-39465D01*
X43910Y-39485D01*
X43930Y-39508D01*
X43946Y-39535D01*
X43956Y-39565D01*
X43959Y-39596D01*
X43960Y-39600D01*
X43960Y-40600D02*
X43956Y-40631D01*
X43947Y-40660D01*
X43933Y-40688D01*
X43913Y-40712D01*
X43889Y-40732D01*
X43862Y-40747D01*
X43832Y-40756D01*
X43801Y-40759D01*
X43771Y-40757D01*
X43741Y-40748D01*
X43713Y-40733D01*
X43689Y-40714D01*
X43668Y-40690D01*
X43653Y-40663D01*
X43644Y-40633D01*
X43641Y-40602D01*
X43643Y-40572D01*
X43652Y-40542D01*
X43666Y-40514D01*
X43685Y-40489D01*
X43709Y-40469D01*
X43736Y-40454D01*
X43766Y-40444D01*
X43797Y-40441D01*
X43827Y-40443D01*
X43857Y-40451D01*
X43885Y-40465D01*
X43910Y-40485D01*
X43930Y-40508D01*
X43946Y-40535D01*
X43956Y-40565D01*
X43959Y-40596D01*
X43960Y-40600D01*
X43960Y-69500D02*
X43956Y-69531D01*
X43947Y-69560D01*
X43933Y-69588D01*
X43913Y-69612D01*
X43889Y-69632D01*
X43862Y-69647D01*
X43832Y-69656D01*
X43801Y-69659D01*
X43771Y-69657D01*
X43741Y-69648D01*
X43713Y-69633D01*
X43689Y-69614D01*
X43668Y-69590D01*
X43653Y-69563D01*
X43644Y-69533D01*
X43641Y-69502D01*
X43643Y-69472D01*
X43652Y-69442D01*
X43666Y-69414D01*
X43685Y-69389D01*
X43709Y-69369D01*
X43736Y-69354D01*
X43766Y-69344D01*
X43797Y-69341D01*
X43827Y-69343D01*
X43857Y-69351D01*
X43885Y-69365D01*
X43910Y-69385D01*
X43930Y-69408D01*
X43946Y-69435D01*
X43956Y-69465D01*
X43959Y-69496D01*
X43960Y-69500D01*
X43960Y-70500D02*
X43956Y-70531D01*
X43947Y-70560D01*
X43933Y-70588D01*
X43913Y-70612D01*
X43889Y-70632D01*
X43862Y-70647D01*
X43832Y-70656D01*
X43801Y-70659D01*
X43771Y-70657D01*
X43741Y-70648D01*
X43713Y-70633D01*
X43689Y-70614D01*
X43668Y-70590D01*
X43653Y-70563D01*
X43644Y-70533D01*
X43641Y-70502D01*
X43643Y-70472D01*
X43652Y-70442D01*
X43666Y-70414D01*
X43685Y-70389D01*
X43709Y-70369D01*
X43736Y-70354D01*
X43766Y-70344D01*
X43797Y-70341D01*
X43827Y-70343D01*
X43857Y-70351D01*
X43885Y-70365D01*
X43910Y-70385D01*
X43930Y-70408D01*
X43946Y-70435D01*
X43956Y-70465D01*
X43959Y-70496D01*
X43960Y-70500D01*
X44660Y-76525D02*
X44656Y-76556D01*
X44647Y-76585D01*
X44633Y-76613D01*
X44613Y-76637D01*
X44589Y-76657D01*
X44562Y-76672D01*
X44532Y-76681D01*
X44501Y-76684D01*
X44471Y-76682D01*
X44441Y-76673D01*
X44413Y-76658D01*
X44389Y-76639D01*
X44368Y-76615D01*
X44353Y-76588D01*
X44344Y-76558D01*
X44341Y-76527D01*
X44343Y-76497D01*
X44352Y-76467D01*
X44366Y-76439D01*
X44385Y-76414D01*
X44409Y-76394D01*
X44436Y-76379D01*
X44466Y-76369D01*
X44497Y-76366D01*
X44527Y-76368D01*
X44557Y-76376D01*
X44585Y-76390D01*
X44610Y-76410D01*
X44630Y-76433D01*
X44646Y-76460D01*
X44656Y-76490D01*
X44659Y-76521D01*
X44660Y-76525D01*
X45160Y-47500D02*
X45156Y-47531D01*
X45147Y-47560D01*
X45133Y-47588D01*
X45113Y-47612D01*
X45089Y-47632D01*
X45062Y-47647D01*
X45032Y-47656D01*
X45001Y-47659D01*
X44971Y-47657D01*
X44941Y-47648D01*
X44913Y-47633D01*
X44889Y-47614D01*
X44868Y-47590D01*
X44853Y-47563D01*
X44844Y-47533D01*
X44841Y-47502D01*
X44843Y-47472D01*
X44852Y-47442D01*
X44866Y-47414D01*
X44885Y-47389D01*
X44909Y-47369D01*
X44936Y-47354D01*
X44966Y-47344D01*
X44997Y-47341D01*
X45027Y-47343D01*
X45057Y-47351D01*
X45085Y-47365D01*
X45110Y-47385D01*
X45130Y-47408D01*
X45146Y-47435D01*
X45156Y-47465D01*
X45159Y-47496D01*
X45160Y-47500D01*
X45000Y-48300D02*
X45000Y-48700D01*
X45200Y-48500D02*
X44800Y-48500D01*
X45000Y-49300D02*
X45000Y-49700D01*
X45200Y-49500D02*
X44800Y-49500D01*
X45000Y-50300D02*
X45000Y-50700D01*
X45200Y-50500D02*
X44800Y-50500D01*
X45000Y-51300D02*
X45000Y-51700D01*
X45200Y-51500D02*
X44800Y-51500D01*
X45000Y-52300D02*
X45000Y-52700D01*
X45200Y-52500D02*
X44800Y-52500D01*
X45000Y-53300D02*
X45000Y-53700D01*
X45200Y-53500D02*
X44800Y-53500D01*
X45000Y-54300D02*
X45000Y-54700D01*
X45200Y-54500D02*
X44800Y-54500D01*
X45000Y-55300D02*
X45000Y-55700D01*
X45200Y-55500D02*
X44800Y-55500D01*
X45000Y-56300D02*
X45000Y-56700D01*
X45200Y-56500D02*
X44800Y-56500D01*
X45000Y-57300D02*
X45000Y-57700D01*
X45200Y-57500D02*
X44800Y-57500D01*
X45000Y-58300D02*
X45000Y-58700D01*
X45200Y-58500D02*
X44800Y-58500D01*
X45400Y-60925D02*
X45400Y-61325D01*
X45600Y-61125D02*
X45200Y-61125D01*
X45400Y-61925D02*
X45400Y-62325D01*
X45600Y-62125D02*
X45200Y-62125D01*
X45400Y-62925D02*
X45400Y-63325D01*
X45600Y-63125D02*
X45200Y-63125D01*
X45400Y-63925D02*
X45400Y-64325D01*
X45600Y-64125D02*
X45200Y-64125D01*
X45400Y-64925D02*
X45400Y-65325D01*
X45600Y-65125D02*
X45200Y-65125D01*
X45400Y-65925D02*
X45400Y-66325D01*
X45600Y-66125D02*
X45200Y-66125D01*
X45400Y-66925D02*
X45400Y-67325D01*
X45600Y-67125D02*
X45200Y-67125D01*
X45400Y-67925D02*
X45400Y-68325D01*
X45600Y-68125D02*
X45200Y-68125D01*
X46000Y-47300D02*
X46000Y-47700D01*
X46200Y-47500D02*
X45800Y-47500D01*
X46000Y-48300D02*
X46000Y-48700D01*
X46200Y-48500D02*
X45800Y-48500D01*
X46000Y-49300D02*
X46000Y-49700D01*
X46200Y-49500D02*
X45800Y-49500D01*
X46000Y-50300D02*
X46000Y-50700D01*
X46200Y-50500D02*
X45800Y-50500D01*
X46000Y-51300D02*
X46000Y-51700D01*
X46200Y-51500D02*
X45800Y-51500D01*
X46000Y-52300D02*
X46000Y-52700D01*
X46200Y-52500D02*
X45800Y-52500D01*
X46000Y-53300D02*
X46000Y-53700D01*
X46200Y-53500D02*
X45800Y-53500D01*
X46000Y-54300D02*
X46000Y-54700D01*
X46200Y-54500D02*
X45800Y-54500D01*
X46000Y-55300D02*
X46000Y-55700D01*
X46200Y-55500D02*
X45800Y-55500D01*
X46000Y-56300D02*
X46000Y-56700D01*
X46200Y-56500D02*
X45800Y-56500D01*
X46000Y-57300D02*
X46000Y-57700D01*
X46200Y-57500D02*
X45800Y-57500D01*
X46000Y-58300D02*
X46000Y-58700D01*
X46200Y-58500D02*
X45800Y-58500D01*
X46400Y-60925D02*
X46400Y-61325D01*
X46600Y-61125D02*
X46200Y-61125D01*
X46400Y-61925D02*
X46400Y-62325D01*
X46600Y-62125D02*
X46200Y-62125D01*
X46400Y-62925D02*
X46400Y-63325D01*
X46600Y-63125D02*
X46200Y-63125D01*
X46400Y-63925D02*
X46400Y-64325D01*
X46600Y-64125D02*
X46200Y-64125D01*
X46400Y-64925D02*
X46400Y-65325D01*
X46600Y-65125D02*
X46200Y-65125D01*
X46400Y-65925D02*
X46400Y-66325D01*
X46600Y-66125D02*
X46200Y-66125D01*
X46400Y-66925D02*
X46400Y-67325D01*
X46600Y-67125D02*
X46200Y-67125D01*
X46400Y-67925D02*
X46400Y-68325D01*
X46600Y-68125D02*
X46200Y-68125D01*
X39883Y-37480D02*
X39875Y-37556D01*
X39853Y-37629D01*
X39817Y-37697D01*
X39768Y-37756D01*
X39709Y-37805D01*
X39642Y-37842D01*
X39569Y-37864D01*
X39492Y-37872D01*
X39417Y-37866D01*
X39343Y-37844D01*
X39275Y-37808D01*
X39216Y-37760D01*
X39166Y-37702D01*
X39129Y-37634D01*
X39106Y-37561D01*
X39098Y-37485D01*
X39104Y-37410D01*
X39125Y-37336D01*
X39160Y-37268D01*
X39208Y-37207D01*
X39266Y-37158D01*
X39333Y-37120D01*
X39406Y-37097D01*
X39482Y-37088D01*
X39558Y-37093D01*
X39632Y-37114D01*
X39700Y-37149D01*
X39761Y-37196D01*
X39811Y-37254D01*
X39849Y-37321D01*
X39873Y-37393D01*
X39882Y-37470D01*
X39883Y-37480D01*
X39097Y-37087D02*
X39883Y-37873D01*
X39883Y-37087D02*
X39097Y-37873D01*
X39883Y-42480D02*
X39875Y-42556D01*
X39853Y-42629D01*
X39817Y-42697D01*
X39768Y-42756D01*
X39709Y-42805D01*
X39642Y-42842D01*
X39569Y-42864D01*
X39492Y-42872D01*
X39417Y-42866D01*
X39343Y-42844D01*
X39275Y-42808D01*
X39216Y-42760D01*
X39166Y-42702D01*
X39129Y-42634D01*
X39106Y-42561D01*
X39098Y-42485D01*
X39104Y-42410D01*
X39125Y-42336D01*
X39160Y-42268D01*
X39208Y-42207D01*
X39266Y-42158D01*
X39333Y-42120D01*
X39406Y-42097D01*
X39482Y-42088D01*
X39558Y-42093D01*
X39632Y-42114D01*
X39700Y-42149D01*
X39761Y-42196D01*
X39811Y-42254D01*
X39849Y-42321D01*
X39873Y-42393D01*
X39882Y-42470D01*
X39883Y-42480D01*
X39097Y-42087D02*
X39883Y-42873D01*
X39883Y-42087D02*
X39097Y-42873D01*
X39883Y-47480D02*
X39875Y-47556D01*
X39853Y-47629D01*
X39817Y-47697D01*
X39768Y-47756D01*
X39709Y-47805D01*
X39642Y-47842D01*
X39569Y-47864D01*
X39492Y-47872D01*
X39417Y-47866D01*
X39343Y-47844D01*
X39275Y-47808D01*
X39216Y-47760D01*
X39166Y-47702D01*
X39129Y-47634D01*
X39106Y-47561D01*
X39098Y-47485D01*
X39104Y-47410D01*
X39125Y-47336D01*
X39160Y-47268D01*
X39208Y-47207D01*
X39266Y-47158D01*
X39333Y-47120D01*
X39406Y-47097D01*
X39482Y-47088D01*
X39558Y-47093D01*
X39632Y-47114D01*
X39700Y-47149D01*
X39761Y-47196D01*
X39811Y-47254D01*
X39849Y-47321D01*
X39873Y-47393D01*
X39882Y-47470D01*
X39883Y-47480D01*
X39097Y-47087D02*
X39883Y-47873D01*
X39883Y-47087D02*
X39097Y-47873D01*
X39883Y-52480D02*
X39875Y-52556D01*
X39853Y-52629D01*
X39817Y-52697D01*
X39768Y-52756D01*
X39709Y-52805D01*
X39642Y-52842D01*
X39569Y-52864D01*
X39492Y-52872D01*
X39417Y-52866D01*
X39343Y-52844D01*
X39275Y-52808D01*
X39216Y-52760D01*
X39166Y-52702D01*
X39129Y-52634D01*
X39106Y-52561D01*
X39098Y-52485D01*
X39104Y-52410D01*
X39125Y-52336D01*
X39160Y-52268D01*
X39208Y-52207D01*
X39266Y-52158D01*
X39333Y-52120D01*
X39406Y-52097D01*
X39482Y-52088D01*
X39558Y-52093D01*
X39632Y-52114D01*
X39700Y-52149D01*
X39761Y-52196D01*
X39811Y-52254D01*
X39849Y-52321D01*
X39873Y-52393D01*
X39882Y-52470D01*
X39883Y-52480D01*
X39097Y-52087D02*
X39883Y-52873D01*
X39883Y-52087D02*
X39097Y-52873D01*
X39883Y-57480D02*
X39875Y-57556D01*
X39853Y-57629D01*
X39817Y-57697D01*
X39768Y-57756D01*
X39709Y-57805D01*
X39642Y-57842D01*
X39569Y-57864D01*
X39492Y-57872D01*
X39417Y-57866D01*
X39343Y-57844D01*
X39275Y-57808D01*
X39216Y-57760D01*
X39166Y-57702D01*
X39129Y-57634D01*
X39106Y-57561D01*
X39098Y-57485D01*
X39104Y-57410D01*
X39125Y-57336D01*
X39160Y-57268D01*
X39208Y-57207D01*
X39266Y-57158D01*
X39333Y-57120D01*
X39406Y-57097D01*
X39482Y-57088D01*
X39558Y-57093D01*
X39632Y-57114D01*
X39700Y-57149D01*
X39761Y-57196D01*
X39811Y-57254D01*
X39849Y-57321D01*
X39873Y-57393D01*
X39882Y-57470D01*
X39883Y-57480D01*
X39097Y-57087D02*
X39883Y-57873D01*
X39883Y-57087D02*
X39097Y-57873D01*
X39883Y-62480D02*
X39875Y-62556D01*
X39853Y-62629D01*
X39817Y-62697D01*
X39768Y-62756D01*
X39709Y-62805D01*
X39642Y-62842D01*
X39569Y-62864D01*
X39492Y-62872D01*
X39417Y-62866D01*
X39343Y-62844D01*
X39275Y-62808D01*
X39216Y-62760D01*
X39166Y-62702D01*
X39129Y-62634D01*
X39106Y-62561D01*
X39098Y-62485D01*
X39104Y-62410D01*
X39125Y-62336D01*
X39160Y-62268D01*
X39208Y-62207D01*
X39266Y-62158D01*
X39333Y-62120D01*
X39406Y-62097D01*
X39482Y-62088D01*
X39558Y-62093D01*
X39632Y-62114D01*
X39700Y-62149D01*
X39761Y-62196D01*
X39811Y-62254D01*
X39849Y-62321D01*
X39873Y-62393D01*
X39882Y-62470D01*
X39883Y-62480D01*
X39097Y-62087D02*
X39883Y-62873D01*
X39883Y-62087D02*
X39097Y-62873D01*
X39883Y-67480D02*
X39875Y-67556D01*
X39853Y-67629D01*
X39817Y-67697D01*
X39768Y-67756D01*
X39709Y-67805D01*
X39642Y-67842D01*
X39569Y-67864D01*
X39492Y-67872D01*
X39417Y-67866D01*
X39343Y-67844D01*
X39275Y-67808D01*
X39216Y-67760D01*
X39166Y-67702D01*
X39129Y-67634D01*
X39106Y-67561D01*
X39098Y-67485D01*
X39104Y-67410D01*
X39125Y-67336D01*
X39160Y-67268D01*
X39208Y-67207D01*
X39266Y-67158D01*
X39333Y-67120D01*
X39406Y-67097D01*
X39482Y-67088D01*
X39558Y-67093D01*
X39632Y-67114D01*
X39700Y-67149D01*
X39761Y-67196D01*
X39811Y-67254D01*
X39849Y-67321D01*
X39873Y-67393D01*
X39882Y-67470D01*
X39883Y-67480D01*
X39097Y-67087D02*
X39883Y-67873D01*
X39883Y-67087D02*
X39097Y-67873D01*
X39883Y-72480D02*
X39875Y-72556D01*
X39853Y-72629D01*
X39817Y-72697D01*
X39768Y-72756D01*
X39709Y-72805D01*
X39642Y-72842D01*
X39569Y-72864D01*
X39492Y-72872D01*
X39417Y-72866D01*
X39343Y-72844D01*
X39275Y-72808D01*
X39216Y-72760D01*
X39166Y-72702D01*
X39129Y-72634D01*
X39106Y-72561D01*
X39098Y-72485D01*
X39104Y-72410D01*
X39125Y-72336D01*
X39160Y-72268D01*
X39208Y-72207D01*
X39266Y-72158D01*
X39333Y-72120D01*
X39406Y-72097D01*
X39482Y-72088D01*
X39558Y-72093D01*
X39632Y-72114D01*
X39700Y-72149D01*
X39761Y-72196D01*
X39811Y-72254D01*
X39849Y-72321D01*
X39873Y-72393D01*
X39882Y-72470D01*
X39883Y-72480D01*
X39097Y-72087D02*
X39883Y-72873D01*
X39883Y-72087D02*
X39097Y-72873D01*
X43233Y-37480D02*
X43225Y-37556D01*
X43203Y-37629D01*
X43167Y-37697D01*
X43118Y-37756D01*
X43059Y-37805D01*
X42992Y-37842D01*
X42919Y-37864D01*
X42842Y-37872D01*
X42767Y-37866D01*
X42693Y-37844D01*
X42625Y-37808D01*
X42566Y-37760D01*
X42516Y-37702D01*
X42479Y-37634D01*
X42456Y-37561D01*
X42448Y-37485D01*
X42454Y-37410D01*
X42475Y-37336D01*
X42510Y-37268D01*
X42558Y-37207D01*
X42616Y-37158D01*
X42683Y-37120D01*
X42756Y-37097D01*
X42832Y-37088D01*
X42908Y-37093D01*
X42982Y-37114D01*
X43050Y-37149D01*
X43111Y-37196D01*
X43161Y-37254D01*
X43199Y-37321D01*
X43223Y-37393D01*
X43232Y-37470D01*
X43233Y-37480D01*
X42447Y-37087D02*
X43233Y-37873D01*
X43233Y-37087D02*
X42447Y-37873D01*
X43233Y-42480D02*
X43225Y-42556D01*
X43203Y-42629D01*
X43167Y-42697D01*
X43118Y-42756D01*
X43059Y-42805D01*
X42992Y-42842D01*
X42919Y-42864D01*
X42842Y-42872D01*
X42767Y-42866D01*
X42693Y-42844D01*
X42625Y-42808D01*
X42566Y-42760D01*
X42516Y-42702D01*
X42479Y-42634D01*
X42456Y-42561D01*
X42448Y-42485D01*
X42454Y-42410D01*
X42475Y-42336D01*
X42510Y-42268D01*
X42558Y-42207D01*
X42616Y-42158D01*
X42683Y-42120D01*
X42756Y-42097D01*
X42832Y-42088D01*
X42908Y-42093D01*
X42982Y-42114D01*
X43050Y-42149D01*
X43111Y-42196D01*
X43161Y-42254D01*
X43199Y-42321D01*
X43223Y-42393D01*
X43232Y-42470D01*
X43233Y-42480D01*
X42447Y-42087D02*
X43233Y-42873D01*
X43233Y-42087D02*
X42447Y-42873D01*
X43233Y-47480D02*
X43225Y-47556D01*
X43203Y-47629D01*
X43167Y-47697D01*
X43118Y-47756D01*
X43059Y-47805D01*
X42992Y-47842D01*
X42919Y-47864D01*
X42842Y-47872D01*
X42767Y-47866D01*
X42693Y-47844D01*
X42625Y-47808D01*
X42566Y-47760D01*
X42516Y-47702D01*
X42479Y-47634D01*
X42456Y-47561D01*
X42448Y-47485D01*
X42454Y-47410D01*
X42475Y-47336D01*
X42510Y-47268D01*
X42558Y-47207D01*
X42616Y-47158D01*
X42683Y-47120D01*
X42756Y-47097D01*
X42832Y-47088D01*
X42908Y-47093D01*
X42982Y-47114D01*
X43050Y-47149D01*
X43111Y-47196D01*
X43161Y-47254D01*
X43199Y-47321D01*
X43223Y-47393D01*
X43232Y-47470D01*
X43233Y-47480D01*
X42447Y-47087D02*
X43233Y-47873D01*
X43233Y-47087D02*
X42447Y-47873D01*
X43233Y-52480D02*
X43225Y-52556D01*
X43203Y-52629D01*
X43167Y-52697D01*
X43118Y-52756D01*
X43059Y-52805D01*
X42992Y-52842D01*
X42919Y-52864D01*
X42842Y-52872D01*
X42767Y-52866D01*
X42693Y-52844D01*
X42625Y-52808D01*
X42566Y-52760D01*
X42516Y-52702D01*
X42479Y-52634D01*
X42456Y-52561D01*
X42448Y-52485D01*
X42454Y-52410D01*
X42475Y-52336D01*
X42510Y-52268D01*
X42558Y-52207D01*
X42616Y-52158D01*
X42683Y-52120D01*
X42756Y-52097D01*
X42832Y-52088D01*
X42908Y-52093D01*
X42982Y-52114D01*
X43050Y-52149D01*
X43111Y-52196D01*
X43161Y-52254D01*
X43199Y-52321D01*
X43223Y-52393D01*
X43232Y-52470D01*
X43233Y-52480D01*
X42447Y-52087D02*
X43233Y-52873D01*
X43233Y-52087D02*
X42447Y-52873D01*
X43233Y-57480D02*
X43225Y-57556D01*
X43203Y-57629D01*
X43167Y-57697D01*
X43118Y-57756D01*
X43059Y-57805D01*
X42992Y-57842D01*
X42919Y-57864D01*
X42842Y-57872D01*
X42767Y-57866D01*
X42693Y-57844D01*
X42625Y-57808D01*
X42566Y-57760D01*
X42516Y-57702D01*
X42479Y-57634D01*
X42456Y-57561D01*
X42448Y-57485D01*
X42454Y-57410D01*
X42475Y-57336D01*
X42510Y-57268D01*
X42558Y-57207D01*
X42616Y-57158D01*
X42683Y-57120D01*
X42756Y-57097D01*
X42832Y-57088D01*
X42908Y-57093D01*
X42982Y-57114D01*
X43050Y-57149D01*
X43111Y-57196D01*
X43161Y-57254D01*
X43199Y-57321D01*
X43223Y-57393D01*
X43232Y-57470D01*
X43233Y-57480D01*
X42447Y-57087D02*
X43233Y-57873D01*
X43233Y-57087D02*
X42447Y-57873D01*
X43233Y-62480D02*
X43225Y-62556D01*
X43203Y-62629D01*
X43167Y-62697D01*
X43118Y-62756D01*
X43059Y-62805D01*
X42992Y-62842D01*
X42919Y-62864D01*
X42842Y-62872D01*
X42767Y-62866D01*
X42693Y-62844D01*
X42625Y-62808D01*
X42566Y-62760D01*
X42516Y-62702D01*
X42479Y-62634D01*
X42456Y-62561D01*
X42448Y-62485D01*
X42454Y-62410D01*
X42475Y-62336D01*
X42510Y-62268D01*
X42558Y-62207D01*
X42616Y-62158D01*
X42683Y-62120D01*
X42756Y-62097D01*
X42832Y-62088D01*
X42908Y-62093D01*
X42982Y-62114D01*
X43050Y-62149D01*
X43111Y-62196D01*
X43161Y-62254D01*
X43199Y-62321D01*
X43223Y-62393D01*
X43232Y-62470D01*
X43233Y-62480D01*
X42447Y-62087D02*
X43233Y-62873D01*
X43233Y-62087D02*
X42447Y-62873D01*
X43233Y-67480D02*
X43225Y-67556D01*
X43203Y-67629D01*
X43167Y-67697D01*
X43118Y-67756D01*
X43059Y-67805D01*
X42992Y-67842D01*
X42919Y-67864D01*
X42842Y-67872D01*
X42767Y-67866D01*
X42693Y-67844D01*
X42625Y-67808D01*
X42566Y-67760D01*
X42516Y-67702D01*
X42479Y-67634D01*
X42456Y-67561D01*
X42448Y-67485D01*
X42454Y-67410D01*
X42475Y-67336D01*
X42510Y-67268D01*
X42558Y-67207D01*
X42616Y-67158D01*
X42683Y-67120D01*
X42756Y-67097D01*
X42832Y-67088D01*
X42908Y-67093D01*
X42982Y-67114D01*
X43050Y-67149D01*
X43111Y-67196D01*
X43161Y-67254D01*
X43199Y-67321D01*
X43223Y-67393D01*
X43232Y-67470D01*
X43233Y-67480D01*
X42447Y-67087D02*
X43233Y-67873D01*
X43233Y-67087D02*
X42447Y-67873D01*
X43233Y-72480D02*
X43225Y-72556D01*
X43203Y-72629D01*
X43167Y-72697D01*
X43118Y-72756D01*
X43059Y-72805D01*
X42992Y-72842D01*
X42919Y-72864D01*
X42842Y-72872D01*
X42767Y-72866D01*
X42693Y-72844D01*
X42625Y-72808D01*
X42566Y-72760D01*
X42516Y-72702D01*
X42479Y-72634D01*
X42456Y-72561D01*
X42448Y-72485D01*
X42454Y-72410D01*
X42475Y-72336D01*
X42510Y-72268D01*
X42558Y-72207D01*
X42616Y-72158D01*
X42683Y-72120D01*
X42756Y-72097D01*
X42832Y-72088D01*
X42908Y-72093D01*
X42982Y-72114D01*
X43050Y-72149D01*
X43111Y-72196D01*
X43161Y-72254D01*
X43199Y-72321D01*
X43223Y-72393D01*
X43232Y-72470D01*
X43233Y-72480D01*
X42447Y-72087D02*
X43233Y-72873D01*
X43233Y-72087D02*
X42447Y-72873D01*
X46453Y-37520D02*
X46445Y-37596D01*
X46423Y-37669D01*
X46387Y-37737D01*
X46338Y-37796D01*
X46279Y-37845D01*
X46212Y-37882D01*
X46139Y-37904D01*
X46062Y-37912D01*
X45987Y-37906D01*
X45913Y-37884D01*
X45845Y-37848D01*
X45786Y-37800D01*
X45736Y-37742D01*
X45699Y-37674D01*
X45676Y-37601D01*
X45668Y-37525D01*
X45674Y-37450D01*
X45695Y-37376D01*
X45730Y-37308D01*
X45778Y-37247D01*
X45836Y-37198D01*
X45903Y-37160D01*
X45976Y-37137D01*
X46052Y-37128D01*
X46128Y-37133D01*
X46202Y-37154D01*
X46270Y-37189D01*
X46331Y-37236D01*
X46381Y-37294D01*
X46419Y-37361D01*
X46443Y-37433D01*
X46452Y-37510D01*
X46453Y-37520D01*
X45667Y-37127D02*
X46453Y-37913D01*
X46453Y-37127D02*
X45667Y-37913D01*
X46453Y-42520D02*
X46445Y-42596D01*
X46423Y-42669D01*
X46387Y-42737D01*
X46338Y-42796D01*
X46279Y-42845D01*
X46212Y-42882D01*
X46139Y-42904D01*
X46062Y-42912D01*
X45987Y-42906D01*
X45913Y-42884D01*
X45845Y-42848D01*
X45786Y-42800D01*
X45736Y-42742D01*
X45699Y-42674D01*
X45676Y-42601D01*
X45668Y-42525D01*
X45674Y-42450D01*
X45695Y-42376D01*
X45730Y-42308D01*
X45778Y-42247D01*
X45836Y-42198D01*
X45903Y-42160D01*
X45976Y-42137D01*
X46052Y-42128D01*
X46128Y-42133D01*
X46202Y-42154D01*
X46270Y-42189D01*
X46331Y-42236D01*
X46381Y-42294D01*
X46419Y-42361D01*
X46443Y-42433D01*
X46452Y-42510D01*
X46453Y-42520D01*
X45667Y-42127D02*
X46453Y-42913D01*
X46453Y-42127D02*
X45667Y-42913D01*
X46453Y-72520D02*
X46445Y-72596D01*
X46423Y-72669D01*
X46387Y-72737D01*
X46338Y-72796D01*
X46279Y-72845D01*
X46212Y-72882D01*
X46139Y-72904D01*
X46062Y-72912D01*
X45987Y-72906D01*
X45913Y-72884D01*
X45845Y-72848D01*
X45786Y-72800D01*
X45736Y-72742D01*
X45699Y-72674D01*
X45676Y-72601D01*
X45668Y-72525D01*
X45674Y-72450D01*
X45695Y-72376D01*
X45730Y-72308D01*
X45778Y-72247D01*
X45836Y-72198D01*
X45903Y-72160D01*
X45976Y-72137D01*
X46052Y-72128D01*
X46128Y-72133D01*
X46202Y-72154D01*
X46270Y-72189D01*
X46331Y-72236D01*
X46381Y-72294D01*
X46419Y-72361D01*
X46443Y-72433D01*
X46452Y-72510D01*
X46453Y-72520D01*
X45667Y-72127D02*
X46453Y-72913D01*
X46453Y-72127D02*
X45667Y-72913D01*
X49803Y-37520D02*
X49795Y-37596D01*
X49773Y-37669D01*
X49737Y-37737D01*
X49688Y-37796D01*
X49629Y-37845D01*
X49562Y-37882D01*
X49489Y-37904D01*
X49412Y-37912D01*
X49337Y-37906D01*
X49263Y-37884D01*
X49195Y-37848D01*
X49136Y-37800D01*
X49086Y-37742D01*
X49049Y-37674D01*
X49026Y-37601D01*
X49018Y-37525D01*
X49024Y-37450D01*
X49045Y-37376D01*
X49080Y-37308D01*
X49128Y-37247D01*
X49186Y-37198D01*
X49253Y-37160D01*
X49326Y-37137D01*
X49402Y-37128D01*
X49478Y-37133D01*
X49552Y-37154D01*
X49620Y-37189D01*
X49681Y-37236D01*
X49731Y-37294D01*
X49769Y-37361D01*
X49793Y-37433D01*
X49802Y-37510D01*
X49803Y-37520D01*
X49017Y-37127D02*
X49803Y-37913D01*
X49803Y-37127D02*
X49017Y-37913D01*
X49803Y-42520D02*
X49795Y-42596D01*
X49773Y-42669D01*
X49737Y-42737D01*
X49688Y-42796D01*
X49629Y-42845D01*
X49562Y-42882D01*
X49489Y-42904D01*
X49412Y-42912D01*
X49337Y-42906D01*
X49263Y-42884D01*
X49195Y-42848D01*
X49136Y-42800D01*
X49086Y-42742D01*
X49049Y-42674D01*
X49026Y-42601D01*
X49018Y-42525D01*
X49024Y-42450D01*
X49045Y-42376D01*
X49080Y-42308D01*
X49128Y-42247D01*
X49186Y-42198D01*
X49253Y-42160D01*
X49326Y-42137D01*
X49402Y-42128D01*
X49478Y-42133D01*
X49552Y-42154D01*
X49620Y-42189D01*
X49681Y-42236D01*
X49731Y-42294D01*
X49769Y-42361D01*
X49793Y-42433D01*
X49802Y-42510D01*
X49803Y-42520D01*
X49017Y-42127D02*
X49803Y-42913D01*
X49803Y-42127D02*
X49017Y-42913D01*
X49803Y-72520D02*
X49795Y-72596D01*
X49773Y-72669D01*
X49737Y-72737D01*
X49688Y-72796D01*
X49629Y-72845D01*
X49562Y-72882D01*
X49489Y-72904D01*
X49412Y-72912D01*
X49337Y-72906D01*
X49263Y-72884D01*
X49195Y-72848D01*
X49136Y-72800D01*
X49086Y-72742D01*
X49049Y-72674D01*
X49026Y-72601D01*
X49018Y-72525D01*
X49024Y-72450D01*
X49045Y-72376D01*
X49080Y-72308D01*
X49128Y-72247D01*
X49186Y-72198D01*
X49253Y-72160D01*
X49326Y-72137D01*
X49402Y-72128D01*
X49478Y-72133D01*
X49552Y-72154D01*
X49620Y-72189D01*
X49681Y-72236D01*
X49731Y-72294D01*
X49769Y-72361D01*
X49793Y-72433D01*
X49802Y-72510D01*
X49803Y-72520D01*
X49017Y-72127D02*
X49803Y-72913D01*
X49803Y-72127D02*
X49017Y-72913D01*
G54D12*
X38060Y-78855D02*
X38060Y-78055D01*
X38251Y-78055D01*
X38365Y-78093D01*
X38441Y-78169D01*
X38480Y-78245D01*
X38518Y-78398D01*
X38518Y-78512D01*
X38480Y-78664D01*
X38441Y-78741D01*
X38365Y-78817D01*
X38251Y-78855D01*
X38060Y-78855D01*
X38860Y-78855D02*
X38860Y-78321D01*
X38860Y-78474D02*
X38899Y-78398D01*
X38937Y-78360D01*
X39013Y-78321D01*
X39089Y-78321D01*
X39355Y-78855D02*
X39355Y-78321D01*
X39355Y-78055D02*
X39317Y-78093D01*
X39355Y-78131D01*
X39394Y-78093D01*
X39355Y-78055D01*
X39355Y-78131D01*
X39851Y-78855D02*
X39775Y-78817D01*
X39736Y-78741D01*
X39736Y-78055D01*
X40270Y-78855D02*
X40194Y-78817D01*
X40155Y-78741D01*
X40155Y-78055D01*
X41184Y-78855D02*
X41184Y-78055D01*
X41451Y-78626D01*
X41718Y-78055D01*
X41718Y-78855D01*
X42441Y-78855D02*
X42441Y-78436D01*
X42403Y-78360D01*
X42327Y-78321D01*
X42175Y-78321D01*
X42098Y-78360D01*
X42441Y-78817D02*
X42365Y-78855D01*
X42175Y-78855D01*
X42098Y-78817D01*
X42060Y-78741D01*
X42060Y-78664D01*
X42098Y-78588D01*
X42175Y-78550D01*
X42365Y-78550D01*
X42441Y-78512D01*
X42822Y-78321D02*
X42822Y-79121D01*
X42822Y-78360D02*
X42899Y-78321D01*
X43051Y-78321D01*
X43127Y-78360D01*
X43165Y-78398D01*
X43203Y-78474D01*
X43203Y-78702D01*
X43165Y-78779D01*
X43127Y-78817D01*
X43051Y-78855D01*
X42899Y-78855D01*
X42822Y-78817D01*
X43546Y-78779D02*
X43585Y-78817D01*
X43546Y-78855D01*
X43508Y-78817D01*
X43546Y-78779D01*
X43546Y-78855D01*
X43546Y-78360D02*
X43585Y-78398D01*
X43546Y-78436D01*
X43508Y-78398D01*
X43546Y-78360D01*
X43546Y-78436D01*
X37420Y-80086D02*
X37670Y-80336D01*
X37670Y-80086D02*
X37420Y-80336D01*
X38213Y-79735D02*
X38289Y-79735D01*
X38365Y-79773D01*
X38403Y-79811D01*
X38441Y-79887D01*
X38480Y-80040D01*
X38480Y-80230D01*
X38441Y-80382D01*
X38403Y-80459D01*
X38365Y-80497D01*
X38289Y-80535D01*
X38213Y-80535D01*
X38137Y-80497D01*
X38099Y-80459D01*
X38060Y-80382D01*
X38022Y-80230D01*
X38022Y-80040D01*
X38060Y-79887D01*
X38099Y-79811D01*
X38137Y-79773D01*
X38213Y-79735D01*
X38822Y-80459D02*
X38861Y-80497D01*
X38822Y-80535D01*
X38784Y-80497D01*
X38822Y-80459D01*
X38822Y-80535D01*
X39356Y-79735D02*
X39432Y-79735D01*
X39508Y-79773D01*
X39546Y-79811D01*
X39584Y-79887D01*
X39623Y-80040D01*
X39623Y-80230D01*
X39584Y-80382D01*
X39546Y-80459D01*
X39508Y-80497D01*
X39432Y-80535D01*
X39356Y-80535D01*
X39280Y-80497D01*
X39242Y-80459D01*
X39203Y-80382D01*
X39165Y-80230D01*
X39165Y-80040D01*
X39203Y-79887D01*
X39242Y-79811D01*
X39280Y-79773D01*
X39356Y-79735D01*
X39927Y-79811D02*
X39965Y-79773D01*
X40042Y-79735D01*
X40232Y-79735D01*
X40308Y-79773D01*
X40346Y-79811D01*
X40385Y-79887D01*
X40385Y-79963D01*
X40346Y-80078D01*
X39889Y-80535D01*
X40385Y-80535D01*
X41108Y-79735D02*
X40727Y-79735D01*
X40689Y-80116D01*
X40727Y-80078D01*
X40804Y-80040D01*
X40994Y-80040D01*
X41070Y-80078D01*
X41108Y-80116D01*
X41147Y-80192D01*
X41147Y-80382D01*
X41108Y-80459D01*
X41070Y-80497D01*
X40994Y-80535D01*
X40804Y-80535D01*
X40727Y-80497D01*
X40689Y-80459D01*
X41451Y-79735D02*
X41451Y-79887D01*
X41756Y-79735D02*
X41756Y-79887D01*
X43281Y-79697D02*
X42595Y-80725D01*
X44310Y-79735D02*
X44386Y-79735D01*
X44462Y-79773D01*
X44500Y-79811D01*
X44538Y-79887D01*
X44577Y-80040D01*
X44577Y-80230D01*
X44538Y-80382D01*
X44500Y-80459D01*
X44462Y-80497D01*
X44386Y-80535D01*
X44310Y-80535D01*
X44234Y-80497D01*
X44196Y-80459D01*
X44157Y-80382D01*
X44119Y-80230D01*
X44119Y-80040D01*
X44157Y-79887D01*
X44196Y-79811D01*
X44234Y-79773D01*
X44310Y-79735D01*
X44919Y-80459D02*
X44958Y-80497D01*
X44919Y-80535D01*
X44881Y-80497D01*
X44919Y-80459D01*
X44919Y-80535D01*
X45643Y-79735D02*
X45491Y-79735D01*
X45415Y-79773D01*
X45377Y-79811D01*
X45300Y-79925D01*
X45262Y-80078D01*
X45262Y-80382D01*
X45300Y-80459D01*
X45339Y-80497D01*
X45415Y-80535D01*
X45567Y-80535D01*
X45643Y-80497D01*
X45681Y-80459D01*
X45720Y-80382D01*
X45720Y-80192D01*
X45681Y-80116D01*
X45643Y-80078D01*
X45567Y-80040D01*
X45415Y-80040D01*
X45339Y-80078D01*
X45300Y-80116D01*
X45262Y-80192D01*
X46405Y-80001D02*
X46405Y-80535D01*
X46215Y-79697D02*
X46024Y-80268D01*
X46520Y-80268D01*
X46824Y-80535D02*
X46824Y-80001D01*
X46824Y-80078D02*
X46863Y-80040D01*
X46939Y-80001D01*
X47053Y-80001D01*
X47129Y-80040D01*
X47167Y-80116D01*
X47167Y-80535D01*
X47167Y-80116D02*
X47205Y-80040D01*
X47282Y-80001D01*
X47396Y-80001D01*
X47472Y-80040D01*
X47510Y-80116D01*
X47510Y-80535D01*
X47891Y-80535D02*
X47891Y-80001D01*
X47891Y-80078D02*
X47930Y-80040D01*
X48006Y-80001D01*
X48120Y-80001D01*
X48196Y-80040D01*
X48234Y-80116D01*
X48234Y-80535D01*
X48234Y-80116D02*
X48272Y-80040D01*
X48349Y-80001D01*
X48463Y-80001D01*
X48539Y-80040D01*
X48577Y-80116D01*
X48577Y-80535D01*
X49797Y-80840D02*
X49759Y-80801D01*
X49683Y-80687D01*
X49645Y-80611D01*
X49607Y-80497D01*
X49568Y-80306D01*
X49568Y-80154D01*
X49607Y-79963D01*
X49645Y-79849D01*
X49683Y-79773D01*
X49759Y-79659D01*
X49797Y-79621D01*
X50521Y-80535D02*
X50063Y-80535D01*
X50292Y-80535D02*
X50292Y-79735D01*
X50216Y-79849D01*
X50140Y-79925D01*
X50063Y-79963D01*
X51244Y-79735D02*
X50863Y-79735D01*
X50825Y-80116D01*
X50863Y-80078D01*
X50940Y-80040D01*
X51130Y-80040D01*
X51206Y-80078D01*
X51244Y-80116D01*
X51283Y-80192D01*
X51283Y-80382D01*
X51244Y-80459D01*
X51206Y-80497D01*
X51130Y-80535D01*
X50940Y-80535D01*
X50863Y-80497D01*
X50825Y-80459D01*
X52235Y-80535D02*
X52235Y-79735D01*
X52578Y-80535D02*
X52578Y-80116D01*
X52540Y-80040D01*
X52464Y-80001D01*
X52350Y-80001D01*
X52274Y-80040D01*
X52235Y-80078D01*
X53074Y-80535D02*
X52998Y-80497D01*
X52959Y-80459D01*
X52921Y-80382D01*
X52921Y-80154D01*
X52959Y-80078D01*
X52998Y-80040D01*
X53074Y-80001D01*
X53188Y-80001D01*
X53264Y-80040D01*
X53302Y-80078D01*
X53340Y-80154D01*
X53340Y-80382D01*
X53302Y-80459D01*
X53264Y-80497D01*
X53188Y-80535D01*
X53074Y-80535D01*
X53798Y-80535D02*
X53722Y-80497D01*
X53683Y-80421D01*
X53683Y-79735D01*
X54407Y-80497D02*
X54331Y-80535D01*
X54179Y-80535D01*
X54102Y-80497D01*
X54064Y-80421D01*
X54064Y-80116D01*
X54102Y-80040D01*
X54179Y-80001D01*
X54331Y-80001D01*
X54407Y-80040D01*
X54445Y-80116D01*
X54445Y-80192D01*
X54064Y-80268D01*
X54750Y-80497D02*
X54827Y-80535D01*
X54979Y-80535D01*
X55055Y-80497D01*
X55093Y-80421D01*
X55093Y-80382D01*
X55055Y-80306D01*
X54979Y-80268D01*
X54865Y-80268D01*
X54788Y-80230D01*
X54750Y-80154D01*
X54750Y-80116D01*
X54788Y-80040D01*
X54865Y-80001D01*
X54979Y-80001D01*
X55055Y-80040D01*
X55360Y-80840D02*
X55398Y-80801D01*
X55475Y-80687D01*
X55513Y-80611D01*
X55551Y-80497D01*
X55589Y-80306D01*
X55589Y-80154D01*
X55551Y-79963D01*
X55513Y-79849D01*
X55475Y-79773D01*
X55398Y-79659D01*
X55360Y-79621D01*
G54D10*
X37670Y-81266D02*
X37666Y-81297D01*
X37657Y-81326D01*
X37643Y-81354D01*
X37623Y-81378D01*
X37599Y-81398D01*
X37572Y-81413D01*
X37542Y-81422D01*
X37511Y-81425D01*
X37481Y-81423D01*
X37451Y-81414D01*
X37423Y-81399D01*
X37399Y-81380D01*
X37378Y-81356D01*
X37363Y-81329D01*
X37354Y-81299D01*
X37351Y-81268D01*
X37353Y-81238D01*
X37362Y-81208D01*
X37376Y-81180D01*
X37395Y-81155D01*
X37419Y-81135D01*
X37446Y-81120D01*
X37476Y-81110D01*
X37507Y-81107D01*
X37537Y-81109D01*
X37567Y-81117D01*
X37595Y-81131D01*
X37620Y-81151D01*
X37640Y-81174D01*
X37656Y-81201D01*
X37666Y-81231D01*
X37669Y-81262D01*
X37670Y-81266D01*
G54D12*
X38213Y-80790D02*
X38289Y-80790D01*
X38365Y-80828D01*
X38403Y-80866D01*
X38441Y-80942D01*
X38480Y-81095D01*
X38480Y-81285D01*
X38441Y-81437D01*
X38403Y-81514D01*
X38365Y-81552D01*
X38289Y-81590D01*
X38213Y-81590D01*
X38137Y-81552D01*
X38099Y-81514D01*
X38060Y-81437D01*
X38022Y-81285D01*
X38022Y-81095D01*
X38060Y-80942D01*
X38099Y-80866D01*
X38137Y-80828D01*
X38213Y-80790D01*
X38822Y-81514D02*
X38861Y-81552D01*
X38822Y-81590D01*
X38784Y-81552D01*
X38822Y-81514D01*
X38822Y-81590D01*
X39356Y-80790D02*
X39432Y-80790D01*
X39508Y-80828D01*
X39546Y-80866D01*
X39584Y-80942D01*
X39623Y-81095D01*
X39623Y-81285D01*
X39584Y-81437D01*
X39546Y-81514D01*
X39508Y-81552D01*
X39432Y-81590D01*
X39356Y-81590D01*
X39280Y-81552D01*
X39242Y-81514D01*
X39203Y-81437D01*
X39165Y-81285D01*
X39165Y-81095D01*
X39203Y-80942D01*
X39242Y-80866D01*
X39280Y-80828D01*
X39356Y-80790D01*
X39889Y-80790D02*
X40385Y-80790D01*
X40118Y-81095D01*
X40232Y-81095D01*
X40308Y-81133D01*
X40346Y-81171D01*
X40385Y-81247D01*
X40385Y-81437D01*
X40346Y-81514D01*
X40308Y-81552D01*
X40232Y-81590D01*
X40004Y-81590D01*
X39927Y-81552D01*
X39889Y-81514D01*
X40689Y-80866D02*
X40727Y-80828D01*
X40804Y-80790D01*
X40994Y-80790D01*
X41070Y-80828D01*
X41108Y-80866D01*
X41147Y-80942D01*
X41147Y-81018D01*
X41108Y-81133D01*
X40651Y-81590D01*
X41147Y-81590D01*
X41451Y-80790D02*
X41451Y-80942D01*
X41756Y-80790D02*
X41756Y-80942D01*
X43281Y-80752D02*
X42595Y-81780D01*
X44310Y-80790D02*
X44386Y-80790D01*
X44462Y-80828D01*
X44500Y-80866D01*
X44538Y-80942D01*
X44577Y-81095D01*
X44577Y-81285D01*
X44538Y-81437D01*
X44500Y-81514D01*
X44462Y-81552D01*
X44386Y-81590D01*
X44310Y-81590D01*
X44234Y-81552D01*
X44196Y-81514D01*
X44157Y-81437D01*
X44119Y-81285D01*
X44119Y-81095D01*
X44157Y-80942D01*
X44196Y-80866D01*
X44234Y-80828D01*
X44310Y-80790D01*
X44919Y-81514D02*
X44958Y-81552D01*
X44919Y-81590D01*
X44881Y-81552D01*
X44919Y-81514D01*
X44919Y-81590D01*
X45415Y-81133D02*
X45339Y-81095D01*
X45300Y-81056D01*
X45262Y-80980D01*
X45262Y-80942D01*
X45300Y-80866D01*
X45339Y-80828D01*
X45415Y-80790D01*
X45567Y-80790D01*
X45643Y-80828D01*
X45681Y-80866D01*
X45720Y-80942D01*
X45720Y-80980D01*
X45681Y-81056D01*
X45643Y-81095D01*
X45567Y-81133D01*
X45415Y-81133D01*
X45339Y-81171D01*
X45300Y-81209D01*
X45262Y-81285D01*
X45262Y-81437D01*
X45300Y-81514D01*
X45339Y-81552D01*
X45415Y-81590D01*
X45567Y-81590D01*
X45643Y-81552D01*
X45681Y-81514D01*
X45720Y-81437D01*
X45720Y-81285D01*
X45681Y-81209D01*
X45643Y-81171D01*
X45567Y-81133D01*
X46482Y-81590D02*
X46024Y-81590D01*
X46253Y-81590D02*
X46253Y-80790D01*
X46177Y-80904D01*
X46101Y-80980D01*
X46024Y-81018D01*
X46824Y-81590D02*
X46824Y-81056D01*
X46824Y-81133D02*
X46863Y-81095D01*
X46939Y-81056D01*
X47053Y-81056D01*
X47129Y-81095D01*
X47167Y-81171D01*
X47167Y-81590D01*
X47167Y-81171D02*
X47205Y-81095D01*
X47282Y-81056D01*
X47396Y-81056D01*
X47472Y-81095D01*
X47510Y-81171D01*
X47510Y-81590D01*
X47891Y-81590D02*
X47891Y-81056D01*
X47891Y-81133D02*
X47930Y-81095D01*
X48006Y-81056D01*
X48120Y-81056D01*
X48196Y-81095D01*
X48234Y-81171D01*
X48234Y-81590D01*
X48234Y-81171D02*
X48272Y-81095D01*
X48349Y-81056D01*
X48463Y-81056D01*
X48539Y-81095D01*
X48577Y-81171D01*
X48577Y-81590D01*
X49797Y-81895D02*
X49759Y-81856D01*
X49683Y-81742D01*
X49645Y-81666D01*
X49607Y-81552D01*
X49568Y-81361D01*
X49568Y-81209D01*
X49607Y-81018D01*
X49645Y-80904D01*
X49683Y-80828D01*
X49759Y-80714D01*
X49797Y-80676D01*
X50521Y-81590D02*
X50063Y-81590D01*
X50292Y-81590D02*
X50292Y-80790D01*
X50216Y-80904D01*
X50140Y-80980D01*
X50063Y-81018D01*
X50978Y-81133D02*
X50902Y-81095D01*
X50863Y-81056D01*
X50825Y-80980D01*
X50825Y-80942D01*
X50863Y-80866D01*
X50902Y-80828D01*
X50978Y-80790D01*
X51130Y-80790D01*
X51206Y-80828D01*
X51244Y-80866D01*
X51283Y-80942D01*
X51283Y-80980D01*
X51244Y-81056D01*
X51206Y-81095D01*
X51130Y-81133D01*
X50978Y-81133D01*
X50902Y-81171D01*
X50863Y-81209D01*
X50825Y-81285D01*
X50825Y-81437D01*
X50863Y-81514D01*
X50902Y-81552D01*
X50978Y-81590D01*
X51130Y-81590D01*
X51206Y-81552D01*
X51244Y-81514D01*
X51283Y-81437D01*
X51283Y-81285D01*
X51244Y-81209D01*
X51206Y-81171D01*
X51130Y-81133D01*
X52235Y-81590D02*
X52235Y-80790D01*
X52578Y-81590D02*
X52578Y-81171D01*
X52540Y-81095D01*
X52464Y-81056D01*
X52350Y-81056D01*
X52274Y-81095D01*
X52235Y-81133D01*
X53074Y-81590D02*
X52998Y-81552D01*
X52959Y-81514D01*
X52921Y-81437D01*
X52921Y-81209D01*
X52959Y-81133D01*
X52998Y-81095D01*
X53074Y-81056D01*
X53188Y-81056D01*
X53264Y-81095D01*
X53302Y-81133D01*
X53340Y-81209D01*
X53340Y-81437D01*
X53302Y-81514D01*
X53264Y-81552D01*
X53188Y-81590D01*
X53074Y-81590D01*
X53798Y-81590D02*
X53722Y-81552D01*
X53683Y-81476D01*
X53683Y-80790D01*
X54407Y-81552D02*
X54331Y-81590D01*
X54179Y-81590D01*
X54102Y-81552D01*
X54064Y-81476D01*
X54064Y-81171D01*
X54102Y-81095D01*
X54179Y-81056D01*
X54331Y-81056D01*
X54407Y-81095D01*
X54445Y-81171D01*
X54445Y-81247D01*
X54064Y-81323D01*
X54750Y-81552D02*
X54827Y-81590D01*
X54979Y-81590D01*
X55055Y-81552D01*
X55093Y-81476D01*
X55093Y-81437D01*
X55055Y-81361D01*
X54979Y-81323D01*
X54865Y-81323D01*
X54788Y-81285D01*
X54750Y-81209D01*
X54750Y-81171D01*
X54788Y-81095D01*
X54865Y-81056D01*
X54979Y-81056D01*
X55055Y-81095D01*
X55360Y-81895D02*
X55398Y-81856D01*
X55475Y-81742D01*
X55513Y-81666D01*
X55551Y-81552D01*
X55589Y-81361D01*
X55589Y-81209D01*
X55551Y-81018D01*
X55513Y-80904D01*
X55475Y-80828D01*
X55398Y-80714D01*
X55360Y-80676D01*
X37470Y-82121D02*
X37470Y-82521D01*
X37670Y-82321D02*
X37270Y-82321D01*
X38213Y-81845D02*
X38289Y-81845D01*
X38365Y-81883D01*
X38403Y-81921D01*
X38441Y-81997D01*
X38480Y-82150D01*
X38480Y-82340D01*
X38441Y-82492D01*
X38403Y-82569D01*
X38365Y-82607D01*
X38289Y-82645D01*
X38213Y-82645D01*
X38137Y-82607D01*
X38099Y-82569D01*
X38060Y-82492D01*
X38022Y-82340D01*
X38022Y-82150D01*
X38060Y-81997D01*
X38099Y-81921D01*
X38137Y-81883D01*
X38213Y-81845D01*
X38822Y-82569D02*
X38861Y-82607D01*
X38822Y-82645D01*
X38784Y-82607D01*
X38822Y-82569D01*
X38822Y-82645D01*
X39356Y-81845D02*
X39432Y-81845D01*
X39508Y-81883D01*
X39546Y-81921D01*
X39584Y-81997D01*
X39623Y-82150D01*
X39623Y-82340D01*
X39584Y-82492D01*
X39546Y-82569D01*
X39508Y-82607D01*
X39432Y-82645D01*
X39356Y-82645D01*
X39280Y-82607D01*
X39242Y-82569D01*
X39203Y-82492D01*
X39165Y-82340D01*
X39165Y-82150D01*
X39203Y-81997D01*
X39242Y-81921D01*
X39280Y-81883D01*
X39356Y-81845D01*
X40308Y-82111D02*
X40308Y-82645D01*
X40118Y-81807D02*
X39927Y-82378D01*
X40423Y-82378D01*
X40880Y-81845D02*
X40956Y-81845D01*
X41032Y-81883D01*
X41070Y-81921D01*
X41108Y-81997D01*
X41147Y-82150D01*
X41147Y-82340D01*
X41108Y-82492D01*
X41070Y-82569D01*
X41032Y-82607D01*
X40956Y-82645D01*
X40880Y-82645D01*
X40804Y-82607D01*
X40766Y-82569D01*
X40727Y-82492D01*
X40689Y-82340D01*
X40689Y-82150D01*
X40727Y-81997D01*
X40766Y-81921D01*
X40804Y-81883D01*
X40880Y-81845D01*
X41451Y-81845D02*
X41451Y-81997D01*
X41756Y-81845D02*
X41756Y-81997D01*
X43281Y-81807D02*
X42595Y-82835D01*
X44577Y-82645D02*
X44119Y-82645D01*
X44348Y-82645D02*
X44348Y-81845D01*
X44272Y-81959D01*
X44196Y-82035D01*
X44119Y-82073D01*
X44919Y-82569D02*
X44958Y-82607D01*
X44919Y-82645D01*
X44881Y-82607D01*
X44919Y-82569D01*
X44919Y-82645D01*
X45453Y-81845D02*
X45529Y-81845D01*
X45605Y-81883D01*
X45643Y-81921D01*
X45681Y-81997D01*
X45720Y-82150D01*
X45720Y-82340D01*
X45681Y-82492D01*
X45643Y-82569D01*
X45605Y-82607D01*
X45529Y-82645D01*
X45453Y-82645D01*
X45377Y-82607D01*
X45339Y-82569D01*
X45300Y-82492D01*
X45262Y-82340D01*
X45262Y-82150D01*
X45300Y-81997D01*
X45339Y-81921D01*
X45377Y-81883D01*
X45453Y-81845D01*
X46024Y-81921D02*
X46062Y-81883D01*
X46139Y-81845D01*
X46329Y-81845D01*
X46405Y-81883D01*
X46443Y-81921D01*
X46482Y-81997D01*
X46482Y-82073D01*
X46443Y-82188D01*
X45986Y-82645D01*
X46482Y-82645D01*
X46824Y-82645D02*
X46824Y-82111D01*
X46824Y-82188D02*
X46863Y-82150D01*
X46939Y-82111D01*
X47053Y-82111D01*
X47129Y-82150D01*
X47167Y-82226D01*
X47167Y-82645D01*
X47167Y-82226D02*
X47205Y-82150D01*
X47282Y-82111D01*
X47396Y-82111D01*
X47472Y-82150D01*
X47510Y-82226D01*
X47510Y-82645D01*
X47891Y-82645D02*
X47891Y-82111D01*
X47891Y-82188D02*
X47930Y-82150D01*
X48006Y-82111D01*
X48120Y-82111D01*
X48196Y-82150D01*
X48234Y-82226D01*
X48234Y-82645D01*
X48234Y-82226D02*
X48272Y-82150D01*
X48349Y-82111D01*
X48463Y-82111D01*
X48539Y-82150D01*
X48577Y-82226D01*
X48577Y-82645D01*
X49797Y-82950D02*
X49759Y-82911D01*
X49683Y-82797D01*
X49645Y-82721D01*
X49607Y-82607D01*
X49568Y-82416D01*
X49568Y-82264D01*
X49607Y-82073D01*
X49645Y-81959D01*
X49683Y-81883D01*
X49759Y-81769D01*
X49797Y-81731D01*
X50025Y-81845D02*
X50521Y-81845D01*
X50254Y-82150D01*
X50368Y-82150D01*
X50444Y-82188D01*
X50482Y-82226D01*
X50521Y-82302D01*
X50521Y-82492D01*
X50482Y-82569D01*
X50444Y-82607D01*
X50368Y-82645D01*
X50140Y-82645D01*
X50063Y-82607D01*
X50025Y-82569D01*
X50902Y-82645D02*
X51054Y-82645D01*
X51130Y-82607D01*
X51168Y-82569D01*
X51244Y-82454D01*
X51283Y-82302D01*
X51283Y-81997D01*
X51244Y-81921D01*
X51206Y-81883D01*
X51130Y-81845D01*
X50978Y-81845D01*
X50902Y-81883D01*
X50863Y-81921D01*
X50825Y-81997D01*
X50825Y-82188D01*
X50863Y-82264D01*
X50902Y-82302D01*
X50978Y-82340D01*
X51130Y-82340D01*
X51206Y-82302D01*
X51244Y-82264D01*
X51283Y-82188D01*
X52235Y-82645D02*
X52235Y-81845D01*
X52578Y-82645D02*
X52578Y-82226D01*
X52540Y-82150D01*
X52464Y-82111D01*
X52350Y-82111D01*
X52274Y-82150D01*
X52235Y-82188D01*
X53074Y-82645D02*
X52998Y-82607D01*
X52959Y-82569D01*
X52921Y-82492D01*
X52921Y-82264D01*
X52959Y-82188D01*
X52998Y-82150D01*
X53074Y-82111D01*
X53188Y-82111D01*
X53264Y-82150D01*
X53302Y-82188D01*
X53340Y-82264D01*
X53340Y-82492D01*
X53302Y-82569D01*
X53264Y-82607D01*
X53188Y-82645D01*
X53074Y-82645D01*
X53798Y-82645D02*
X53722Y-82607D01*
X53683Y-82531D01*
X53683Y-81845D01*
X54407Y-82607D02*
X54331Y-82645D01*
X54179Y-82645D01*
X54102Y-82607D01*
X54064Y-82531D01*
X54064Y-82226D01*
X54102Y-82150D01*
X54179Y-82111D01*
X54331Y-82111D01*
X54407Y-82150D01*
X54445Y-82226D01*
X54445Y-82302D01*
X54064Y-82378D01*
X54750Y-82607D02*
X54827Y-82645D01*
X54979Y-82645D01*
X55055Y-82607D01*
X55093Y-82531D01*
X55093Y-82492D01*
X55055Y-82416D01*
X54979Y-82378D01*
X54865Y-82378D01*
X54788Y-82340D01*
X54750Y-82264D01*
X54750Y-82226D01*
X54788Y-82150D01*
X54865Y-82111D01*
X54979Y-82111D01*
X55055Y-82150D01*
X55360Y-82950D02*
X55398Y-82911D01*
X55475Y-82797D01*
X55513Y-82721D01*
X55551Y-82607D01*
X55589Y-82416D01*
X55589Y-82264D01*
X55551Y-82073D01*
X55513Y-81959D01*
X55475Y-81883D01*
X55398Y-81769D01*
X55360Y-81731D01*
G54D10*
X37669Y-83376D02*
X37661Y-83452D01*
X37639Y-83525D01*
X37603Y-83593D01*
X37554Y-83652D01*
X37495Y-83701D01*
X37428Y-83738D01*
X37355Y-83760D01*
X37278Y-83768D01*
X37203Y-83762D01*
X37129Y-83740D01*
X37061Y-83704D01*
X37002Y-83656D01*
X36952Y-83598D01*
X36915Y-83530D01*
X36892Y-83457D01*
X36884Y-83381D01*
X36890Y-83306D01*
X36911Y-83232D01*
X36946Y-83164D01*
X36994Y-83103D01*
X37052Y-83054D01*
X37119Y-83016D01*
X37192Y-82993D01*
X37268Y-82984D01*
X37344Y-82989D01*
X37418Y-83010D01*
X37486Y-83045D01*
X37547Y-83092D01*
X37597Y-83150D01*
X37635Y-83217D01*
X37659Y-83289D01*
X37668Y-83366D01*
X37669Y-83376D01*
X36883Y-82983D02*
X37669Y-83769D01*
X37669Y-82983D02*
X36883Y-83769D01*
G54D12*
X38213Y-82900D02*
X38289Y-82900D01*
X38365Y-82938D01*
X38403Y-82976D01*
X38441Y-83052D01*
X38480Y-83205D01*
X38480Y-83395D01*
X38441Y-83547D01*
X38403Y-83624D01*
X38365Y-83662D01*
X38289Y-83700D01*
X38213Y-83700D01*
X38137Y-83662D01*
X38099Y-83624D01*
X38060Y-83547D01*
X38022Y-83395D01*
X38022Y-83205D01*
X38060Y-83052D01*
X38099Y-82976D01*
X38137Y-82938D01*
X38213Y-82900D01*
X38822Y-83624D02*
X38861Y-83662D01*
X38822Y-83700D01*
X38784Y-83662D01*
X38822Y-83624D01*
X38822Y-83700D01*
X39356Y-82900D02*
X39432Y-82900D01*
X39508Y-82938D01*
X39546Y-82976D01*
X39584Y-83052D01*
X39623Y-83205D01*
X39623Y-83395D01*
X39584Y-83547D01*
X39546Y-83624D01*
X39508Y-83662D01*
X39432Y-83700D01*
X39356Y-83700D01*
X39280Y-83662D01*
X39242Y-83624D01*
X39203Y-83547D01*
X39165Y-83395D01*
X39165Y-83205D01*
X39203Y-83052D01*
X39242Y-82976D01*
X39280Y-82938D01*
X39356Y-82900D01*
X39889Y-82900D02*
X40423Y-82900D01*
X40080Y-83700D01*
X40766Y-83700D02*
X40918Y-83700D01*
X40994Y-83662D01*
X41032Y-83624D01*
X41108Y-83509D01*
X41147Y-83357D01*
X41147Y-83052D01*
X41108Y-82976D01*
X41070Y-82938D01*
X40994Y-82900D01*
X40842Y-82900D01*
X40766Y-82938D01*
X40727Y-82976D01*
X40689Y-83052D01*
X40689Y-83243D01*
X40727Y-83319D01*
X40766Y-83357D01*
X40842Y-83395D01*
X40994Y-83395D01*
X41070Y-83357D01*
X41108Y-83319D01*
X41147Y-83243D01*
X41451Y-82900D02*
X41451Y-83052D01*
X41756Y-82900D02*
X41756Y-83052D01*
X43281Y-82862D02*
X42595Y-83890D01*
X44119Y-82976D02*
X44157Y-82938D01*
X44234Y-82900D01*
X44424Y-82900D01*
X44500Y-82938D01*
X44538Y-82976D01*
X44577Y-83052D01*
X44577Y-83128D01*
X44538Y-83243D01*
X44081Y-83700D01*
X44577Y-83700D01*
X44919Y-83624D02*
X44958Y-83662D01*
X44919Y-83700D01*
X44881Y-83662D01*
X44919Y-83624D01*
X44919Y-83700D01*
X45453Y-82900D02*
X45529Y-82900D01*
X45605Y-82938D01*
X45643Y-82976D01*
X45681Y-83052D01*
X45720Y-83205D01*
X45720Y-83395D01*
X45681Y-83547D01*
X45643Y-83624D01*
X45605Y-83662D01*
X45529Y-83700D01*
X45453Y-83700D01*
X45377Y-83662D01*
X45339Y-83624D01*
X45300Y-83547D01*
X45262Y-83395D01*
X45262Y-83205D01*
X45300Y-83052D01*
X45339Y-82976D01*
X45377Y-82938D01*
X45453Y-82900D01*
X46215Y-82900D02*
X46291Y-82900D01*
X46367Y-82938D01*
X46405Y-82976D01*
X46443Y-83052D01*
X46482Y-83205D01*
X46482Y-83395D01*
X46443Y-83547D01*
X46405Y-83624D01*
X46367Y-83662D01*
X46291Y-83700D01*
X46215Y-83700D01*
X46139Y-83662D01*
X46101Y-83624D01*
X46062Y-83547D01*
X46024Y-83395D01*
X46024Y-83205D01*
X46062Y-83052D01*
X46101Y-82976D01*
X46139Y-82938D01*
X46215Y-82900D01*
X46824Y-83700D02*
X46824Y-83166D01*
X46824Y-83243D02*
X46863Y-83205D01*
X46939Y-83166D01*
X47053Y-83166D01*
X47129Y-83205D01*
X47167Y-83281D01*
X47167Y-83700D01*
X47167Y-83281D02*
X47205Y-83205D01*
X47282Y-83166D01*
X47396Y-83166D01*
X47472Y-83205D01*
X47510Y-83281D01*
X47510Y-83700D01*
X47891Y-83700D02*
X47891Y-83166D01*
X47891Y-83243D02*
X47930Y-83205D01*
X48006Y-83166D01*
X48120Y-83166D01*
X48196Y-83205D01*
X48234Y-83281D01*
X48234Y-83700D01*
X48234Y-83281D02*
X48272Y-83205D01*
X48349Y-83166D01*
X48463Y-83166D01*
X48539Y-83205D01*
X48577Y-83281D01*
X48577Y-83700D01*
X49797Y-84005D02*
X49759Y-83966D01*
X49683Y-83852D01*
X49645Y-83776D01*
X49607Y-83662D01*
X49568Y-83471D01*
X49568Y-83319D01*
X49607Y-83128D01*
X49645Y-83014D01*
X49683Y-82938D01*
X49759Y-82824D01*
X49797Y-82786D01*
X50063Y-82976D02*
X50101Y-82938D01*
X50178Y-82900D01*
X50368Y-82900D01*
X50444Y-82938D01*
X50482Y-82976D01*
X50521Y-83052D01*
X50521Y-83128D01*
X50482Y-83243D01*
X50025Y-83700D01*
X50521Y-83700D01*
X50825Y-82976D02*
X50863Y-82938D01*
X50940Y-82900D01*
X51130Y-82900D01*
X51206Y-82938D01*
X51244Y-82976D01*
X51283Y-83052D01*
X51283Y-83128D01*
X51244Y-83243D01*
X50787Y-83700D01*
X51283Y-83700D01*
X52235Y-83700D02*
X52235Y-82900D01*
X52578Y-83700D02*
X52578Y-83281D01*
X52540Y-83205D01*
X52464Y-83166D01*
X52350Y-83166D01*
X52274Y-83205D01*
X52235Y-83243D01*
X53074Y-83700D02*
X52998Y-83662D01*
X52959Y-83624D01*
X52921Y-83547D01*
X52921Y-83319D01*
X52959Y-83243D01*
X52998Y-83205D01*
X53074Y-83166D01*
X53188Y-83166D01*
X53264Y-83205D01*
X53302Y-83243D01*
X53340Y-83319D01*
X53340Y-83547D01*
X53302Y-83624D01*
X53264Y-83662D01*
X53188Y-83700D01*
X53074Y-83700D01*
X53798Y-83700D02*
X53722Y-83662D01*
X53683Y-83586D01*
X53683Y-82900D01*
X54407Y-83662D02*
X54331Y-83700D01*
X54179Y-83700D01*
X54102Y-83662D01*
X54064Y-83586D01*
X54064Y-83281D01*
X54102Y-83205D01*
X54179Y-83166D01*
X54331Y-83166D01*
X54407Y-83205D01*
X54445Y-83281D01*
X54445Y-83357D01*
X54064Y-83433D01*
X54750Y-83662D02*
X54827Y-83700D01*
X54979Y-83700D01*
X55055Y-83662D01*
X55093Y-83586D01*
X55093Y-83547D01*
X55055Y-83471D01*
X54979Y-83433D01*
X54865Y-83433D01*
X54788Y-83395D01*
X54750Y-83319D01*
X54750Y-83281D01*
X54788Y-83205D01*
X54865Y-83166D01*
X54979Y-83166D01*
X55055Y-83205D01*
X55360Y-84005D02*
X55398Y-83966D01*
X55475Y-83852D01*
X55513Y-83776D01*
X55551Y-83662D01*
X55589Y-83471D01*
X55589Y-83319D01*
X55551Y-83128D01*
X55513Y-83014D01*
X55475Y-82938D01*
X55398Y-82824D01*
X55360Y-82786D01*
M02*
