G04 (created by PCBNEW-RS274X (2012-01-19 BZR 3256)-stable) date 12/6/2012 10:52:00 PM*
G01*
G70*
G90*
%MOIN*%
G04 Gerber Fmt 3.4, Leading zero omitted, Abs format*
%FSLAX34Y34*%
G04 APERTURE LIST*
%ADD10C,0.006000*%
%ADD11C,0.001000*%
%ADD12C,0.007900*%
%ADD13C,0.012000*%
%ADD14C,0.010700*%
G04 APERTURE END LIST*
G54D10*
G54D11*
X43950Y-42850D02*
X45680Y-42850D01*
X43950Y-42190D02*
X45670Y-42190D01*
X44280Y-42520D02*
X44273Y-42584D01*
X44255Y-42645D01*
X44224Y-42702D01*
X44184Y-42752D01*
X44134Y-42793D01*
X44077Y-42824D01*
X44016Y-42843D01*
X43952Y-42849D01*
X43889Y-42844D01*
X43827Y-42825D01*
X43770Y-42796D01*
X43720Y-42755D01*
X43678Y-42706D01*
X43647Y-42650D01*
X43628Y-42588D01*
X43621Y-42524D01*
X43626Y-42461D01*
X43644Y-42399D01*
X43673Y-42342D01*
X43713Y-42291D01*
X43762Y-42250D01*
X43818Y-42218D01*
X43880Y-42198D01*
X43944Y-42191D01*
X44007Y-42196D01*
X44069Y-42213D01*
X44126Y-42242D01*
X44177Y-42282D01*
X44219Y-42330D01*
X44251Y-42386D01*
X44271Y-42447D01*
X44279Y-42511D01*
X44280Y-42520D01*
X48980Y-42520D02*
X48952Y-42795D01*
X48872Y-43061D01*
X48742Y-43305D01*
X48567Y-43520D01*
X48354Y-43697D01*
X48110Y-43829D01*
X47845Y-43910D01*
X47569Y-43939D01*
X47294Y-43914D01*
X47029Y-43836D01*
X46783Y-43708D01*
X46567Y-43534D01*
X46389Y-43322D01*
X46255Y-43079D01*
X46172Y-42815D01*
X46141Y-42539D01*
X46164Y-42264D01*
X46240Y-41998D01*
X46367Y-41751D01*
X46539Y-41534D01*
X46750Y-41354D01*
X46992Y-41219D01*
X47256Y-41134D01*
X47531Y-41101D01*
X47806Y-41122D01*
X48073Y-41197D01*
X48320Y-41322D01*
X48539Y-41492D01*
X48720Y-41702D01*
X48857Y-41943D01*
X48944Y-42206D01*
X48979Y-42481D01*
X48980Y-42520D01*
G54D12*
X49800Y-40750D02*
X49800Y-44290D01*
X49800Y-44290D02*
X45670Y-44290D01*
X45670Y-44290D02*
X45670Y-40750D01*
X45670Y-40750D02*
X49800Y-40750D01*
G54D11*
X44950Y-72150D02*
X43220Y-72150D01*
X44950Y-72810D02*
X43230Y-72810D01*
X45280Y-72480D02*
X45273Y-72544D01*
X45255Y-72605D01*
X45224Y-72662D01*
X45184Y-72712D01*
X45134Y-72753D01*
X45077Y-72784D01*
X45016Y-72803D01*
X44952Y-72809D01*
X44889Y-72804D01*
X44827Y-72785D01*
X44770Y-72756D01*
X44720Y-72715D01*
X44678Y-72666D01*
X44647Y-72610D01*
X44628Y-72548D01*
X44621Y-72484D01*
X44626Y-72421D01*
X44644Y-72359D01*
X44673Y-72302D01*
X44713Y-72251D01*
X44762Y-72210D01*
X44818Y-72178D01*
X44880Y-72158D01*
X44944Y-72151D01*
X45007Y-72156D01*
X45069Y-72173D01*
X45126Y-72202D01*
X45177Y-72242D01*
X45219Y-72290D01*
X45251Y-72346D01*
X45271Y-72407D01*
X45279Y-72471D01*
X45280Y-72480D01*
X42760Y-72480D02*
X42732Y-72755D01*
X42652Y-73021D01*
X42522Y-73265D01*
X42347Y-73480D01*
X42134Y-73657D01*
X41890Y-73789D01*
X41625Y-73870D01*
X41349Y-73899D01*
X41074Y-73874D01*
X40809Y-73796D01*
X40563Y-73668D01*
X40347Y-73494D01*
X40169Y-73282D01*
X40035Y-73039D01*
X39952Y-72775D01*
X39921Y-72499D01*
X39944Y-72224D01*
X40020Y-71958D01*
X40147Y-71711D01*
X40319Y-71494D01*
X40530Y-71314D01*
X40772Y-71179D01*
X41036Y-71094D01*
X41311Y-71061D01*
X41586Y-71082D01*
X41853Y-71157D01*
X42100Y-71282D01*
X42319Y-71452D01*
X42500Y-71662D01*
X42637Y-71903D01*
X42724Y-72166D01*
X42759Y-72441D01*
X42760Y-72480D01*
G54D12*
X39100Y-74250D02*
X39100Y-70710D01*
X39100Y-70710D02*
X43230Y-70710D01*
X43230Y-70710D02*
X43230Y-74250D01*
X43230Y-74250D02*
X39100Y-74250D01*
G54D11*
X44950Y-67150D02*
X43220Y-67150D01*
X44950Y-67810D02*
X43230Y-67810D01*
X45280Y-67480D02*
X45273Y-67544D01*
X45255Y-67605D01*
X45224Y-67662D01*
X45184Y-67712D01*
X45134Y-67753D01*
X45077Y-67784D01*
X45016Y-67803D01*
X44952Y-67809D01*
X44889Y-67804D01*
X44827Y-67785D01*
X44770Y-67756D01*
X44720Y-67715D01*
X44678Y-67666D01*
X44647Y-67610D01*
X44628Y-67548D01*
X44621Y-67484D01*
X44626Y-67421D01*
X44644Y-67359D01*
X44673Y-67302D01*
X44713Y-67251D01*
X44762Y-67210D01*
X44818Y-67178D01*
X44880Y-67158D01*
X44944Y-67151D01*
X45007Y-67156D01*
X45069Y-67173D01*
X45126Y-67202D01*
X45177Y-67242D01*
X45219Y-67290D01*
X45251Y-67346D01*
X45271Y-67407D01*
X45279Y-67471D01*
X45280Y-67480D01*
X42760Y-67480D02*
X42732Y-67755D01*
X42652Y-68021D01*
X42522Y-68265D01*
X42347Y-68480D01*
X42134Y-68657D01*
X41890Y-68789D01*
X41625Y-68870D01*
X41349Y-68899D01*
X41074Y-68874D01*
X40809Y-68796D01*
X40563Y-68668D01*
X40347Y-68494D01*
X40169Y-68282D01*
X40035Y-68039D01*
X39952Y-67775D01*
X39921Y-67499D01*
X39944Y-67224D01*
X40020Y-66958D01*
X40147Y-66711D01*
X40319Y-66494D01*
X40530Y-66314D01*
X40772Y-66179D01*
X41036Y-66094D01*
X41311Y-66061D01*
X41586Y-66082D01*
X41853Y-66157D01*
X42100Y-66282D01*
X42319Y-66452D01*
X42500Y-66662D01*
X42637Y-66903D01*
X42724Y-67166D01*
X42759Y-67441D01*
X42760Y-67480D01*
G54D12*
X39100Y-69250D02*
X39100Y-65710D01*
X39100Y-65710D02*
X43230Y-65710D01*
X43230Y-65710D02*
X43230Y-69250D01*
X43230Y-69250D02*
X39100Y-69250D01*
G54D11*
X44950Y-42150D02*
X43220Y-42150D01*
X44950Y-42810D02*
X43230Y-42810D01*
X45280Y-42480D02*
X45273Y-42544D01*
X45255Y-42605D01*
X45224Y-42662D01*
X45184Y-42712D01*
X45134Y-42753D01*
X45077Y-42784D01*
X45016Y-42803D01*
X44952Y-42809D01*
X44889Y-42804D01*
X44827Y-42785D01*
X44770Y-42756D01*
X44720Y-42715D01*
X44678Y-42666D01*
X44647Y-42610D01*
X44628Y-42548D01*
X44621Y-42484D01*
X44626Y-42421D01*
X44644Y-42359D01*
X44673Y-42302D01*
X44713Y-42251D01*
X44762Y-42210D01*
X44818Y-42178D01*
X44880Y-42158D01*
X44944Y-42151D01*
X45007Y-42156D01*
X45069Y-42173D01*
X45126Y-42202D01*
X45177Y-42242D01*
X45219Y-42290D01*
X45251Y-42346D01*
X45271Y-42407D01*
X45279Y-42471D01*
X45280Y-42480D01*
X42760Y-42480D02*
X42732Y-42755D01*
X42652Y-43021D01*
X42522Y-43265D01*
X42347Y-43480D01*
X42134Y-43657D01*
X41890Y-43789D01*
X41625Y-43870D01*
X41349Y-43899D01*
X41074Y-43874D01*
X40809Y-43796D01*
X40563Y-43668D01*
X40347Y-43494D01*
X40169Y-43282D01*
X40035Y-43039D01*
X39952Y-42775D01*
X39921Y-42499D01*
X39944Y-42224D01*
X40020Y-41958D01*
X40147Y-41711D01*
X40319Y-41494D01*
X40530Y-41314D01*
X40772Y-41179D01*
X41036Y-41094D01*
X41311Y-41061D01*
X41586Y-41082D01*
X41853Y-41157D01*
X42100Y-41282D01*
X42319Y-41452D01*
X42500Y-41662D01*
X42637Y-41903D01*
X42724Y-42166D01*
X42759Y-42441D01*
X42760Y-42480D01*
G54D12*
X39100Y-44250D02*
X39100Y-40710D01*
X39100Y-40710D02*
X43230Y-40710D01*
X43230Y-40710D02*
X43230Y-44250D01*
X43230Y-44250D02*
X39100Y-44250D01*
G54D11*
X43950Y-72850D02*
X45680Y-72850D01*
X43950Y-72190D02*
X45670Y-72190D01*
X44280Y-72520D02*
X44273Y-72584D01*
X44255Y-72645D01*
X44224Y-72702D01*
X44184Y-72752D01*
X44134Y-72793D01*
X44077Y-72824D01*
X44016Y-72843D01*
X43952Y-72849D01*
X43889Y-72844D01*
X43827Y-72825D01*
X43770Y-72796D01*
X43720Y-72755D01*
X43678Y-72706D01*
X43647Y-72650D01*
X43628Y-72588D01*
X43621Y-72524D01*
X43626Y-72461D01*
X43644Y-72399D01*
X43673Y-72342D01*
X43713Y-72291D01*
X43762Y-72250D01*
X43818Y-72218D01*
X43880Y-72198D01*
X43944Y-72191D01*
X44007Y-72196D01*
X44069Y-72213D01*
X44126Y-72242D01*
X44177Y-72282D01*
X44219Y-72330D01*
X44251Y-72386D01*
X44271Y-72447D01*
X44279Y-72511D01*
X44280Y-72520D01*
X48980Y-72520D02*
X48952Y-72795D01*
X48872Y-73061D01*
X48742Y-73305D01*
X48567Y-73520D01*
X48354Y-73697D01*
X48110Y-73829D01*
X47845Y-73910D01*
X47569Y-73939D01*
X47294Y-73914D01*
X47029Y-73836D01*
X46783Y-73708D01*
X46567Y-73534D01*
X46389Y-73322D01*
X46255Y-73079D01*
X46172Y-72815D01*
X46141Y-72539D01*
X46164Y-72264D01*
X46240Y-71998D01*
X46367Y-71751D01*
X46539Y-71534D01*
X46750Y-71354D01*
X46992Y-71219D01*
X47256Y-71134D01*
X47531Y-71101D01*
X47806Y-71122D01*
X48073Y-71197D01*
X48320Y-71322D01*
X48539Y-71492D01*
X48720Y-71702D01*
X48857Y-71943D01*
X48944Y-72206D01*
X48979Y-72481D01*
X48980Y-72520D01*
G54D12*
X49800Y-70750D02*
X49800Y-74290D01*
X49800Y-74290D02*
X45670Y-74290D01*
X45670Y-74290D02*
X45670Y-70750D01*
X45670Y-70750D02*
X49800Y-70750D01*
G54D11*
X43950Y-37850D02*
X45680Y-37850D01*
X43950Y-37190D02*
X45670Y-37190D01*
X44280Y-37520D02*
X44273Y-37584D01*
X44255Y-37645D01*
X44224Y-37702D01*
X44184Y-37752D01*
X44134Y-37793D01*
X44077Y-37824D01*
X44016Y-37843D01*
X43952Y-37849D01*
X43889Y-37844D01*
X43827Y-37825D01*
X43770Y-37796D01*
X43720Y-37755D01*
X43678Y-37706D01*
X43647Y-37650D01*
X43628Y-37588D01*
X43621Y-37524D01*
X43626Y-37461D01*
X43644Y-37399D01*
X43673Y-37342D01*
X43713Y-37291D01*
X43762Y-37250D01*
X43818Y-37218D01*
X43880Y-37198D01*
X43944Y-37191D01*
X44007Y-37196D01*
X44069Y-37213D01*
X44126Y-37242D01*
X44177Y-37282D01*
X44219Y-37330D01*
X44251Y-37386D01*
X44271Y-37447D01*
X44279Y-37511D01*
X44280Y-37520D01*
X48980Y-37520D02*
X48952Y-37795D01*
X48872Y-38061D01*
X48742Y-38305D01*
X48567Y-38520D01*
X48354Y-38697D01*
X48110Y-38829D01*
X47845Y-38910D01*
X47569Y-38939D01*
X47294Y-38914D01*
X47029Y-38836D01*
X46783Y-38708D01*
X46567Y-38534D01*
X46389Y-38322D01*
X46255Y-38079D01*
X46172Y-37815D01*
X46141Y-37539D01*
X46164Y-37264D01*
X46240Y-36998D01*
X46367Y-36751D01*
X46539Y-36534D01*
X46750Y-36354D01*
X46992Y-36219D01*
X47256Y-36134D01*
X47531Y-36101D01*
X47806Y-36122D01*
X48073Y-36197D01*
X48320Y-36322D01*
X48539Y-36492D01*
X48720Y-36702D01*
X48857Y-36943D01*
X48944Y-37206D01*
X48979Y-37481D01*
X48980Y-37520D01*
G54D12*
X49800Y-35750D02*
X49800Y-39290D01*
X49800Y-39290D02*
X45670Y-39290D01*
X45670Y-39290D02*
X45670Y-35750D01*
X45670Y-35750D02*
X49800Y-35750D01*
G54D11*
X44950Y-57150D02*
X43220Y-57150D01*
X44950Y-57810D02*
X43230Y-57810D01*
X45280Y-57480D02*
X45273Y-57544D01*
X45255Y-57605D01*
X45224Y-57662D01*
X45184Y-57712D01*
X45134Y-57753D01*
X45077Y-57784D01*
X45016Y-57803D01*
X44952Y-57809D01*
X44889Y-57804D01*
X44827Y-57785D01*
X44770Y-57756D01*
X44720Y-57715D01*
X44678Y-57666D01*
X44647Y-57610D01*
X44628Y-57548D01*
X44621Y-57484D01*
X44626Y-57421D01*
X44644Y-57359D01*
X44673Y-57302D01*
X44713Y-57251D01*
X44762Y-57210D01*
X44818Y-57178D01*
X44880Y-57158D01*
X44944Y-57151D01*
X45007Y-57156D01*
X45069Y-57173D01*
X45126Y-57202D01*
X45177Y-57242D01*
X45219Y-57290D01*
X45251Y-57346D01*
X45271Y-57407D01*
X45279Y-57471D01*
X45280Y-57480D01*
X42760Y-57480D02*
X42732Y-57755D01*
X42652Y-58021D01*
X42522Y-58265D01*
X42347Y-58480D01*
X42134Y-58657D01*
X41890Y-58789D01*
X41625Y-58870D01*
X41349Y-58899D01*
X41074Y-58874D01*
X40809Y-58796D01*
X40563Y-58668D01*
X40347Y-58494D01*
X40169Y-58282D01*
X40035Y-58039D01*
X39952Y-57775D01*
X39921Y-57499D01*
X39944Y-57224D01*
X40020Y-56958D01*
X40147Y-56711D01*
X40319Y-56494D01*
X40530Y-56314D01*
X40772Y-56179D01*
X41036Y-56094D01*
X41311Y-56061D01*
X41586Y-56082D01*
X41853Y-56157D01*
X42100Y-56282D01*
X42319Y-56452D01*
X42500Y-56662D01*
X42637Y-56903D01*
X42724Y-57166D01*
X42759Y-57441D01*
X42760Y-57480D01*
G54D12*
X39100Y-59250D02*
X39100Y-55710D01*
X39100Y-55710D02*
X43230Y-55710D01*
X43230Y-55710D02*
X43230Y-59250D01*
X43230Y-59250D02*
X39100Y-59250D01*
G54D11*
X44950Y-52150D02*
X43220Y-52150D01*
X44950Y-52810D02*
X43230Y-52810D01*
X45280Y-52480D02*
X45273Y-52544D01*
X45255Y-52605D01*
X45224Y-52662D01*
X45184Y-52712D01*
X45134Y-52753D01*
X45077Y-52784D01*
X45016Y-52803D01*
X44952Y-52809D01*
X44889Y-52804D01*
X44827Y-52785D01*
X44770Y-52756D01*
X44720Y-52715D01*
X44678Y-52666D01*
X44647Y-52610D01*
X44628Y-52548D01*
X44621Y-52484D01*
X44626Y-52421D01*
X44644Y-52359D01*
X44673Y-52302D01*
X44713Y-52251D01*
X44762Y-52210D01*
X44818Y-52178D01*
X44880Y-52158D01*
X44944Y-52151D01*
X45007Y-52156D01*
X45069Y-52173D01*
X45126Y-52202D01*
X45177Y-52242D01*
X45219Y-52290D01*
X45251Y-52346D01*
X45271Y-52407D01*
X45279Y-52471D01*
X45280Y-52480D01*
X42760Y-52480D02*
X42732Y-52755D01*
X42652Y-53021D01*
X42522Y-53265D01*
X42347Y-53480D01*
X42134Y-53657D01*
X41890Y-53789D01*
X41625Y-53870D01*
X41349Y-53899D01*
X41074Y-53874D01*
X40809Y-53796D01*
X40563Y-53668D01*
X40347Y-53494D01*
X40169Y-53282D01*
X40035Y-53039D01*
X39952Y-52775D01*
X39921Y-52499D01*
X39944Y-52224D01*
X40020Y-51958D01*
X40147Y-51711D01*
X40319Y-51494D01*
X40530Y-51314D01*
X40772Y-51179D01*
X41036Y-51094D01*
X41311Y-51061D01*
X41586Y-51082D01*
X41853Y-51157D01*
X42100Y-51282D01*
X42319Y-51452D01*
X42500Y-51662D01*
X42637Y-51903D01*
X42724Y-52166D01*
X42759Y-52441D01*
X42760Y-52480D01*
G54D12*
X39100Y-54250D02*
X39100Y-50710D01*
X39100Y-50710D02*
X43230Y-50710D01*
X43230Y-50710D02*
X43230Y-54250D01*
X43230Y-54250D02*
X39100Y-54250D01*
G54D11*
X44950Y-37150D02*
X43220Y-37150D01*
X44950Y-37810D02*
X43230Y-37810D01*
X45280Y-37480D02*
X45273Y-37544D01*
X45255Y-37605D01*
X45224Y-37662D01*
X45184Y-37712D01*
X45134Y-37753D01*
X45077Y-37784D01*
X45016Y-37803D01*
X44952Y-37809D01*
X44889Y-37804D01*
X44827Y-37785D01*
X44770Y-37756D01*
X44720Y-37715D01*
X44678Y-37666D01*
X44647Y-37610D01*
X44628Y-37548D01*
X44621Y-37484D01*
X44626Y-37421D01*
X44644Y-37359D01*
X44673Y-37302D01*
X44713Y-37251D01*
X44762Y-37210D01*
X44818Y-37178D01*
X44880Y-37158D01*
X44944Y-37151D01*
X45007Y-37156D01*
X45069Y-37173D01*
X45126Y-37202D01*
X45177Y-37242D01*
X45219Y-37290D01*
X45251Y-37346D01*
X45271Y-37407D01*
X45279Y-37471D01*
X45280Y-37480D01*
X42760Y-37480D02*
X42732Y-37755D01*
X42652Y-38021D01*
X42522Y-38265D01*
X42347Y-38480D01*
X42134Y-38657D01*
X41890Y-38789D01*
X41625Y-38870D01*
X41349Y-38899D01*
X41074Y-38874D01*
X40809Y-38796D01*
X40563Y-38668D01*
X40347Y-38494D01*
X40169Y-38282D01*
X40035Y-38039D01*
X39952Y-37775D01*
X39921Y-37499D01*
X39944Y-37224D01*
X40020Y-36958D01*
X40147Y-36711D01*
X40319Y-36494D01*
X40530Y-36314D01*
X40772Y-36179D01*
X41036Y-36094D01*
X41311Y-36061D01*
X41586Y-36082D01*
X41853Y-36157D01*
X42100Y-36282D01*
X42319Y-36452D01*
X42500Y-36662D01*
X42637Y-36903D01*
X42724Y-37166D01*
X42759Y-37441D01*
X42760Y-37480D01*
G54D12*
X39100Y-39250D02*
X39100Y-35710D01*
X39100Y-35710D02*
X43230Y-35710D01*
X43230Y-35710D02*
X43230Y-39250D01*
X43230Y-39250D02*
X39100Y-39250D01*
G54D11*
X44950Y-47150D02*
X43220Y-47150D01*
X44950Y-47810D02*
X43230Y-47810D01*
X45280Y-47480D02*
X45273Y-47544D01*
X45255Y-47605D01*
X45224Y-47662D01*
X45184Y-47712D01*
X45134Y-47753D01*
X45077Y-47784D01*
X45016Y-47803D01*
X44952Y-47809D01*
X44889Y-47804D01*
X44827Y-47785D01*
X44770Y-47756D01*
X44720Y-47715D01*
X44678Y-47666D01*
X44647Y-47610D01*
X44628Y-47548D01*
X44621Y-47484D01*
X44626Y-47421D01*
X44644Y-47359D01*
X44673Y-47302D01*
X44713Y-47251D01*
X44762Y-47210D01*
X44818Y-47178D01*
X44880Y-47158D01*
X44944Y-47151D01*
X45007Y-47156D01*
X45069Y-47173D01*
X45126Y-47202D01*
X45177Y-47242D01*
X45219Y-47290D01*
X45251Y-47346D01*
X45271Y-47407D01*
X45279Y-47471D01*
X45280Y-47480D01*
X42760Y-47480D02*
X42732Y-47755D01*
X42652Y-48021D01*
X42522Y-48265D01*
X42347Y-48480D01*
X42134Y-48657D01*
X41890Y-48789D01*
X41625Y-48870D01*
X41349Y-48899D01*
X41074Y-48874D01*
X40809Y-48796D01*
X40563Y-48668D01*
X40347Y-48494D01*
X40169Y-48282D01*
X40035Y-48039D01*
X39952Y-47775D01*
X39921Y-47499D01*
X39944Y-47224D01*
X40020Y-46958D01*
X40147Y-46711D01*
X40319Y-46494D01*
X40530Y-46314D01*
X40772Y-46179D01*
X41036Y-46094D01*
X41311Y-46061D01*
X41586Y-46082D01*
X41853Y-46157D01*
X42100Y-46282D01*
X42319Y-46452D01*
X42500Y-46662D01*
X42637Y-46903D01*
X42724Y-47166D01*
X42759Y-47441D01*
X42760Y-47480D01*
G54D12*
X39100Y-49250D02*
X39100Y-45710D01*
X39100Y-45710D02*
X43230Y-45710D01*
X43230Y-45710D02*
X43230Y-49250D01*
X43230Y-49250D02*
X39100Y-49250D01*
G54D11*
X44950Y-62150D02*
X43220Y-62150D01*
X44950Y-62810D02*
X43230Y-62810D01*
X45280Y-62480D02*
X45273Y-62544D01*
X45255Y-62605D01*
X45224Y-62662D01*
X45184Y-62712D01*
X45134Y-62753D01*
X45077Y-62784D01*
X45016Y-62803D01*
X44952Y-62809D01*
X44889Y-62804D01*
X44827Y-62785D01*
X44770Y-62756D01*
X44720Y-62715D01*
X44678Y-62666D01*
X44647Y-62610D01*
X44628Y-62548D01*
X44621Y-62484D01*
X44626Y-62421D01*
X44644Y-62359D01*
X44673Y-62302D01*
X44713Y-62251D01*
X44762Y-62210D01*
X44818Y-62178D01*
X44880Y-62158D01*
X44944Y-62151D01*
X45007Y-62156D01*
X45069Y-62173D01*
X45126Y-62202D01*
X45177Y-62242D01*
X45219Y-62290D01*
X45251Y-62346D01*
X45271Y-62407D01*
X45279Y-62471D01*
X45280Y-62480D01*
X42760Y-62480D02*
X42732Y-62755D01*
X42652Y-63021D01*
X42522Y-63265D01*
X42347Y-63480D01*
X42134Y-63657D01*
X41890Y-63789D01*
X41625Y-63870D01*
X41349Y-63899D01*
X41074Y-63874D01*
X40809Y-63796D01*
X40563Y-63668D01*
X40347Y-63494D01*
X40169Y-63282D01*
X40035Y-63039D01*
X39952Y-62775D01*
X39921Y-62499D01*
X39944Y-62224D01*
X40020Y-61958D01*
X40147Y-61711D01*
X40319Y-61494D01*
X40530Y-61314D01*
X40772Y-61179D01*
X41036Y-61094D01*
X41311Y-61061D01*
X41586Y-61082D01*
X41853Y-61157D01*
X42100Y-61282D01*
X42319Y-61452D01*
X42500Y-61662D01*
X42637Y-61903D01*
X42724Y-62166D01*
X42759Y-62441D01*
X42760Y-62480D01*
G54D12*
X39100Y-64250D02*
X39100Y-60710D01*
X39100Y-60710D02*
X43230Y-60710D01*
X43230Y-60710D02*
X43230Y-64250D01*
X43230Y-64250D02*
X39100Y-64250D01*
G54D13*
X43300Y-36000D02*
X44300Y-36000D01*
X44300Y-36000D02*
X44300Y-34000D01*
X44300Y-34000D02*
X43300Y-34000D01*
X43300Y-34000D02*
X43300Y-36000D01*
X43300Y-41100D02*
X44300Y-41100D01*
X44300Y-41100D02*
X44300Y-39100D01*
X44300Y-39100D02*
X43300Y-39100D01*
X43300Y-39100D02*
X43300Y-41100D01*
X43200Y-51000D02*
X44200Y-51000D01*
X44200Y-51000D02*
X44200Y-49000D01*
X44200Y-49000D02*
X43200Y-49000D01*
X43200Y-49000D02*
X43200Y-51000D01*
X43200Y-46000D02*
X44200Y-46000D01*
X44200Y-46000D02*
X44200Y-44000D01*
X44200Y-44000D02*
X43200Y-44000D01*
X43200Y-44000D02*
X43200Y-46000D01*
X43200Y-66000D02*
X44200Y-66000D01*
X44200Y-66000D02*
X44200Y-64000D01*
X44200Y-64000D02*
X43200Y-64000D01*
X43200Y-64000D02*
X43200Y-66000D01*
X43300Y-71000D02*
X44300Y-71000D01*
X44300Y-71000D02*
X44300Y-69000D01*
X44300Y-69000D02*
X43300Y-69000D01*
X43300Y-69000D02*
X43300Y-71000D01*
X43200Y-61000D02*
X44200Y-61000D01*
X44200Y-61000D02*
X44200Y-59000D01*
X44200Y-59000D02*
X43200Y-59000D01*
X43200Y-59000D02*
X43200Y-61000D01*
X43200Y-56000D02*
X44200Y-56000D01*
X44200Y-56000D02*
X44200Y-54000D01*
X44200Y-54000D02*
X43200Y-54000D01*
X43200Y-54000D02*
X43200Y-56000D01*
G54D10*
X49410Y-41763D02*
X49410Y-41763D01*
X49410Y-43277D02*
X49410Y-43277D01*
X49410Y-41763D02*
X49345Y-41766D01*
X49279Y-41775D01*
X49215Y-41789D01*
X49152Y-41809D01*
X49091Y-41834D01*
X49032Y-41865D01*
X48976Y-41900D01*
X48924Y-41941D01*
X48875Y-41985D01*
X48831Y-42034D01*
X48790Y-42086D01*
X48755Y-42142D01*
X48724Y-42201D01*
X48699Y-42262D01*
X48679Y-42325D01*
X48665Y-42389D01*
X48656Y-42455D01*
X48653Y-42520D01*
X48656Y-42585D01*
X48665Y-42651D01*
X48679Y-42715D01*
X48699Y-42778D01*
X48724Y-42839D01*
X48755Y-42898D01*
X48790Y-42954D01*
X48831Y-43006D01*
X48875Y-43055D01*
X48924Y-43099D01*
X48976Y-43140D01*
X49032Y-43175D01*
X49091Y-43206D01*
X49152Y-43231D01*
X49215Y-43251D01*
X49279Y-43265D01*
X49345Y-43274D01*
X49410Y-43277D01*
X49410Y-43277D02*
X49475Y-43274D01*
X49541Y-43265D01*
X49605Y-43251D01*
X49668Y-43231D01*
X49729Y-43206D01*
X49788Y-43175D01*
X49844Y-43140D01*
X49896Y-43099D01*
X49945Y-43055D01*
X49989Y-43006D01*
X50030Y-42954D01*
X50065Y-42898D01*
X50096Y-42839D01*
X50121Y-42778D01*
X50141Y-42715D01*
X50155Y-42651D01*
X50164Y-42585D01*
X50167Y-42520D01*
X50164Y-42455D01*
X50155Y-42389D01*
X50141Y-42325D01*
X50121Y-42262D01*
X50096Y-42201D01*
X50065Y-42142D01*
X50030Y-42086D01*
X49989Y-42034D01*
X49945Y-41985D01*
X49896Y-41941D01*
X49844Y-41900D01*
X49788Y-41865D01*
X49729Y-41834D01*
X49668Y-41809D01*
X49605Y-41789D01*
X49541Y-41775D01*
X49475Y-41766D01*
X49410Y-41763D01*
X46060Y-41763D02*
X46060Y-41763D01*
X46060Y-43277D02*
X46060Y-43277D01*
X46060Y-41763D02*
X45995Y-41766D01*
X45929Y-41775D01*
X45865Y-41789D01*
X45802Y-41809D01*
X45741Y-41834D01*
X45682Y-41865D01*
X45626Y-41900D01*
X45574Y-41941D01*
X45525Y-41985D01*
X45481Y-42034D01*
X45440Y-42086D01*
X45405Y-42142D01*
X45374Y-42201D01*
X45349Y-42262D01*
X45329Y-42325D01*
X45315Y-42389D01*
X45306Y-42455D01*
X45303Y-42520D01*
X45306Y-42585D01*
X45315Y-42651D01*
X45329Y-42715D01*
X45349Y-42778D01*
X45374Y-42839D01*
X45405Y-42898D01*
X45440Y-42954D01*
X45481Y-43006D01*
X45525Y-43055D01*
X45574Y-43099D01*
X45626Y-43140D01*
X45682Y-43175D01*
X45741Y-43206D01*
X45802Y-43231D01*
X45865Y-43251D01*
X45929Y-43265D01*
X45995Y-43274D01*
X46060Y-43277D01*
X46060Y-43277D02*
X46125Y-43274D01*
X46191Y-43265D01*
X46255Y-43251D01*
X46318Y-43231D01*
X46379Y-43206D01*
X46438Y-43175D01*
X46494Y-43140D01*
X46546Y-43099D01*
X46595Y-43055D01*
X46639Y-43006D01*
X46680Y-42954D01*
X46715Y-42898D01*
X46746Y-42839D01*
X46771Y-42778D01*
X46791Y-42715D01*
X46805Y-42651D01*
X46814Y-42585D01*
X46817Y-42520D01*
X46814Y-42455D01*
X46805Y-42389D01*
X46791Y-42325D01*
X46771Y-42262D01*
X46746Y-42201D01*
X46715Y-42142D01*
X46680Y-42086D01*
X46639Y-42034D01*
X46595Y-41985D01*
X46546Y-41941D01*
X46494Y-41900D01*
X46438Y-41865D01*
X46379Y-41834D01*
X46318Y-41809D01*
X46255Y-41789D01*
X46191Y-41775D01*
X46125Y-41766D01*
X46060Y-41763D01*
X48070Y-42500D02*
X48060Y-42601D01*
X48030Y-42698D01*
X47983Y-42787D01*
X47918Y-42866D01*
X47840Y-42931D01*
X47751Y-42979D01*
X47654Y-43009D01*
X47553Y-43019D01*
X47453Y-43010D01*
X47356Y-42982D01*
X47266Y-42935D01*
X47187Y-42871D01*
X47121Y-42793D01*
X47073Y-42704D01*
X47042Y-42608D01*
X47031Y-42507D01*
X47039Y-42407D01*
X47067Y-42309D01*
X47113Y-42219D01*
X47176Y-42139D01*
X47254Y-42074D01*
X47342Y-42024D01*
X47439Y-41993D01*
X47540Y-41981D01*
X47640Y-41988D01*
X47738Y-42016D01*
X47828Y-42061D01*
X47908Y-42124D01*
X47974Y-42201D01*
X48025Y-42289D01*
X48057Y-42385D01*
X48069Y-42486D01*
X48070Y-42500D01*
X39490Y-73237D02*
X39490Y-73237D01*
X39490Y-71723D02*
X39490Y-71723D01*
X39490Y-73237D02*
X39555Y-73234D01*
X39621Y-73225D01*
X39685Y-73211D01*
X39748Y-73191D01*
X39809Y-73166D01*
X39868Y-73135D01*
X39924Y-73100D01*
X39976Y-73059D01*
X40025Y-73015D01*
X40069Y-72966D01*
X40110Y-72914D01*
X40145Y-72858D01*
X40176Y-72799D01*
X40201Y-72738D01*
X40221Y-72675D01*
X40235Y-72611D01*
X40244Y-72545D01*
X40247Y-72480D01*
X40244Y-72415D01*
X40235Y-72349D01*
X40221Y-72285D01*
X40201Y-72222D01*
X40176Y-72161D01*
X40145Y-72102D01*
X40110Y-72046D01*
X40069Y-71994D01*
X40025Y-71945D01*
X39976Y-71901D01*
X39924Y-71860D01*
X39868Y-71825D01*
X39809Y-71794D01*
X39748Y-71769D01*
X39685Y-71749D01*
X39621Y-71735D01*
X39555Y-71726D01*
X39490Y-71723D01*
X39490Y-71723D02*
X39425Y-71726D01*
X39359Y-71735D01*
X39295Y-71749D01*
X39232Y-71769D01*
X39171Y-71794D01*
X39112Y-71825D01*
X39056Y-71860D01*
X39004Y-71901D01*
X38955Y-71945D01*
X38911Y-71994D01*
X38870Y-72046D01*
X38835Y-72102D01*
X38804Y-72161D01*
X38779Y-72222D01*
X38759Y-72285D01*
X38745Y-72349D01*
X38736Y-72415D01*
X38733Y-72480D01*
X38736Y-72545D01*
X38745Y-72611D01*
X38759Y-72675D01*
X38779Y-72738D01*
X38804Y-72799D01*
X38835Y-72858D01*
X38870Y-72914D01*
X38911Y-72966D01*
X38955Y-73015D01*
X39004Y-73059D01*
X39056Y-73100D01*
X39112Y-73135D01*
X39171Y-73166D01*
X39232Y-73191D01*
X39295Y-73211D01*
X39359Y-73225D01*
X39425Y-73234D01*
X39490Y-73237D01*
X42840Y-73237D02*
X42840Y-73237D01*
X42840Y-71723D02*
X42840Y-71723D01*
X42840Y-73237D02*
X42905Y-73234D01*
X42971Y-73225D01*
X43035Y-73211D01*
X43098Y-73191D01*
X43159Y-73166D01*
X43218Y-73135D01*
X43274Y-73100D01*
X43326Y-73059D01*
X43375Y-73015D01*
X43419Y-72966D01*
X43460Y-72914D01*
X43495Y-72858D01*
X43526Y-72799D01*
X43551Y-72738D01*
X43571Y-72675D01*
X43585Y-72611D01*
X43594Y-72545D01*
X43597Y-72480D01*
X43594Y-72415D01*
X43585Y-72349D01*
X43571Y-72285D01*
X43551Y-72222D01*
X43526Y-72161D01*
X43495Y-72102D01*
X43460Y-72046D01*
X43419Y-71994D01*
X43375Y-71945D01*
X43326Y-71901D01*
X43274Y-71860D01*
X43218Y-71825D01*
X43159Y-71794D01*
X43098Y-71769D01*
X43035Y-71749D01*
X42971Y-71735D01*
X42905Y-71726D01*
X42840Y-71723D01*
X42840Y-71723D02*
X42775Y-71726D01*
X42709Y-71735D01*
X42645Y-71749D01*
X42582Y-71769D01*
X42521Y-71794D01*
X42462Y-71825D01*
X42406Y-71860D01*
X42354Y-71901D01*
X42305Y-71945D01*
X42261Y-71994D01*
X42220Y-72046D01*
X42185Y-72102D01*
X42154Y-72161D01*
X42129Y-72222D01*
X42109Y-72285D01*
X42095Y-72349D01*
X42086Y-72415D01*
X42083Y-72480D01*
X42086Y-72545D01*
X42095Y-72611D01*
X42109Y-72675D01*
X42129Y-72738D01*
X42154Y-72799D01*
X42185Y-72858D01*
X42220Y-72914D01*
X42261Y-72966D01*
X42305Y-73015D01*
X42354Y-73059D01*
X42406Y-73100D01*
X42462Y-73135D01*
X42521Y-73166D01*
X42582Y-73191D01*
X42645Y-73211D01*
X42709Y-73225D01*
X42775Y-73234D01*
X42840Y-73237D01*
X41870Y-72500D02*
X41860Y-72601D01*
X41830Y-72698D01*
X41783Y-72787D01*
X41718Y-72866D01*
X41640Y-72931D01*
X41551Y-72979D01*
X41454Y-73009D01*
X41353Y-73019D01*
X41253Y-73010D01*
X41156Y-72982D01*
X41066Y-72935D01*
X40987Y-72871D01*
X40921Y-72793D01*
X40873Y-72704D01*
X40842Y-72608D01*
X40831Y-72507D01*
X40839Y-72407D01*
X40867Y-72309D01*
X40913Y-72219D01*
X40976Y-72139D01*
X41054Y-72074D01*
X41142Y-72024D01*
X41239Y-71993D01*
X41340Y-71981D01*
X41440Y-71988D01*
X41538Y-72016D01*
X41628Y-72061D01*
X41708Y-72124D01*
X41774Y-72201D01*
X41825Y-72289D01*
X41857Y-72385D01*
X41869Y-72486D01*
X41870Y-72500D01*
X39490Y-68237D02*
X39490Y-68237D01*
X39490Y-66723D02*
X39490Y-66723D01*
X39490Y-68237D02*
X39555Y-68234D01*
X39621Y-68225D01*
X39685Y-68211D01*
X39748Y-68191D01*
X39809Y-68166D01*
X39868Y-68135D01*
X39924Y-68100D01*
X39976Y-68059D01*
X40025Y-68015D01*
X40069Y-67966D01*
X40110Y-67914D01*
X40145Y-67858D01*
X40176Y-67799D01*
X40201Y-67738D01*
X40221Y-67675D01*
X40235Y-67611D01*
X40244Y-67545D01*
X40247Y-67480D01*
X40244Y-67415D01*
X40235Y-67349D01*
X40221Y-67285D01*
X40201Y-67222D01*
X40176Y-67161D01*
X40145Y-67102D01*
X40110Y-67046D01*
X40069Y-66994D01*
X40025Y-66945D01*
X39976Y-66901D01*
X39924Y-66860D01*
X39868Y-66825D01*
X39809Y-66794D01*
X39748Y-66769D01*
X39685Y-66749D01*
X39621Y-66735D01*
X39555Y-66726D01*
X39490Y-66723D01*
X39490Y-66723D02*
X39425Y-66726D01*
X39359Y-66735D01*
X39295Y-66749D01*
X39232Y-66769D01*
X39171Y-66794D01*
X39112Y-66825D01*
X39056Y-66860D01*
X39004Y-66901D01*
X38955Y-66945D01*
X38911Y-66994D01*
X38870Y-67046D01*
X38835Y-67102D01*
X38804Y-67161D01*
X38779Y-67222D01*
X38759Y-67285D01*
X38745Y-67349D01*
X38736Y-67415D01*
X38733Y-67480D01*
X38736Y-67545D01*
X38745Y-67611D01*
X38759Y-67675D01*
X38779Y-67738D01*
X38804Y-67799D01*
X38835Y-67858D01*
X38870Y-67914D01*
X38911Y-67966D01*
X38955Y-68015D01*
X39004Y-68059D01*
X39056Y-68100D01*
X39112Y-68135D01*
X39171Y-68166D01*
X39232Y-68191D01*
X39295Y-68211D01*
X39359Y-68225D01*
X39425Y-68234D01*
X39490Y-68237D01*
X42840Y-68237D02*
X42840Y-68237D01*
X42840Y-66723D02*
X42840Y-66723D01*
X42840Y-68237D02*
X42905Y-68234D01*
X42971Y-68225D01*
X43035Y-68211D01*
X43098Y-68191D01*
X43159Y-68166D01*
X43218Y-68135D01*
X43274Y-68100D01*
X43326Y-68059D01*
X43375Y-68015D01*
X43419Y-67966D01*
X43460Y-67914D01*
X43495Y-67858D01*
X43526Y-67799D01*
X43551Y-67738D01*
X43571Y-67675D01*
X43585Y-67611D01*
X43594Y-67545D01*
X43597Y-67480D01*
X43594Y-67415D01*
X43585Y-67349D01*
X43571Y-67285D01*
X43551Y-67222D01*
X43526Y-67161D01*
X43495Y-67102D01*
X43460Y-67046D01*
X43419Y-66994D01*
X43375Y-66945D01*
X43326Y-66901D01*
X43274Y-66860D01*
X43218Y-66825D01*
X43159Y-66794D01*
X43098Y-66769D01*
X43035Y-66749D01*
X42971Y-66735D01*
X42905Y-66726D01*
X42840Y-66723D01*
X42840Y-66723D02*
X42775Y-66726D01*
X42709Y-66735D01*
X42645Y-66749D01*
X42582Y-66769D01*
X42521Y-66794D01*
X42462Y-66825D01*
X42406Y-66860D01*
X42354Y-66901D01*
X42305Y-66945D01*
X42261Y-66994D01*
X42220Y-67046D01*
X42185Y-67102D01*
X42154Y-67161D01*
X42129Y-67222D01*
X42109Y-67285D01*
X42095Y-67349D01*
X42086Y-67415D01*
X42083Y-67480D01*
X42086Y-67545D01*
X42095Y-67611D01*
X42109Y-67675D01*
X42129Y-67738D01*
X42154Y-67799D01*
X42185Y-67858D01*
X42220Y-67914D01*
X42261Y-67966D01*
X42305Y-68015D01*
X42354Y-68059D01*
X42406Y-68100D01*
X42462Y-68135D01*
X42521Y-68166D01*
X42582Y-68191D01*
X42645Y-68211D01*
X42709Y-68225D01*
X42775Y-68234D01*
X42840Y-68237D01*
X41870Y-67500D02*
X41860Y-67601D01*
X41830Y-67698D01*
X41783Y-67787D01*
X41718Y-67866D01*
X41640Y-67931D01*
X41551Y-67979D01*
X41454Y-68009D01*
X41353Y-68019D01*
X41253Y-68010D01*
X41156Y-67982D01*
X41066Y-67935D01*
X40987Y-67871D01*
X40921Y-67793D01*
X40873Y-67704D01*
X40842Y-67608D01*
X40831Y-67507D01*
X40839Y-67407D01*
X40867Y-67309D01*
X40913Y-67219D01*
X40976Y-67139D01*
X41054Y-67074D01*
X41142Y-67024D01*
X41239Y-66993D01*
X41340Y-66981D01*
X41440Y-66988D01*
X41538Y-67016D01*
X41628Y-67061D01*
X41708Y-67124D01*
X41774Y-67201D01*
X41825Y-67289D01*
X41857Y-67385D01*
X41869Y-67486D01*
X41870Y-67500D01*
X39490Y-43237D02*
X39490Y-43237D01*
X39490Y-41723D02*
X39490Y-41723D01*
X39490Y-43237D02*
X39555Y-43234D01*
X39621Y-43225D01*
X39685Y-43211D01*
X39748Y-43191D01*
X39809Y-43166D01*
X39868Y-43135D01*
X39924Y-43100D01*
X39976Y-43059D01*
X40025Y-43015D01*
X40069Y-42966D01*
X40110Y-42914D01*
X40145Y-42858D01*
X40176Y-42799D01*
X40201Y-42738D01*
X40221Y-42675D01*
X40235Y-42611D01*
X40244Y-42545D01*
X40247Y-42480D01*
X40244Y-42415D01*
X40235Y-42349D01*
X40221Y-42285D01*
X40201Y-42222D01*
X40176Y-42161D01*
X40145Y-42102D01*
X40110Y-42046D01*
X40069Y-41994D01*
X40025Y-41945D01*
X39976Y-41901D01*
X39924Y-41860D01*
X39868Y-41825D01*
X39809Y-41794D01*
X39748Y-41769D01*
X39685Y-41749D01*
X39621Y-41735D01*
X39555Y-41726D01*
X39490Y-41723D01*
X39490Y-41723D02*
X39425Y-41726D01*
X39359Y-41735D01*
X39295Y-41749D01*
X39232Y-41769D01*
X39171Y-41794D01*
X39112Y-41825D01*
X39056Y-41860D01*
X39004Y-41901D01*
X38955Y-41945D01*
X38911Y-41994D01*
X38870Y-42046D01*
X38835Y-42102D01*
X38804Y-42161D01*
X38779Y-42222D01*
X38759Y-42285D01*
X38745Y-42349D01*
X38736Y-42415D01*
X38733Y-42480D01*
X38736Y-42545D01*
X38745Y-42611D01*
X38759Y-42675D01*
X38779Y-42738D01*
X38804Y-42799D01*
X38835Y-42858D01*
X38870Y-42914D01*
X38911Y-42966D01*
X38955Y-43015D01*
X39004Y-43059D01*
X39056Y-43100D01*
X39112Y-43135D01*
X39171Y-43166D01*
X39232Y-43191D01*
X39295Y-43211D01*
X39359Y-43225D01*
X39425Y-43234D01*
X39490Y-43237D01*
X42840Y-43237D02*
X42840Y-43237D01*
X42840Y-41723D02*
X42840Y-41723D01*
X42840Y-43237D02*
X42905Y-43234D01*
X42971Y-43225D01*
X43035Y-43211D01*
X43098Y-43191D01*
X43159Y-43166D01*
X43218Y-43135D01*
X43274Y-43100D01*
X43326Y-43059D01*
X43375Y-43015D01*
X43419Y-42966D01*
X43460Y-42914D01*
X43495Y-42858D01*
X43526Y-42799D01*
X43551Y-42738D01*
X43571Y-42675D01*
X43585Y-42611D01*
X43594Y-42545D01*
X43597Y-42480D01*
X43594Y-42415D01*
X43585Y-42349D01*
X43571Y-42285D01*
X43551Y-42222D01*
X43526Y-42161D01*
X43495Y-42102D01*
X43460Y-42046D01*
X43419Y-41994D01*
X43375Y-41945D01*
X43326Y-41901D01*
X43274Y-41860D01*
X43218Y-41825D01*
X43159Y-41794D01*
X43098Y-41769D01*
X43035Y-41749D01*
X42971Y-41735D01*
X42905Y-41726D01*
X42840Y-41723D01*
X42840Y-41723D02*
X42775Y-41726D01*
X42709Y-41735D01*
X42645Y-41749D01*
X42582Y-41769D01*
X42521Y-41794D01*
X42462Y-41825D01*
X42406Y-41860D01*
X42354Y-41901D01*
X42305Y-41945D01*
X42261Y-41994D01*
X42220Y-42046D01*
X42185Y-42102D01*
X42154Y-42161D01*
X42129Y-42222D01*
X42109Y-42285D01*
X42095Y-42349D01*
X42086Y-42415D01*
X42083Y-42480D01*
X42086Y-42545D01*
X42095Y-42611D01*
X42109Y-42675D01*
X42129Y-42738D01*
X42154Y-42799D01*
X42185Y-42858D01*
X42220Y-42914D01*
X42261Y-42966D01*
X42305Y-43015D01*
X42354Y-43059D01*
X42406Y-43100D01*
X42462Y-43135D01*
X42521Y-43166D01*
X42582Y-43191D01*
X42645Y-43211D01*
X42709Y-43225D01*
X42775Y-43234D01*
X42840Y-43237D01*
X41870Y-42500D02*
X41860Y-42601D01*
X41830Y-42698D01*
X41783Y-42787D01*
X41718Y-42866D01*
X41640Y-42931D01*
X41551Y-42979D01*
X41454Y-43009D01*
X41353Y-43019D01*
X41253Y-43010D01*
X41156Y-42982D01*
X41066Y-42935D01*
X40987Y-42871D01*
X40921Y-42793D01*
X40873Y-42704D01*
X40842Y-42608D01*
X40831Y-42507D01*
X40839Y-42407D01*
X40867Y-42309D01*
X40913Y-42219D01*
X40976Y-42139D01*
X41054Y-42074D01*
X41142Y-42024D01*
X41239Y-41993D01*
X41340Y-41981D01*
X41440Y-41988D01*
X41538Y-42016D01*
X41628Y-42061D01*
X41708Y-42124D01*
X41774Y-42201D01*
X41825Y-42289D01*
X41857Y-42385D01*
X41869Y-42486D01*
X41870Y-42500D01*
X49410Y-71763D02*
X49410Y-71763D01*
X49410Y-73277D02*
X49410Y-73277D01*
X49410Y-71763D02*
X49345Y-71766D01*
X49279Y-71775D01*
X49215Y-71789D01*
X49152Y-71809D01*
X49091Y-71834D01*
X49032Y-71865D01*
X48976Y-71900D01*
X48924Y-71941D01*
X48875Y-71985D01*
X48831Y-72034D01*
X48790Y-72086D01*
X48755Y-72142D01*
X48724Y-72201D01*
X48699Y-72262D01*
X48679Y-72325D01*
X48665Y-72389D01*
X48656Y-72455D01*
X48653Y-72520D01*
X48656Y-72585D01*
X48665Y-72651D01*
X48679Y-72715D01*
X48699Y-72778D01*
X48724Y-72839D01*
X48755Y-72898D01*
X48790Y-72954D01*
X48831Y-73006D01*
X48875Y-73055D01*
X48924Y-73099D01*
X48976Y-73140D01*
X49032Y-73175D01*
X49091Y-73206D01*
X49152Y-73231D01*
X49215Y-73251D01*
X49279Y-73265D01*
X49345Y-73274D01*
X49410Y-73277D01*
X49410Y-73277D02*
X49475Y-73274D01*
X49541Y-73265D01*
X49605Y-73251D01*
X49668Y-73231D01*
X49729Y-73206D01*
X49788Y-73175D01*
X49844Y-73140D01*
X49896Y-73099D01*
X49945Y-73055D01*
X49989Y-73006D01*
X50030Y-72954D01*
X50065Y-72898D01*
X50096Y-72839D01*
X50121Y-72778D01*
X50141Y-72715D01*
X50155Y-72651D01*
X50164Y-72585D01*
X50167Y-72520D01*
X50164Y-72455D01*
X50155Y-72389D01*
X50141Y-72325D01*
X50121Y-72262D01*
X50096Y-72201D01*
X50065Y-72142D01*
X50030Y-72086D01*
X49989Y-72034D01*
X49945Y-71985D01*
X49896Y-71941D01*
X49844Y-71900D01*
X49788Y-71865D01*
X49729Y-71834D01*
X49668Y-71809D01*
X49605Y-71789D01*
X49541Y-71775D01*
X49475Y-71766D01*
X49410Y-71763D01*
X46060Y-71763D02*
X46060Y-71763D01*
X46060Y-73277D02*
X46060Y-73277D01*
X46060Y-71763D02*
X45995Y-71766D01*
X45929Y-71775D01*
X45865Y-71789D01*
X45802Y-71809D01*
X45741Y-71834D01*
X45682Y-71865D01*
X45626Y-71900D01*
X45574Y-71941D01*
X45525Y-71985D01*
X45481Y-72034D01*
X45440Y-72086D01*
X45405Y-72142D01*
X45374Y-72201D01*
X45349Y-72262D01*
X45329Y-72325D01*
X45315Y-72389D01*
X45306Y-72455D01*
X45303Y-72520D01*
X45306Y-72585D01*
X45315Y-72651D01*
X45329Y-72715D01*
X45349Y-72778D01*
X45374Y-72839D01*
X45405Y-72898D01*
X45440Y-72954D01*
X45481Y-73006D01*
X45525Y-73055D01*
X45574Y-73099D01*
X45626Y-73140D01*
X45682Y-73175D01*
X45741Y-73206D01*
X45802Y-73231D01*
X45865Y-73251D01*
X45929Y-73265D01*
X45995Y-73274D01*
X46060Y-73277D01*
X46060Y-73277D02*
X46125Y-73274D01*
X46191Y-73265D01*
X46255Y-73251D01*
X46318Y-73231D01*
X46379Y-73206D01*
X46438Y-73175D01*
X46494Y-73140D01*
X46546Y-73099D01*
X46595Y-73055D01*
X46639Y-73006D01*
X46680Y-72954D01*
X46715Y-72898D01*
X46746Y-72839D01*
X46771Y-72778D01*
X46791Y-72715D01*
X46805Y-72651D01*
X46814Y-72585D01*
X46817Y-72520D01*
X46814Y-72455D01*
X46805Y-72389D01*
X46791Y-72325D01*
X46771Y-72262D01*
X46746Y-72201D01*
X46715Y-72142D01*
X46680Y-72086D01*
X46639Y-72034D01*
X46595Y-71985D01*
X46546Y-71941D01*
X46494Y-71900D01*
X46438Y-71865D01*
X46379Y-71834D01*
X46318Y-71809D01*
X46255Y-71789D01*
X46191Y-71775D01*
X46125Y-71766D01*
X46060Y-71763D01*
X48070Y-72500D02*
X48060Y-72601D01*
X48030Y-72698D01*
X47983Y-72787D01*
X47918Y-72866D01*
X47840Y-72931D01*
X47751Y-72979D01*
X47654Y-73009D01*
X47553Y-73019D01*
X47453Y-73010D01*
X47356Y-72982D01*
X47266Y-72935D01*
X47187Y-72871D01*
X47121Y-72793D01*
X47073Y-72704D01*
X47042Y-72608D01*
X47031Y-72507D01*
X47039Y-72407D01*
X47067Y-72309D01*
X47113Y-72219D01*
X47176Y-72139D01*
X47254Y-72074D01*
X47342Y-72024D01*
X47439Y-71993D01*
X47540Y-71981D01*
X47640Y-71988D01*
X47738Y-72016D01*
X47828Y-72061D01*
X47908Y-72124D01*
X47974Y-72201D01*
X48025Y-72289D01*
X48057Y-72385D01*
X48069Y-72486D01*
X48070Y-72500D01*
X49410Y-36763D02*
X49410Y-36763D01*
X49410Y-38277D02*
X49410Y-38277D01*
X49410Y-36763D02*
X49345Y-36766D01*
X49279Y-36775D01*
X49215Y-36789D01*
X49152Y-36809D01*
X49091Y-36834D01*
X49032Y-36865D01*
X48976Y-36900D01*
X48924Y-36941D01*
X48875Y-36985D01*
X48831Y-37034D01*
X48790Y-37086D01*
X48755Y-37142D01*
X48724Y-37201D01*
X48699Y-37262D01*
X48679Y-37325D01*
X48665Y-37389D01*
X48656Y-37455D01*
X48653Y-37520D01*
X48656Y-37585D01*
X48665Y-37651D01*
X48679Y-37715D01*
X48699Y-37778D01*
X48724Y-37839D01*
X48755Y-37898D01*
X48790Y-37954D01*
X48831Y-38006D01*
X48875Y-38055D01*
X48924Y-38099D01*
X48976Y-38140D01*
X49032Y-38175D01*
X49091Y-38206D01*
X49152Y-38231D01*
X49215Y-38251D01*
X49279Y-38265D01*
X49345Y-38274D01*
X49410Y-38277D01*
X49410Y-38277D02*
X49475Y-38274D01*
X49541Y-38265D01*
X49605Y-38251D01*
X49668Y-38231D01*
X49729Y-38206D01*
X49788Y-38175D01*
X49844Y-38140D01*
X49896Y-38099D01*
X49945Y-38055D01*
X49989Y-38006D01*
X50030Y-37954D01*
X50065Y-37898D01*
X50096Y-37839D01*
X50121Y-37778D01*
X50141Y-37715D01*
X50155Y-37651D01*
X50164Y-37585D01*
X50167Y-37520D01*
X50164Y-37455D01*
X50155Y-37389D01*
X50141Y-37325D01*
X50121Y-37262D01*
X50096Y-37201D01*
X50065Y-37142D01*
X50030Y-37086D01*
X49989Y-37034D01*
X49945Y-36985D01*
X49896Y-36941D01*
X49844Y-36900D01*
X49788Y-36865D01*
X49729Y-36834D01*
X49668Y-36809D01*
X49605Y-36789D01*
X49541Y-36775D01*
X49475Y-36766D01*
X49410Y-36763D01*
X46060Y-36763D02*
X46060Y-36763D01*
X46060Y-38277D02*
X46060Y-38277D01*
X46060Y-36763D02*
X45995Y-36766D01*
X45929Y-36775D01*
X45865Y-36789D01*
X45802Y-36809D01*
X45741Y-36834D01*
X45682Y-36865D01*
X45626Y-36900D01*
X45574Y-36941D01*
X45525Y-36985D01*
X45481Y-37034D01*
X45440Y-37086D01*
X45405Y-37142D01*
X45374Y-37201D01*
X45349Y-37262D01*
X45329Y-37325D01*
X45315Y-37389D01*
X45306Y-37455D01*
X45303Y-37520D01*
X45306Y-37585D01*
X45315Y-37651D01*
X45329Y-37715D01*
X45349Y-37778D01*
X45374Y-37839D01*
X45405Y-37898D01*
X45440Y-37954D01*
X45481Y-38006D01*
X45525Y-38055D01*
X45574Y-38099D01*
X45626Y-38140D01*
X45682Y-38175D01*
X45741Y-38206D01*
X45802Y-38231D01*
X45865Y-38251D01*
X45929Y-38265D01*
X45995Y-38274D01*
X46060Y-38277D01*
X46060Y-38277D02*
X46125Y-38274D01*
X46191Y-38265D01*
X46255Y-38251D01*
X46318Y-38231D01*
X46379Y-38206D01*
X46438Y-38175D01*
X46494Y-38140D01*
X46546Y-38099D01*
X46595Y-38055D01*
X46639Y-38006D01*
X46680Y-37954D01*
X46715Y-37898D01*
X46746Y-37839D01*
X46771Y-37778D01*
X46791Y-37715D01*
X46805Y-37651D01*
X46814Y-37585D01*
X46817Y-37520D01*
X46814Y-37455D01*
X46805Y-37389D01*
X46791Y-37325D01*
X46771Y-37262D01*
X46746Y-37201D01*
X46715Y-37142D01*
X46680Y-37086D01*
X46639Y-37034D01*
X46595Y-36985D01*
X46546Y-36941D01*
X46494Y-36900D01*
X46438Y-36865D01*
X46379Y-36834D01*
X46318Y-36809D01*
X46255Y-36789D01*
X46191Y-36775D01*
X46125Y-36766D01*
X46060Y-36763D01*
X48070Y-37500D02*
X48060Y-37601D01*
X48030Y-37698D01*
X47983Y-37787D01*
X47918Y-37866D01*
X47840Y-37931D01*
X47751Y-37979D01*
X47654Y-38009D01*
X47553Y-38019D01*
X47453Y-38010D01*
X47356Y-37982D01*
X47266Y-37935D01*
X47187Y-37871D01*
X47121Y-37793D01*
X47073Y-37704D01*
X47042Y-37608D01*
X47031Y-37507D01*
X47039Y-37407D01*
X47067Y-37309D01*
X47113Y-37219D01*
X47176Y-37139D01*
X47254Y-37074D01*
X47342Y-37024D01*
X47439Y-36993D01*
X47540Y-36981D01*
X47640Y-36988D01*
X47738Y-37016D01*
X47828Y-37061D01*
X47908Y-37124D01*
X47974Y-37201D01*
X48025Y-37289D01*
X48057Y-37385D01*
X48069Y-37486D01*
X48070Y-37500D01*
X39490Y-58237D02*
X39490Y-58237D01*
X39490Y-56723D02*
X39490Y-56723D01*
X39490Y-58237D02*
X39555Y-58234D01*
X39621Y-58225D01*
X39685Y-58211D01*
X39748Y-58191D01*
X39809Y-58166D01*
X39868Y-58135D01*
X39924Y-58100D01*
X39976Y-58059D01*
X40025Y-58015D01*
X40069Y-57966D01*
X40110Y-57914D01*
X40145Y-57858D01*
X40176Y-57799D01*
X40201Y-57738D01*
X40221Y-57675D01*
X40235Y-57611D01*
X40244Y-57545D01*
X40247Y-57480D01*
X40244Y-57415D01*
X40235Y-57349D01*
X40221Y-57285D01*
X40201Y-57222D01*
X40176Y-57161D01*
X40145Y-57102D01*
X40110Y-57046D01*
X40069Y-56994D01*
X40025Y-56945D01*
X39976Y-56901D01*
X39924Y-56860D01*
X39868Y-56825D01*
X39809Y-56794D01*
X39748Y-56769D01*
X39685Y-56749D01*
X39621Y-56735D01*
X39555Y-56726D01*
X39490Y-56723D01*
X39490Y-56723D02*
X39425Y-56726D01*
X39359Y-56735D01*
X39295Y-56749D01*
X39232Y-56769D01*
X39171Y-56794D01*
X39112Y-56825D01*
X39056Y-56860D01*
X39004Y-56901D01*
X38955Y-56945D01*
X38911Y-56994D01*
X38870Y-57046D01*
X38835Y-57102D01*
X38804Y-57161D01*
X38779Y-57222D01*
X38759Y-57285D01*
X38745Y-57349D01*
X38736Y-57415D01*
X38733Y-57480D01*
X38736Y-57545D01*
X38745Y-57611D01*
X38759Y-57675D01*
X38779Y-57738D01*
X38804Y-57799D01*
X38835Y-57858D01*
X38870Y-57914D01*
X38911Y-57966D01*
X38955Y-58015D01*
X39004Y-58059D01*
X39056Y-58100D01*
X39112Y-58135D01*
X39171Y-58166D01*
X39232Y-58191D01*
X39295Y-58211D01*
X39359Y-58225D01*
X39425Y-58234D01*
X39490Y-58237D01*
X42840Y-58237D02*
X42840Y-58237D01*
X42840Y-56723D02*
X42840Y-56723D01*
X42840Y-58237D02*
X42905Y-58234D01*
X42971Y-58225D01*
X43035Y-58211D01*
X43098Y-58191D01*
X43159Y-58166D01*
X43218Y-58135D01*
X43274Y-58100D01*
X43326Y-58059D01*
X43375Y-58015D01*
X43419Y-57966D01*
X43460Y-57914D01*
X43495Y-57858D01*
X43526Y-57799D01*
X43551Y-57738D01*
X43571Y-57675D01*
X43585Y-57611D01*
X43594Y-57545D01*
X43597Y-57480D01*
X43594Y-57415D01*
X43585Y-57349D01*
X43571Y-57285D01*
X43551Y-57222D01*
X43526Y-57161D01*
X43495Y-57102D01*
X43460Y-57046D01*
X43419Y-56994D01*
X43375Y-56945D01*
X43326Y-56901D01*
X43274Y-56860D01*
X43218Y-56825D01*
X43159Y-56794D01*
X43098Y-56769D01*
X43035Y-56749D01*
X42971Y-56735D01*
X42905Y-56726D01*
X42840Y-56723D01*
X42840Y-56723D02*
X42775Y-56726D01*
X42709Y-56735D01*
X42645Y-56749D01*
X42582Y-56769D01*
X42521Y-56794D01*
X42462Y-56825D01*
X42406Y-56860D01*
X42354Y-56901D01*
X42305Y-56945D01*
X42261Y-56994D01*
X42220Y-57046D01*
X42185Y-57102D01*
X42154Y-57161D01*
X42129Y-57222D01*
X42109Y-57285D01*
X42095Y-57349D01*
X42086Y-57415D01*
X42083Y-57480D01*
X42086Y-57545D01*
X42095Y-57611D01*
X42109Y-57675D01*
X42129Y-57738D01*
X42154Y-57799D01*
X42185Y-57858D01*
X42220Y-57914D01*
X42261Y-57966D01*
X42305Y-58015D01*
X42354Y-58059D01*
X42406Y-58100D01*
X42462Y-58135D01*
X42521Y-58166D01*
X42582Y-58191D01*
X42645Y-58211D01*
X42709Y-58225D01*
X42775Y-58234D01*
X42840Y-58237D01*
X41870Y-57500D02*
X41860Y-57601D01*
X41830Y-57698D01*
X41783Y-57787D01*
X41718Y-57866D01*
X41640Y-57931D01*
X41551Y-57979D01*
X41454Y-58009D01*
X41353Y-58019D01*
X41253Y-58010D01*
X41156Y-57982D01*
X41066Y-57935D01*
X40987Y-57871D01*
X40921Y-57793D01*
X40873Y-57704D01*
X40842Y-57608D01*
X40831Y-57507D01*
X40839Y-57407D01*
X40867Y-57309D01*
X40913Y-57219D01*
X40976Y-57139D01*
X41054Y-57074D01*
X41142Y-57024D01*
X41239Y-56993D01*
X41340Y-56981D01*
X41440Y-56988D01*
X41538Y-57016D01*
X41628Y-57061D01*
X41708Y-57124D01*
X41774Y-57201D01*
X41825Y-57289D01*
X41857Y-57385D01*
X41869Y-57486D01*
X41870Y-57500D01*
X39490Y-53237D02*
X39490Y-53237D01*
X39490Y-51723D02*
X39490Y-51723D01*
X39490Y-53237D02*
X39555Y-53234D01*
X39621Y-53225D01*
X39685Y-53211D01*
X39748Y-53191D01*
X39809Y-53166D01*
X39868Y-53135D01*
X39924Y-53100D01*
X39976Y-53059D01*
X40025Y-53015D01*
X40069Y-52966D01*
X40110Y-52914D01*
X40145Y-52858D01*
X40176Y-52799D01*
X40201Y-52738D01*
X40221Y-52675D01*
X40235Y-52611D01*
X40244Y-52545D01*
X40247Y-52480D01*
X40244Y-52415D01*
X40235Y-52349D01*
X40221Y-52285D01*
X40201Y-52222D01*
X40176Y-52161D01*
X40145Y-52102D01*
X40110Y-52046D01*
X40069Y-51994D01*
X40025Y-51945D01*
X39976Y-51901D01*
X39924Y-51860D01*
X39868Y-51825D01*
X39809Y-51794D01*
X39748Y-51769D01*
X39685Y-51749D01*
X39621Y-51735D01*
X39555Y-51726D01*
X39490Y-51723D01*
X39490Y-51723D02*
X39425Y-51726D01*
X39359Y-51735D01*
X39295Y-51749D01*
X39232Y-51769D01*
X39171Y-51794D01*
X39112Y-51825D01*
X39056Y-51860D01*
X39004Y-51901D01*
X38955Y-51945D01*
X38911Y-51994D01*
X38870Y-52046D01*
X38835Y-52102D01*
X38804Y-52161D01*
X38779Y-52222D01*
X38759Y-52285D01*
X38745Y-52349D01*
X38736Y-52415D01*
X38733Y-52480D01*
X38736Y-52545D01*
X38745Y-52611D01*
X38759Y-52675D01*
X38779Y-52738D01*
X38804Y-52799D01*
X38835Y-52858D01*
X38870Y-52914D01*
X38911Y-52966D01*
X38955Y-53015D01*
X39004Y-53059D01*
X39056Y-53100D01*
X39112Y-53135D01*
X39171Y-53166D01*
X39232Y-53191D01*
X39295Y-53211D01*
X39359Y-53225D01*
X39425Y-53234D01*
X39490Y-53237D01*
X42840Y-53237D02*
X42840Y-53237D01*
X42840Y-51723D02*
X42840Y-51723D01*
X42840Y-53237D02*
X42905Y-53234D01*
X42971Y-53225D01*
X43035Y-53211D01*
X43098Y-53191D01*
X43159Y-53166D01*
X43218Y-53135D01*
X43274Y-53100D01*
X43326Y-53059D01*
X43375Y-53015D01*
X43419Y-52966D01*
X43460Y-52914D01*
X43495Y-52858D01*
X43526Y-52799D01*
X43551Y-52738D01*
X43571Y-52675D01*
X43585Y-52611D01*
X43594Y-52545D01*
X43597Y-52480D01*
X43594Y-52415D01*
X43585Y-52349D01*
X43571Y-52285D01*
X43551Y-52222D01*
X43526Y-52161D01*
X43495Y-52102D01*
X43460Y-52046D01*
X43419Y-51994D01*
X43375Y-51945D01*
X43326Y-51901D01*
X43274Y-51860D01*
X43218Y-51825D01*
X43159Y-51794D01*
X43098Y-51769D01*
X43035Y-51749D01*
X42971Y-51735D01*
X42905Y-51726D01*
X42840Y-51723D01*
X42840Y-51723D02*
X42775Y-51726D01*
X42709Y-51735D01*
X42645Y-51749D01*
X42582Y-51769D01*
X42521Y-51794D01*
X42462Y-51825D01*
X42406Y-51860D01*
X42354Y-51901D01*
X42305Y-51945D01*
X42261Y-51994D01*
X42220Y-52046D01*
X42185Y-52102D01*
X42154Y-52161D01*
X42129Y-52222D01*
X42109Y-52285D01*
X42095Y-52349D01*
X42086Y-52415D01*
X42083Y-52480D01*
X42086Y-52545D01*
X42095Y-52611D01*
X42109Y-52675D01*
X42129Y-52738D01*
X42154Y-52799D01*
X42185Y-52858D01*
X42220Y-52914D01*
X42261Y-52966D01*
X42305Y-53015D01*
X42354Y-53059D01*
X42406Y-53100D01*
X42462Y-53135D01*
X42521Y-53166D01*
X42582Y-53191D01*
X42645Y-53211D01*
X42709Y-53225D01*
X42775Y-53234D01*
X42840Y-53237D01*
X41870Y-52500D02*
X41860Y-52601D01*
X41830Y-52698D01*
X41783Y-52787D01*
X41718Y-52866D01*
X41640Y-52931D01*
X41551Y-52979D01*
X41454Y-53009D01*
X41353Y-53019D01*
X41253Y-53010D01*
X41156Y-52982D01*
X41066Y-52935D01*
X40987Y-52871D01*
X40921Y-52793D01*
X40873Y-52704D01*
X40842Y-52608D01*
X40831Y-52507D01*
X40839Y-52407D01*
X40867Y-52309D01*
X40913Y-52219D01*
X40976Y-52139D01*
X41054Y-52074D01*
X41142Y-52024D01*
X41239Y-51993D01*
X41340Y-51981D01*
X41440Y-51988D01*
X41538Y-52016D01*
X41628Y-52061D01*
X41708Y-52124D01*
X41774Y-52201D01*
X41825Y-52289D01*
X41857Y-52385D01*
X41869Y-52486D01*
X41870Y-52500D01*
X39490Y-38237D02*
X39490Y-38237D01*
X39490Y-36723D02*
X39490Y-36723D01*
X39490Y-38237D02*
X39555Y-38234D01*
X39621Y-38225D01*
X39685Y-38211D01*
X39748Y-38191D01*
X39809Y-38166D01*
X39868Y-38135D01*
X39924Y-38100D01*
X39976Y-38059D01*
X40025Y-38015D01*
X40069Y-37966D01*
X40110Y-37914D01*
X40145Y-37858D01*
X40176Y-37799D01*
X40201Y-37738D01*
X40221Y-37675D01*
X40235Y-37611D01*
X40244Y-37545D01*
X40247Y-37480D01*
X40244Y-37415D01*
X40235Y-37349D01*
X40221Y-37285D01*
X40201Y-37222D01*
X40176Y-37161D01*
X40145Y-37102D01*
X40110Y-37046D01*
X40069Y-36994D01*
X40025Y-36945D01*
X39976Y-36901D01*
X39924Y-36860D01*
X39868Y-36825D01*
X39809Y-36794D01*
X39748Y-36769D01*
X39685Y-36749D01*
X39621Y-36735D01*
X39555Y-36726D01*
X39490Y-36723D01*
X39490Y-36723D02*
X39425Y-36726D01*
X39359Y-36735D01*
X39295Y-36749D01*
X39232Y-36769D01*
X39171Y-36794D01*
X39112Y-36825D01*
X39056Y-36860D01*
X39004Y-36901D01*
X38955Y-36945D01*
X38911Y-36994D01*
X38870Y-37046D01*
X38835Y-37102D01*
X38804Y-37161D01*
X38779Y-37222D01*
X38759Y-37285D01*
X38745Y-37349D01*
X38736Y-37415D01*
X38733Y-37480D01*
X38736Y-37545D01*
X38745Y-37611D01*
X38759Y-37675D01*
X38779Y-37738D01*
X38804Y-37799D01*
X38835Y-37858D01*
X38870Y-37914D01*
X38911Y-37966D01*
X38955Y-38015D01*
X39004Y-38059D01*
X39056Y-38100D01*
X39112Y-38135D01*
X39171Y-38166D01*
X39232Y-38191D01*
X39295Y-38211D01*
X39359Y-38225D01*
X39425Y-38234D01*
X39490Y-38237D01*
X42840Y-38237D02*
X42840Y-38237D01*
X42840Y-36723D02*
X42840Y-36723D01*
X42840Y-38237D02*
X42905Y-38234D01*
X42971Y-38225D01*
X43035Y-38211D01*
X43098Y-38191D01*
X43159Y-38166D01*
X43218Y-38135D01*
X43274Y-38100D01*
X43326Y-38059D01*
X43375Y-38015D01*
X43419Y-37966D01*
X43460Y-37914D01*
X43495Y-37858D01*
X43526Y-37799D01*
X43551Y-37738D01*
X43571Y-37675D01*
X43585Y-37611D01*
X43594Y-37545D01*
X43597Y-37480D01*
X43594Y-37415D01*
X43585Y-37349D01*
X43571Y-37285D01*
X43551Y-37222D01*
X43526Y-37161D01*
X43495Y-37102D01*
X43460Y-37046D01*
X43419Y-36994D01*
X43375Y-36945D01*
X43326Y-36901D01*
X43274Y-36860D01*
X43218Y-36825D01*
X43159Y-36794D01*
X43098Y-36769D01*
X43035Y-36749D01*
X42971Y-36735D01*
X42905Y-36726D01*
X42840Y-36723D01*
X42840Y-36723D02*
X42775Y-36726D01*
X42709Y-36735D01*
X42645Y-36749D01*
X42582Y-36769D01*
X42521Y-36794D01*
X42462Y-36825D01*
X42406Y-36860D01*
X42354Y-36901D01*
X42305Y-36945D01*
X42261Y-36994D01*
X42220Y-37046D01*
X42185Y-37102D01*
X42154Y-37161D01*
X42129Y-37222D01*
X42109Y-37285D01*
X42095Y-37349D01*
X42086Y-37415D01*
X42083Y-37480D01*
X42086Y-37545D01*
X42095Y-37611D01*
X42109Y-37675D01*
X42129Y-37738D01*
X42154Y-37799D01*
X42185Y-37858D01*
X42220Y-37914D01*
X42261Y-37966D01*
X42305Y-38015D01*
X42354Y-38059D01*
X42406Y-38100D01*
X42462Y-38135D01*
X42521Y-38166D01*
X42582Y-38191D01*
X42645Y-38211D01*
X42709Y-38225D01*
X42775Y-38234D01*
X42840Y-38237D01*
X41870Y-37500D02*
X41860Y-37601D01*
X41830Y-37698D01*
X41783Y-37787D01*
X41718Y-37866D01*
X41640Y-37931D01*
X41551Y-37979D01*
X41454Y-38009D01*
X41353Y-38019D01*
X41253Y-38010D01*
X41156Y-37982D01*
X41066Y-37935D01*
X40987Y-37871D01*
X40921Y-37793D01*
X40873Y-37704D01*
X40842Y-37608D01*
X40831Y-37507D01*
X40839Y-37407D01*
X40867Y-37309D01*
X40913Y-37219D01*
X40976Y-37139D01*
X41054Y-37074D01*
X41142Y-37024D01*
X41239Y-36993D01*
X41340Y-36981D01*
X41440Y-36988D01*
X41538Y-37016D01*
X41628Y-37061D01*
X41708Y-37124D01*
X41774Y-37201D01*
X41825Y-37289D01*
X41857Y-37385D01*
X41869Y-37486D01*
X41870Y-37500D01*
X39490Y-48237D02*
X39490Y-48237D01*
X39490Y-46723D02*
X39490Y-46723D01*
X39490Y-48237D02*
X39555Y-48234D01*
X39621Y-48225D01*
X39685Y-48211D01*
X39748Y-48191D01*
X39809Y-48166D01*
X39868Y-48135D01*
X39924Y-48100D01*
X39976Y-48059D01*
X40025Y-48015D01*
X40069Y-47966D01*
X40110Y-47914D01*
X40145Y-47858D01*
X40176Y-47799D01*
X40201Y-47738D01*
X40221Y-47675D01*
X40235Y-47611D01*
X40244Y-47545D01*
X40247Y-47480D01*
X40244Y-47415D01*
X40235Y-47349D01*
X40221Y-47285D01*
X40201Y-47222D01*
X40176Y-47161D01*
X40145Y-47102D01*
X40110Y-47046D01*
X40069Y-46994D01*
X40025Y-46945D01*
X39976Y-46901D01*
X39924Y-46860D01*
X39868Y-46825D01*
X39809Y-46794D01*
X39748Y-46769D01*
X39685Y-46749D01*
X39621Y-46735D01*
X39555Y-46726D01*
X39490Y-46723D01*
X39490Y-46723D02*
X39425Y-46726D01*
X39359Y-46735D01*
X39295Y-46749D01*
X39232Y-46769D01*
X39171Y-46794D01*
X39112Y-46825D01*
X39056Y-46860D01*
X39004Y-46901D01*
X38955Y-46945D01*
X38911Y-46994D01*
X38870Y-47046D01*
X38835Y-47102D01*
X38804Y-47161D01*
X38779Y-47222D01*
X38759Y-47285D01*
X38745Y-47349D01*
X38736Y-47415D01*
X38733Y-47480D01*
X38736Y-47545D01*
X38745Y-47611D01*
X38759Y-47675D01*
X38779Y-47738D01*
X38804Y-47799D01*
X38835Y-47858D01*
X38870Y-47914D01*
X38911Y-47966D01*
X38955Y-48015D01*
X39004Y-48059D01*
X39056Y-48100D01*
X39112Y-48135D01*
X39171Y-48166D01*
X39232Y-48191D01*
X39295Y-48211D01*
X39359Y-48225D01*
X39425Y-48234D01*
X39490Y-48237D01*
X42840Y-48237D02*
X42840Y-48237D01*
X42840Y-46723D02*
X42840Y-46723D01*
X42840Y-48237D02*
X42905Y-48234D01*
X42971Y-48225D01*
X43035Y-48211D01*
X43098Y-48191D01*
X43159Y-48166D01*
X43218Y-48135D01*
X43274Y-48100D01*
X43326Y-48059D01*
X43375Y-48015D01*
X43419Y-47966D01*
X43460Y-47914D01*
X43495Y-47858D01*
X43526Y-47799D01*
X43551Y-47738D01*
X43571Y-47675D01*
X43585Y-47611D01*
X43594Y-47545D01*
X43597Y-47480D01*
X43594Y-47415D01*
X43585Y-47349D01*
X43571Y-47285D01*
X43551Y-47222D01*
X43526Y-47161D01*
X43495Y-47102D01*
X43460Y-47046D01*
X43419Y-46994D01*
X43375Y-46945D01*
X43326Y-46901D01*
X43274Y-46860D01*
X43218Y-46825D01*
X43159Y-46794D01*
X43098Y-46769D01*
X43035Y-46749D01*
X42971Y-46735D01*
X42905Y-46726D01*
X42840Y-46723D01*
X42840Y-46723D02*
X42775Y-46726D01*
X42709Y-46735D01*
X42645Y-46749D01*
X42582Y-46769D01*
X42521Y-46794D01*
X42462Y-46825D01*
X42406Y-46860D01*
X42354Y-46901D01*
X42305Y-46945D01*
X42261Y-46994D01*
X42220Y-47046D01*
X42185Y-47102D01*
X42154Y-47161D01*
X42129Y-47222D01*
X42109Y-47285D01*
X42095Y-47349D01*
X42086Y-47415D01*
X42083Y-47480D01*
X42086Y-47545D01*
X42095Y-47611D01*
X42109Y-47675D01*
X42129Y-47738D01*
X42154Y-47799D01*
X42185Y-47858D01*
X42220Y-47914D01*
X42261Y-47966D01*
X42305Y-48015D01*
X42354Y-48059D01*
X42406Y-48100D01*
X42462Y-48135D01*
X42521Y-48166D01*
X42582Y-48191D01*
X42645Y-48211D01*
X42709Y-48225D01*
X42775Y-48234D01*
X42840Y-48237D01*
X41870Y-47500D02*
X41860Y-47601D01*
X41830Y-47698D01*
X41783Y-47787D01*
X41718Y-47866D01*
X41640Y-47931D01*
X41551Y-47979D01*
X41454Y-48009D01*
X41353Y-48019D01*
X41253Y-48010D01*
X41156Y-47982D01*
X41066Y-47935D01*
X40987Y-47871D01*
X40921Y-47793D01*
X40873Y-47704D01*
X40842Y-47608D01*
X40831Y-47507D01*
X40839Y-47407D01*
X40867Y-47309D01*
X40913Y-47219D01*
X40976Y-47139D01*
X41054Y-47074D01*
X41142Y-47024D01*
X41239Y-46993D01*
X41340Y-46981D01*
X41440Y-46988D01*
X41538Y-47016D01*
X41628Y-47061D01*
X41708Y-47124D01*
X41774Y-47201D01*
X41825Y-47289D01*
X41857Y-47385D01*
X41869Y-47486D01*
X41870Y-47500D01*
X39490Y-63237D02*
X39490Y-63237D01*
X39490Y-61723D02*
X39490Y-61723D01*
X39490Y-63237D02*
X39555Y-63234D01*
X39621Y-63225D01*
X39685Y-63211D01*
X39748Y-63191D01*
X39809Y-63166D01*
X39868Y-63135D01*
X39924Y-63100D01*
X39976Y-63059D01*
X40025Y-63015D01*
X40069Y-62966D01*
X40110Y-62914D01*
X40145Y-62858D01*
X40176Y-62799D01*
X40201Y-62738D01*
X40221Y-62675D01*
X40235Y-62611D01*
X40244Y-62545D01*
X40247Y-62480D01*
X40244Y-62415D01*
X40235Y-62349D01*
X40221Y-62285D01*
X40201Y-62222D01*
X40176Y-62161D01*
X40145Y-62102D01*
X40110Y-62046D01*
X40069Y-61994D01*
X40025Y-61945D01*
X39976Y-61901D01*
X39924Y-61860D01*
X39868Y-61825D01*
X39809Y-61794D01*
X39748Y-61769D01*
X39685Y-61749D01*
X39621Y-61735D01*
X39555Y-61726D01*
X39490Y-61723D01*
X39490Y-61723D02*
X39425Y-61726D01*
X39359Y-61735D01*
X39295Y-61749D01*
X39232Y-61769D01*
X39171Y-61794D01*
X39112Y-61825D01*
X39056Y-61860D01*
X39004Y-61901D01*
X38955Y-61945D01*
X38911Y-61994D01*
X38870Y-62046D01*
X38835Y-62102D01*
X38804Y-62161D01*
X38779Y-62222D01*
X38759Y-62285D01*
X38745Y-62349D01*
X38736Y-62415D01*
X38733Y-62480D01*
X38736Y-62545D01*
X38745Y-62611D01*
X38759Y-62675D01*
X38779Y-62738D01*
X38804Y-62799D01*
X38835Y-62858D01*
X38870Y-62914D01*
X38911Y-62966D01*
X38955Y-63015D01*
X39004Y-63059D01*
X39056Y-63100D01*
X39112Y-63135D01*
X39171Y-63166D01*
X39232Y-63191D01*
X39295Y-63211D01*
X39359Y-63225D01*
X39425Y-63234D01*
X39490Y-63237D01*
X42840Y-63237D02*
X42840Y-63237D01*
X42840Y-61723D02*
X42840Y-61723D01*
X42840Y-63237D02*
X42905Y-63234D01*
X42971Y-63225D01*
X43035Y-63211D01*
X43098Y-63191D01*
X43159Y-63166D01*
X43218Y-63135D01*
X43274Y-63100D01*
X43326Y-63059D01*
X43375Y-63015D01*
X43419Y-62966D01*
X43460Y-62914D01*
X43495Y-62858D01*
X43526Y-62799D01*
X43551Y-62738D01*
X43571Y-62675D01*
X43585Y-62611D01*
X43594Y-62545D01*
X43597Y-62480D01*
X43594Y-62415D01*
X43585Y-62349D01*
X43571Y-62285D01*
X43551Y-62222D01*
X43526Y-62161D01*
X43495Y-62102D01*
X43460Y-62046D01*
X43419Y-61994D01*
X43375Y-61945D01*
X43326Y-61901D01*
X43274Y-61860D01*
X43218Y-61825D01*
X43159Y-61794D01*
X43098Y-61769D01*
X43035Y-61749D01*
X42971Y-61735D01*
X42905Y-61726D01*
X42840Y-61723D01*
X42840Y-61723D02*
X42775Y-61726D01*
X42709Y-61735D01*
X42645Y-61749D01*
X42582Y-61769D01*
X42521Y-61794D01*
X42462Y-61825D01*
X42406Y-61860D01*
X42354Y-61901D01*
X42305Y-61945D01*
X42261Y-61994D01*
X42220Y-62046D01*
X42185Y-62102D01*
X42154Y-62161D01*
X42129Y-62222D01*
X42109Y-62285D01*
X42095Y-62349D01*
X42086Y-62415D01*
X42083Y-62480D01*
X42086Y-62545D01*
X42095Y-62611D01*
X42109Y-62675D01*
X42129Y-62738D01*
X42154Y-62799D01*
X42185Y-62858D01*
X42220Y-62914D01*
X42261Y-62966D01*
X42305Y-63015D01*
X42354Y-63059D01*
X42406Y-63100D01*
X42462Y-63135D01*
X42521Y-63166D01*
X42582Y-63191D01*
X42645Y-63211D01*
X42709Y-63225D01*
X42775Y-63234D01*
X42840Y-63237D01*
X41870Y-62500D02*
X41860Y-62601D01*
X41830Y-62698D01*
X41783Y-62787D01*
X41718Y-62866D01*
X41640Y-62931D01*
X41551Y-62979D01*
X41454Y-63009D01*
X41353Y-63019D01*
X41253Y-63010D01*
X41156Y-62982D01*
X41066Y-62935D01*
X40987Y-62871D01*
X40921Y-62793D01*
X40873Y-62704D01*
X40842Y-62608D01*
X40831Y-62507D01*
X40839Y-62407D01*
X40867Y-62309D01*
X40913Y-62219D01*
X40976Y-62139D01*
X41054Y-62074D01*
X41142Y-62024D01*
X41239Y-61993D01*
X41340Y-61981D01*
X41440Y-61988D01*
X41538Y-62016D01*
X41628Y-62061D01*
X41708Y-62124D01*
X41774Y-62201D01*
X41825Y-62289D01*
X41857Y-62385D01*
X41869Y-62486D01*
X41870Y-62500D01*
X43555Y-35255D02*
X43555Y-35745D01*
X44045Y-35745D01*
X44045Y-35255D01*
X43555Y-35255D01*
X44045Y-34500D02*
X44040Y-34547D01*
X44026Y-34593D01*
X44004Y-34635D01*
X43973Y-34672D01*
X43937Y-34703D01*
X43894Y-34725D01*
X43849Y-34739D01*
X43801Y-34744D01*
X43755Y-34740D01*
X43709Y-34727D01*
X43666Y-34705D01*
X43629Y-34675D01*
X43598Y-34638D01*
X43575Y-34596D01*
X43561Y-34550D01*
X43556Y-34503D01*
X43560Y-34456D01*
X43573Y-34410D01*
X43595Y-34368D01*
X43624Y-34330D01*
X43661Y-34299D01*
X43702Y-34276D01*
X43748Y-34261D01*
X43795Y-34256D01*
X43842Y-34259D01*
X43888Y-34272D01*
X43931Y-34294D01*
X43968Y-34323D01*
X44000Y-34359D01*
X44023Y-34401D01*
X44038Y-34446D01*
X44044Y-34494D01*
X44045Y-34500D01*
X43555Y-40355D02*
X43555Y-40845D01*
X44045Y-40845D01*
X44045Y-40355D01*
X43555Y-40355D01*
X44045Y-39600D02*
X44040Y-39647D01*
X44026Y-39693D01*
X44004Y-39735D01*
X43973Y-39772D01*
X43937Y-39803D01*
X43894Y-39825D01*
X43849Y-39839D01*
X43801Y-39844D01*
X43755Y-39840D01*
X43709Y-39827D01*
X43666Y-39805D01*
X43629Y-39775D01*
X43598Y-39738D01*
X43575Y-39696D01*
X43561Y-39650D01*
X43556Y-39603D01*
X43560Y-39556D01*
X43573Y-39510D01*
X43595Y-39468D01*
X43624Y-39430D01*
X43661Y-39399D01*
X43702Y-39376D01*
X43748Y-39361D01*
X43795Y-39356D01*
X43842Y-39359D01*
X43888Y-39372D01*
X43931Y-39394D01*
X43968Y-39423D01*
X44000Y-39459D01*
X44023Y-39501D01*
X44038Y-39546D01*
X44044Y-39594D01*
X44045Y-39600D01*
X43455Y-50255D02*
X43455Y-50745D01*
X43945Y-50745D01*
X43945Y-50255D01*
X43455Y-50255D01*
X43945Y-49500D02*
X43940Y-49547D01*
X43926Y-49593D01*
X43904Y-49635D01*
X43873Y-49672D01*
X43837Y-49703D01*
X43794Y-49725D01*
X43749Y-49739D01*
X43701Y-49744D01*
X43655Y-49740D01*
X43609Y-49727D01*
X43566Y-49705D01*
X43529Y-49675D01*
X43498Y-49638D01*
X43475Y-49596D01*
X43461Y-49550D01*
X43456Y-49503D01*
X43460Y-49456D01*
X43473Y-49410D01*
X43495Y-49368D01*
X43524Y-49330D01*
X43561Y-49299D01*
X43602Y-49276D01*
X43648Y-49261D01*
X43695Y-49256D01*
X43742Y-49259D01*
X43788Y-49272D01*
X43831Y-49294D01*
X43868Y-49323D01*
X43900Y-49359D01*
X43923Y-49401D01*
X43938Y-49446D01*
X43944Y-49494D01*
X43945Y-49500D01*
X43455Y-45255D02*
X43455Y-45745D01*
X43945Y-45745D01*
X43945Y-45255D01*
X43455Y-45255D01*
X43945Y-44500D02*
X43940Y-44547D01*
X43926Y-44593D01*
X43904Y-44635D01*
X43873Y-44672D01*
X43837Y-44703D01*
X43794Y-44725D01*
X43749Y-44739D01*
X43701Y-44744D01*
X43655Y-44740D01*
X43609Y-44727D01*
X43566Y-44705D01*
X43529Y-44675D01*
X43498Y-44638D01*
X43475Y-44596D01*
X43461Y-44550D01*
X43456Y-44503D01*
X43460Y-44456D01*
X43473Y-44410D01*
X43495Y-44368D01*
X43524Y-44330D01*
X43561Y-44299D01*
X43602Y-44276D01*
X43648Y-44261D01*
X43695Y-44256D01*
X43742Y-44259D01*
X43788Y-44272D01*
X43831Y-44294D01*
X43868Y-44323D01*
X43900Y-44359D01*
X43923Y-44401D01*
X43938Y-44446D01*
X43944Y-44494D01*
X43945Y-44500D01*
X43455Y-65255D02*
X43455Y-65745D01*
X43945Y-65745D01*
X43945Y-65255D01*
X43455Y-65255D01*
X43945Y-64500D02*
X43940Y-64547D01*
X43926Y-64593D01*
X43904Y-64635D01*
X43873Y-64672D01*
X43837Y-64703D01*
X43794Y-64725D01*
X43749Y-64739D01*
X43701Y-64744D01*
X43655Y-64740D01*
X43609Y-64727D01*
X43566Y-64705D01*
X43529Y-64675D01*
X43498Y-64638D01*
X43475Y-64596D01*
X43461Y-64550D01*
X43456Y-64503D01*
X43460Y-64456D01*
X43473Y-64410D01*
X43495Y-64368D01*
X43524Y-64330D01*
X43561Y-64299D01*
X43602Y-64276D01*
X43648Y-64261D01*
X43695Y-64256D01*
X43742Y-64259D01*
X43788Y-64272D01*
X43831Y-64294D01*
X43868Y-64323D01*
X43900Y-64359D01*
X43923Y-64401D01*
X43938Y-64446D01*
X43944Y-64494D01*
X43945Y-64500D01*
X43555Y-70255D02*
X43555Y-70745D01*
X44045Y-70745D01*
X44045Y-70255D01*
X43555Y-70255D01*
X44045Y-69500D02*
X44040Y-69547D01*
X44026Y-69593D01*
X44004Y-69635D01*
X43973Y-69672D01*
X43937Y-69703D01*
X43894Y-69725D01*
X43849Y-69739D01*
X43801Y-69744D01*
X43755Y-69740D01*
X43709Y-69727D01*
X43666Y-69705D01*
X43629Y-69675D01*
X43598Y-69638D01*
X43575Y-69596D01*
X43561Y-69550D01*
X43556Y-69503D01*
X43560Y-69456D01*
X43573Y-69410D01*
X43595Y-69368D01*
X43624Y-69330D01*
X43661Y-69299D01*
X43702Y-69276D01*
X43748Y-69261D01*
X43795Y-69256D01*
X43842Y-69259D01*
X43888Y-69272D01*
X43931Y-69294D01*
X43968Y-69323D01*
X44000Y-69359D01*
X44023Y-69401D01*
X44038Y-69446D01*
X44044Y-69494D01*
X44045Y-69500D01*
X43455Y-60255D02*
X43455Y-60745D01*
X43945Y-60745D01*
X43945Y-60255D01*
X43455Y-60255D01*
X43945Y-59500D02*
X43940Y-59547D01*
X43926Y-59593D01*
X43904Y-59635D01*
X43873Y-59672D01*
X43837Y-59703D01*
X43794Y-59725D01*
X43749Y-59739D01*
X43701Y-59744D01*
X43655Y-59740D01*
X43609Y-59727D01*
X43566Y-59705D01*
X43529Y-59675D01*
X43498Y-59638D01*
X43475Y-59596D01*
X43461Y-59550D01*
X43456Y-59503D01*
X43460Y-59456D01*
X43473Y-59410D01*
X43495Y-59368D01*
X43524Y-59330D01*
X43561Y-59299D01*
X43602Y-59276D01*
X43648Y-59261D01*
X43695Y-59256D01*
X43742Y-59259D01*
X43788Y-59272D01*
X43831Y-59294D01*
X43868Y-59323D01*
X43900Y-59359D01*
X43923Y-59401D01*
X43938Y-59446D01*
X43944Y-59494D01*
X43945Y-59500D01*
X43455Y-55255D02*
X43455Y-55745D01*
X43945Y-55745D01*
X43945Y-55255D01*
X43455Y-55255D01*
X43945Y-54500D02*
X43940Y-54547D01*
X43926Y-54593D01*
X43904Y-54635D01*
X43873Y-54672D01*
X43837Y-54703D01*
X43794Y-54725D01*
X43749Y-54739D01*
X43701Y-54744D01*
X43655Y-54740D01*
X43609Y-54727D01*
X43566Y-54705D01*
X43529Y-54675D01*
X43498Y-54638D01*
X43475Y-54596D01*
X43461Y-54550D01*
X43456Y-54503D01*
X43460Y-54456D01*
X43473Y-54410D01*
X43495Y-54368D01*
X43524Y-54330D01*
X43561Y-54299D01*
X43602Y-54276D01*
X43648Y-54261D01*
X43695Y-54256D01*
X43742Y-54259D01*
X43788Y-54272D01*
X43831Y-54294D01*
X43868Y-54323D01*
X43900Y-54359D01*
X43923Y-54401D01*
X43938Y-54446D01*
X43944Y-54494D01*
X43945Y-54500D01*
G54D14*
X45075Y-34684D02*
X44394Y-34684D01*
X44394Y-34786D01*
X44427Y-34847D01*
X44491Y-34888D01*
X44556Y-34908D01*
X44686Y-34928D01*
X44783Y-34928D01*
X44913Y-34908D01*
X44978Y-34888D01*
X45043Y-34847D01*
X45075Y-34786D01*
X45075Y-34684D01*
X45075Y-35336D02*
X45075Y-35092D01*
X45075Y-35214D02*
X44394Y-35214D01*
X44491Y-35173D01*
X44556Y-35132D01*
X44589Y-35092D01*
X45075Y-39784D02*
X44394Y-39784D01*
X44394Y-39886D01*
X44427Y-39947D01*
X44491Y-39988D01*
X44556Y-40008D01*
X44686Y-40028D01*
X44783Y-40028D01*
X44913Y-40008D01*
X44978Y-39988D01*
X45043Y-39947D01*
X45075Y-39886D01*
X45075Y-39784D01*
X44459Y-40192D02*
X44427Y-40212D01*
X44394Y-40253D01*
X44394Y-40355D01*
X44427Y-40395D01*
X44459Y-40416D01*
X44524Y-40436D01*
X44589Y-40436D01*
X44686Y-40416D01*
X45075Y-40171D01*
X45075Y-40436D01*
X44975Y-49684D02*
X44294Y-49684D01*
X44294Y-49786D01*
X44327Y-49847D01*
X44391Y-49888D01*
X44456Y-49908D01*
X44586Y-49928D01*
X44683Y-49928D01*
X44813Y-49908D01*
X44878Y-49888D01*
X44943Y-49847D01*
X44975Y-49786D01*
X44975Y-49684D01*
X44521Y-50295D02*
X44975Y-50295D01*
X44262Y-50193D02*
X44748Y-50092D01*
X44748Y-50356D01*
X44975Y-44684D02*
X44294Y-44684D01*
X44294Y-44786D01*
X44327Y-44847D01*
X44391Y-44888D01*
X44456Y-44908D01*
X44586Y-44928D01*
X44683Y-44928D01*
X44813Y-44908D01*
X44878Y-44888D01*
X44943Y-44847D01*
X44975Y-44786D01*
X44975Y-44684D01*
X44294Y-45071D02*
X44294Y-45336D01*
X44554Y-45193D01*
X44554Y-45255D01*
X44586Y-45295D01*
X44618Y-45316D01*
X44683Y-45336D01*
X44845Y-45336D01*
X44910Y-45316D01*
X44943Y-45295D01*
X44975Y-45255D01*
X44975Y-45132D01*
X44943Y-45092D01*
X44910Y-45071D01*
X44975Y-64684D02*
X44294Y-64684D01*
X44294Y-64786D01*
X44327Y-64847D01*
X44391Y-64888D01*
X44456Y-64908D01*
X44586Y-64928D01*
X44683Y-64928D01*
X44813Y-64908D01*
X44878Y-64888D01*
X44943Y-64847D01*
X44975Y-64786D01*
X44975Y-64684D01*
X44294Y-65071D02*
X44294Y-65356D01*
X44975Y-65173D01*
X45075Y-69684D02*
X44394Y-69684D01*
X44394Y-69786D01*
X44427Y-69847D01*
X44491Y-69888D01*
X44556Y-69908D01*
X44686Y-69928D01*
X44783Y-69928D01*
X44913Y-69908D01*
X44978Y-69888D01*
X45043Y-69847D01*
X45075Y-69786D01*
X45075Y-69684D01*
X44686Y-70173D02*
X44654Y-70132D01*
X44621Y-70112D01*
X44556Y-70092D01*
X44524Y-70092D01*
X44459Y-70112D01*
X44427Y-70132D01*
X44394Y-70173D01*
X44394Y-70255D01*
X44427Y-70295D01*
X44459Y-70316D01*
X44524Y-70336D01*
X44556Y-70336D01*
X44621Y-70316D01*
X44654Y-70295D01*
X44686Y-70255D01*
X44686Y-70173D01*
X44718Y-70132D01*
X44751Y-70112D01*
X44816Y-70092D01*
X44945Y-70092D01*
X45010Y-70112D01*
X45043Y-70132D01*
X45075Y-70173D01*
X45075Y-70255D01*
X45043Y-70295D01*
X45010Y-70316D01*
X44945Y-70336D01*
X44816Y-70336D01*
X44751Y-70316D01*
X44718Y-70295D01*
X44686Y-70255D01*
X44975Y-59684D02*
X44294Y-59684D01*
X44294Y-59786D01*
X44327Y-59847D01*
X44391Y-59888D01*
X44456Y-59908D01*
X44586Y-59928D01*
X44683Y-59928D01*
X44813Y-59908D01*
X44878Y-59888D01*
X44943Y-59847D01*
X44975Y-59786D01*
X44975Y-59684D01*
X44294Y-60295D02*
X44294Y-60214D01*
X44327Y-60173D01*
X44359Y-60153D01*
X44456Y-60112D01*
X44586Y-60092D01*
X44845Y-60092D01*
X44910Y-60112D01*
X44943Y-60132D01*
X44975Y-60173D01*
X44975Y-60255D01*
X44943Y-60295D01*
X44910Y-60316D01*
X44845Y-60336D01*
X44683Y-60336D01*
X44618Y-60316D01*
X44586Y-60295D01*
X44554Y-60255D01*
X44554Y-60173D01*
X44586Y-60132D01*
X44618Y-60112D01*
X44683Y-60092D01*
X44975Y-54684D02*
X44294Y-54684D01*
X44294Y-54786D01*
X44327Y-54847D01*
X44391Y-54888D01*
X44456Y-54908D01*
X44586Y-54928D01*
X44683Y-54928D01*
X44813Y-54908D01*
X44878Y-54888D01*
X44943Y-54847D01*
X44975Y-54786D01*
X44975Y-54684D01*
X44294Y-55316D02*
X44294Y-55112D01*
X44618Y-55092D01*
X44586Y-55112D01*
X44554Y-55153D01*
X44554Y-55255D01*
X44586Y-55295D01*
X44618Y-55316D01*
X44683Y-55336D01*
X44845Y-55336D01*
X44910Y-55316D01*
X44943Y-55295D01*
X44975Y-55255D01*
X44975Y-55153D01*
X44943Y-55112D01*
X44910Y-55092D01*
M02*
