G04 (created by PCBNEW-RS274X (2012-01-19 BZR 3256)-stable) date 12/6/2012 10:52:00 PM*
G01*
G70*
G90*
%MOIN*%
G04 Gerber Fmt 3.4, Leading zero omitted, Abs format*
%FSLAX34Y34*%
G04 APERTURE LIST*
%ADD10C,0.006000*%
%ADD11C,0.012000*%
%ADD12R,0.055000X0.055000*%
%ADD13R,0.060000X0.060000*%
%ADD14C,0.060000*%
%ADD15O,0.157500X0.157500*%
%ADD16C,0.055000*%
%ADD17C,0.035000*%
%ADD18C,0.020000*%
G04 APERTURE END LIST*
G54D10*
G54D11*
X44478Y-53969D02*
X44021Y-53969D01*
X44028Y-68669D02*
X43571Y-68669D01*
X43928Y-48769D02*
X43471Y-48769D01*
X44028Y-38869D02*
X43571Y-38869D01*
G54D12*
X44500Y-76525D03*
G54D13*
X45400Y-61125D03*
G54D14*
X46400Y-61125D03*
X45400Y-62125D03*
X46400Y-62125D03*
X45400Y-63125D03*
X46400Y-63125D03*
X45400Y-64125D03*
X46400Y-64125D03*
X45400Y-65125D03*
X46400Y-65125D03*
X45400Y-66125D03*
X46400Y-66125D03*
X45400Y-67125D03*
X46400Y-67125D03*
X45400Y-68125D03*
X46400Y-68125D03*
G54D13*
X45000Y-47500D03*
G54D14*
X46000Y-47500D03*
X45000Y-48500D03*
X46000Y-48500D03*
X45000Y-49500D03*
X46000Y-49500D03*
X45000Y-50500D03*
X46000Y-50500D03*
X45000Y-51500D03*
X46000Y-51500D03*
X45000Y-52500D03*
X46000Y-52500D03*
X45000Y-53500D03*
X46000Y-53500D03*
X45000Y-54500D03*
X46000Y-54500D03*
X45000Y-55500D03*
X46000Y-55500D03*
X45000Y-56500D03*
X46000Y-56500D03*
X45000Y-57500D03*
X46000Y-57500D03*
X45000Y-58500D03*
X46000Y-58500D03*
G54D15*
X49410Y-42520D03*
X46060Y-42520D03*
X39490Y-72480D03*
X42840Y-72480D03*
X39490Y-67480D03*
X42840Y-67480D03*
X39490Y-42480D03*
X42840Y-42480D03*
X49410Y-72520D03*
X46060Y-72520D03*
X49410Y-37520D03*
X46060Y-37520D03*
X39490Y-57480D03*
X42840Y-57480D03*
X39490Y-52480D03*
X42840Y-52480D03*
X39490Y-37480D03*
X42840Y-37480D03*
X39490Y-47480D03*
X42840Y-47480D03*
X39490Y-62480D03*
X42840Y-62480D03*
G54D12*
X43800Y-35500D03*
G54D16*
X43800Y-34500D03*
G54D12*
X43800Y-40600D03*
G54D16*
X43800Y-39600D03*
G54D12*
X43700Y-50500D03*
G54D16*
X43700Y-49500D03*
G54D12*
X43700Y-45500D03*
G54D16*
X43700Y-44500D03*
G54D12*
X43700Y-65500D03*
G54D16*
X43700Y-64500D03*
G54D12*
X43800Y-70500D03*
G54D16*
X43800Y-69500D03*
G54D12*
X43700Y-60500D03*
G54D16*
X43700Y-59500D03*
G54D12*
X43700Y-55500D03*
G54D16*
X43700Y-54500D03*
G54D17*
X47500Y-53325D03*
X48500Y-46000D03*
X48000Y-44900D03*
X41625Y-71275D03*
X47400Y-54125D03*
X44400Y-61025D03*
X46925Y-50800D03*
X42300Y-54500D03*
X41600Y-66325D03*
X47400Y-67625D03*
X39700Y-34425D03*
X48100Y-66525D03*
X49700Y-48925D03*
X39700Y-55600D03*
X43925Y-56775D03*
G54D18*
X45400Y-62125D02*
X46400Y-62125D01*
X47950Y-53775D02*
X47500Y-53325D01*
X47950Y-60575D02*
X47950Y-53775D01*
X46400Y-62125D02*
X47950Y-60575D01*
X49410Y-42520D02*
X49460Y-42520D01*
X48500Y-46000D02*
X49460Y-44440D01*
X49460Y-44440D02*
X49460Y-42520D01*
X48350Y-38580D02*
X49460Y-37520D01*
X49410Y-37520D02*
X49460Y-37520D01*
X48000Y-44900D02*
X48350Y-44200D01*
X48350Y-44200D02*
X48350Y-38580D01*
X48165Y-71275D02*
X41625Y-71275D01*
X49410Y-72520D02*
X48165Y-71275D01*
X46100Y-59525D02*
X46900Y-58725D01*
X43725Y-59525D02*
X46100Y-59525D01*
X46900Y-58725D02*
X46900Y-53400D01*
X43700Y-59500D02*
X43725Y-59525D01*
X46900Y-53400D02*
X46000Y-52500D01*
X43900Y-41525D02*
X44500Y-40925D01*
X45500Y-48000D02*
X45525Y-47975D01*
X46000Y-48500D02*
X45500Y-48000D01*
X45525Y-47975D02*
X45525Y-46975D01*
X45525Y-46975D02*
X44875Y-46325D01*
X44500Y-40925D02*
X44500Y-40300D01*
X44875Y-46325D02*
X44875Y-44625D01*
X44500Y-40300D02*
X43800Y-39600D01*
X43900Y-41525D02*
X43900Y-43650D01*
X44875Y-44625D02*
X43900Y-43650D01*
X45800Y-50500D02*
X45300Y-50000D01*
X46000Y-50500D02*
X45800Y-50500D01*
X44550Y-50000D02*
X43700Y-49500D01*
X45300Y-50000D02*
X44550Y-50000D01*
X42840Y-57860D02*
X42840Y-57480D01*
X40600Y-63325D02*
X41000Y-63725D01*
X45400Y-65125D02*
X45000Y-65125D01*
X40600Y-61600D02*
X40600Y-63325D01*
X42100Y-58600D02*
X42840Y-57860D01*
X44700Y-64125D02*
X44700Y-64825D01*
X42100Y-60100D02*
X40600Y-61600D01*
X44700Y-64825D02*
X45000Y-65125D01*
X42100Y-58600D02*
X42100Y-60100D01*
X41000Y-63725D02*
X44300Y-63725D01*
X44300Y-63725D02*
X44700Y-64125D01*
X45400Y-65125D02*
X46400Y-65125D01*
X47400Y-54125D02*
X47400Y-58925D01*
X46200Y-60125D02*
X46150Y-60175D01*
X47400Y-58925D02*
X46200Y-60125D01*
X46150Y-60175D02*
X45250Y-60175D01*
X45250Y-60175D02*
X44400Y-61025D01*
X49100Y-63625D02*
X47200Y-65625D01*
X49100Y-52225D02*
X49100Y-63625D01*
X47775Y-50800D02*
X49100Y-52225D01*
X44800Y-65600D02*
X44825Y-65625D01*
X47775Y-50800D02*
X46925Y-50800D01*
X44800Y-65600D02*
X43700Y-64500D01*
X44825Y-65625D02*
X47200Y-65625D01*
X47775Y-50800D02*
X46940Y-50800D01*
X46000Y-49500D02*
X45900Y-49500D01*
X45900Y-49500D02*
X45400Y-49000D01*
X44325Y-44925D02*
X43900Y-44500D01*
X45400Y-49000D02*
X44675Y-49000D01*
X44675Y-49000D02*
X44325Y-48750D01*
X43900Y-44500D02*
X43700Y-44500D01*
X44325Y-48750D02*
X44325Y-44925D01*
X44900Y-38775D02*
X44625Y-38500D01*
X44900Y-41275D02*
X44350Y-41825D01*
X44325Y-43350D02*
X44325Y-41850D01*
X44900Y-41275D02*
X44900Y-38775D01*
X46000Y-47500D02*
X46000Y-46500D01*
X44625Y-38500D02*
X44625Y-35325D01*
X44900Y-38775D02*
X44900Y-38750D01*
X45350Y-45850D02*
X45350Y-44375D01*
X44625Y-35325D02*
X43800Y-34500D01*
X44325Y-41850D02*
X44900Y-41275D01*
X46000Y-46500D02*
X45350Y-45850D01*
X45350Y-44375D02*
X44325Y-43350D01*
X48525Y-52650D02*
X48525Y-62000D01*
X42840Y-52480D02*
X44000Y-52000D01*
X47875Y-52000D02*
X48525Y-52650D01*
X46400Y-64125D02*
X45400Y-64125D01*
X47875Y-52000D02*
X44000Y-52000D01*
X48525Y-62000D02*
X46400Y-64125D01*
X45000Y-52500D02*
X44800Y-52500D01*
X43100Y-53700D02*
X42300Y-54500D01*
X43600Y-53700D02*
X43100Y-53700D01*
X44800Y-52500D02*
X43600Y-53700D01*
X45200Y-66325D02*
X45400Y-66125D01*
X45400Y-66125D02*
X46400Y-66125D01*
X41600Y-66325D02*
X45200Y-66325D01*
X47875Y-47400D02*
X45875Y-45400D01*
X47400Y-67625D02*
X48800Y-67625D01*
X45875Y-45400D02*
X45875Y-44250D01*
X50300Y-48875D02*
X48825Y-47400D01*
X48825Y-47400D02*
X47875Y-47400D01*
X45350Y-38625D02*
X45350Y-41550D01*
X48900Y-67625D02*
X48800Y-67625D01*
X48800Y-67625D02*
X48900Y-67625D01*
X48900Y-67625D02*
X50300Y-66225D01*
X45025Y-34800D02*
X43850Y-33625D01*
X43850Y-33625D02*
X40500Y-33625D01*
X50300Y-66225D02*
X50300Y-48875D01*
X45025Y-38300D02*
X45350Y-38625D01*
X45350Y-41550D02*
X44850Y-42050D01*
X44850Y-42050D02*
X44850Y-42750D01*
X40500Y-33625D02*
X39700Y-34425D01*
X45025Y-38300D02*
X45025Y-34800D01*
X44850Y-43225D02*
X45875Y-44250D01*
X44850Y-42750D02*
X44850Y-43225D01*
X49700Y-64925D02*
X48100Y-66525D01*
X49700Y-48925D02*
X49700Y-64925D01*
X44400Y-55650D02*
X44400Y-55100D01*
X43850Y-56200D02*
X44400Y-55650D01*
X40300Y-56200D02*
X43575Y-56200D01*
X40300Y-56200D02*
X39700Y-55600D01*
X43575Y-56200D02*
X43850Y-56200D01*
X45000Y-54500D02*
X44400Y-55100D01*
X44200Y-56925D02*
X44200Y-57350D01*
X40300Y-54200D02*
X38500Y-54200D01*
X43800Y-40600D02*
X39600Y-40600D01*
X39700Y-50500D02*
X38500Y-51700D01*
X46000Y-55500D02*
X45500Y-56000D01*
X40700Y-65500D02*
X39700Y-65500D01*
X41600Y-55500D02*
X40300Y-54200D01*
X39600Y-35500D02*
X38500Y-36600D01*
X44200Y-57350D02*
X44200Y-57875D01*
X38500Y-36600D02*
X38500Y-41700D01*
X46000Y-55500D02*
X46000Y-56500D01*
X39700Y-65500D02*
X38500Y-64300D01*
X43700Y-50500D02*
X39700Y-50500D01*
X40600Y-65600D02*
X40600Y-68225D01*
X39600Y-40600D02*
X38500Y-41700D01*
X38500Y-54200D02*
X38500Y-64300D01*
X44200Y-56925D02*
X44050Y-56775D01*
X38500Y-51700D02*
X38500Y-54200D01*
X43800Y-35500D02*
X39600Y-35500D01*
X42850Y-59650D02*
X43700Y-60500D01*
X44700Y-56000D02*
X44200Y-56500D01*
X44200Y-57875D02*
X42850Y-59225D01*
X44050Y-56775D02*
X43925Y-56775D01*
X44200Y-56500D02*
X43925Y-56775D01*
X39500Y-45500D02*
X38500Y-46500D01*
X43700Y-55500D02*
X41600Y-55500D01*
X40600Y-68225D02*
X42875Y-70500D01*
X45500Y-56000D02*
X44700Y-56000D01*
X43800Y-70500D02*
X42875Y-70500D01*
X44200Y-56925D02*
X44200Y-56500D01*
X38500Y-41700D02*
X38500Y-46500D01*
X42850Y-59250D02*
X42850Y-59650D01*
X40700Y-65500D02*
X40600Y-65600D01*
X46000Y-56500D02*
X45500Y-56000D01*
X43700Y-45500D02*
X39500Y-45500D01*
X43700Y-65500D02*
X40700Y-65500D01*
X42850Y-59225D02*
X42850Y-59250D01*
X38500Y-46500D02*
X38500Y-51700D01*
X45400Y-67125D02*
X43800Y-67125D01*
X43195Y-67125D02*
X42840Y-67480D01*
X43800Y-67125D02*
X43195Y-67125D01*
X45400Y-67125D02*
X46400Y-67125D01*
M02*
