M48
INCH,TZ
T1C0.025
T2C0.032
T3C0.040
T4C0.079
%
G90
G05
T1
X39700Y-34425
X39700Y-55600
X41600Y-66325
X41625Y-71275
X42300Y-54500
X43925Y-56775
X44400Y-61025
X46925Y-50800
X47400Y-54125
X47400Y-67625
X47500Y-53325
X48000Y-44900
X48100Y-66525
X48500Y-46000
X49700Y-48925
T2
X43700Y-44500
X43700Y-45500
X43700Y-49500
X43700Y-50500
X43700Y-54500
X43700Y-55500
X43700Y-59500
X43700Y-60500
X43700Y-64500
X43700Y-65500
X43800Y-34500
X43800Y-35500
X43800Y-39600
X43800Y-40600
X43800Y-69500
X43800Y-70500
X44500Y-76525
X45000Y-47500
T3
X45000Y-48500
X45000Y-49500
X45000Y-50500
X45000Y-51500
X45000Y-52500
X45000Y-53500
X45000Y-54500
X45000Y-55500
X45000Y-56500
X45000Y-57500
X45000Y-58500
X45400Y-61125
X45400Y-62125
X45400Y-63125
X45400Y-64125
X45400Y-65125
X45400Y-66125
X45400Y-67125
X45400Y-68125
X46000Y-47500
X46000Y-48500
X46000Y-49500
X46000Y-50500
X46000Y-51500
X46000Y-52500
X46000Y-53500
X46000Y-54500
X46000Y-55500
X46000Y-56500
X46000Y-57500
X46000Y-58500
X46400Y-61125
X46400Y-62125
X46400Y-63125
X46400Y-64125
X46400Y-65125
X46400Y-66125
X46400Y-67125
X46400Y-68125
T4
X39490Y-37480
X39490Y-42480
X39490Y-47480
X39490Y-52480
X39490Y-57480
X39490Y-62480
X39490Y-67480
X39490Y-72480
X42840Y-37480
X42840Y-42480
X42840Y-47480
X42840Y-52480
X42840Y-57480
X42840Y-62480
X42840Y-67480
X42840Y-72480
X46060Y-37520
X46060Y-42520
X46060Y-72520
X49410Y-37520
X49410Y-42520
X49410Y-72520
T0
M30
