G04 (created by PCBNEW-RS274X (2012-01-19 BZR 3256)-stable) date 12/6/2012 10:52:00 PM*
G01*
G70*
G90*
%MOIN*%
G04 Gerber Fmt 3.4, Leading zero omitted, Abs format*
%FSLAX34Y34*%
G04 APERTURE LIST*
%ADD10C,0.006000*%
%ADD11C,0.012000*%
%ADD12C,0.005000*%
%ADD13R,0.055000X0.055000*%
%ADD14R,0.060000X0.060000*%
%ADD15C,0.060000*%
%ADD16O,0.157500X0.157500*%
%ADD17C,0.055000*%
%ADD18C,0.035000*%
%ADD19C,0.020000*%
%ADD20C,0.050000*%
%ADD21C,0.010000*%
G04 APERTURE END LIST*
G54D10*
G54D11*
X49068Y-75394D02*
X48611Y-75394D01*
X48325Y-75165D02*
X47868Y-75394D01*
X48325Y-75623D01*
X47125Y-75165D02*
X47582Y-75394D01*
X47125Y-75623D01*
X46839Y-75394D02*
X46382Y-75394D01*
X48625Y-76405D02*
X48396Y-76405D01*
X48539Y-76139D02*
X48539Y-76825D01*
X48511Y-76901D01*
X48453Y-76939D01*
X48396Y-76939D01*
X47939Y-76939D02*
X47939Y-76520D01*
X47968Y-76444D01*
X48025Y-76405D01*
X48139Y-76405D01*
X48196Y-76444D01*
X47939Y-76901D02*
X47996Y-76939D01*
X48139Y-76939D01*
X48196Y-76901D01*
X48225Y-76825D01*
X48225Y-76748D01*
X48196Y-76672D01*
X48139Y-76634D01*
X47996Y-76634D01*
X47939Y-76596D01*
X47653Y-76939D02*
X47653Y-76139D01*
X47653Y-76444D02*
X47596Y-76405D01*
X47482Y-76405D01*
X47425Y-76444D01*
X47396Y-76482D01*
X47367Y-76558D01*
X47367Y-76786D01*
X47396Y-76863D01*
X47425Y-76901D01*
X47482Y-76939D01*
X47596Y-76939D01*
X47653Y-76901D01*
X47139Y-76901D02*
X47082Y-76939D01*
X46967Y-76939D01*
X46910Y-76901D01*
X46882Y-76825D01*
X46882Y-76786D01*
X46910Y-76710D01*
X46967Y-76672D01*
X47053Y-76672D01*
X47110Y-76634D01*
X47139Y-76558D01*
X47139Y-76520D01*
X47110Y-76444D01*
X47053Y-76405D01*
X46967Y-76405D01*
X46910Y-76444D01*
G54D12*
X45256Y-76347D02*
X45237Y-76318D01*
X45237Y-76275D01*
X45256Y-76232D01*
X45294Y-76204D01*
X45332Y-76189D01*
X45408Y-76175D01*
X45465Y-76175D01*
X45542Y-76189D01*
X45580Y-76204D01*
X45618Y-76232D01*
X45637Y-76275D01*
X45637Y-76304D01*
X45618Y-76347D01*
X45599Y-76361D01*
X45465Y-76361D01*
X45465Y-76304D01*
X45637Y-76489D02*
X45237Y-76489D01*
X45637Y-76661D01*
X45237Y-76661D01*
X45637Y-76803D02*
X45237Y-76803D01*
X45237Y-76875D01*
X45256Y-76918D01*
X45294Y-76946D01*
X45332Y-76961D01*
X45408Y-76975D01*
X45465Y-76975D01*
X45542Y-76961D01*
X45580Y-76946D01*
X45618Y-76918D01*
X45637Y-76875D01*
X45637Y-76803D01*
G54D11*
X49865Y-33065D02*
X49865Y-33751D01*
X49894Y-33827D01*
X49951Y-33865D01*
X49979Y-33865D01*
X49865Y-32799D02*
X49894Y-32837D01*
X49865Y-32875D01*
X49837Y-32837D01*
X49865Y-32799D01*
X49865Y-32875D01*
X49322Y-33599D02*
X49322Y-33180D01*
X49351Y-33104D01*
X49408Y-33065D01*
X49522Y-33065D01*
X49579Y-33104D01*
X49322Y-33561D02*
X49379Y-33599D01*
X49522Y-33599D01*
X49579Y-33561D01*
X49608Y-33485D01*
X49608Y-33408D01*
X49579Y-33332D01*
X49522Y-33294D01*
X49379Y-33294D01*
X49322Y-33256D01*
X48779Y-33561D02*
X48836Y-33599D01*
X48950Y-33599D01*
X49008Y-33561D01*
X49036Y-33523D01*
X49065Y-33446D01*
X49065Y-33218D01*
X49036Y-33142D01*
X49008Y-33104D01*
X48950Y-33065D01*
X48836Y-33065D01*
X48779Y-33104D01*
X48522Y-33599D02*
X48522Y-32799D01*
X48465Y-33294D02*
X48294Y-33599D01*
X48294Y-33065D02*
X48522Y-33370D01*
X48065Y-33561D02*
X48008Y-33599D01*
X47893Y-33599D01*
X47836Y-33561D01*
X47808Y-33485D01*
X47808Y-33446D01*
X47836Y-33370D01*
X47893Y-33332D01*
X47979Y-33332D01*
X48036Y-33294D01*
X48065Y-33218D01*
X48065Y-33180D01*
X48036Y-33104D01*
X47979Y-33065D01*
X47893Y-33065D01*
X47836Y-33104D01*
X46836Y-33599D02*
X46836Y-33180D01*
X46865Y-33104D01*
X46922Y-33065D01*
X47036Y-33065D01*
X47093Y-33104D01*
X46836Y-33561D02*
X46893Y-33599D01*
X47036Y-33599D01*
X47093Y-33561D01*
X47122Y-33485D01*
X47122Y-33408D01*
X47093Y-33332D01*
X47036Y-33294D01*
X46893Y-33294D01*
X46836Y-33256D01*
X46550Y-33065D02*
X46550Y-33599D01*
X46550Y-33142D02*
X46522Y-33104D01*
X46464Y-33065D01*
X46379Y-33065D01*
X46322Y-33104D01*
X46293Y-33180D01*
X46293Y-33599D01*
X45750Y-33599D02*
X45750Y-32799D01*
X45750Y-33561D02*
X45807Y-33599D01*
X45921Y-33599D01*
X45979Y-33561D01*
X46007Y-33523D01*
X46036Y-33446D01*
X46036Y-33218D01*
X46007Y-33142D01*
X45979Y-33104D01*
X45921Y-33065D01*
X45807Y-33065D01*
X45750Y-33104D01*
X44921Y-33599D02*
X44979Y-33561D01*
X45007Y-33485D01*
X45007Y-32799D01*
X44465Y-33561D02*
X44522Y-33599D01*
X44636Y-33599D01*
X44693Y-33561D01*
X44722Y-33485D01*
X44722Y-33180D01*
X44693Y-33104D01*
X44636Y-33065D01*
X44522Y-33065D01*
X44465Y-33104D01*
X44436Y-33180D01*
X44436Y-33256D01*
X44722Y-33332D01*
X43922Y-33599D02*
X43922Y-32799D01*
X43922Y-33561D02*
X43979Y-33599D01*
X44093Y-33599D01*
X44151Y-33561D01*
X44179Y-33523D01*
X44208Y-33446D01*
X44208Y-33218D01*
X44179Y-33142D01*
X44151Y-33104D01*
X44093Y-33065D01*
X43979Y-33065D01*
X43922Y-33104D01*
X43665Y-33561D02*
X43608Y-33599D01*
X43493Y-33599D01*
X43436Y-33561D01*
X43408Y-33485D01*
X43408Y-33446D01*
X43436Y-33370D01*
X43493Y-33332D01*
X43579Y-33332D01*
X43636Y-33294D01*
X43665Y-33218D01*
X43665Y-33180D01*
X43636Y-33104D01*
X43579Y-33065D01*
X43493Y-33065D01*
X43436Y-33104D01*
X42779Y-33065D02*
X42550Y-33065D01*
X42693Y-32799D02*
X42693Y-33485D01*
X42665Y-33561D01*
X42607Y-33599D01*
X42550Y-33599D01*
X42350Y-33599D02*
X42350Y-32799D01*
X42093Y-33599D02*
X42093Y-33180D01*
X42122Y-33104D01*
X42179Y-33065D01*
X42264Y-33065D01*
X42322Y-33104D01*
X42350Y-33142D01*
X41807Y-33599D02*
X41807Y-33065D01*
X41807Y-32799D02*
X41836Y-32837D01*
X41807Y-32875D01*
X41779Y-32837D01*
X41807Y-32799D01*
X41807Y-32875D01*
X41550Y-33561D02*
X41493Y-33599D01*
X41378Y-33599D01*
X41321Y-33561D01*
X41293Y-33485D01*
X41293Y-33446D01*
X41321Y-33370D01*
X41378Y-33332D01*
X41464Y-33332D01*
X41521Y-33294D01*
X41550Y-33218D01*
X41550Y-33180D01*
X41521Y-33104D01*
X41464Y-33065D01*
X41378Y-33065D01*
X41321Y-33104D01*
X40607Y-33561D02*
X40550Y-33599D01*
X40435Y-33599D01*
X40378Y-33561D01*
X40350Y-33485D01*
X40350Y-33446D01*
X40378Y-33370D01*
X40435Y-33332D01*
X40521Y-33332D01*
X40578Y-33294D01*
X40607Y-33218D01*
X40607Y-33180D01*
X40578Y-33104D01*
X40521Y-33065D01*
X40435Y-33065D01*
X40378Y-33104D01*
X40092Y-33599D02*
X40092Y-33065D01*
X40092Y-32799D02*
X40121Y-32837D01*
X40092Y-32875D01*
X40064Y-32837D01*
X40092Y-32799D01*
X40092Y-32875D01*
X39549Y-33599D02*
X39549Y-32799D01*
X39549Y-33561D02*
X39606Y-33599D01*
X39720Y-33599D01*
X39778Y-33561D01*
X39806Y-33523D01*
X39835Y-33446D01*
X39835Y-33218D01*
X39806Y-33142D01*
X39778Y-33104D01*
X39720Y-33065D01*
X39606Y-33065D01*
X39549Y-33104D01*
X39035Y-33561D02*
X39092Y-33599D01*
X39206Y-33599D01*
X39263Y-33561D01*
X39292Y-33485D01*
X39292Y-33180D01*
X39263Y-33104D01*
X39206Y-33065D01*
X39092Y-33065D01*
X39035Y-33104D01*
X39006Y-33180D01*
X39006Y-33256D01*
X39292Y-33332D01*
X41565Y-74818D02*
X41108Y-74818D01*
X41899Y-77049D02*
X41957Y-77011D01*
X41985Y-76935D01*
X41985Y-76249D01*
X41443Y-77011D02*
X41500Y-77049D01*
X41614Y-77049D01*
X41671Y-77011D01*
X41700Y-76935D01*
X41700Y-76630D01*
X41671Y-76554D01*
X41614Y-76515D01*
X41500Y-76515D01*
X41443Y-76554D01*
X41414Y-76630D01*
X41414Y-76706D01*
X41700Y-76782D01*
X40900Y-77049D02*
X40900Y-76249D01*
X40900Y-77011D02*
X40957Y-77049D01*
X41071Y-77049D01*
X41129Y-77011D01*
X41157Y-76973D01*
X41186Y-76896D01*
X41186Y-76668D01*
X41157Y-76592D01*
X41129Y-76554D01*
X41071Y-76515D01*
X40957Y-76515D01*
X40900Y-76554D01*
X40643Y-77011D02*
X40586Y-77049D01*
X40471Y-77049D01*
X40414Y-77011D01*
X40386Y-76935D01*
X40386Y-76896D01*
X40414Y-76820D01*
X40471Y-76782D01*
X40557Y-76782D01*
X40614Y-76744D01*
X40643Y-76668D01*
X40643Y-76630D01*
X40614Y-76554D01*
X40557Y-76515D01*
X40471Y-76515D01*
X40414Y-76554D01*
G54D12*
X43356Y-76347D02*
X43337Y-76318D01*
X43337Y-76275D01*
X43356Y-76232D01*
X43394Y-76204D01*
X43432Y-76189D01*
X43508Y-76175D01*
X43565Y-76175D01*
X43642Y-76189D01*
X43680Y-76204D01*
X43718Y-76232D01*
X43737Y-76275D01*
X43737Y-76304D01*
X43718Y-76347D01*
X43699Y-76361D01*
X43565Y-76361D01*
X43565Y-76304D01*
X43737Y-76489D02*
X43337Y-76489D01*
X43737Y-76661D01*
X43337Y-76661D01*
X43737Y-76803D02*
X43337Y-76803D01*
X43337Y-76875D01*
X43356Y-76918D01*
X43394Y-76946D01*
X43432Y-76961D01*
X43508Y-76975D01*
X43565Y-76975D01*
X43642Y-76961D01*
X43680Y-76946D01*
X43718Y-76918D01*
X43737Y-76875D01*
X43737Y-76803D01*
G54D11*
X41097Y-75669D02*
X41554Y-75669D01*
X41325Y-75974D02*
X41325Y-75364D01*
G54D13*
X44500Y-76525D03*
G54D14*
X45400Y-61125D03*
G54D15*
X46400Y-61125D03*
X45400Y-62125D03*
X46400Y-62125D03*
X45400Y-63125D03*
X46400Y-63125D03*
X45400Y-64125D03*
X46400Y-64125D03*
X45400Y-65125D03*
X46400Y-65125D03*
X45400Y-66125D03*
X46400Y-66125D03*
X45400Y-67125D03*
X46400Y-67125D03*
X45400Y-68125D03*
X46400Y-68125D03*
G54D14*
X45000Y-47500D03*
G54D15*
X46000Y-47500D03*
X45000Y-48500D03*
X46000Y-48500D03*
X45000Y-49500D03*
X46000Y-49500D03*
X45000Y-50500D03*
X46000Y-50500D03*
X45000Y-51500D03*
X46000Y-51500D03*
X45000Y-52500D03*
X46000Y-52500D03*
X45000Y-53500D03*
X46000Y-53500D03*
X45000Y-54500D03*
X46000Y-54500D03*
X45000Y-55500D03*
X46000Y-55500D03*
X45000Y-56500D03*
X46000Y-56500D03*
X45000Y-57500D03*
X46000Y-57500D03*
X45000Y-58500D03*
X46000Y-58500D03*
G54D16*
X49410Y-42520D03*
X46060Y-42520D03*
X39490Y-72480D03*
X42840Y-72480D03*
X39490Y-67480D03*
X42840Y-67480D03*
X39490Y-42480D03*
X42840Y-42480D03*
X49410Y-72520D03*
X46060Y-72520D03*
X49410Y-37520D03*
X46060Y-37520D03*
X39490Y-57480D03*
X42840Y-57480D03*
X39490Y-52480D03*
X42840Y-52480D03*
X39490Y-37480D03*
X42840Y-37480D03*
X39490Y-47480D03*
X42840Y-47480D03*
X39490Y-62480D03*
X42840Y-62480D03*
G54D13*
X43800Y-35500D03*
G54D17*
X43800Y-34500D03*
G54D13*
X43800Y-40600D03*
G54D17*
X43800Y-39600D03*
G54D13*
X43700Y-50500D03*
G54D17*
X43700Y-49500D03*
G54D13*
X43700Y-45500D03*
G54D17*
X43700Y-44500D03*
G54D13*
X43700Y-65500D03*
G54D17*
X43700Y-64500D03*
G54D13*
X43800Y-70500D03*
G54D17*
X43800Y-69500D03*
G54D13*
X43700Y-60500D03*
G54D17*
X43700Y-59500D03*
G54D13*
X43700Y-55500D03*
G54D17*
X43700Y-54500D03*
G54D18*
X47500Y-53325D03*
X48500Y-46000D03*
X48000Y-44900D03*
X41625Y-71275D03*
X47400Y-54125D03*
X44400Y-61025D03*
X46925Y-50800D03*
X42300Y-54500D03*
X41600Y-66325D03*
X47400Y-67625D03*
X39700Y-34425D03*
X48100Y-66525D03*
X49700Y-48925D03*
X39700Y-55600D03*
X43925Y-56775D03*
G54D19*
X42500Y-64525D02*
X42900Y-64525D01*
X44400Y-59525D02*
X44700Y-59525D01*
X42300Y-49525D02*
X42900Y-49525D01*
X42400Y-44525D02*
X42900Y-44525D01*
X42600Y-39625D02*
X43000Y-39625D01*
X44575Y-69475D02*
X44975Y-69475D01*
X42500Y-34525D02*
X43000Y-34525D01*
G54D20*
X44500Y-76525D02*
X44500Y-73450D01*
X46000Y-58500D02*
X45000Y-58500D01*
X45000Y-58500D02*
X45400Y-58900D01*
X46000Y-57500D02*
X46000Y-58500D01*
X45400Y-58900D02*
X45400Y-59100D01*
X46000Y-58500D02*
X45400Y-59100D01*
G54D19*
X39490Y-67480D02*
X39527Y-67467D01*
X44450Y-54050D02*
X45000Y-53500D01*
X40550Y-62000D02*
X40550Y-64069D01*
X44450Y-54050D02*
X44450Y-57550D01*
X39527Y-65225D02*
X39527Y-67467D01*
X41300Y-61300D02*
X40550Y-62000D01*
X44450Y-57550D02*
X43300Y-58550D01*
X41300Y-59500D02*
X41300Y-61300D01*
X40550Y-64069D02*
X39527Y-65225D01*
X43300Y-58550D02*
X42250Y-58550D01*
X42250Y-58550D02*
X41300Y-59500D01*
X44800Y-48500D02*
X44100Y-47800D01*
X44100Y-46900D02*
X43000Y-46000D01*
X43000Y-46000D02*
X41550Y-46000D01*
X45000Y-48500D02*
X44800Y-48500D01*
X44100Y-47800D02*
X44100Y-46900D01*
X41550Y-46000D02*
X39490Y-43940D01*
X39490Y-43940D02*
X39490Y-42480D01*
X43480Y-42480D02*
X46900Y-45900D01*
X46900Y-45900D02*
X46900Y-49500D01*
X43480Y-42480D02*
X42840Y-42480D01*
X47500Y-50250D02*
X46900Y-49500D01*
X47500Y-50250D02*
X47500Y-53325D01*
X48100Y-56000D02*
X48500Y-55300D01*
X45500Y-56000D02*
X48100Y-56000D01*
X48500Y-55300D02*
X48500Y-46000D01*
X45000Y-56500D02*
X45500Y-56000D01*
X48000Y-54400D02*
X48000Y-44900D01*
X47600Y-55000D02*
X48000Y-54400D01*
X45000Y-55500D02*
X45500Y-55000D01*
X45500Y-55000D02*
X47600Y-55000D01*
X43534Y-58887D02*
X43214Y-59011D01*
X42750Y-60700D02*
X44300Y-62350D01*
X45000Y-57550D02*
X43534Y-58887D01*
X41625Y-70525D02*
X42900Y-69250D01*
X42750Y-59600D02*
X42750Y-60700D01*
X43214Y-59011D02*
X42750Y-59600D01*
X44300Y-62350D02*
X44300Y-67750D01*
X44300Y-67750D02*
X42900Y-69250D01*
X45000Y-57500D02*
X45000Y-57550D01*
X41625Y-71275D02*
X41625Y-70525D01*
X44200Y-52300D02*
X45000Y-51500D01*
X39540Y-57160D02*
X40500Y-56200D01*
X44200Y-52700D02*
X44200Y-52300D01*
X43200Y-53700D02*
X44200Y-52700D01*
X41700Y-53700D02*
X43200Y-53700D01*
X40500Y-54900D02*
X41700Y-53700D01*
X39490Y-57480D02*
X39540Y-57160D01*
X40500Y-56200D02*
X40500Y-54900D01*
X45000Y-44850D02*
X43850Y-43700D01*
X40600Y-43300D02*
X41000Y-43700D01*
X39490Y-37480D02*
X40600Y-39300D01*
X45000Y-44850D02*
X45000Y-47500D01*
X40600Y-39300D02*
X40600Y-43300D01*
X43850Y-43700D02*
X41000Y-43700D01*
X45400Y-68125D02*
X45400Y-69925D01*
X44800Y-70525D02*
X44800Y-71075D01*
X45400Y-69925D02*
X44800Y-70525D01*
X46400Y-68125D02*
X45400Y-68125D01*
X43725Y-72150D02*
X43170Y-72150D01*
X43170Y-72150D02*
X42840Y-72480D01*
X44800Y-71075D02*
X43725Y-72150D01*
X47000Y-54525D02*
X47400Y-54125D01*
X44400Y-61125D02*
X44700Y-61325D01*
X46025Y-54525D02*
X47000Y-54525D01*
X44700Y-61325D02*
X44700Y-68700D01*
X43800Y-69500D02*
X44700Y-68700D01*
X44400Y-61025D02*
X44400Y-61125D01*
X46025Y-54525D02*
X46000Y-54500D01*
X46473Y-53497D02*
X46470Y-53500D01*
X46470Y-53500D02*
X46000Y-53500D01*
X46925Y-53045D02*
X46473Y-53497D01*
X46925Y-53045D02*
X46925Y-50800D01*
X45213Y-52987D02*
X45500Y-52700D01*
X45200Y-53000D02*
X44550Y-53000D01*
X45200Y-53000D02*
X45213Y-52987D01*
X46000Y-51500D02*
X45500Y-52000D01*
X45500Y-52700D02*
X45500Y-52000D01*
X43725Y-54475D02*
X43700Y-54500D01*
X44550Y-53000D02*
X43725Y-53825D01*
X43725Y-53825D02*
X43725Y-54475D01*
X44200Y-51300D02*
X40670Y-51300D01*
X40670Y-51300D02*
X39490Y-52480D01*
X45000Y-50500D02*
X44200Y-51300D01*
X40550Y-61400D02*
X39490Y-62480D01*
X41139Y-56361D02*
X40550Y-57000D01*
X40550Y-57000D02*
X40550Y-61400D01*
X41139Y-55661D02*
X42300Y-54500D01*
X41139Y-55661D02*
X41139Y-56361D01*
X40900Y-48700D02*
X39680Y-47480D01*
X39680Y-47480D02*
X39490Y-47480D01*
X45000Y-49500D02*
X44200Y-48700D01*
X44200Y-48700D02*
X40900Y-48700D01*
X42840Y-62480D02*
X42000Y-63320D01*
X42000Y-65925D02*
X41600Y-66325D01*
X42000Y-63320D02*
X42000Y-65125D01*
X42000Y-65125D02*
X42000Y-65925D01*
X38500Y-44400D02*
X38500Y-36900D01*
X42200Y-46500D02*
X40600Y-46500D01*
X40600Y-46500D02*
X38500Y-44400D01*
X47400Y-64125D02*
X47400Y-67625D01*
X46400Y-63125D02*
X45400Y-63125D01*
X39700Y-35700D02*
X38500Y-36900D01*
X42200Y-46500D02*
X42840Y-47140D01*
X47400Y-64125D02*
X46400Y-63125D01*
X39700Y-34425D02*
X39700Y-35700D01*
X42840Y-47480D02*
X42840Y-47140D01*
X43280Y-37480D02*
X44913Y-39113D01*
X45900Y-44225D02*
X48700Y-44225D01*
X48100Y-62825D02*
X48100Y-66525D01*
X44900Y-43225D02*
X45900Y-44225D01*
X44900Y-39126D02*
X44900Y-43225D01*
X46400Y-61125D02*
X45400Y-61125D01*
X48700Y-44225D02*
X49700Y-45225D01*
X44913Y-39113D02*
X44900Y-39126D01*
X49700Y-45225D02*
X49700Y-48925D01*
X48100Y-62825D02*
X46400Y-61125D01*
X42840Y-37480D02*
X43280Y-37480D01*
X39700Y-55600D02*
X39400Y-55600D01*
X39400Y-55600D02*
X38500Y-56500D01*
X39540Y-69140D02*
X38500Y-68100D01*
X39540Y-69140D02*
X39540Y-72430D01*
X39490Y-72480D02*
X39540Y-72430D01*
X38500Y-56500D02*
X38500Y-68100D01*
X43925Y-56775D02*
X43700Y-55500D01*
X43700Y-55500D02*
X43700Y-55500D01*
G54D10*
G36*
X50380Y-60275D02*
X50375Y-60300D01*
X50375Y-69000D01*
X50375Y-69100D01*
X50375Y-72172D01*
X50273Y-71925D01*
X49987Y-71639D01*
X49613Y-71483D01*
X49209Y-71483D01*
X48835Y-71637D01*
X48549Y-71923D01*
X48393Y-72297D01*
X48393Y-72701D01*
X48393Y-72741D01*
X48547Y-73115D01*
X48833Y-73401D01*
X49207Y-73557D01*
X49611Y-73557D01*
X49985Y-73403D01*
X50271Y-73117D01*
X50375Y-72867D01*
X50375Y-73975D01*
X48349Y-73975D01*
X48349Y-72660D01*
X48349Y-72342D01*
X48228Y-72048D01*
X48003Y-71823D01*
X47710Y-71701D01*
X47392Y-71701D01*
X47098Y-71822D01*
X46944Y-71976D01*
X46923Y-71925D01*
X46637Y-71639D01*
X46263Y-71483D01*
X45859Y-71483D01*
X45485Y-71637D01*
X45199Y-71923D01*
X45043Y-72297D01*
X45043Y-72701D01*
X45043Y-72741D01*
X45197Y-73115D01*
X45483Y-73401D01*
X45857Y-73557D01*
X46261Y-73557D01*
X46635Y-73403D01*
X46921Y-73117D01*
X46955Y-73035D01*
X47097Y-73177D01*
X47390Y-73299D01*
X47708Y-73299D01*
X48002Y-73178D01*
X48227Y-72953D01*
X48349Y-72660D01*
X48349Y-73975D01*
X42018Y-73975D01*
X42018Y-73967D01*
X40655Y-73967D01*
X40655Y-73975D01*
X38525Y-73975D01*
X38525Y-72827D01*
X38627Y-73075D01*
X38913Y-73361D01*
X39287Y-73517D01*
X39691Y-73517D01*
X40065Y-73363D01*
X40351Y-73077D01*
X40507Y-72703D01*
X40507Y-72299D01*
X40507Y-72259D01*
X40353Y-71885D01*
X40067Y-71599D01*
X39890Y-71525D01*
X39890Y-69140D01*
X39889Y-69139D01*
X39863Y-69006D01*
X39787Y-68893D01*
X39787Y-68892D01*
X39411Y-68517D01*
X39691Y-68517D01*
X40065Y-68363D01*
X40351Y-68077D01*
X40507Y-67703D01*
X40507Y-67299D01*
X40507Y-67259D01*
X40353Y-66885D01*
X40067Y-66599D01*
X39877Y-66519D01*
X39877Y-65357D01*
X40797Y-64316D01*
X40812Y-64301D01*
X40841Y-64249D01*
X40873Y-64203D01*
X40875Y-64190D01*
X40880Y-64183D01*
X40885Y-64139D01*
X40900Y-64069D01*
X40900Y-63178D01*
X41190Y-63299D01*
X41508Y-63299D01*
X41667Y-63233D01*
X41650Y-63320D01*
X41650Y-65125D01*
X41650Y-65780D01*
X41530Y-65900D01*
X41516Y-65900D01*
X41360Y-65964D01*
X41240Y-66084D01*
X41175Y-66240D01*
X41175Y-66409D01*
X41239Y-66565D01*
X41359Y-66685D01*
X41397Y-66701D01*
X41192Y-66701D01*
X40898Y-66822D01*
X40673Y-67047D01*
X40551Y-67340D01*
X40551Y-67658D01*
X40672Y-67952D01*
X40897Y-68177D01*
X41190Y-68299D01*
X41508Y-68299D01*
X41802Y-68178D01*
X41956Y-68024D01*
X41977Y-68075D01*
X42263Y-68361D01*
X42637Y-68517D01*
X43041Y-68517D01*
X43144Y-68474D01*
X42644Y-69011D01*
X42643Y-69011D01*
X41378Y-70278D01*
X41302Y-70391D01*
X41275Y-70525D01*
X41275Y-71024D01*
X41265Y-71034D01*
X41200Y-71190D01*
X41200Y-71359D01*
X41264Y-71515D01*
X41384Y-71635D01*
X41540Y-71700D01*
X41709Y-71700D01*
X41865Y-71636D01*
X41985Y-71516D01*
X42050Y-71360D01*
X42050Y-71191D01*
X41986Y-71035D01*
X41975Y-71024D01*
X41975Y-70669D01*
X43147Y-69498D01*
X43150Y-69493D01*
X43156Y-69489D01*
X43300Y-69334D01*
X43275Y-69395D01*
X43275Y-69604D01*
X43355Y-69797D01*
X43502Y-69945D01*
X43576Y-69976D01*
X43476Y-69976D01*
X43384Y-70014D01*
X43314Y-70084D01*
X43276Y-70175D01*
X43276Y-70274D01*
X43276Y-70824D01*
X43314Y-70916D01*
X43384Y-70986D01*
X43475Y-71024D01*
X43574Y-71024D01*
X44124Y-71024D01*
X44216Y-70986D01*
X44286Y-70916D01*
X44324Y-70825D01*
X44324Y-70726D01*
X44324Y-70176D01*
X44286Y-70084D01*
X44216Y-70014D01*
X44125Y-69976D01*
X44026Y-69976D01*
X44022Y-69976D01*
X44097Y-69945D01*
X44245Y-69798D01*
X44296Y-69674D01*
X44328Y-69722D01*
X44441Y-69798D01*
X44575Y-69825D01*
X44975Y-69825D01*
X45012Y-69817D01*
X44553Y-70278D01*
X44477Y-70391D01*
X44450Y-70525D01*
X44450Y-70930D01*
X43599Y-71781D01*
X43417Y-71599D01*
X43043Y-71443D01*
X42639Y-71443D01*
X42265Y-71597D01*
X41979Y-71883D01*
X41944Y-71964D01*
X41803Y-71823D01*
X41510Y-71701D01*
X41192Y-71701D01*
X40898Y-71822D01*
X40673Y-72047D01*
X40551Y-72340D01*
X40551Y-72658D01*
X40672Y-72952D01*
X40897Y-73177D01*
X41190Y-73299D01*
X41508Y-73299D01*
X41802Y-73178D01*
X41956Y-73024D01*
X41977Y-73075D01*
X42263Y-73361D01*
X42637Y-73517D01*
X43041Y-73517D01*
X43415Y-73363D01*
X43701Y-73077D01*
X43857Y-72703D01*
X43857Y-72473D01*
X43859Y-72473D01*
X43972Y-72397D01*
X45047Y-71323D01*
X45047Y-71322D01*
X45123Y-71209D01*
X45149Y-71075D01*
X45150Y-71075D01*
X45150Y-70669D01*
X45647Y-70173D01*
X45647Y-70172D01*
X45723Y-70059D01*
X45749Y-69925D01*
X45750Y-69925D01*
X45750Y-68551D01*
X45826Y-68475D01*
X45974Y-68475D01*
X46089Y-68590D01*
X46291Y-68674D01*
X46509Y-68674D01*
X46711Y-68590D01*
X46865Y-68436D01*
X46949Y-68234D01*
X46949Y-68016D01*
X46865Y-67814D01*
X46711Y-67660D01*
X46626Y-67625D01*
X46711Y-67590D01*
X46865Y-67436D01*
X46949Y-67234D01*
X46949Y-67016D01*
X46865Y-66814D01*
X46711Y-66660D01*
X46626Y-66625D01*
X46711Y-66590D01*
X46865Y-66436D01*
X46949Y-66234D01*
X46949Y-66016D01*
X46865Y-65814D01*
X46711Y-65660D01*
X46626Y-65625D01*
X46711Y-65590D01*
X46865Y-65436D01*
X46949Y-65234D01*
X46949Y-65016D01*
X46865Y-64814D01*
X46711Y-64660D01*
X46626Y-64625D01*
X46711Y-64590D01*
X46865Y-64436D01*
X46949Y-64234D01*
X46949Y-64168D01*
X47050Y-64269D01*
X47050Y-67374D01*
X47040Y-67384D01*
X46975Y-67540D01*
X46975Y-67709D01*
X47039Y-67865D01*
X47159Y-67985D01*
X47315Y-68050D01*
X47484Y-68050D01*
X47640Y-67986D01*
X47760Y-67866D01*
X47825Y-67710D01*
X47825Y-67541D01*
X47761Y-67385D01*
X47750Y-67374D01*
X47750Y-66776D01*
X47859Y-66885D01*
X48015Y-66950D01*
X48184Y-66950D01*
X48340Y-66886D01*
X48460Y-66766D01*
X48525Y-66610D01*
X48525Y-66441D01*
X48461Y-66285D01*
X48450Y-66274D01*
X48450Y-62825D01*
X48423Y-62691D01*
X48347Y-62578D01*
X48347Y-62577D01*
X46949Y-61179D01*
X46949Y-61016D01*
X46865Y-60814D01*
X46711Y-60660D01*
X46641Y-60630D01*
X46641Y-58603D01*
X46641Y-57603D01*
X46631Y-57349D01*
X46554Y-57160D01*
X46431Y-57139D01*
X46071Y-57500D01*
X46431Y-57861D01*
X46554Y-57840D01*
X46641Y-57603D01*
X46641Y-58603D01*
X46631Y-58349D01*
X46554Y-58160D01*
X46431Y-58139D01*
X46361Y-58209D01*
X46361Y-58069D01*
X46349Y-58000D01*
X46361Y-57931D01*
X46000Y-57571D01*
X45639Y-57931D01*
X45650Y-58000D01*
X45639Y-58069D01*
X46000Y-58429D01*
X46361Y-58069D01*
X46361Y-58209D01*
X46071Y-58500D01*
X46431Y-58861D01*
X46554Y-58840D01*
X46641Y-58603D01*
X46641Y-60630D01*
X46509Y-60576D01*
X46361Y-60576D01*
X46361Y-58931D01*
X46000Y-58571D01*
X45929Y-58641D01*
X45929Y-58500D01*
X45569Y-58139D01*
X45500Y-58150D01*
X45431Y-58139D01*
X45071Y-58500D01*
X45431Y-58861D01*
X45500Y-58849D01*
X45569Y-58861D01*
X45929Y-58500D01*
X45929Y-58641D01*
X45639Y-58931D01*
X45660Y-59054D01*
X45897Y-59141D01*
X46151Y-59131D01*
X46340Y-59054D01*
X46361Y-58931D01*
X46361Y-60576D01*
X46291Y-60576D01*
X46089Y-60660D01*
X45974Y-60775D01*
X45948Y-60775D01*
X45911Y-60684D01*
X45841Y-60614D01*
X45750Y-60576D01*
X45651Y-60576D01*
X45361Y-60576D01*
X45361Y-58931D01*
X45000Y-58571D01*
X44639Y-58931D01*
X44660Y-59054D01*
X44897Y-59141D01*
X45151Y-59131D01*
X45340Y-59054D01*
X45361Y-58931D01*
X45361Y-60576D01*
X45051Y-60576D01*
X44959Y-60614D01*
X44889Y-60684D01*
X44851Y-60775D01*
X44851Y-60874D01*
X44851Y-61005D01*
X44825Y-60988D01*
X44825Y-60941D01*
X44761Y-60785D01*
X44641Y-60665D01*
X44485Y-60600D01*
X44316Y-60600D01*
X44224Y-60637D01*
X44224Y-60176D01*
X44186Y-60084D01*
X44116Y-60014D01*
X44025Y-59976D01*
X43926Y-59976D01*
X43922Y-59976D01*
X43997Y-59945D01*
X44145Y-59798D01*
X44155Y-59773D01*
X44266Y-59848D01*
X44400Y-59875D01*
X44700Y-59875D01*
X44834Y-59848D01*
X44947Y-59772D01*
X45023Y-59659D01*
X45050Y-59525D01*
X45023Y-59391D01*
X44947Y-59278D01*
X44834Y-59202D01*
X44700Y-59175D01*
X44400Y-59175D01*
X44266Y-59202D01*
X44171Y-59265D01*
X44145Y-59203D01*
X43998Y-59055D01*
X43909Y-59018D01*
X44366Y-58600D01*
X44369Y-58651D01*
X44446Y-58840D01*
X44569Y-58861D01*
X44894Y-58535D01*
X44929Y-58500D01*
X45000Y-58429D01*
X45035Y-58394D01*
X45361Y-58069D01*
X45340Y-57946D01*
X45332Y-57943D01*
X45443Y-57832D01*
X45446Y-57840D01*
X45569Y-57861D01*
X45929Y-57500D01*
X45569Y-57139D01*
X45446Y-57160D01*
X45443Y-57167D01*
X45311Y-57035D01*
X45226Y-57000D01*
X45311Y-56965D01*
X45465Y-56811D01*
X45500Y-56726D01*
X45535Y-56811D01*
X45667Y-56943D01*
X45660Y-56946D01*
X45639Y-57069D01*
X46000Y-57429D01*
X46361Y-57069D01*
X46340Y-56946D01*
X46332Y-56943D01*
X46465Y-56811D01*
X46549Y-56609D01*
X46549Y-56391D01*
X46531Y-56350D01*
X48100Y-56350D01*
X48148Y-56340D01*
X48192Y-56337D01*
X48210Y-56327D01*
X48234Y-56323D01*
X48274Y-56295D01*
X48314Y-56276D01*
X48328Y-56259D01*
X48347Y-56247D01*
X48372Y-56208D01*
X48404Y-56173D01*
X48803Y-55473D01*
X48809Y-55454D01*
X48823Y-55434D01*
X48833Y-55380D01*
X48846Y-55344D01*
X48844Y-55326D01*
X48850Y-55300D01*
X48850Y-46251D01*
X48860Y-46241D01*
X48925Y-46085D01*
X48925Y-45916D01*
X48861Y-45760D01*
X48741Y-45640D01*
X48585Y-45575D01*
X48416Y-45575D01*
X48350Y-45602D01*
X48350Y-45151D01*
X48360Y-45141D01*
X48425Y-44985D01*
X48425Y-44816D01*
X48361Y-44660D01*
X48276Y-44575D01*
X48555Y-44575D01*
X49350Y-45369D01*
X49350Y-48674D01*
X49340Y-48684D01*
X49275Y-48840D01*
X49275Y-49009D01*
X49339Y-49165D01*
X49459Y-49285D01*
X49615Y-49350D01*
X49784Y-49350D01*
X49940Y-49286D01*
X50060Y-49166D01*
X50125Y-49010D01*
X50125Y-48841D01*
X50061Y-48685D01*
X50050Y-48674D01*
X50050Y-45225D01*
X50023Y-45091D01*
X49947Y-44978D01*
X49947Y-44977D01*
X48947Y-43978D01*
X48834Y-43902D01*
X48700Y-43875D01*
X46044Y-43875D01*
X45633Y-43463D01*
X45857Y-43557D01*
X46261Y-43557D01*
X46635Y-43403D01*
X46921Y-43117D01*
X46955Y-43035D01*
X47097Y-43177D01*
X47390Y-43299D01*
X47708Y-43299D01*
X48002Y-43178D01*
X48227Y-42953D01*
X48349Y-42660D01*
X48349Y-42342D01*
X48349Y-37660D01*
X48349Y-37342D01*
X48228Y-37048D01*
X48003Y-36823D01*
X47710Y-36701D01*
X47392Y-36701D01*
X47098Y-36822D01*
X46944Y-36976D01*
X46923Y-36925D01*
X46637Y-36639D01*
X46263Y-36483D01*
X45859Y-36483D01*
X45485Y-36637D01*
X45199Y-36923D01*
X45043Y-37297D01*
X45043Y-37701D01*
X45043Y-37741D01*
X45197Y-38115D01*
X45483Y-38401D01*
X45857Y-38557D01*
X46261Y-38557D01*
X46635Y-38403D01*
X46921Y-38117D01*
X46955Y-38035D01*
X47097Y-38177D01*
X47390Y-38299D01*
X47708Y-38299D01*
X48002Y-38178D01*
X48227Y-37953D01*
X48349Y-37660D01*
X48349Y-42342D01*
X48228Y-42048D01*
X48003Y-41823D01*
X47710Y-41701D01*
X47392Y-41701D01*
X47098Y-41822D01*
X46944Y-41976D01*
X46923Y-41925D01*
X46637Y-41639D01*
X46263Y-41483D01*
X45859Y-41483D01*
X45485Y-41637D01*
X45250Y-41872D01*
X45250Y-39174D01*
X45262Y-39113D01*
X45236Y-38980D01*
X45236Y-38979D01*
X45160Y-38866D01*
X45160Y-38865D01*
X43857Y-37562D01*
X43857Y-37299D01*
X43857Y-37259D01*
X43703Y-36885D01*
X43417Y-36599D01*
X43043Y-36443D01*
X42639Y-36443D01*
X42265Y-36597D01*
X41979Y-36883D01*
X41944Y-36964D01*
X41803Y-36823D01*
X41510Y-36701D01*
X41192Y-36701D01*
X40898Y-36822D01*
X40673Y-37047D01*
X40551Y-37340D01*
X40551Y-37658D01*
X40672Y-37952D01*
X40897Y-38177D01*
X41190Y-38299D01*
X41508Y-38299D01*
X41802Y-38178D01*
X41956Y-38024D01*
X41977Y-38075D01*
X42263Y-38361D01*
X42637Y-38517D01*
X43041Y-38517D01*
X43415Y-38363D01*
X43541Y-38236D01*
X44550Y-39244D01*
X44550Y-43055D01*
X44325Y-42830D01*
X44325Y-39705D01*
X44325Y-39496D01*
X44245Y-39303D01*
X44098Y-39155D01*
X43905Y-39075D01*
X43696Y-39075D01*
X43503Y-39155D01*
X43355Y-39302D01*
X43294Y-39448D01*
X43247Y-39378D01*
X43134Y-39302D01*
X43000Y-39275D01*
X42600Y-39275D01*
X42466Y-39302D01*
X42353Y-39378D01*
X42277Y-39491D01*
X42250Y-39625D01*
X42277Y-39759D01*
X42353Y-39872D01*
X42466Y-39948D01*
X42600Y-39975D01*
X43000Y-39975D01*
X43134Y-39948D01*
X43247Y-39872D01*
X43307Y-39782D01*
X43355Y-39897D01*
X43502Y-40045D01*
X43576Y-40076D01*
X43476Y-40076D01*
X43384Y-40114D01*
X43314Y-40184D01*
X43276Y-40275D01*
X43276Y-40374D01*
X43276Y-40924D01*
X43314Y-41016D01*
X43384Y-41086D01*
X43475Y-41124D01*
X43574Y-41124D01*
X44124Y-41124D01*
X44216Y-41086D01*
X44286Y-41016D01*
X44324Y-40925D01*
X44324Y-40826D01*
X44324Y-40276D01*
X44286Y-40184D01*
X44216Y-40114D01*
X44125Y-40076D01*
X44026Y-40076D01*
X44022Y-40076D01*
X44097Y-40045D01*
X44245Y-39898D01*
X44325Y-39705D01*
X44325Y-42830D01*
X43857Y-42362D01*
X43857Y-42299D01*
X43857Y-42259D01*
X43703Y-41885D01*
X43417Y-41599D01*
X43043Y-41443D01*
X42639Y-41443D01*
X42265Y-41597D01*
X41979Y-41883D01*
X41944Y-41964D01*
X41803Y-41823D01*
X41510Y-41701D01*
X41192Y-41701D01*
X40950Y-41800D01*
X40950Y-39300D01*
X40944Y-39273D01*
X40946Y-39245D01*
X40930Y-39202D01*
X40923Y-39166D01*
X40909Y-39146D01*
X40899Y-39117D01*
X40297Y-38130D01*
X40351Y-38077D01*
X40507Y-37703D01*
X40507Y-37299D01*
X40507Y-37259D01*
X40353Y-36885D01*
X40067Y-36599D01*
X39693Y-36443D01*
X39451Y-36443D01*
X39947Y-35948D01*
X39947Y-35947D01*
X40023Y-35834D01*
X40049Y-35700D01*
X40050Y-35700D01*
X40050Y-34676D01*
X40060Y-34666D01*
X40125Y-34510D01*
X40125Y-34341D01*
X40061Y-34185D01*
X40021Y-34145D01*
X43412Y-34145D01*
X43355Y-34202D01*
X43294Y-34348D01*
X43247Y-34278D01*
X43134Y-34202D01*
X43000Y-34175D01*
X42500Y-34175D01*
X42366Y-34202D01*
X42253Y-34278D01*
X42177Y-34391D01*
X42150Y-34525D01*
X42177Y-34659D01*
X42253Y-34772D01*
X42366Y-34848D01*
X42500Y-34875D01*
X43000Y-34875D01*
X43134Y-34848D01*
X43247Y-34772D01*
X43307Y-34682D01*
X43355Y-34797D01*
X43502Y-34945D01*
X43576Y-34976D01*
X43476Y-34976D01*
X43384Y-35014D01*
X43314Y-35084D01*
X43276Y-35175D01*
X43276Y-35274D01*
X43276Y-35824D01*
X43314Y-35916D01*
X43384Y-35986D01*
X43475Y-36024D01*
X43574Y-36024D01*
X44124Y-36024D01*
X44216Y-35986D01*
X44286Y-35916D01*
X44324Y-35825D01*
X44324Y-35726D01*
X44324Y-35176D01*
X44286Y-35084D01*
X44216Y-35014D01*
X44125Y-34976D01*
X44026Y-34976D01*
X44022Y-34976D01*
X44097Y-34945D01*
X44245Y-34798D01*
X44325Y-34605D01*
X44325Y-34396D01*
X44245Y-34203D01*
X44187Y-34145D01*
X50375Y-34145D01*
X50375Y-37172D01*
X50273Y-36925D01*
X49987Y-36639D01*
X49613Y-36483D01*
X49209Y-36483D01*
X48835Y-36637D01*
X48549Y-36923D01*
X48393Y-37297D01*
X48393Y-37701D01*
X48393Y-37741D01*
X48547Y-38115D01*
X48833Y-38401D01*
X49207Y-38557D01*
X49611Y-38557D01*
X49985Y-38403D01*
X50271Y-38117D01*
X50375Y-37867D01*
X50375Y-42172D01*
X50273Y-41925D01*
X49987Y-41639D01*
X49613Y-41483D01*
X49209Y-41483D01*
X48835Y-41637D01*
X48549Y-41923D01*
X48393Y-42297D01*
X48393Y-42701D01*
X48393Y-42741D01*
X48547Y-43115D01*
X48833Y-43401D01*
X49207Y-43557D01*
X49611Y-43557D01*
X49985Y-43403D01*
X50271Y-43117D01*
X50375Y-42867D01*
X50375Y-60250D01*
X50380Y-60275D01*
X50380Y-60275D01*
G37*
G54D21*
X50380Y-60275D02*
X50375Y-60300D01*
X50375Y-69000D01*
X50375Y-69100D01*
X50375Y-72172D01*
X50273Y-71925D01*
X49987Y-71639D01*
X49613Y-71483D01*
X49209Y-71483D01*
X48835Y-71637D01*
X48549Y-71923D01*
X48393Y-72297D01*
X48393Y-72701D01*
X48393Y-72741D01*
X48547Y-73115D01*
X48833Y-73401D01*
X49207Y-73557D01*
X49611Y-73557D01*
X49985Y-73403D01*
X50271Y-73117D01*
X50375Y-72867D01*
X50375Y-73975D01*
X48349Y-73975D01*
X48349Y-72660D01*
X48349Y-72342D01*
X48228Y-72048D01*
X48003Y-71823D01*
X47710Y-71701D01*
X47392Y-71701D01*
X47098Y-71822D01*
X46944Y-71976D01*
X46923Y-71925D01*
X46637Y-71639D01*
X46263Y-71483D01*
X45859Y-71483D01*
X45485Y-71637D01*
X45199Y-71923D01*
X45043Y-72297D01*
X45043Y-72701D01*
X45043Y-72741D01*
X45197Y-73115D01*
X45483Y-73401D01*
X45857Y-73557D01*
X46261Y-73557D01*
X46635Y-73403D01*
X46921Y-73117D01*
X46955Y-73035D01*
X47097Y-73177D01*
X47390Y-73299D01*
X47708Y-73299D01*
X48002Y-73178D01*
X48227Y-72953D01*
X48349Y-72660D01*
X48349Y-73975D01*
X42018Y-73975D01*
X42018Y-73967D01*
X40655Y-73967D01*
X40655Y-73975D01*
X38525Y-73975D01*
X38525Y-72827D01*
X38627Y-73075D01*
X38913Y-73361D01*
X39287Y-73517D01*
X39691Y-73517D01*
X40065Y-73363D01*
X40351Y-73077D01*
X40507Y-72703D01*
X40507Y-72299D01*
X40507Y-72259D01*
X40353Y-71885D01*
X40067Y-71599D01*
X39890Y-71525D01*
X39890Y-69140D01*
X39889Y-69139D01*
X39863Y-69006D01*
X39787Y-68893D01*
X39787Y-68892D01*
X39411Y-68517D01*
X39691Y-68517D01*
X40065Y-68363D01*
X40351Y-68077D01*
X40507Y-67703D01*
X40507Y-67299D01*
X40507Y-67259D01*
X40353Y-66885D01*
X40067Y-66599D01*
X39877Y-66519D01*
X39877Y-65357D01*
X40797Y-64316D01*
X40812Y-64301D01*
X40841Y-64249D01*
X40873Y-64203D01*
X40875Y-64190D01*
X40880Y-64183D01*
X40885Y-64139D01*
X40900Y-64069D01*
X40900Y-63178D01*
X41190Y-63299D01*
X41508Y-63299D01*
X41667Y-63233D01*
X41650Y-63320D01*
X41650Y-65125D01*
X41650Y-65780D01*
X41530Y-65900D01*
X41516Y-65900D01*
X41360Y-65964D01*
X41240Y-66084D01*
X41175Y-66240D01*
X41175Y-66409D01*
X41239Y-66565D01*
X41359Y-66685D01*
X41397Y-66701D01*
X41192Y-66701D01*
X40898Y-66822D01*
X40673Y-67047D01*
X40551Y-67340D01*
X40551Y-67658D01*
X40672Y-67952D01*
X40897Y-68177D01*
X41190Y-68299D01*
X41508Y-68299D01*
X41802Y-68178D01*
X41956Y-68024D01*
X41977Y-68075D01*
X42263Y-68361D01*
X42637Y-68517D01*
X43041Y-68517D01*
X43144Y-68474D01*
X42644Y-69011D01*
X42643Y-69011D01*
X41378Y-70278D01*
X41302Y-70391D01*
X41275Y-70525D01*
X41275Y-71024D01*
X41265Y-71034D01*
X41200Y-71190D01*
X41200Y-71359D01*
X41264Y-71515D01*
X41384Y-71635D01*
X41540Y-71700D01*
X41709Y-71700D01*
X41865Y-71636D01*
X41985Y-71516D01*
X42050Y-71360D01*
X42050Y-71191D01*
X41986Y-71035D01*
X41975Y-71024D01*
X41975Y-70669D01*
X43147Y-69498D01*
X43150Y-69493D01*
X43156Y-69489D01*
X43300Y-69334D01*
X43275Y-69395D01*
X43275Y-69604D01*
X43355Y-69797D01*
X43502Y-69945D01*
X43576Y-69976D01*
X43476Y-69976D01*
X43384Y-70014D01*
X43314Y-70084D01*
X43276Y-70175D01*
X43276Y-70274D01*
X43276Y-70824D01*
X43314Y-70916D01*
X43384Y-70986D01*
X43475Y-71024D01*
X43574Y-71024D01*
X44124Y-71024D01*
X44216Y-70986D01*
X44286Y-70916D01*
X44324Y-70825D01*
X44324Y-70726D01*
X44324Y-70176D01*
X44286Y-70084D01*
X44216Y-70014D01*
X44125Y-69976D01*
X44026Y-69976D01*
X44022Y-69976D01*
X44097Y-69945D01*
X44245Y-69798D01*
X44296Y-69674D01*
X44328Y-69722D01*
X44441Y-69798D01*
X44575Y-69825D01*
X44975Y-69825D01*
X45012Y-69817D01*
X44553Y-70278D01*
X44477Y-70391D01*
X44450Y-70525D01*
X44450Y-70930D01*
X43599Y-71781D01*
X43417Y-71599D01*
X43043Y-71443D01*
X42639Y-71443D01*
X42265Y-71597D01*
X41979Y-71883D01*
X41944Y-71964D01*
X41803Y-71823D01*
X41510Y-71701D01*
X41192Y-71701D01*
X40898Y-71822D01*
X40673Y-72047D01*
X40551Y-72340D01*
X40551Y-72658D01*
X40672Y-72952D01*
X40897Y-73177D01*
X41190Y-73299D01*
X41508Y-73299D01*
X41802Y-73178D01*
X41956Y-73024D01*
X41977Y-73075D01*
X42263Y-73361D01*
X42637Y-73517D01*
X43041Y-73517D01*
X43415Y-73363D01*
X43701Y-73077D01*
X43857Y-72703D01*
X43857Y-72473D01*
X43859Y-72473D01*
X43972Y-72397D01*
X45047Y-71323D01*
X45047Y-71322D01*
X45123Y-71209D01*
X45149Y-71075D01*
X45150Y-71075D01*
X45150Y-70669D01*
X45647Y-70173D01*
X45647Y-70172D01*
X45723Y-70059D01*
X45749Y-69925D01*
X45750Y-69925D01*
X45750Y-68551D01*
X45826Y-68475D01*
X45974Y-68475D01*
X46089Y-68590D01*
X46291Y-68674D01*
X46509Y-68674D01*
X46711Y-68590D01*
X46865Y-68436D01*
X46949Y-68234D01*
X46949Y-68016D01*
X46865Y-67814D01*
X46711Y-67660D01*
X46626Y-67625D01*
X46711Y-67590D01*
X46865Y-67436D01*
X46949Y-67234D01*
X46949Y-67016D01*
X46865Y-66814D01*
X46711Y-66660D01*
X46626Y-66625D01*
X46711Y-66590D01*
X46865Y-66436D01*
X46949Y-66234D01*
X46949Y-66016D01*
X46865Y-65814D01*
X46711Y-65660D01*
X46626Y-65625D01*
X46711Y-65590D01*
X46865Y-65436D01*
X46949Y-65234D01*
X46949Y-65016D01*
X46865Y-64814D01*
X46711Y-64660D01*
X46626Y-64625D01*
X46711Y-64590D01*
X46865Y-64436D01*
X46949Y-64234D01*
X46949Y-64168D01*
X47050Y-64269D01*
X47050Y-67374D01*
X47040Y-67384D01*
X46975Y-67540D01*
X46975Y-67709D01*
X47039Y-67865D01*
X47159Y-67985D01*
X47315Y-68050D01*
X47484Y-68050D01*
X47640Y-67986D01*
X47760Y-67866D01*
X47825Y-67710D01*
X47825Y-67541D01*
X47761Y-67385D01*
X47750Y-67374D01*
X47750Y-66776D01*
X47859Y-66885D01*
X48015Y-66950D01*
X48184Y-66950D01*
X48340Y-66886D01*
X48460Y-66766D01*
X48525Y-66610D01*
X48525Y-66441D01*
X48461Y-66285D01*
X48450Y-66274D01*
X48450Y-62825D01*
X48423Y-62691D01*
X48347Y-62578D01*
X48347Y-62577D01*
X46949Y-61179D01*
X46949Y-61016D01*
X46865Y-60814D01*
X46711Y-60660D01*
X46641Y-60630D01*
X46641Y-58603D01*
X46641Y-57603D01*
X46631Y-57349D01*
X46554Y-57160D01*
X46431Y-57139D01*
X46071Y-57500D01*
X46431Y-57861D01*
X46554Y-57840D01*
X46641Y-57603D01*
X46641Y-58603D01*
X46631Y-58349D01*
X46554Y-58160D01*
X46431Y-58139D01*
X46361Y-58209D01*
X46361Y-58069D01*
X46349Y-58000D01*
X46361Y-57931D01*
X46000Y-57571D01*
X45639Y-57931D01*
X45650Y-58000D01*
X45639Y-58069D01*
X46000Y-58429D01*
X46361Y-58069D01*
X46361Y-58209D01*
X46071Y-58500D01*
X46431Y-58861D01*
X46554Y-58840D01*
X46641Y-58603D01*
X46641Y-60630D01*
X46509Y-60576D01*
X46361Y-60576D01*
X46361Y-58931D01*
X46000Y-58571D01*
X45929Y-58641D01*
X45929Y-58500D01*
X45569Y-58139D01*
X45500Y-58150D01*
X45431Y-58139D01*
X45071Y-58500D01*
X45431Y-58861D01*
X45500Y-58849D01*
X45569Y-58861D01*
X45929Y-58500D01*
X45929Y-58641D01*
X45639Y-58931D01*
X45660Y-59054D01*
X45897Y-59141D01*
X46151Y-59131D01*
X46340Y-59054D01*
X46361Y-58931D01*
X46361Y-60576D01*
X46291Y-60576D01*
X46089Y-60660D01*
X45974Y-60775D01*
X45948Y-60775D01*
X45911Y-60684D01*
X45841Y-60614D01*
X45750Y-60576D01*
X45651Y-60576D01*
X45361Y-60576D01*
X45361Y-58931D01*
X45000Y-58571D01*
X44639Y-58931D01*
X44660Y-59054D01*
X44897Y-59141D01*
X45151Y-59131D01*
X45340Y-59054D01*
X45361Y-58931D01*
X45361Y-60576D01*
X45051Y-60576D01*
X44959Y-60614D01*
X44889Y-60684D01*
X44851Y-60775D01*
X44851Y-60874D01*
X44851Y-61005D01*
X44825Y-60988D01*
X44825Y-60941D01*
X44761Y-60785D01*
X44641Y-60665D01*
X44485Y-60600D01*
X44316Y-60600D01*
X44224Y-60637D01*
X44224Y-60176D01*
X44186Y-60084D01*
X44116Y-60014D01*
X44025Y-59976D01*
X43926Y-59976D01*
X43922Y-59976D01*
X43997Y-59945D01*
X44145Y-59798D01*
X44155Y-59773D01*
X44266Y-59848D01*
X44400Y-59875D01*
X44700Y-59875D01*
X44834Y-59848D01*
X44947Y-59772D01*
X45023Y-59659D01*
X45050Y-59525D01*
X45023Y-59391D01*
X44947Y-59278D01*
X44834Y-59202D01*
X44700Y-59175D01*
X44400Y-59175D01*
X44266Y-59202D01*
X44171Y-59265D01*
X44145Y-59203D01*
X43998Y-59055D01*
X43909Y-59018D01*
X44366Y-58600D01*
X44369Y-58651D01*
X44446Y-58840D01*
X44569Y-58861D01*
X44894Y-58535D01*
X44929Y-58500D01*
X45000Y-58429D01*
X45035Y-58394D01*
X45361Y-58069D01*
X45340Y-57946D01*
X45332Y-57943D01*
X45443Y-57832D01*
X45446Y-57840D01*
X45569Y-57861D01*
X45929Y-57500D01*
X45569Y-57139D01*
X45446Y-57160D01*
X45443Y-57167D01*
X45311Y-57035D01*
X45226Y-57000D01*
X45311Y-56965D01*
X45465Y-56811D01*
X45500Y-56726D01*
X45535Y-56811D01*
X45667Y-56943D01*
X45660Y-56946D01*
X45639Y-57069D01*
X46000Y-57429D01*
X46361Y-57069D01*
X46340Y-56946D01*
X46332Y-56943D01*
X46465Y-56811D01*
X46549Y-56609D01*
X46549Y-56391D01*
X46531Y-56350D01*
X48100Y-56350D01*
X48148Y-56340D01*
X48192Y-56337D01*
X48210Y-56327D01*
X48234Y-56323D01*
X48274Y-56295D01*
X48314Y-56276D01*
X48328Y-56259D01*
X48347Y-56247D01*
X48372Y-56208D01*
X48404Y-56173D01*
X48803Y-55473D01*
X48809Y-55454D01*
X48823Y-55434D01*
X48833Y-55380D01*
X48846Y-55344D01*
X48844Y-55326D01*
X48850Y-55300D01*
X48850Y-46251D01*
X48860Y-46241D01*
X48925Y-46085D01*
X48925Y-45916D01*
X48861Y-45760D01*
X48741Y-45640D01*
X48585Y-45575D01*
X48416Y-45575D01*
X48350Y-45602D01*
X48350Y-45151D01*
X48360Y-45141D01*
X48425Y-44985D01*
X48425Y-44816D01*
X48361Y-44660D01*
X48276Y-44575D01*
X48555Y-44575D01*
X49350Y-45369D01*
X49350Y-48674D01*
X49340Y-48684D01*
X49275Y-48840D01*
X49275Y-49009D01*
X49339Y-49165D01*
X49459Y-49285D01*
X49615Y-49350D01*
X49784Y-49350D01*
X49940Y-49286D01*
X50060Y-49166D01*
X50125Y-49010D01*
X50125Y-48841D01*
X50061Y-48685D01*
X50050Y-48674D01*
X50050Y-45225D01*
X50023Y-45091D01*
X49947Y-44978D01*
X49947Y-44977D01*
X48947Y-43978D01*
X48834Y-43902D01*
X48700Y-43875D01*
X46044Y-43875D01*
X45633Y-43463D01*
X45857Y-43557D01*
X46261Y-43557D01*
X46635Y-43403D01*
X46921Y-43117D01*
X46955Y-43035D01*
X47097Y-43177D01*
X47390Y-43299D01*
X47708Y-43299D01*
X48002Y-43178D01*
X48227Y-42953D01*
X48349Y-42660D01*
X48349Y-42342D01*
X48349Y-37660D01*
X48349Y-37342D01*
X48228Y-37048D01*
X48003Y-36823D01*
X47710Y-36701D01*
X47392Y-36701D01*
X47098Y-36822D01*
X46944Y-36976D01*
X46923Y-36925D01*
X46637Y-36639D01*
X46263Y-36483D01*
X45859Y-36483D01*
X45485Y-36637D01*
X45199Y-36923D01*
X45043Y-37297D01*
X45043Y-37701D01*
X45043Y-37741D01*
X45197Y-38115D01*
X45483Y-38401D01*
X45857Y-38557D01*
X46261Y-38557D01*
X46635Y-38403D01*
X46921Y-38117D01*
X46955Y-38035D01*
X47097Y-38177D01*
X47390Y-38299D01*
X47708Y-38299D01*
X48002Y-38178D01*
X48227Y-37953D01*
X48349Y-37660D01*
X48349Y-42342D01*
X48228Y-42048D01*
X48003Y-41823D01*
X47710Y-41701D01*
X47392Y-41701D01*
X47098Y-41822D01*
X46944Y-41976D01*
X46923Y-41925D01*
X46637Y-41639D01*
X46263Y-41483D01*
X45859Y-41483D01*
X45485Y-41637D01*
X45250Y-41872D01*
X45250Y-39174D01*
X45262Y-39113D01*
X45236Y-38980D01*
X45236Y-38979D01*
X45160Y-38866D01*
X45160Y-38865D01*
X43857Y-37562D01*
X43857Y-37299D01*
X43857Y-37259D01*
X43703Y-36885D01*
X43417Y-36599D01*
X43043Y-36443D01*
X42639Y-36443D01*
X42265Y-36597D01*
X41979Y-36883D01*
X41944Y-36964D01*
X41803Y-36823D01*
X41510Y-36701D01*
X41192Y-36701D01*
X40898Y-36822D01*
X40673Y-37047D01*
X40551Y-37340D01*
X40551Y-37658D01*
X40672Y-37952D01*
X40897Y-38177D01*
X41190Y-38299D01*
X41508Y-38299D01*
X41802Y-38178D01*
X41956Y-38024D01*
X41977Y-38075D01*
X42263Y-38361D01*
X42637Y-38517D01*
X43041Y-38517D01*
X43415Y-38363D01*
X43541Y-38236D01*
X44550Y-39244D01*
X44550Y-43055D01*
X44325Y-42830D01*
X44325Y-39705D01*
X44325Y-39496D01*
X44245Y-39303D01*
X44098Y-39155D01*
X43905Y-39075D01*
X43696Y-39075D01*
X43503Y-39155D01*
X43355Y-39302D01*
X43294Y-39448D01*
X43247Y-39378D01*
X43134Y-39302D01*
X43000Y-39275D01*
X42600Y-39275D01*
X42466Y-39302D01*
X42353Y-39378D01*
X42277Y-39491D01*
X42250Y-39625D01*
X42277Y-39759D01*
X42353Y-39872D01*
X42466Y-39948D01*
X42600Y-39975D01*
X43000Y-39975D01*
X43134Y-39948D01*
X43247Y-39872D01*
X43307Y-39782D01*
X43355Y-39897D01*
X43502Y-40045D01*
X43576Y-40076D01*
X43476Y-40076D01*
X43384Y-40114D01*
X43314Y-40184D01*
X43276Y-40275D01*
X43276Y-40374D01*
X43276Y-40924D01*
X43314Y-41016D01*
X43384Y-41086D01*
X43475Y-41124D01*
X43574Y-41124D01*
X44124Y-41124D01*
X44216Y-41086D01*
X44286Y-41016D01*
X44324Y-40925D01*
X44324Y-40826D01*
X44324Y-40276D01*
X44286Y-40184D01*
X44216Y-40114D01*
X44125Y-40076D01*
X44026Y-40076D01*
X44022Y-40076D01*
X44097Y-40045D01*
X44245Y-39898D01*
X44325Y-39705D01*
X44325Y-42830D01*
X43857Y-42362D01*
X43857Y-42299D01*
X43857Y-42259D01*
X43703Y-41885D01*
X43417Y-41599D01*
X43043Y-41443D01*
X42639Y-41443D01*
X42265Y-41597D01*
X41979Y-41883D01*
X41944Y-41964D01*
X41803Y-41823D01*
X41510Y-41701D01*
X41192Y-41701D01*
X40950Y-41800D01*
X40950Y-39300D01*
X40944Y-39273D01*
X40946Y-39245D01*
X40930Y-39202D01*
X40923Y-39166D01*
X40909Y-39146D01*
X40899Y-39117D01*
X40297Y-38130D01*
X40351Y-38077D01*
X40507Y-37703D01*
X40507Y-37299D01*
X40507Y-37259D01*
X40353Y-36885D01*
X40067Y-36599D01*
X39693Y-36443D01*
X39451Y-36443D01*
X39947Y-35948D01*
X39947Y-35947D01*
X40023Y-35834D01*
X40049Y-35700D01*
X40050Y-35700D01*
X40050Y-34676D01*
X40060Y-34666D01*
X40125Y-34510D01*
X40125Y-34341D01*
X40061Y-34185D01*
X40021Y-34145D01*
X43412Y-34145D01*
X43355Y-34202D01*
X43294Y-34348D01*
X43247Y-34278D01*
X43134Y-34202D01*
X43000Y-34175D01*
X42500Y-34175D01*
X42366Y-34202D01*
X42253Y-34278D01*
X42177Y-34391D01*
X42150Y-34525D01*
X42177Y-34659D01*
X42253Y-34772D01*
X42366Y-34848D01*
X42500Y-34875D01*
X43000Y-34875D01*
X43134Y-34848D01*
X43247Y-34772D01*
X43307Y-34682D01*
X43355Y-34797D01*
X43502Y-34945D01*
X43576Y-34976D01*
X43476Y-34976D01*
X43384Y-35014D01*
X43314Y-35084D01*
X43276Y-35175D01*
X43276Y-35274D01*
X43276Y-35824D01*
X43314Y-35916D01*
X43384Y-35986D01*
X43475Y-36024D01*
X43574Y-36024D01*
X44124Y-36024D01*
X44216Y-35986D01*
X44286Y-35916D01*
X44324Y-35825D01*
X44324Y-35726D01*
X44324Y-35176D01*
X44286Y-35084D01*
X44216Y-35014D01*
X44125Y-34976D01*
X44026Y-34976D01*
X44022Y-34976D01*
X44097Y-34945D01*
X44245Y-34798D01*
X44325Y-34605D01*
X44325Y-34396D01*
X44245Y-34203D01*
X44187Y-34145D01*
X50375Y-34145D01*
X50375Y-37172D01*
X50273Y-36925D01*
X49987Y-36639D01*
X49613Y-36483D01*
X49209Y-36483D01*
X48835Y-36637D01*
X48549Y-36923D01*
X48393Y-37297D01*
X48393Y-37701D01*
X48393Y-37741D01*
X48547Y-38115D01*
X48833Y-38401D01*
X49207Y-38557D01*
X49611Y-38557D01*
X49985Y-38403D01*
X50271Y-38117D01*
X50375Y-37867D01*
X50375Y-42172D01*
X50273Y-41925D01*
X49987Y-41639D01*
X49613Y-41483D01*
X49209Y-41483D01*
X48835Y-41637D01*
X48549Y-41923D01*
X48393Y-42297D01*
X48393Y-42701D01*
X48393Y-42741D01*
X48547Y-43115D01*
X48833Y-43401D01*
X49207Y-43557D01*
X49611Y-43557D01*
X49985Y-43403D01*
X50271Y-43117D01*
X50375Y-42867D01*
X50375Y-60250D01*
X50380Y-60275D01*
M02*
